G75*
%MOIN*%
%OFA0B0*%
%FSLAX25Y25*%
%IPPOS*%
%LPD*%
%AMOC8*
5,1,8,0,0,1.08239X$1,22.5*
%
%ADD10R,0.05906X0.05118*%
%ADD11R,0.07087X0.06299*%
%ADD12C,0.06000*%
%ADD13OC8,0.06000*%
%ADD14C,0.05800*%
%ADD15R,0.06299X0.07087*%
%ADD16R,0.05118X0.05906*%
%ADD17C,0.07800*%
%ADD18C,0.06600*%
%ADD19C,0.07087*%
%ADD20R,0.09843X0.16929*%
%ADD21C,0.03200*%
%ADD22C,0.01600*%
%ADD23R,0.03962X0.03962*%
%ADD24C,0.02400*%
%ADD25C,0.05000*%
%ADD26C,0.08600*%
%ADD27C,0.15000*%
%ADD28C,0.10000*%
D10*
X0299838Y0287239D03*
X0299838Y0294720D03*
X0297672Y0306334D03*
X0297672Y0313814D03*
X0342357Y0285468D03*
X0342357Y0277987D03*
X0401806Y0240980D03*
X0401806Y0233499D03*
D11*
X0413617Y0232909D03*
X0413617Y0243932D03*
X0313814Y0283893D03*
X0313814Y0294917D03*
X0311846Y0306137D03*
X0311846Y0317161D03*
D12*
X0320940Y0400775D02*
X0320940Y0406775D01*
X0330940Y0406775D02*
X0330940Y0400775D01*
X0340940Y0400775D02*
X0340940Y0406775D01*
X0340940Y0440145D02*
X0340940Y0446145D01*
X0330940Y0446145D02*
X0330940Y0440145D01*
X0320940Y0440145D02*
X0320940Y0446145D01*
X0320940Y0479515D02*
X0320940Y0485515D01*
X0330940Y0485515D02*
X0330940Y0479515D01*
X0340940Y0479515D02*
X0340940Y0485515D01*
X0400775Y0404090D02*
X0406775Y0404090D01*
X0406775Y0394090D02*
X0400775Y0394090D01*
X0400775Y0384090D02*
X0406775Y0384090D01*
X0406775Y0374090D02*
X0400775Y0374090D01*
X0400775Y0364090D02*
X0406775Y0364090D01*
X0427239Y0375184D02*
X0427239Y0381184D01*
X0437239Y0381184D02*
X0437239Y0375184D01*
X0447239Y0375184D02*
X0447239Y0381184D01*
X0447239Y0337877D02*
X0447239Y0331877D01*
X0437239Y0331877D02*
X0437239Y0337877D01*
X0427239Y0337877D02*
X0427239Y0331877D01*
X0427239Y0296539D02*
X0427239Y0290539D01*
X0437239Y0290539D02*
X0437239Y0296539D01*
X0447239Y0296539D02*
X0447239Y0290539D01*
X0446050Y0433145D02*
X0452050Y0433145D01*
X0452050Y0443145D02*
X0446050Y0443145D01*
X0446050Y0453145D02*
X0452050Y0453145D01*
X0461602Y0451373D02*
X0467602Y0451373D01*
X0467602Y0461373D02*
X0461602Y0461373D01*
X0461602Y0471373D02*
X0467602Y0471373D01*
X0467602Y0481373D02*
X0461602Y0481373D01*
D13*
X0453578Y0419129D03*
X0447239Y0402869D03*
X0437239Y0402869D03*
X0427239Y0402869D03*
X0427239Y0392869D03*
X0437239Y0392869D03*
X0447239Y0392869D03*
X0447239Y0359562D03*
X0437239Y0359562D03*
X0427239Y0359562D03*
X0427239Y0349562D03*
X0437239Y0349562D03*
X0447239Y0349562D03*
X0447239Y0318224D03*
X0437239Y0318224D03*
X0437239Y0308224D03*
X0447239Y0308224D03*
X0427239Y0308224D03*
X0427239Y0318224D03*
X0340940Y0418460D03*
X0340940Y0428460D03*
X0330940Y0428460D03*
X0330940Y0418460D03*
X0320940Y0418460D03*
X0320940Y0428460D03*
X0320940Y0457830D03*
X0320940Y0467830D03*
X0330940Y0467830D03*
X0340940Y0467830D03*
X0340940Y0457830D03*
X0330940Y0457830D03*
X0330940Y0497200D03*
X0330940Y0507200D03*
X0340940Y0507200D03*
X0340940Y0497200D03*
X0320940Y0497200D03*
X0320940Y0507200D03*
D14*
X0354090Y0504090D03*
X0354090Y0494090D03*
X0354090Y0484090D03*
X0354090Y0474090D03*
X0354090Y0464090D03*
X0354090Y0454090D03*
X0354090Y0444090D03*
X0354090Y0434090D03*
X0354090Y0424090D03*
X0354090Y0414090D03*
X0354090Y0404090D03*
X0354090Y0394090D03*
X0354090Y0384090D03*
X0354090Y0374090D03*
X0354090Y0364090D03*
X0354090Y0354090D03*
X0354090Y0344090D03*
X0354090Y0334090D03*
X0354090Y0324090D03*
X0364090Y0324090D03*
X0364090Y0314090D03*
X0354090Y0314090D03*
X0354090Y0304090D03*
X0364090Y0304090D03*
X0354090Y0294090D03*
X0354090Y0284090D03*
X0364090Y0284090D03*
X0354090Y0274090D03*
X0414090Y0274090D03*
X0414090Y0284090D03*
X0414090Y0294090D03*
X0414090Y0304090D03*
X0414090Y0314090D03*
X0414090Y0324090D03*
X0414090Y0334090D03*
X0414090Y0344090D03*
X0414090Y0354090D03*
X0414090Y0364090D03*
X0414090Y0374090D03*
X0414090Y0384090D03*
X0414090Y0394090D03*
X0414090Y0404090D03*
X0414090Y0414090D03*
X0414090Y0424090D03*
X0414090Y0434090D03*
X0414090Y0444090D03*
X0414090Y0454090D03*
X0414090Y0464090D03*
X0414090Y0474090D03*
X0414090Y0484090D03*
X0414090Y0494090D03*
X0414090Y0504090D03*
D15*
X0464405Y0410861D03*
X0475428Y0410861D03*
X0375822Y0275231D03*
X0364798Y0275231D03*
X0471885Y0251019D03*
X0482909Y0251019D03*
D16*
X0479759Y0264011D03*
X0472279Y0264011D03*
X0316964Y0327003D03*
X0309483Y0327003D03*
X0309483Y0338814D03*
X0316964Y0338814D03*
X0316964Y0350625D03*
X0309483Y0350625D03*
X0309483Y0362436D03*
X0316964Y0362436D03*
X0316964Y0374247D03*
X0309483Y0374247D03*
X0309483Y0386058D03*
X0316964Y0386058D03*
X0466964Y0420901D03*
X0474444Y0420901D03*
D17*
X0397927Y0525859D02*
X0397927Y0533659D01*
X0378227Y0533659D02*
X0378227Y0525859D01*
X0348320Y0223817D02*
X0348320Y0216017D01*
X0328620Y0216017D02*
X0328620Y0223817D01*
D18*
X0373027Y0223217D02*
X0373027Y0216617D01*
X0388027Y0216617D02*
X0388027Y0223217D01*
X0403027Y0223217D02*
X0403027Y0216617D01*
X0424208Y0216617D02*
X0424208Y0223217D01*
X0439208Y0223217D02*
X0439208Y0216617D01*
X0454208Y0216617D02*
X0454208Y0223217D01*
X0466767Y0250231D02*
X0466767Y0258106D01*
X0466767Y0372279D01*
X0474641Y0380153D01*
X0481885Y0380153D01*
X0478585Y0380153D02*
X0485185Y0380153D01*
X0485185Y0390153D02*
X0478585Y0390153D01*
X0466767Y0393539D02*
X0466767Y0372279D01*
X0478585Y0370153D02*
X0485185Y0370153D01*
X0466767Y0393539D02*
X0475428Y0402200D01*
X0475428Y0410861D01*
X0474444Y0411846D01*
X0474444Y0420901D01*
X0474444Y0441531D01*
X0464602Y0451373D01*
X0331642Y0315350D02*
X0325042Y0315350D01*
X0325042Y0305350D02*
X0331642Y0305350D01*
X0331642Y0295350D02*
X0325042Y0295350D01*
D19*
X0325428Y0331531D02*
X0332515Y0331531D01*
X0332515Y0341531D02*
X0325428Y0341531D01*
X0325428Y0351531D02*
X0332515Y0351531D01*
X0332515Y0361531D02*
X0325428Y0361531D01*
X0325428Y0371531D02*
X0332515Y0371531D01*
X0332515Y0381531D02*
X0325428Y0381531D01*
X0297082Y0381531D02*
X0289995Y0381531D01*
X0289995Y0371531D02*
X0297082Y0371531D01*
X0297082Y0361531D02*
X0289995Y0361531D01*
X0289995Y0351531D02*
X0297082Y0351531D01*
X0297082Y0341531D02*
X0289995Y0341531D01*
X0289995Y0331531D02*
X0297082Y0331531D01*
D20*
X0384090Y0466176D03*
X0384090Y0498854D03*
D21*
X0311846Y0306137D02*
X0297869Y0306137D01*
X0297672Y0306334D01*
X0300035Y0294917D02*
X0299838Y0294720D01*
X0300035Y0294917D02*
X0313814Y0294917D01*
X0327909Y0294917D01*
X0328342Y0295350D01*
X0329169Y0294523D01*
X0329169Y0269523D01*
X0348854Y0249838D01*
X0368145Y0249838D01*
X0388027Y0229956D01*
X0388027Y0219917D01*
D22*
X0466767Y0250231D02*
X0467554Y0251019D01*
X0471885Y0251019D01*
X0466767Y0258106D02*
X0472279Y0263617D01*
X0472279Y0264011D01*
X0427239Y0293539D02*
X0416688Y0304090D01*
X0414090Y0304090D01*
X0421373Y0314090D02*
X0427239Y0308224D01*
X0421373Y0314090D02*
X0414090Y0314090D01*
X0414090Y0324090D02*
X0421373Y0324090D01*
X0427239Y0318224D01*
X0427239Y0334877D02*
X0414877Y0334877D01*
X0414090Y0334090D01*
X0414090Y0344090D02*
X0419562Y0349562D01*
X0427239Y0349562D01*
X0419562Y0359562D02*
X0414090Y0354090D01*
X0419562Y0359562D02*
X0427239Y0359562D01*
X0419326Y0367554D02*
X0419326Y0370271D01*
X0427239Y0378184D01*
X0421885Y0379956D02*
X0421885Y0387515D01*
X0427239Y0392869D01*
X0419523Y0395153D02*
X0427239Y0402869D01*
X0419523Y0395153D02*
X0419523Y0388027D01*
X0415586Y0384090D01*
X0414090Y0384090D01*
X0421885Y0379956D02*
X0416019Y0374090D01*
X0414090Y0374090D01*
X0419326Y0367554D02*
X0415861Y0364090D01*
X0414090Y0364090D01*
X0403775Y0374090D02*
X0384090Y0374090D01*
X0354090Y0344090D01*
X0346649Y0341531D02*
X0354090Y0334090D01*
X0346649Y0331531D02*
X0354090Y0324090D01*
X0346649Y0331531D02*
X0328972Y0331531D01*
X0328972Y0341531D02*
X0346649Y0341531D01*
X0341531Y0351531D02*
X0354090Y0364090D01*
X0354090Y0354090D02*
X0384090Y0384090D01*
X0403775Y0384090D01*
X0354090Y0384090D02*
X0341531Y0371531D01*
X0328972Y0371531D01*
X0328972Y0361531D02*
X0341531Y0361531D01*
X0354090Y0374090D01*
X0341531Y0381531D02*
X0354090Y0394090D01*
X0340940Y0403775D02*
X0340940Y0409838D01*
X0354090Y0422987D01*
X0354090Y0424090D01*
X0354090Y0434090D02*
X0340940Y0420940D01*
X0340940Y0418460D01*
X0340940Y0428460D02*
X0340940Y0430940D01*
X0354090Y0444090D01*
X0354090Y0454090D02*
X0343145Y0443145D01*
X0340940Y0443145D01*
X0340940Y0457830D02*
X0347830Y0457830D01*
X0354090Y0464090D01*
X0347830Y0467830D02*
X0354090Y0474090D01*
X0352515Y0482515D02*
X0354090Y0484090D01*
X0352515Y0482515D02*
X0340940Y0482515D01*
X0340940Y0497200D02*
X0350980Y0497200D01*
X0354090Y0494090D01*
X0354090Y0504090D02*
X0350980Y0507200D01*
X0340940Y0507200D01*
X0340940Y0467830D02*
X0347830Y0467830D01*
X0341531Y0381531D02*
X0328972Y0381531D01*
X0309483Y0386058D02*
X0298066Y0386058D01*
X0293539Y0381531D01*
X0296255Y0374247D02*
X0293539Y0371531D01*
X0296255Y0374247D02*
X0309483Y0374247D01*
X0309483Y0362436D02*
X0294444Y0362436D01*
X0293539Y0361531D01*
X0293539Y0351531D02*
X0294444Y0350625D01*
X0309483Y0350625D01*
X0309483Y0338814D02*
X0296255Y0338814D01*
X0293539Y0341531D01*
X0293539Y0331531D02*
X0298066Y0327003D01*
X0309483Y0327003D01*
X0311846Y0306137D02*
X0328342Y0306137D01*
X0331294Y0309090D01*
X0369523Y0309090D01*
X0328342Y0306137D02*
X0328342Y0305350D01*
X0328972Y0351531D02*
X0341531Y0351531D01*
D23*
X0369523Y0309090D03*
X0388027Y0250231D03*
D24*
X0277290Y0240818D02*
X0275117Y0238309D01*
X0275117Y0529871D01*
X0277290Y0527362D01*
X0277290Y0527362D01*
X0281792Y0524469D01*
X0286926Y0522961D01*
X0292277Y0522961D01*
X0297411Y0524469D01*
X0297411Y0524469D01*
X0301913Y0527362D01*
X0305417Y0531406D01*
X0307640Y0536273D01*
X0307640Y0536274D01*
X0308402Y0541570D01*
X0307640Y0546867D01*
X0305417Y0551734D01*
X0301913Y0555778D01*
X0301482Y0556055D01*
X0377119Y0556055D01*
X0375454Y0554390D01*
X0374098Y0552042D01*
X0373396Y0549422D01*
X0373396Y0548986D01*
X0371902Y0547492D01*
X0369985Y0545575D01*
X0368629Y0543226D01*
X0367927Y0540606D01*
X0367927Y0528403D01*
X0368629Y0525783D01*
X0369985Y0523435D01*
X0371902Y0521517D01*
X0374251Y0520161D01*
X0374886Y0519991D01*
X0375001Y0519943D01*
X0376290Y0518654D01*
X0376290Y0497302D01*
X0376369Y0497112D01*
X0376369Y0489832D01*
X0376795Y0488803D01*
X0377582Y0488015D01*
X0378612Y0487589D01*
X0389568Y0487589D01*
X0390597Y0488015D01*
X0391385Y0488803D01*
X0391811Y0489832D01*
X0391811Y0497112D01*
X0391890Y0497302D01*
X0391890Y0523437D01*
X0390702Y0526303D01*
X0388527Y0528479D01*
X0388527Y0534984D01*
X0391506Y0537963D01*
X0393604Y0537963D01*
X0393274Y0537633D01*
X0392710Y0536856D01*
X0392274Y0536001D01*
X0391977Y0535087D01*
X0391827Y0534139D01*
X0391827Y0529859D01*
X0397827Y0529859D01*
X0397827Y0529659D01*
X0398027Y0529659D01*
X0398027Y0529859D01*
X0404027Y0529859D01*
X0404027Y0534139D01*
X0403877Y0535087D01*
X0403580Y0536001D01*
X0403144Y0536856D01*
X0402580Y0537633D01*
X0402250Y0537963D01*
X0416831Y0537963D01*
X0421428Y0533367D01*
X0421428Y0434159D01*
X0421034Y0432690D01*
X0421034Y0420135D01*
X0421736Y0417516D01*
X0423092Y0415167D01*
X0424076Y0414183D01*
X0428356Y0409903D01*
X0429439Y0409277D01*
X0429439Y0408669D01*
X0424837Y0408669D01*
X0421439Y0405272D01*
X0421439Y0402160D01*
X0417760Y0398481D01*
X0417760Y0398481D01*
X0417319Y0398922D01*
X0416913Y0399090D01*
X0417319Y0399258D01*
X0418922Y0400861D01*
X0419790Y0402956D01*
X0419790Y0405224D01*
X0418922Y0407319D01*
X0417319Y0408922D01*
X0416913Y0409090D01*
X0417319Y0409258D01*
X0418922Y0410861D01*
X0419790Y0412956D01*
X0419790Y0415224D01*
X0418922Y0417319D01*
X0417319Y0418922D01*
X0416913Y0419090D01*
X0417319Y0419258D01*
X0418922Y0420861D01*
X0419790Y0422956D01*
X0419790Y0425224D01*
X0418922Y0427319D01*
X0417319Y0428922D01*
X0416913Y0429090D01*
X0417319Y0429258D01*
X0418922Y0430861D01*
X0419790Y0432956D01*
X0419790Y0435224D01*
X0418922Y0437319D01*
X0417319Y0438922D01*
X0416913Y0439090D01*
X0417319Y0439258D01*
X0418922Y0440861D01*
X0419790Y0442956D01*
X0419790Y0445224D01*
X0418922Y0447319D01*
X0417319Y0448922D01*
X0416913Y0449090D01*
X0417319Y0449258D01*
X0418922Y0450861D01*
X0419790Y0452956D01*
X0419790Y0455224D01*
X0418922Y0457319D01*
X0417319Y0458922D01*
X0416913Y0459090D01*
X0417319Y0459258D01*
X0418922Y0460861D01*
X0419790Y0462956D01*
X0419790Y0465224D01*
X0418922Y0467319D01*
X0417319Y0468922D01*
X0416913Y0469090D01*
X0417319Y0469258D01*
X0418922Y0470861D01*
X0419790Y0472956D01*
X0419790Y0475224D01*
X0418922Y0477319D01*
X0417319Y0478922D01*
X0416913Y0479090D01*
X0417319Y0479258D01*
X0418922Y0480861D01*
X0419790Y0482956D01*
X0419790Y0485224D01*
X0418922Y0487319D01*
X0417319Y0488922D01*
X0416913Y0489090D01*
X0417319Y0489258D01*
X0418922Y0490861D01*
X0419790Y0492956D01*
X0419790Y0495224D01*
X0418922Y0497319D01*
X0417319Y0498922D01*
X0416913Y0499090D01*
X0417319Y0499258D01*
X0418922Y0500861D01*
X0419790Y0502956D01*
X0419790Y0505224D01*
X0418922Y0507319D01*
X0417319Y0508922D01*
X0415224Y0509790D01*
X0412956Y0509790D01*
X0410861Y0508922D01*
X0409258Y0507319D01*
X0408390Y0505224D01*
X0408390Y0502956D01*
X0409258Y0500861D01*
X0410861Y0499258D01*
X0411266Y0499090D01*
X0410861Y0498922D01*
X0409258Y0497319D01*
X0408390Y0495224D01*
X0408390Y0492956D01*
X0409258Y0490861D01*
X0410861Y0489258D01*
X0411266Y0489090D01*
X0410861Y0488922D01*
X0409258Y0487319D01*
X0408390Y0485224D01*
X0408390Y0482956D01*
X0409258Y0480861D01*
X0410861Y0479258D01*
X0411266Y0479090D01*
X0410861Y0478922D01*
X0409258Y0477319D01*
X0408390Y0475224D01*
X0408390Y0472956D01*
X0409258Y0470861D01*
X0410861Y0469258D01*
X0411266Y0469090D01*
X0410861Y0468922D01*
X0409258Y0467319D01*
X0408390Y0465224D01*
X0408390Y0462956D01*
X0409258Y0460861D01*
X0410861Y0459258D01*
X0411266Y0459090D01*
X0410861Y0458922D01*
X0409258Y0457319D01*
X0408390Y0455224D01*
X0408390Y0452956D01*
X0409258Y0450861D01*
X0410861Y0449258D01*
X0411266Y0449090D01*
X0410861Y0448922D01*
X0409258Y0447319D01*
X0408390Y0445224D01*
X0408390Y0442956D01*
X0409258Y0440861D01*
X0410861Y0439258D01*
X0411266Y0439090D01*
X0410861Y0438922D01*
X0409258Y0437319D01*
X0408390Y0435224D01*
X0408390Y0432956D01*
X0409258Y0430861D01*
X0410861Y0429258D01*
X0411266Y0429090D01*
X0410861Y0428922D01*
X0409258Y0427319D01*
X0408390Y0425224D01*
X0408390Y0422956D01*
X0409258Y0420861D01*
X0410861Y0419258D01*
X0411266Y0419090D01*
X0410861Y0418922D01*
X0409258Y0417319D01*
X0408390Y0415224D01*
X0408390Y0412956D01*
X0409258Y0410861D01*
X0410861Y0409258D01*
X0411266Y0409090D01*
X0410861Y0408922D01*
X0410503Y0408564D01*
X0410060Y0409007D01*
X0407928Y0409890D01*
X0399621Y0409890D01*
X0397489Y0409007D01*
X0395858Y0407375D01*
X0394975Y0405243D01*
X0394975Y0402936D01*
X0395858Y0400804D01*
X0397489Y0399173D01*
X0398486Y0398760D01*
X0398049Y0398537D01*
X0397387Y0398056D01*
X0396808Y0397477D01*
X0396327Y0396815D01*
X0395956Y0396086D01*
X0395703Y0395307D01*
X0395575Y0394499D01*
X0395575Y0394090D01*
X0403775Y0394090D01*
X0403775Y0394090D01*
X0395575Y0394090D01*
X0395575Y0393680D01*
X0395703Y0392872D01*
X0395956Y0392094D01*
X0396327Y0391364D01*
X0396808Y0390702D01*
X0397387Y0390123D01*
X0398049Y0389642D01*
X0398486Y0389420D01*
X0397489Y0389007D01*
X0396172Y0387690D01*
X0383374Y0387690D01*
X0382051Y0387142D01*
X0381038Y0386129D01*
X0359790Y0364881D01*
X0359790Y0365224D01*
X0358922Y0367319D01*
X0357319Y0368922D01*
X0356914Y0369090D01*
X0357319Y0369258D01*
X0358922Y0370861D01*
X0359790Y0372956D01*
X0359790Y0375224D01*
X0358922Y0377319D01*
X0357319Y0378922D01*
X0356913Y0379090D01*
X0357319Y0379258D01*
X0358922Y0380861D01*
X0359790Y0382956D01*
X0359790Y0385224D01*
X0358922Y0387319D01*
X0357319Y0388922D01*
X0356913Y0389090D01*
X0357319Y0389258D01*
X0358922Y0390861D01*
X0359790Y0392956D01*
X0359790Y0395224D01*
X0358922Y0397319D01*
X0357319Y0398922D01*
X0356913Y0399090D01*
X0357319Y0399258D01*
X0358922Y0400861D01*
X0359790Y0402956D01*
X0359790Y0405224D01*
X0358922Y0407319D01*
X0357319Y0408922D01*
X0356140Y0409410D01*
X0356763Y0409728D01*
X0357412Y0410200D01*
X0357980Y0410767D01*
X0358452Y0411417D01*
X0358816Y0412132D01*
X0359064Y0412895D01*
X0359190Y0413688D01*
X0359190Y0414090D01*
X0359190Y0414491D01*
X0359064Y0415284D01*
X0358816Y0416047D01*
X0358452Y0416763D01*
X0357980Y0417412D01*
X0357412Y0417980D01*
X0356763Y0418452D01*
X0356140Y0418769D01*
X0357319Y0419258D01*
X0358922Y0420861D01*
X0359790Y0422956D01*
X0359790Y0425224D01*
X0358922Y0427319D01*
X0357319Y0428922D01*
X0356913Y0429090D01*
X0357319Y0429258D01*
X0358922Y0430861D01*
X0359790Y0432956D01*
X0359790Y0435224D01*
X0358922Y0437319D01*
X0357319Y0438922D01*
X0356913Y0439090D01*
X0357319Y0439258D01*
X0358922Y0440861D01*
X0359790Y0442956D01*
X0359790Y0445224D01*
X0358922Y0447319D01*
X0357319Y0448922D01*
X0356913Y0449090D01*
X0357319Y0449258D01*
X0358922Y0450861D01*
X0359790Y0452956D01*
X0359790Y0455224D01*
X0358922Y0457319D01*
X0357319Y0458922D01*
X0356913Y0459090D01*
X0357319Y0459258D01*
X0358922Y0460861D01*
X0359790Y0462956D01*
X0359790Y0465224D01*
X0358922Y0467319D01*
X0357319Y0468922D01*
X0356913Y0469090D01*
X0357319Y0469258D01*
X0358922Y0470861D01*
X0359790Y0472956D01*
X0359790Y0475224D01*
X0358922Y0477319D01*
X0357319Y0478922D01*
X0356913Y0479090D01*
X0357319Y0479258D01*
X0358922Y0480861D01*
X0359790Y0482956D01*
X0359790Y0485224D01*
X0358922Y0487319D01*
X0357319Y0488922D01*
X0356914Y0489090D01*
X0357319Y0489258D01*
X0358922Y0490861D01*
X0359790Y0492956D01*
X0359790Y0495224D01*
X0358922Y0497319D01*
X0357319Y0498922D01*
X0356914Y0499090D01*
X0357319Y0499258D01*
X0358922Y0500861D01*
X0359790Y0502956D01*
X0359790Y0505224D01*
X0358922Y0507319D01*
X0357319Y0508922D01*
X0355224Y0509790D01*
X0353481Y0509790D01*
X0353019Y0510252D01*
X0351696Y0510800D01*
X0345543Y0510800D01*
X0343343Y0513000D01*
X0338538Y0513000D01*
X0335940Y0510402D01*
X0333343Y0513000D01*
X0328538Y0513000D01*
X0325516Y0509978D01*
X0323094Y0512400D01*
X0320940Y0512400D01*
X0318786Y0512400D01*
X0315740Y0509354D01*
X0315740Y0507200D01*
X0320940Y0507200D01*
X0320940Y0507200D01*
X0315740Y0507200D01*
X0315740Y0505046D01*
X0318586Y0502200D01*
X0315740Y0499354D01*
X0315740Y0497200D01*
X0320940Y0497200D01*
X0320940Y0497200D01*
X0315740Y0497200D01*
X0315740Y0495046D01*
X0318786Y0492000D01*
X0320940Y0492000D01*
X0320940Y0497200D01*
X0320940Y0502000D01*
X0320940Y0507200D01*
X0320940Y0512400D01*
X0320940Y0507200D01*
X0320940Y0507200D01*
X0320940Y0507200D01*
X0320940Y0497200D01*
X0320940Y0497200D01*
X0320940Y0497200D01*
X0320940Y0492000D01*
X0323094Y0492000D01*
X0323840Y0492746D01*
X0323840Y0489836D01*
X0323666Y0489962D01*
X0322936Y0490334D01*
X0322158Y0490587D01*
X0321349Y0490715D01*
X0320940Y0490715D01*
X0320531Y0490715D01*
X0319722Y0490587D01*
X0318944Y0490334D01*
X0318215Y0489962D01*
X0317553Y0489481D01*
X0316974Y0488903D01*
X0316493Y0488240D01*
X0316121Y0487511D01*
X0315868Y0486733D01*
X0315740Y0485924D01*
X0315740Y0482515D01*
X0320940Y0482515D01*
X0320940Y0482515D01*
X0315740Y0482515D01*
X0315740Y0479106D01*
X0315868Y0478297D01*
X0316121Y0477519D01*
X0316493Y0476790D01*
X0316974Y0476127D01*
X0317553Y0475549D01*
X0318215Y0475068D01*
X0318944Y0474696D01*
X0319722Y0474443D01*
X0320531Y0474315D01*
X0320940Y0474315D01*
X0320940Y0482515D01*
X0320940Y0490715D01*
X0320940Y0482515D01*
X0320940Y0482515D01*
X0320940Y0482515D01*
X0320940Y0474315D01*
X0321349Y0474315D01*
X0322158Y0474443D01*
X0322936Y0474696D01*
X0323666Y0475068D01*
X0323840Y0475194D01*
X0323840Y0472284D01*
X0323094Y0473030D01*
X0320940Y0473030D01*
X0318786Y0473030D01*
X0315740Y0469984D01*
X0315740Y0467830D01*
X0320940Y0467830D01*
X0320940Y0467830D01*
X0320940Y0473030D01*
X0320940Y0467830D01*
X0320940Y0467830D01*
X0315740Y0467830D01*
X0315740Y0465676D01*
X0318586Y0462830D01*
X0315740Y0459984D01*
X0315740Y0457830D01*
X0320940Y0457830D01*
X0320940Y0457830D01*
X0320940Y0463030D01*
X0320940Y0467830D01*
X0320940Y0467830D01*
X0320940Y0457830D01*
X0320940Y0457830D01*
X0315740Y0457830D01*
X0315740Y0455676D01*
X0318786Y0452630D01*
X0320940Y0452630D01*
X0320940Y0457830D01*
X0320940Y0457830D01*
X0320940Y0452630D01*
X0323094Y0452630D01*
X0323840Y0453376D01*
X0323840Y0450465D01*
X0323666Y0450592D01*
X0322936Y0450964D01*
X0322158Y0451217D01*
X0321349Y0451345D01*
X0320940Y0451345D01*
X0320531Y0451345D01*
X0319722Y0451217D01*
X0318944Y0450964D01*
X0318215Y0450592D01*
X0317553Y0450111D01*
X0316974Y0449532D01*
X0316493Y0448870D01*
X0316121Y0448141D01*
X0315868Y0447363D01*
X0315740Y0446554D01*
X0315740Y0443145D01*
X0320940Y0443145D01*
X0320940Y0443145D01*
X0320940Y0451345D01*
X0320940Y0443145D01*
X0320940Y0443145D01*
X0315740Y0443145D01*
X0315740Y0439736D01*
X0315868Y0438927D01*
X0316121Y0438149D01*
X0316493Y0437419D01*
X0316974Y0436757D01*
X0317553Y0436179D01*
X0318215Y0435697D01*
X0318944Y0435326D01*
X0319722Y0435073D01*
X0320531Y0434945D01*
X0320940Y0434945D01*
X0320940Y0443145D01*
X0320940Y0443145D01*
X0320940Y0434945D01*
X0321349Y0434945D01*
X0322158Y0435073D01*
X0322936Y0435326D01*
X0323666Y0435697D01*
X0323840Y0435824D01*
X0323840Y0432914D01*
X0323094Y0433660D01*
X0320940Y0433660D01*
X0318786Y0433660D01*
X0315740Y0430614D01*
X0315740Y0428460D01*
X0320940Y0428460D01*
X0320940Y0433660D01*
X0320940Y0428460D01*
X0320940Y0428460D01*
X0320940Y0428460D01*
X0315740Y0428460D01*
X0315740Y0426306D01*
X0318586Y0423460D01*
X0315740Y0420614D01*
X0315740Y0418460D01*
X0320940Y0418460D01*
X0320940Y0423660D01*
X0320940Y0428460D01*
X0320940Y0428460D01*
X0320940Y0418460D01*
X0320940Y0418460D01*
X0320940Y0418460D01*
X0315740Y0418460D01*
X0315740Y0416306D01*
X0318786Y0413260D01*
X0320940Y0413260D01*
X0320940Y0418460D01*
X0320940Y0418460D01*
X0320940Y0413260D01*
X0323094Y0413260D01*
X0323840Y0414006D01*
X0323840Y0411095D01*
X0323666Y0411222D01*
X0322936Y0411594D01*
X0322158Y0411847D01*
X0321349Y0411975D01*
X0320940Y0411975D01*
X0320531Y0411975D01*
X0319722Y0411847D01*
X0318944Y0411594D01*
X0318215Y0411222D01*
X0317553Y0410741D01*
X0316974Y0410162D01*
X0316493Y0409500D01*
X0316121Y0408771D01*
X0315868Y0407992D01*
X0315740Y0407184D01*
X0315740Y0403775D01*
X0320940Y0403775D01*
X0320940Y0411975D01*
X0320940Y0403775D01*
X0320940Y0403775D01*
X0320940Y0403775D01*
X0315740Y0403775D01*
X0315740Y0400366D01*
X0315868Y0399557D01*
X0316121Y0398779D01*
X0316493Y0398049D01*
X0316974Y0397387D01*
X0317553Y0396808D01*
X0318215Y0396327D01*
X0318944Y0395956D01*
X0319722Y0395703D01*
X0320531Y0395575D01*
X0320940Y0395575D01*
X0320940Y0403775D01*
X0320940Y0403775D01*
X0320940Y0395575D01*
X0321349Y0395575D01*
X0322158Y0395703D01*
X0322936Y0395956D01*
X0323666Y0396327D01*
X0324328Y0396808D01*
X0324906Y0397387D01*
X0325388Y0398049D01*
X0325610Y0398486D01*
X0326023Y0397489D01*
X0327655Y0395858D01*
X0329786Y0394975D01*
X0332094Y0394975D01*
X0334226Y0395858D01*
X0335857Y0397489D01*
X0335940Y0397690D01*
X0336023Y0397489D01*
X0337655Y0395858D01*
X0339786Y0394975D01*
X0342094Y0394975D01*
X0344226Y0395858D01*
X0345857Y0397489D01*
X0346740Y0399621D01*
X0346740Y0407928D01*
X0345973Y0409780D01*
X0349112Y0412918D01*
X0349115Y0412895D01*
X0349363Y0412132D01*
X0349728Y0411417D01*
X0350200Y0410767D01*
X0350767Y0410200D01*
X0351417Y0409728D01*
X0352040Y0409410D01*
X0350861Y0408922D01*
X0349258Y0407319D01*
X0348390Y0405224D01*
X0348390Y0402956D01*
X0349258Y0400861D01*
X0350861Y0399258D01*
X0351266Y0399090D01*
X0350861Y0398922D01*
X0349258Y0397319D01*
X0348390Y0395224D01*
X0348390Y0393481D01*
X0340040Y0385131D01*
X0337886Y0385131D01*
X0336108Y0386908D01*
X0333777Y0387874D01*
X0324167Y0387874D01*
X0321835Y0386908D01*
X0321723Y0386796D01*
X0321723Y0389301D01*
X0321573Y0389860D01*
X0321283Y0390362D01*
X0320874Y0390771D01*
X0320372Y0391061D01*
X0319812Y0391211D01*
X0317043Y0391211D01*
X0317043Y0386138D01*
X0316884Y0386138D01*
X0316884Y0391211D01*
X0314115Y0391211D01*
X0313868Y0391145D01*
X0313629Y0391385D01*
X0312599Y0391811D01*
X0306367Y0391811D01*
X0305338Y0391385D01*
X0304551Y0390597D01*
X0304162Y0389658D01*
X0297350Y0389658D01*
X0296027Y0389110D01*
X0295014Y0388098D01*
X0294791Y0387874D01*
X0288734Y0387874D01*
X0286402Y0386908D01*
X0284618Y0385124D01*
X0283652Y0382792D01*
X0283652Y0380269D01*
X0284618Y0377938D01*
X0286024Y0376531D01*
X0284618Y0375124D01*
X0283652Y0372792D01*
X0283652Y0370269D01*
X0284618Y0367938D01*
X0286024Y0366531D01*
X0284618Y0365124D01*
X0283652Y0362792D01*
X0283652Y0360269D01*
X0284618Y0357938D01*
X0286024Y0356531D01*
X0284618Y0355124D01*
X0283652Y0352792D01*
X0283652Y0350269D01*
X0284618Y0347938D01*
X0286024Y0346531D01*
X0284618Y0345124D01*
X0283652Y0342792D01*
X0283652Y0340269D01*
X0284618Y0337938D01*
X0286024Y0336531D01*
X0284618Y0335124D01*
X0283652Y0332792D01*
X0283652Y0330269D01*
X0284618Y0327938D01*
X0286402Y0326153D01*
X0288734Y0325187D01*
X0294791Y0325187D01*
X0296027Y0323951D01*
X0297350Y0323403D01*
X0304162Y0323403D01*
X0304551Y0322464D01*
X0305338Y0321677D01*
X0306317Y0321271D01*
X0306252Y0321159D01*
X0306102Y0320600D01*
X0306102Y0317535D01*
X0311471Y0317535D01*
X0311471Y0316786D01*
X0306102Y0316786D01*
X0306102Y0313721D01*
X0306252Y0313162D01*
X0306542Y0312660D01*
X0306952Y0312251D01*
X0307449Y0311964D01*
X0306716Y0311660D01*
X0305929Y0310873D01*
X0305790Y0310537D01*
X0302941Y0310537D01*
X0302759Y0310719D01*
X0302825Y0310965D01*
X0302825Y0313735D01*
X0297752Y0313735D01*
X0297752Y0313894D01*
X0297593Y0313894D01*
X0297593Y0318573D01*
X0294430Y0318573D01*
X0293871Y0318423D01*
X0293369Y0318134D01*
X0292959Y0317724D01*
X0292670Y0317222D01*
X0292520Y0316663D01*
X0292520Y0313894D01*
X0297593Y0313894D01*
X0297593Y0313735D01*
X0292520Y0313735D01*
X0292520Y0310965D01*
X0292586Y0310719D01*
X0292346Y0310479D01*
X0291920Y0309450D01*
X0291920Y0303218D01*
X0292346Y0302189D01*
X0293134Y0301401D01*
X0294163Y0300975D01*
X0301182Y0300975D01*
X0302211Y0301401D01*
X0302547Y0301737D01*
X0305790Y0301737D01*
X0305929Y0301401D01*
X0306716Y0300614D01*
X0307745Y0300187D01*
X0308432Y0300187D01*
X0307897Y0299652D01*
X0307758Y0299317D01*
X0304713Y0299317D01*
X0304377Y0299652D01*
X0303348Y0300079D01*
X0296328Y0300079D01*
X0295299Y0299652D01*
X0294511Y0298865D01*
X0294085Y0297836D01*
X0294085Y0291604D01*
X0294511Y0290575D01*
X0294751Y0290335D01*
X0294685Y0290088D01*
X0294685Y0287319D01*
X0299758Y0287319D01*
X0299758Y0287160D01*
X0294685Y0287160D01*
X0294685Y0284391D01*
X0294835Y0283831D01*
X0295125Y0283329D01*
X0295534Y0282920D01*
X0296036Y0282630D01*
X0296595Y0282480D01*
X0299758Y0282480D01*
X0299758Y0287160D01*
X0299917Y0287160D01*
X0299917Y0282480D01*
X0303080Y0282480D01*
X0303640Y0282630D01*
X0304141Y0282920D01*
X0304551Y0283329D01*
X0304841Y0283831D01*
X0304991Y0284391D01*
X0304991Y0287160D01*
X0299917Y0287160D01*
X0299917Y0287319D01*
X0304991Y0287319D01*
X0304991Y0290088D01*
X0304924Y0290335D01*
X0305106Y0290517D01*
X0307758Y0290517D01*
X0307897Y0290181D01*
X0308685Y0289393D01*
X0309417Y0289090D01*
X0308920Y0288803D01*
X0308510Y0288393D01*
X0308221Y0287892D01*
X0308071Y0287332D01*
X0308071Y0284268D01*
X0313439Y0284268D01*
X0313439Y0283518D01*
X0308071Y0283518D01*
X0308071Y0280454D01*
X0308221Y0279894D01*
X0308510Y0279392D01*
X0308920Y0278983D01*
X0309422Y0278693D01*
X0309981Y0278543D01*
X0313439Y0278543D01*
X0313439Y0283518D01*
X0314189Y0283518D01*
X0314189Y0278543D01*
X0317647Y0278543D01*
X0318207Y0278693D01*
X0318708Y0278983D01*
X0319118Y0279392D01*
X0319408Y0279894D01*
X0319557Y0280454D01*
X0319557Y0283518D01*
X0314189Y0283518D01*
X0314189Y0284268D01*
X0319557Y0284268D01*
X0319557Y0287332D01*
X0319408Y0287892D01*
X0319118Y0288393D01*
X0318708Y0288803D01*
X0318211Y0289090D01*
X0318944Y0289393D01*
X0319731Y0290181D01*
X0319870Y0290517D01*
X0321248Y0290517D01*
X0321586Y0290178D01*
X0323828Y0289250D01*
X0324769Y0289250D01*
X0324769Y0268648D01*
X0325438Y0267030D01*
X0326676Y0265793D01*
X0346361Y0246108D01*
X0347978Y0245438D01*
X0366322Y0245438D01*
X0383627Y0228133D01*
X0383627Y0227443D01*
X0382855Y0226672D01*
X0381927Y0224430D01*
X0381927Y0215403D01*
X0382855Y0213161D01*
X0383892Y0212124D01*
X0377161Y0212124D01*
X0378198Y0213161D01*
X0379127Y0215403D01*
X0379127Y0224430D01*
X0378198Y0226672D01*
X0376482Y0228388D01*
X0374240Y0229317D01*
X0371813Y0229317D01*
X0369571Y0228388D01*
X0367855Y0226672D01*
X0366927Y0224430D01*
X0366927Y0215403D01*
X0367855Y0213161D01*
X0368892Y0212124D01*
X0353904Y0212124D01*
X0354000Y0212221D01*
X0355020Y0214684D01*
X0355020Y0225149D01*
X0354000Y0227612D01*
X0352116Y0229497D01*
X0349653Y0230517D01*
X0346988Y0230517D01*
X0344525Y0229497D01*
X0342640Y0227612D01*
X0341620Y0225149D01*
X0341620Y0214684D01*
X0342640Y0212221D01*
X0342737Y0212124D01*
X0333333Y0212124D01*
X0333838Y0212819D01*
X0334274Y0213675D01*
X0334570Y0214588D01*
X0334720Y0215536D01*
X0334720Y0219817D01*
X0328721Y0219817D01*
X0328721Y0220017D01*
X0328720Y0220017D02*
X0328520Y0220017D01*
X0328520Y0229917D01*
X0328140Y0229917D01*
X0327192Y0229766D01*
X0326279Y0229470D01*
X0325423Y0229034D01*
X0324647Y0228469D01*
X0323968Y0227790D01*
X0323403Y0227014D01*
X0322967Y0226158D01*
X0322671Y0225245D01*
X0322520Y0224297D01*
X0322520Y0220017D01*
X0328520Y0220017D01*
X0328520Y0219817D01*
X0322520Y0219817D01*
X0322520Y0215536D01*
X0322671Y0214588D01*
X0322967Y0213675D01*
X0323403Y0212819D01*
X0323908Y0212124D01*
X0301482Y0212124D01*
X0301913Y0212401D01*
X0301913Y0212401D01*
X0301913Y0212401D01*
X0305417Y0216445D01*
X0305417Y0216445D01*
X0307640Y0221313D01*
X0308402Y0226609D01*
X0307640Y0231906D01*
X0305417Y0236773D01*
X0305417Y0236773D01*
X0301913Y0240818D01*
X0297411Y0243711D01*
X0292277Y0245218D01*
X0286926Y0245218D01*
X0281792Y0243711D01*
X0281792Y0243711D01*
X0277290Y0240818D01*
X0277290Y0240818D01*
X0277290Y0240818D01*
X0276737Y0240179D02*
X0275117Y0240179D01*
X0275117Y0242578D02*
X0280029Y0242578D01*
X0275117Y0244976D02*
X0286102Y0244976D01*
X0293101Y0244976D02*
X0366784Y0244976D01*
X0369183Y0242578D02*
X0299174Y0242578D01*
X0297411Y0243711D02*
X0297411Y0243711D01*
X0301913Y0240818D02*
X0301913Y0240818D01*
X0302466Y0240179D02*
X0371581Y0240179D01*
X0373980Y0237781D02*
X0304544Y0237781D01*
X0306053Y0235382D02*
X0376378Y0235382D01*
X0378777Y0232984D02*
X0307148Y0232984D01*
X0307640Y0231906D02*
X0307640Y0231906D01*
X0307830Y0230585D02*
X0381175Y0230585D01*
X0383574Y0228187D02*
X0376683Y0228187D01*
X0378564Y0225788D02*
X0382489Y0225788D01*
X0381927Y0223390D02*
X0379127Y0223390D01*
X0379127Y0220991D02*
X0381927Y0220991D01*
X0381927Y0218592D02*
X0379127Y0218592D01*
X0379127Y0216194D02*
X0381927Y0216194D01*
X0382593Y0213795D02*
X0378461Y0213795D01*
X0367593Y0213795D02*
X0354652Y0213795D01*
X0355020Y0216194D02*
X0366927Y0216194D01*
X0366927Y0218592D02*
X0355020Y0218592D01*
X0355020Y0220991D02*
X0366927Y0220991D01*
X0366927Y0223390D02*
X0355020Y0223390D01*
X0354756Y0225788D02*
X0367489Y0225788D01*
X0369370Y0228187D02*
X0353426Y0228187D01*
X0343215Y0228187D02*
X0332877Y0228187D01*
X0332594Y0228469D02*
X0331818Y0229034D01*
X0330962Y0229470D01*
X0330049Y0229766D01*
X0329101Y0229917D01*
X0328720Y0229917D01*
X0328720Y0220017D01*
X0328721Y0220017D02*
X0334720Y0220017D01*
X0334720Y0224297D01*
X0334570Y0225245D01*
X0334274Y0226158D01*
X0333838Y0227014D01*
X0333273Y0227790D01*
X0332594Y0228469D01*
X0334394Y0225788D02*
X0341885Y0225788D01*
X0341620Y0223390D02*
X0334720Y0223390D01*
X0334720Y0220991D02*
X0341620Y0220991D01*
X0341620Y0218592D02*
X0334720Y0218592D01*
X0334720Y0216194D02*
X0341620Y0216194D01*
X0341988Y0213795D02*
X0334313Y0213795D01*
X0328720Y0220991D02*
X0328520Y0220991D01*
X0328520Y0223390D02*
X0328720Y0223390D01*
X0328720Y0225788D02*
X0328520Y0225788D01*
X0328520Y0228187D02*
X0328720Y0228187D01*
X0324364Y0228187D02*
X0308175Y0228187D01*
X0308283Y0225788D02*
X0322847Y0225788D01*
X0322520Y0223390D02*
X0307939Y0223390D01*
X0307640Y0221313D02*
X0307640Y0221313D01*
X0307493Y0220991D02*
X0322520Y0220991D01*
X0322520Y0218592D02*
X0306398Y0218592D01*
X0305199Y0216194D02*
X0322520Y0216194D01*
X0322928Y0213795D02*
X0303121Y0213795D01*
X0275117Y0247375D02*
X0345094Y0247375D01*
X0342696Y0249773D02*
X0275117Y0249773D01*
X0275117Y0252172D02*
X0340297Y0252172D01*
X0337899Y0254570D02*
X0275117Y0254570D01*
X0275117Y0256969D02*
X0335500Y0256969D01*
X0333102Y0259367D02*
X0275117Y0259367D01*
X0275117Y0261766D02*
X0330703Y0261766D01*
X0328305Y0264164D02*
X0275117Y0264164D01*
X0275117Y0266563D02*
X0325906Y0266563D01*
X0324769Y0268961D02*
X0275117Y0268961D01*
X0275117Y0271360D02*
X0324769Y0271360D01*
X0324769Y0273758D02*
X0275117Y0273758D01*
X0275117Y0276157D02*
X0324769Y0276157D01*
X0324769Y0278555D02*
X0317692Y0278555D01*
X0319557Y0280954D02*
X0324769Y0280954D01*
X0324769Y0283352D02*
X0319557Y0283352D01*
X0319557Y0285751D02*
X0324769Y0285751D01*
X0324769Y0288149D02*
X0319259Y0288149D01*
X0314189Y0283352D02*
X0313439Y0283352D01*
X0313439Y0280954D02*
X0314189Y0280954D01*
X0314189Y0278555D02*
X0313439Y0278555D01*
X0309937Y0278555D02*
X0275117Y0278555D01*
X0275117Y0280954D02*
X0308071Y0280954D01*
X0308071Y0283352D02*
X0304564Y0283352D01*
X0304991Y0285751D02*
X0308071Y0285751D01*
X0308370Y0288149D02*
X0304991Y0288149D01*
X0299917Y0285751D02*
X0299758Y0285751D01*
X0299758Y0283352D02*
X0299917Y0283352D01*
X0295111Y0283352D02*
X0275117Y0283352D01*
X0275117Y0285751D02*
X0294685Y0285751D01*
X0294685Y0288149D02*
X0275117Y0288149D01*
X0275117Y0290548D02*
X0294538Y0290548D01*
X0294085Y0292946D02*
X0275117Y0292946D01*
X0275117Y0295345D02*
X0294085Y0295345D01*
X0294085Y0297743D02*
X0275117Y0297743D01*
X0275117Y0300142D02*
X0308387Y0300142D01*
X0307153Y0312134D02*
X0302825Y0312134D01*
X0302825Y0313894D02*
X0302825Y0316663D01*
X0302675Y0317222D01*
X0302386Y0317724D01*
X0301976Y0318134D01*
X0301474Y0318423D01*
X0300915Y0318573D01*
X0297752Y0318573D01*
X0297752Y0313894D01*
X0302825Y0313894D01*
X0302825Y0314533D02*
X0306102Y0314533D01*
X0302753Y0316931D02*
X0311471Y0316931D01*
X0312221Y0316931D02*
X0319773Y0316931D01*
X0319677Y0316638D02*
X0319542Y0315782D01*
X0319542Y0315350D01*
X0328342Y0315350D01*
X0328342Y0315350D01*
X0328342Y0320850D01*
X0332075Y0320850D01*
X0332930Y0320714D01*
X0333753Y0320447D01*
X0334524Y0320054D01*
X0335225Y0319545D01*
X0335837Y0318933D01*
X0336346Y0318232D01*
X0336739Y0317461D01*
X0337006Y0316638D01*
X0337142Y0315782D01*
X0337142Y0315350D01*
X0328342Y0315350D01*
X0328342Y0315350D01*
X0328342Y0320850D01*
X0324609Y0320850D01*
X0323754Y0320714D01*
X0322930Y0320447D01*
X0322159Y0320054D01*
X0321459Y0319545D01*
X0320847Y0318933D01*
X0320338Y0318232D01*
X0319945Y0317461D01*
X0319677Y0316638D01*
X0319542Y0315350D02*
X0319542Y0314917D01*
X0319677Y0314062D01*
X0319945Y0313238D01*
X0320338Y0312467D01*
X0320847Y0311767D01*
X0321459Y0311154D01*
X0322060Y0310717D01*
X0321586Y0310521D01*
X0320802Y0309737D01*
X0318189Y0309737D01*
X0318189Y0309844D01*
X0317763Y0310873D01*
X0316975Y0311660D01*
X0316243Y0311964D01*
X0316740Y0312251D01*
X0317149Y0312660D01*
X0317439Y0313162D01*
X0317589Y0313721D01*
X0317589Y0316786D01*
X0312221Y0316786D01*
X0312221Y0317535D01*
X0317589Y0317535D01*
X0317589Y0320600D01*
X0317439Y0321159D01*
X0317149Y0321661D01*
X0316884Y0321926D01*
X0316884Y0326924D01*
X0317043Y0326924D01*
X0317043Y0321850D01*
X0319812Y0321850D01*
X0320372Y0322000D01*
X0320874Y0322290D01*
X0321283Y0322700D01*
X0321573Y0323201D01*
X0321723Y0323761D01*
X0321723Y0326265D01*
X0321835Y0326153D01*
X0324167Y0325187D01*
X0333777Y0325187D01*
X0336108Y0326153D01*
X0337886Y0327931D01*
X0345158Y0327931D01*
X0348390Y0324699D01*
X0348390Y0322956D01*
X0349258Y0320861D01*
X0350861Y0319258D01*
X0351266Y0319090D01*
X0350861Y0318922D01*
X0349258Y0317319D01*
X0348390Y0315224D01*
X0348390Y0312956D01*
X0348500Y0312690D01*
X0336459Y0312690D01*
X0336739Y0313238D01*
X0337006Y0314062D01*
X0337142Y0314917D01*
X0337142Y0315350D01*
X0328342Y0315350D01*
X0328342Y0315350D01*
X0319542Y0315350D01*
X0319603Y0314533D02*
X0317589Y0314533D01*
X0316539Y0312134D02*
X0320579Y0312134D01*
X0321244Y0319330D02*
X0317589Y0319330D01*
X0317082Y0321728D02*
X0348898Y0321728D01*
X0348390Y0324127D02*
X0321723Y0324127D01*
X0317043Y0324127D02*
X0316884Y0324127D01*
X0316884Y0326525D02*
X0317043Y0326525D01*
X0317043Y0327083D02*
X0316884Y0327083D01*
X0316884Y0332156D01*
X0314115Y0332156D01*
X0313868Y0332090D01*
X0313629Y0332330D01*
X0312599Y0332756D01*
X0306367Y0332756D01*
X0305338Y0332330D01*
X0304551Y0331542D01*
X0304162Y0330603D01*
X0303425Y0330603D01*
X0303425Y0332792D01*
X0302459Y0335124D01*
X0302369Y0335214D01*
X0304162Y0335214D01*
X0304551Y0334275D01*
X0305338Y0333488D01*
X0306367Y0333061D01*
X0312599Y0333061D01*
X0313629Y0333488D01*
X0313868Y0333728D01*
X0314115Y0333661D01*
X0316884Y0333661D01*
X0316884Y0338735D01*
X0317043Y0338735D01*
X0317043Y0333661D01*
X0319445Y0333661D01*
X0319085Y0332792D01*
X0319085Y0332156D01*
X0317043Y0332156D01*
X0317043Y0327083D01*
X0317043Y0328924D02*
X0316884Y0328924D01*
X0316884Y0331323D02*
X0317043Y0331323D01*
X0317043Y0333721D02*
X0316884Y0333721D01*
X0316884Y0336120D02*
X0317043Y0336120D01*
X0317043Y0338518D02*
X0316884Y0338518D01*
X0316884Y0338894D02*
X0316884Y0343967D01*
X0314115Y0343967D01*
X0313868Y0343901D01*
X0313629Y0344141D01*
X0312599Y0344567D01*
X0306367Y0344567D01*
X0305338Y0344141D01*
X0304551Y0343353D01*
X0304162Y0342414D01*
X0303425Y0342414D01*
X0303425Y0342792D01*
X0302459Y0345124D01*
X0301053Y0346531D01*
X0301547Y0347025D01*
X0304162Y0347025D01*
X0304551Y0346086D01*
X0305338Y0345299D01*
X0306367Y0344872D01*
X0312599Y0344872D01*
X0313629Y0345299D01*
X0313868Y0345539D01*
X0314115Y0345472D01*
X0316884Y0345472D01*
X0316884Y0350546D01*
X0317043Y0350546D01*
X0317043Y0345472D01*
X0319812Y0345472D01*
X0320372Y0345622D01*
X0320791Y0345864D01*
X0320051Y0345124D01*
X0319572Y0343967D01*
X0317043Y0343967D01*
X0317043Y0338894D01*
X0316884Y0338894D01*
X0316884Y0340917D02*
X0317043Y0340917D01*
X0317043Y0343315D02*
X0316884Y0343315D01*
X0316884Y0345714D02*
X0317043Y0345714D01*
X0317043Y0348112D02*
X0316884Y0348112D01*
X0316884Y0350511D02*
X0317043Y0350511D01*
X0317043Y0350705D02*
X0316884Y0350705D01*
X0316884Y0355778D01*
X0314115Y0355778D01*
X0313868Y0355712D01*
X0313629Y0355952D01*
X0312599Y0356378D01*
X0306367Y0356378D01*
X0305338Y0355952D01*
X0304551Y0355164D01*
X0304162Y0354225D01*
X0302832Y0354225D01*
X0302459Y0355124D01*
X0301053Y0356531D01*
X0302459Y0357938D01*
X0302832Y0358836D01*
X0304162Y0358836D01*
X0304551Y0357897D01*
X0305338Y0357110D01*
X0306367Y0356683D01*
X0312599Y0356683D01*
X0313629Y0357110D01*
X0313868Y0357350D01*
X0314115Y0357283D01*
X0316884Y0357283D01*
X0316884Y0362357D01*
X0317043Y0362357D01*
X0317043Y0357283D01*
X0319812Y0357283D01*
X0320372Y0357433D01*
X0320488Y0357500D01*
X0321458Y0356531D01*
X0320488Y0355561D01*
X0320372Y0355628D01*
X0319812Y0355778D01*
X0317043Y0355778D01*
X0317043Y0350705D01*
X0317043Y0352909D02*
X0316884Y0352909D01*
X0316884Y0355308D02*
X0317043Y0355308D01*
X0317043Y0357706D02*
X0316884Y0357706D01*
X0316884Y0360105D02*
X0317043Y0360105D01*
X0317043Y0362516D02*
X0316884Y0362516D01*
X0316884Y0367589D01*
X0314115Y0367589D01*
X0313868Y0367523D01*
X0313629Y0367763D01*
X0312599Y0368189D01*
X0306367Y0368189D01*
X0305338Y0367763D01*
X0304551Y0366975D01*
X0304162Y0366036D01*
X0301547Y0366036D01*
X0301053Y0366531D01*
X0302459Y0367938D01*
X0303425Y0370269D01*
X0303425Y0370647D01*
X0304162Y0370647D01*
X0304551Y0369708D01*
X0305338Y0368921D01*
X0306367Y0368494D01*
X0312599Y0368494D01*
X0313629Y0368921D01*
X0313868Y0369161D01*
X0314115Y0369094D01*
X0316884Y0369094D01*
X0316884Y0374168D01*
X0317043Y0374168D01*
X0317043Y0369094D01*
X0319572Y0369094D01*
X0320051Y0367938D01*
X0320791Y0367197D01*
X0320372Y0367439D01*
X0319812Y0367589D01*
X0317043Y0367589D01*
X0317043Y0362516D01*
X0317043Y0364902D02*
X0316884Y0364902D01*
X0316884Y0367300D02*
X0317043Y0367300D01*
X0317043Y0369699D02*
X0316884Y0369699D01*
X0316884Y0372097D02*
X0317043Y0372097D01*
X0317043Y0374327D02*
X0316884Y0374327D01*
X0316884Y0379400D01*
X0314115Y0379400D01*
X0313868Y0379334D01*
X0313629Y0379574D01*
X0312599Y0380000D01*
X0306367Y0380000D01*
X0305338Y0379574D01*
X0304551Y0378786D01*
X0304162Y0377847D01*
X0302369Y0377847D01*
X0302459Y0377938D01*
X0303425Y0380269D01*
X0303425Y0382458D01*
X0304162Y0382458D01*
X0304551Y0381519D01*
X0305338Y0380732D01*
X0306367Y0380306D01*
X0312599Y0380306D01*
X0313629Y0380732D01*
X0313868Y0380972D01*
X0314115Y0380906D01*
X0316884Y0380905D01*
X0316884Y0385979D01*
X0317043Y0385979D01*
X0317043Y0380906D01*
X0319085Y0380906D01*
X0319085Y0380269D01*
X0319445Y0379400D01*
X0317043Y0379400D01*
X0317043Y0374327D01*
X0317043Y0374496D02*
X0316884Y0374496D01*
X0316884Y0376894D02*
X0317043Y0376894D01*
X0317043Y0379293D02*
X0316884Y0379293D01*
X0316884Y0381691D02*
X0317043Y0381691D01*
X0317043Y0384090D02*
X0316884Y0384090D01*
X0316884Y0386488D02*
X0317043Y0386488D01*
X0317043Y0388887D02*
X0316884Y0388887D01*
X0313728Y0391285D02*
X0346194Y0391285D01*
X0348390Y0393684D02*
X0275117Y0393684D01*
X0275117Y0396082D02*
X0318696Y0396082D01*
X0320940Y0396082D02*
X0320940Y0396082D01*
X0323185Y0396082D02*
X0327430Y0396082D01*
X0325612Y0398481D02*
X0325607Y0398481D01*
X0320940Y0398481D02*
X0320940Y0398481D01*
X0320940Y0400879D02*
X0320940Y0400879D01*
X0320940Y0403278D02*
X0320940Y0403278D01*
X0320940Y0405676D02*
X0320940Y0405676D01*
X0320940Y0408075D02*
X0320940Y0408075D01*
X0320940Y0410473D02*
X0320940Y0410473D01*
X0317285Y0410473D02*
X0275117Y0410473D01*
X0275117Y0408075D02*
X0315895Y0408075D01*
X0315740Y0405676D02*
X0275117Y0405676D01*
X0275117Y0403278D02*
X0315740Y0403278D01*
X0315740Y0400879D02*
X0275117Y0400879D01*
X0275117Y0398481D02*
X0316273Y0398481D01*
X0321723Y0388887D02*
X0343796Y0388887D01*
X0341397Y0386488D02*
X0336528Y0386488D01*
X0337430Y0396082D02*
X0334450Y0396082D01*
X0344450Y0396082D02*
X0348745Y0396082D01*
X0350420Y0398481D02*
X0346268Y0398481D01*
X0346740Y0400879D02*
X0349250Y0400879D01*
X0348390Y0403278D02*
X0346740Y0403278D01*
X0346740Y0405676D02*
X0348577Y0405676D01*
X0350014Y0408075D02*
X0346680Y0408075D01*
X0346667Y0410473D02*
X0350494Y0410473D01*
X0349123Y0412872D02*
X0349065Y0412872D01*
X0354090Y0414090D02*
X0354090Y0414090D01*
X0359190Y0414090D01*
X0354090Y0414090D01*
X0357723Y0417669D02*
X0409608Y0417669D01*
X0410051Y0420067D02*
X0358128Y0420067D01*
X0359587Y0422466D02*
X0408593Y0422466D01*
X0408390Y0424864D02*
X0359790Y0424864D01*
X0358945Y0427263D02*
X0409235Y0427263D01*
X0410457Y0429661D02*
X0357723Y0429661D01*
X0359419Y0432060D02*
X0408761Y0432060D01*
X0408390Y0434459D02*
X0359790Y0434459D01*
X0359113Y0436857D02*
X0409066Y0436857D01*
X0410866Y0439256D02*
X0357314Y0439256D01*
X0359250Y0441654D02*
X0408929Y0441654D01*
X0408390Y0444053D02*
X0359790Y0444053D01*
X0359281Y0446451D02*
X0408898Y0446451D01*
X0410789Y0448850D02*
X0357391Y0448850D01*
X0359082Y0451248D02*
X0409097Y0451248D01*
X0408390Y0453647D02*
X0359790Y0453647D01*
X0359449Y0456045D02*
X0377724Y0456045D01*
X0377818Y0455951D02*
X0378319Y0455662D01*
X0378879Y0455512D01*
X0382890Y0455512D01*
X0382890Y0464976D01*
X0385290Y0464976D01*
X0385290Y0455512D01*
X0389301Y0455512D01*
X0389860Y0455662D01*
X0390362Y0455951D01*
X0390771Y0456361D01*
X0391061Y0456863D01*
X0391211Y0457422D01*
X0391211Y0464976D01*
X0385290Y0464976D01*
X0385290Y0467376D01*
X0391211Y0467376D01*
X0391211Y0474931D01*
X0391061Y0475490D01*
X0390771Y0475992D01*
X0390362Y0476401D01*
X0389860Y0476691D01*
X0389301Y0476841D01*
X0385290Y0476841D01*
X0385290Y0467376D01*
X0382890Y0467376D01*
X0382890Y0464976D01*
X0376969Y0464976D01*
X0376969Y0457422D01*
X0377118Y0456863D01*
X0377408Y0456361D01*
X0377818Y0455951D01*
X0376969Y0458444D02*
X0357797Y0458444D01*
X0358903Y0460842D02*
X0376969Y0460842D01*
X0376969Y0463241D02*
X0359790Y0463241D01*
X0359618Y0465639D02*
X0382890Y0465639D01*
X0382890Y0467376D02*
X0376969Y0467376D01*
X0376969Y0474931D01*
X0377118Y0475490D01*
X0377408Y0475992D01*
X0377818Y0476401D01*
X0378319Y0476691D01*
X0378879Y0476841D01*
X0382890Y0476841D01*
X0382890Y0467376D01*
X0382890Y0468038D02*
X0385290Y0468038D01*
X0385290Y0470436D02*
X0382890Y0470436D01*
X0382890Y0472835D02*
X0385290Y0472835D01*
X0385290Y0475233D02*
X0382890Y0475233D01*
X0377050Y0475233D02*
X0359786Y0475233D01*
X0359740Y0472835D02*
X0376969Y0472835D01*
X0376969Y0470436D02*
X0358497Y0470436D01*
X0358203Y0468038D02*
X0376969Y0468038D01*
X0382890Y0463241D02*
X0385290Y0463241D01*
X0385290Y0465639D02*
X0408562Y0465639D01*
X0408390Y0463241D02*
X0391211Y0463241D01*
X0391211Y0460842D02*
X0409276Y0460842D01*
X0410383Y0458444D02*
X0391211Y0458444D01*
X0390456Y0456045D02*
X0408730Y0456045D01*
X0417797Y0458444D02*
X0421428Y0458444D01*
X0421428Y0460842D02*
X0418903Y0460842D01*
X0419790Y0463241D02*
X0421428Y0463241D01*
X0421428Y0465639D02*
X0419618Y0465639D01*
X0418203Y0468038D02*
X0421428Y0468038D01*
X0421428Y0470436D02*
X0418497Y0470436D01*
X0419740Y0472835D02*
X0421428Y0472835D01*
X0421428Y0475233D02*
X0419786Y0475233D01*
X0418609Y0477632D02*
X0421428Y0477632D01*
X0421428Y0480030D02*
X0418091Y0480030D01*
X0419571Y0482429D02*
X0421428Y0482429D01*
X0421428Y0484827D02*
X0419790Y0484827D01*
X0418960Y0487226D02*
X0421428Y0487226D01*
X0421428Y0489624D02*
X0417685Y0489624D01*
X0419403Y0492023D02*
X0421428Y0492023D01*
X0421428Y0494421D02*
X0419790Y0494421D01*
X0419129Y0496820D02*
X0421428Y0496820D01*
X0421428Y0499218D02*
X0417224Y0499218D01*
X0419235Y0501617D02*
X0421428Y0501617D01*
X0421428Y0504015D02*
X0419790Y0504015D01*
X0419297Y0506414D02*
X0421428Y0506414D01*
X0421428Y0508812D02*
X0417428Y0508812D01*
X0421428Y0511211D02*
X0391890Y0511211D01*
X0391890Y0513609D02*
X0421428Y0513609D01*
X0421428Y0516008D02*
X0391890Y0516008D01*
X0391890Y0518406D02*
X0421428Y0518406D01*
X0421428Y0520805D02*
X0401348Y0520805D01*
X0401124Y0520642D02*
X0401901Y0521206D01*
X0402580Y0521885D01*
X0403144Y0522662D01*
X0403580Y0523517D01*
X0403877Y0524431D01*
X0404027Y0525379D01*
X0404027Y0529659D01*
X0398027Y0529659D01*
X0398027Y0519759D01*
X0398407Y0519759D01*
X0399355Y0519909D01*
X0400268Y0520206D01*
X0401124Y0520642D01*
X0398027Y0520805D02*
X0397827Y0520805D01*
X0397827Y0519759D02*
X0397827Y0529659D01*
X0391827Y0529659D01*
X0391827Y0525379D01*
X0391977Y0524431D01*
X0392274Y0523517D01*
X0392710Y0522662D01*
X0393274Y0521885D01*
X0393953Y0521206D01*
X0394730Y0520642D01*
X0395585Y0520206D01*
X0396498Y0519909D01*
X0397447Y0519759D01*
X0397827Y0519759D01*
X0397827Y0523203D02*
X0398027Y0523203D01*
X0398027Y0525602D02*
X0397827Y0525602D01*
X0397827Y0528000D02*
X0398027Y0528000D01*
X0404027Y0528000D02*
X0421428Y0528000D01*
X0421428Y0525602D02*
X0404027Y0525602D01*
X0403420Y0523203D02*
X0421428Y0523203D01*
X0421428Y0530399D02*
X0404027Y0530399D01*
X0404027Y0532797D02*
X0421428Y0532797D01*
X0419598Y0535196D02*
X0403841Y0535196D01*
X0402608Y0537594D02*
X0417200Y0537594D01*
X0431941Y0551986D02*
X0462980Y0551986D01*
X0462762Y0551734D02*
X0460539Y0546867D01*
X0460539Y0546867D01*
X0459778Y0541570D01*
X0460539Y0536274D01*
X0460539Y0536273D01*
X0462762Y0531406D01*
X0462762Y0531406D01*
X0466267Y0527362D01*
X0470768Y0524469D01*
X0475902Y0522961D01*
X0481253Y0522961D01*
X0486388Y0524469D01*
X0490889Y0527362D01*
X0490889Y0527362D01*
X0493063Y0529871D01*
X0493063Y0238309D01*
X0490889Y0240818D01*
X0486388Y0243711D01*
X0481253Y0245218D01*
X0476737Y0245218D01*
X0477408Y0245890D01*
X0477712Y0246622D01*
X0477999Y0246125D01*
X0478408Y0245715D01*
X0478910Y0245426D01*
X0479469Y0245276D01*
X0482534Y0245276D01*
X0482534Y0250644D01*
X0483283Y0250644D01*
X0483283Y0245276D01*
X0486348Y0245276D01*
X0486907Y0245426D01*
X0487409Y0245715D01*
X0487819Y0246125D01*
X0488108Y0246626D01*
X0488258Y0247186D01*
X0488258Y0250644D01*
X0483284Y0250644D01*
X0483284Y0251394D01*
X0488258Y0251394D01*
X0488258Y0254852D01*
X0488108Y0255411D01*
X0487819Y0255913D01*
X0487409Y0256323D01*
X0486907Y0256612D01*
X0486348Y0256762D01*
X0483283Y0256762D01*
X0483283Y0251394D01*
X0482534Y0251394D01*
X0482534Y0256762D01*
X0479469Y0256762D01*
X0478910Y0256612D01*
X0478408Y0256323D01*
X0477999Y0255913D01*
X0477712Y0255416D01*
X0477408Y0256148D01*
X0476621Y0256936D01*
X0475592Y0257362D01*
X0472867Y0257362D01*
X0472867Y0258258D01*
X0475395Y0258258D01*
X0476424Y0258685D01*
X0476664Y0258924D01*
X0476910Y0258858D01*
X0479680Y0258858D01*
X0479680Y0263931D01*
X0479839Y0263931D01*
X0479839Y0264091D01*
X0479680Y0264091D01*
X0479680Y0269164D01*
X0476910Y0269164D01*
X0476664Y0269098D01*
X0476424Y0269338D01*
X0475395Y0269764D01*
X0472867Y0269764D01*
X0472867Y0368017D01*
X0473414Y0366697D01*
X0475130Y0364981D01*
X0477372Y0364053D01*
X0486398Y0364053D01*
X0488640Y0364981D01*
X0490356Y0366697D01*
X0491285Y0368939D01*
X0491285Y0371366D01*
X0490356Y0373608D01*
X0488812Y0375153D01*
X0490356Y0376697D01*
X0491285Y0378939D01*
X0491285Y0381366D01*
X0490356Y0383608D01*
X0488640Y0385324D01*
X0488166Y0385520D01*
X0488768Y0385958D01*
X0489380Y0386570D01*
X0489889Y0387270D01*
X0490282Y0388041D01*
X0490550Y0388865D01*
X0490685Y0389720D01*
X0490685Y0390153D01*
X0490685Y0390586D01*
X0490550Y0391441D01*
X0490282Y0392264D01*
X0489889Y0393035D01*
X0489380Y0393736D01*
X0488768Y0394348D01*
X0488068Y0394857D01*
X0487296Y0395250D01*
X0486473Y0395517D01*
X0485618Y0395653D01*
X0481885Y0395653D01*
X0478152Y0395653D01*
X0477387Y0395531D01*
X0480600Y0398745D01*
X0481528Y0400987D01*
X0481528Y0412075D01*
X0481378Y0412438D01*
X0481378Y0414962D01*
X0480952Y0415991D01*
X0480544Y0416398D01*
X0480544Y0442744D01*
X0479615Y0444986D01*
X0477899Y0446702D01*
X0473402Y0451200D01*
X0473402Y0452527D01*
X0472519Y0454659D01*
X0470887Y0456290D01*
X0469890Y0456703D01*
X0470327Y0456926D01*
X0470989Y0457407D01*
X0471568Y0457986D01*
X0472049Y0458648D01*
X0472421Y0459377D01*
X0472674Y0460156D01*
X0472802Y0460964D01*
X0472802Y0461373D01*
X0464602Y0461373D01*
X0464602Y0461373D01*
X0472802Y0461373D01*
X0472802Y0461782D01*
X0472674Y0462591D01*
X0472421Y0463369D01*
X0472049Y0464099D01*
X0471568Y0464761D01*
X0470989Y0465340D01*
X0470327Y0465821D01*
X0469890Y0466043D01*
X0470887Y0466456D01*
X0472519Y0468088D01*
X0473402Y0470220D01*
X0473402Y0472527D01*
X0472519Y0474659D01*
X0470887Y0476290D01*
X0470687Y0476373D01*
X0470887Y0476456D01*
X0472519Y0478088D01*
X0473402Y0480220D01*
X0473402Y0482527D01*
X0472519Y0484659D01*
X0470887Y0486290D01*
X0468755Y0487173D01*
X0460448Y0487173D01*
X0458316Y0486290D01*
X0456685Y0484659D01*
X0455802Y0482527D01*
X0455802Y0480220D01*
X0456685Y0478088D01*
X0458316Y0476456D01*
X0458517Y0476373D01*
X0458316Y0476290D01*
X0456685Y0474659D01*
X0455802Y0472527D01*
X0455802Y0470220D01*
X0456685Y0468088D01*
X0458316Y0466456D01*
X0459313Y0466043D01*
X0458876Y0465821D01*
X0458214Y0465340D01*
X0457635Y0464761D01*
X0457154Y0464099D01*
X0456783Y0463369D01*
X0456530Y0462591D01*
X0456402Y0461782D01*
X0456402Y0461373D01*
X0456402Y0460964D01*
X0456530Y0460156D01*
X0456783Y0459377D01*
X0457154Y0458648D01*
X0457635Y0457986D01*
X0458214Y0457407D01*
X0458876Y0456926D01*
X0459313Y0456703D01*
X0458316Y0456290D01*
X0457403Y0455378D01*
X0456967Y0456430D01*
X0455336Y0458062D01*
X0453204Y0458945D01*
X0444897Y0458945D01*
X0442765Y0458062D01*
X0442028Y0457324D01*
X0442028Y0540761D01*
X0441326Y0543380D01*
X0439970Y0545729D01*
X0438052Y0547647D01*
X0435703Y0549003D01*
X0434639Y0549288D01*
X0429340Y0554587D01*
X0427872Y0556055D01*
X0466698Y0556055D01*
X0466267Y0555778D01*
X0466267Y0555778D01*
X0462762Y0551734D01*
X0462762Y0551734D01*
X0461782Y0549587D02*
X0434340Y0549587D01*
X0438510Y0547189D02*
X0460686Y0547189D01*
X0460241Y0544790D02*
X0440512Y0544790D01*
X0441591Y0542392D02*
X0459896Y0542392D01*
X0459778Y0541570D02*
X0459778Y0541570D01*
X0460005Y0539993D02*
X0442028Y0539993D01*
X0442028Y0537594D02*
X0460350Y0537594D01*
X0461032Y0535196D02*
X0442028Y0535196D01*
X0442028Y0532797D02*
X0462127Y0532797D01*
X0463635Y0530399D02*
X0442028Y0530399D01*
X0442028Y0528000D02*
X0465713Y0528000D01*
X0466267Y0527362D02*
X0466267Y0527362D01*
X0469005Y0525602D02*
X0442028Y0525602D01*
X0442028Y0523203D02*
X0475078Y0523203D01*
X0475902Y0522961D02*
X0475902Y0522961D01*
X0482078Y0523203D02*
X0493063Y0523203D01*
X0493063Y0520805D02*
X0442028Y0520805D01*
X0442028Y0518406D02*
X0493063Y0518406D01*
X0493063Y0516008D02*
X0442028Y0516008D01*
X0442028Y0513609D02*
X0493063Y0513609D01*
X0493063Y0511211D02*
X0442028Y0511211D01*
X0442028Y0508812D02*
X0493063Y0508812D01*
X0493063Y0506414D02*
X0442028Y0506414D01*
X0442028Y0504015D02*
X0493063Y0504015D01*
X0493063Y0501617D02*
X0442028Y0501617D01*
X0442028Y0499218D02*
X0493063Y0499218D01*
X0493063Y0496820D02*
X0442028Y0496820D01*
X0442028Y0494421D02*
X0493063Y0494421D01*
X0493063Y0492023D02*
X0442028Y0492023D01*
X0442028Y0489624D02*
X0493063Y0489624D01*
X0493063Y0487226D02*
X0442028Y0487226D01*
X0442028Y0484827D02*
X0456853Y0484827D01*
X0455802Y0482429D02*
X0442028Y0482429D01*
X0442028Y0480030D02*
X0455880Y0480030D01*
X0457141Y0477632D02*
X0442028Y0477632D01*
X0442028Y0475233D02*
X0457259Y0475233D01*
X0455929Y0472835D02*
X0442028Y0472835D01*
X0442028Y0470436D02*
X0455802Y0470436D01*
X0456735Y0468038D02*
X0442028Y0468038D01*
X0442028Y0465639D02*
X0458626Y0465639D01*
X0456741Y0463241D02*
X0442028Y0463241D01*
X0442028Y0460842D02*
X0456421Y0460842D01*
X0456402Y0461373D02*
X0464601Y0461373D01*
X0464601Y0461373D01*
X0456402Y0461373D01*
X0457302Y0458444D02*
X0454414Y0458444D01*
X0457127Y0456045D02*
X0458071Y0456045D01*
X0456248Y0449141D02*
X0456685Y0448088D01*
X0458316Y0446456D01*
X0460448Y0445573D01*
X0461775Y0445573D01*
X0468344Y0439004D01*
X0468344Y0426054D01*
X0467043Y0426054D01*
X0467043Y0420980D01*
X0466884Y0420980D01*
X0466884Y0420821D01*
X0462205Y0420821D01*
X0462205Y0417658D01*
X0462355Y0417099D01*
X0462640Y0416605D01*
X0460965Y0416605D01*
X0460406Y0416455D01*
X0459904Y0416165D01*
X0459495Y0415756D01*
X0459205Y0415254D01*
X0459055Y0414694D01*
X0459055Y0411236D01*
X0464030Y0411236D01*
X0464030Y0410487D01*
X0459055Y0410487D01*
X0459055Y0407028D01*
X0459205Y0406469D01*
X0459495Y0405967D01*
X0459904Y0405558D01*
X0460406Y0405268D01*
X0460965Y0405118D01*
X0464030Y0405118D01*
X0464030Y0410487D01*
X0464780Y0410487D01*
X0464780Y0405118D01*
X0467844Y0405118D01*
X0468403Y0405268D01*
X0468905Y0405558D01*
X0469315Y0405967D01*
X0469328Y0405991D01*
X0469328Y0404727D01*
X0463312Y0398710D01*
X0463312Y0398710D01*
X0461596Y0396994D01*
X0460667Y0394752D01*
X0460667Y0251627D01*
X0438357Y0229317D01*
X0437995Y0229317D01*
X0435752Y0228388D01*
X0434037Y0226672D01*
X0433108Y0224430D01*
X0433108Y0215403D01*
X0434037Y0213161D01*
X0435073Y0212124D01*
X0428342Y0212124D01*
X0429379Y0213161D01*
X0430308Y0215403D01*
X0430308Y0224430D01*
X0429508Y0226361D01*
X0429508Y0246601D01*
X0428701Y0248549D01*
X0427210Y0250040D01*
X0416142Y0261108D01*
X0414651Y0262599D01*
X0412703Y0263405D01*
X0372269Y0263405D01*
X0366787Y0268888D01*
X0368505Y0268888D01*
X0369534Y0269314D01*
X0370322Y0270102D01*
X0370625Y0270834D01*
X0370912Y0270337D01*
X0371322Y0269928D01*
X0371823Y0269638D01*
X0372383Y0269488D01*
X0375447Y0269488D01*
X0375447Y0274857D01*
X0376197Y0274857D01*
X0376197Y0275606D01*
X0381172Y0275606D01*
X0381172Y0279064D01*
X0381022Y0279624D01*
X0380732Y0280126D01*
X0380322Y0280535D01*
X0379821Y0280825D01*
X0379261Y0280975D01*
X0376197Y0280975D01*
X0376197Y0275606D01*
X0375447Y0275606D01*
X0375447Y0280975D01*
X0372383Y0280975D01*
X0371823Y0280825D01*
X0371322Y0280535D01*
X0370912Y0280126D01*
X0370625Y0279629D01*
X0370322Y0280361D01*
X0369534Y0281149D01*
X0369113Y0281323D01*
X0369790Y0282956D01*
X0369790Y0285224D01*
X0368922Y0287319D01*
X0367319Y0288922D01*
X0365224Y0289790D01*
X0362956Y0289790D01*
X0360861Y0288922D01*
X0359258Y0287319D01*
X0358769Y0286140D01*
X0358452Y0286763D01*
X0357980Y0287412D01*
X0357412Y0287980D01*
X0356763Y0288452D01*
X0356140Y0288769D01*
X0357319Y0289258D01*
X0358922Y0290861D01*
X0359790Y0292956D01*
X0359790Y0295224D01*
X0358922Y0297319D01*
X0357319Y0298922D01*
X0356913Y0299090D01*
X0357319Y0299258D01*
X0358922Y0300861D01*
X0359090Y0301266D01*
X0359258Y0300861D01*
X0360861Y0299258D01*
X0362956Y0298390D01*
X0365224Y0298390D01*
X0367319Y0299258D01*
X0368922Y0300861D01*
X0369790Y0302956D01*
X0369790Y0304309D01*
X0372061Y0304309D01*
X0373090Y0304735D01*
X0373878Y0305523D01*
X0374304Y0306552D01*
X0374304Y0311628D01*
X0373878Y0312657D01*
X0373090Y0313445D01*
X0372061Y0313871D01*
X0369790Y0313871D01*
X0369790Y0315224D01*
X0368922Y0317319D01*
X0367319Y0318922D01*
X0366913Y0319090D01*
X0367319Y0319258D01*
X0368922Y0320861D01*
X0369790Y0322956D01*
X0369790Y0325224D01*
X0368922Y0327319D01*
X0367319Y0328922D01*
X0365224Y0329790D01*
X0362956Y0329790D01*
X0360861Y0328922D01*
X0359258Y0327319D01*
X0359090Y0326913D01*
X0358922Y0327319D01*
X0357319Y0328922D01*
X0356913Y0329090D01*
X0357319Y0329258D01*
X0358922Y0330861D01*
X0359790Y0332956D01*
X0359790Y0335224D01*
X0358922Y0337319D01*
X0357319Y0338922D01*
X0356913Y0339090D01*
X0357319Y0339258D01*
X0358922Y0340861D01*
X0359790Y0342956D01*
X0359790Y0344699D01*
X0385581Y0370490D01*
X0396172Y0370490D01*
X0397489Y0369173D01*
X0397690Y0369090D01*
X0397489Y0369007D01*
X0395858Y0367375D01*
X0394975Y0365243D01*
X0394975Y0362936D01*
X0395858Y0360804D01*
X0397489Y0359173D01*
X0399621Y0358290D01*
X0407928Y0358290D01*
X0410060Y0359173D01*
X0410503Y0359616D01*
X0410861Y0359258D01*
X0411266Y0359090D01*
X0410861Y0358922D01*
X0409258Y0357319D01*
X0408390Y0355224D01*
X0408390Y0352956D01*
X0409258Y0350861D01*
X0410861Y0349258D01*
X0411266Y0349090D01*
X0410861Y0348922D01*
X0409258Y0347319D01*
X0408390Y0345224D01*
X0408390Y0342956D01*
X0409258Y0340861D01*
X0410861Y0339258D01*
X0411266Y0339090D01*
X0410861Y0338922D01*
X0409258Y0337319D01*
X0408390Y0335224D01*
X0408390Y0332956D01*
X0409258Y0330861D01*
X0410861Y0329258D01*
X0411266Y0329090D01*
X0410861Y0328922D01*
X0409258Y0327319D01*
X0408390Y0325224D01*
X0408390Y0322956D01*
X0409258Y0320861D01*
X0410861Y0319258D01*
X0411266Y0319090D01*
X0410861Y0318922D01*
X0409258Y0317319D01*
X0408390Y0315224D01*
X0408390Y0312956D01*
X0409258Y0310861D01*
X0410861Y0309258D01*
X0411266Y0309090D01*
X0410861Y0308922D01*
X0409258Y0307319D01*
X0408390Y0305224D01*
X0408390Y0302956D01*
X0409258Y0300861D01*
X0410861Y0299258D01*
X0411266Y0299090D01*
X0410861Y0298922D01*
X0409258Y0297319D01*
X0408390Y0295224D01*
X0408390Y0292956D01*
X0409258Y0290861D01*
X0410861Y0289258D01*
X0411266Y0289090D01*
X0410861Y0288922D01*
X0409258Y0287319D01*
X0408390Y0285224D01*
X0408390Y0282956D01*
X0409258Y0280861D01*
X0410861Y0279258D01*
X0412040Y0278769D01*
X0411417Y0278452D01*
X0410767Y0277980D01*
X0410200Y0277412D01*
X0409728Y0276763D01*
X0409363Y0276047D01*
X0409115Y0275284D01*
X0408990Y0274491D01*
X0408990Y0274090D01*
X0414090Y0274090D01*
X0419190Y0274090D01*
X0419190Y0274491D01*
X0419064Y0275284D01*
X0418816Y0276047D01*
X0418452Y0276763D01*
X0417980Y0277412D01*
X0417412Y0277980D01*
X0416763Y0278452D01*
X0416140Y0278769D01*
X0417319Y0279258D01*
X0418922Y0280861D01*
X0419790Y0282956D01*
X0419790Y0285224D01*
X0418922Y0287319D01*
X0417319Y0288922D01*
X0416913Y0289090D01*
X0417319Y0289258D01*
X0418922Y0290861D01*
X0419790Y0292956D01*
X0419790Y0295224D01*
X0419314Y0296373D01*
X0421439Y0294247D01*
X0421439Y0289385D01*
X0422322Y0287253D01*
X0423954Y0285622D01*
X0426086Y0284739D01*
X0428393Y0284739D01*
X0430525Y0285622D01*
X0432156Y0287253D01*
X0432239Y0287454D01*
X0432322Y0287253D01*
X0433954Y0285622D01*
X0436086Y0284739D01*
X0438393Y0284739D01*
X0440525Y0285622D01*
X0442156Y0287253D01*
X0442569Y0288250D01*
X0442792Y0287813D01*
X0443273Y0287151D01*
X0443852Y0286572D01*
X0444514Y0286091D01*
X0445243Y0285720D01*
X0446022Y0285467D01*
X0446830Y0285339D01*
X0447239Y0285339D01*
X0447239Y0293538D01*
X0447239Y0293538D01*
X0447239Y0285339D01*
X0447649Y0285339D01*
X0448457Y0285467D01*
X0449235Y0285720D01*
X0449965Y0286091D01*
X0450627Y0286572D01*
X0451206Y0287151D01*
X0451687Y0287813D01*
X0452058Y0288542D01*
X0452311Y0289321D01*
X0452439Y0290129D01*
X0452439Y0293539D01*
X0452439Y0296948D01*
X0452311Y0297756D01*
X0452058Y0298535D01*
X0451687Y0299264D01*
X0451206Y0299926D01*
X0450627Y0300505D01*
X0449965Y0300986D01*
X0449235Y0301358D01*
X0448457Y0301611D01*
X0447649Y0301739D01*
X0447239Y0301739D01*
X0446830Y0301739D01*
X0446022Y0301611D01*
X0445243Y0301358D01*
X0444514Y0300986D01*
X0443852Y0300505D01*
X0443273Y0299926D01*
X0442792Y0299264D01*
X0442569Y0298827D01*
X0442156Y0299824D01*
X0440525Y0301456D01*
X0439989Y0301678D01*
X0441261Y0302205D01*
X0443258Y0304202D01*
X0443448Y0304661D01*
X0445085Y0303024D01*
X0447239Y0303024D01*
X0447239Y0308223D01*
X0447239Y0308223D01*
X0447239Y0303024D01*
X0449393Y0303024D01*
X0452439Y0306070D01*
X0452439Y0308224D01*
X0452439Y0310378D01*
X0449593Y0313224D01*
X0452439Y0316070D01*
X0452439Y0318224D01*
X0452439Y0320378D01*
X0449393Y0323424D01*
X0447239Y0323424D01*
X0445085Y0323424D01*
X0444339Y0322677D01*
X0444339Y0327557D01*
X0444514Y0327430D01*
X0445243Y0327058D01*
X0446022Y0326805D01*
X0446830Y0326677D01*
X0447239Y0326677D01*
X0447239Y0334877D01*
X0447239Y0334877D01*
X0447239Y0343077D01*
X0446830Y0343077D01*
X0446022Y0342949D01*
X0445243Y0342696D01*
X0444514Y0342325D01*
X0444339Y0342198D01*
X0444339Y0345108D01*
X0445085Y0344362D01*
X0447239Y0344362D01*
X0447239Y0349562D01*
X0447239Y0349562D01*
X0447239Y0344362D01*
X0449393Y0344362D01*
X0452439Y0347408D01*
X0452439Y0349562D01*
X0447239Y0349562D01*
X0447239Y0359562D01*
X0447239Y0359562D01*
X0447239Y0354362D01*
X0447239Y0349562D01*
X0447239Y0349562D01*
X0447239Y0349562D01*
X0452439Y0349562D01*
X0452439Y0351716D01*
X0449593Y0354562D01*
X0452439Y0357408D01*
X0452439Y0359562D01*
X0447239Y0359562D01*
X0447239Y0364762D01*
X0445085Y0364762D01*
X0444339Y0364016D01*
X0444339Y0370864D01*
X0444514Y0370737D01*
X0445243Y0370365D01*
X0446022Y0370112D01*
X0446830Y0369984D01*
X0447239Y0369984D01*
X0447239Y0378184D01*
X0447239Y0378184D01*
X0447239Y0369984D01*
X0447649Y0369984D01*
X0448457Y0370112D01*
X0449235Y0370365D01*
X0449965Y0370737D01*
X0450627Y0371218D01*
X0451206Y0371797D01*
X0451687Y0372459D01*
X0452058Y0373188D01*
X0452311Y0373967D01*
X0452439Y0374775D01*
X0452439Y0378184D01*
X0447239Y0378184D01*
X0447239Y0386384D01*
X0446830Y0386384D01*
X0446022Y0386256D01*
X0445243Y0386003D01*
X0444514Y0385632D01*
X0444339Y0385505D01*
X0444339Y0388415D01*
X0445085Y0387669D01*
X0447239Y0387669D01*
X0447239Y0392869D01*
X0447239Y0392869D01*
X0447239Y0387669D01*
X0449393Y0387669D01*
X0452439Y0390715D01*
X0452439Y0392869D01*
X0447239Y0392869D01*
X0447239Y0402869D01*
X0447239Y0402869D01*
X0447239Y0397669D01*
X0447239Y0392869D01*
X0447239Y0392869D01*
X0447239Y0392869D01*
X0452439Y0392869D01*
X0452439Y0395023D01*
X0449593Y0397869D01*
X0452439Y0400715D01*
X0452439Y0402869D01*
X0447239Y0402869D01*
X0447239Y0408069D01*
X0445085Y0408069D01*
X0445039Y0408023D01*
X0445039Y0417137D01*
X0444980Y0417280D01*
X0444980Y0419501D01*
X0444278Y0422121D01*
X0442922Y0424469D01*
X0441634Y0425758D01*
X0441634Y0428902D01*
X0441730Y0429262D01*
X0442765Y0428228D01*
X0444897Y0427345D01*
X0453204Y0427345D01*
X0455336Y0428228D01*
X0456967Y0429859D01*
X0457850Y0431991D01*
X0457850Y0434299D01*
X0456967Y0436430D01*
X0455336Y0438062D01*
X0454339Y0438475D01*
X0454776Y0438697D01*
X0455438Y0439179D01*
X0456017Y0439757D01*
X0456498Y0440419D01*
X0456869Y0441149D01*
X0457122Y0441927D01*
X0457250Y0442736D01*
X0457250Y0443145D01*
X0457250Y0443554D01*
X0457122Y0444363D01*
X0456869Y0445141D01*
X0456498Y0445870D01*
X0456017Y0446532D01*
X0455438Y0447111D01*
X0454776Y0447592D01*
X0454339Y0447815D01*
X0455336Y0448228D01*
X0456248Y0449141D01*
X0456369Y0448850D02*
X0455958Y0448850D01*
X0456076Y0446451D02*
X0458329Y0446451D01*
X0457171Y0444053D02*
X0463296Y0444053D01*
X0465694Y0441654D02*
X0457034Y0441654D01*
X0457250Y0443145D02*
X0449051Y0443145D01*
X0457250Y0443145D01*
X0455515Y0439256D02*
X0468093Y0439256D01*
X0468344Y0436857D02*
X0456541Y0436857D01*
X0457784Y0434459D02*
X0468344Y0434459D01*
X0468344Y0432060D02*
X0457850Y0432060D01*
X0456769Y0429661D02*
X0468344Y0429661D01*
X0468344Y0427263D02*
X0441634Y0427263D01*
X0442527Y0424864D02*
X0451111Y0424864D01*
X0451176Y0424929D02*
X0447778Y0421532D01*
X0447778Y0416727D01*
X0451176Y0413329D01*
X0455980Y0413329D01*
X0459378Y0416727D01*
X0459378Y0421532D01*
X0455980Y0424929D01*
X0451176Y0424929D01*
X0448712Y0422466D02*
X0444079Y0422466D01*
X0444829Y0420067D02*
X0447778Y0420067D01*
X0447778Y0417669D02*
X0444980Y0417669D01*
X0445039Y0415270D02*
X0449234Y0415270D01*
X0445039Y0412872D02*
X0459055Y0412872D01*
X0459055Y0410473D02*
X0445039Y0410473D01*
X0445039Y0408075D02*
X0459055Y0408075D01*
X0459786Y0405676D02*
X0451786Y0405676D01*
X0452439Y0405023D02*
X0449393Y0408069D01*
X0447239Y0408069D01*
X0447239Y0402869D01*
X0447239Y0402869D01*
X0447239Y0402869D01*
X0452439Y0402869D01*
X0452439Y0405023D01*
X0452439Y0403278D02*
X0467880Y0403278D01*
X0469024Y0405676D02*
X0469328Y0405676D01*
X0464780Y0405676D02*
X0464030Y0405676D01*
X0464030Y0408075D02*
X0464780Y0408075D01*
X0464780Y0410473D02*
X0464030Y0410473D01*
X0459215Y0415270D02*
X0457922Y0415270D01*
X0459378Y0417669D02*
X0462205Y0417669D01*
X0462205Y0420067D02*
X0459378Y0420067D01*
X0458444Y0422466D02*
X0462205Y0422466D01*
X0462205Y0420980D02*
X0466884Y0420980D01*
X0466884Y0426054D01*
X0464115Y0426054D01*
X0463556Y0425904D01*
X0463054Y0425614D01*
X0462644Y0425204D01*
X0462355Y0424703D01*
X0462205Y0424143D01*
X0462205Y0420980D01*
X0462448Y0424864D02*
X0456045Y0424864D01*
X0466884Y0424864D02*
X0467043Y0424864D01*
X0467043Y0422466D02*
X0466884Y0422466D01*
X0480544Y0422466D02*
X0493063Y0422466D01*
X0493063Y0424864D02*
X0480544Y0424864D01*
X0480544Y0427263D02*
X0493063Y0427263D01*
X0493063Y0429661D02*
X0480544Y0429661D01*
X0480544Y0432060D02*
X0493063Y0432060D01*
X0493063Y0434459D02*
X0480544Y0434459D01*
X0480544Y0436857D02*
X0493063Y0436857D01*
X0493063Y0439256D02*
X0480544Y0439256D01*
X0480544Y0441654D02*
X0493063Y0441654D01*
X0493063Y0444053D02*
X0480002Y0444053D01*
X0478150Y0446451D02*
X0493063Y0446451D01*
X0493063Y0448850D02*
X0475752Y0448850D01*
X0477899Y0446702D02*
X0477899Y0446702D01*
X0473402Y0451248D02*
X0493063Y0451248D01*
X0493063Y0453647D02*
X0472938Y0453647D01*
X0471132Y0456045D02*
X0493063Y0456045D01*
X0493063Y0458444D02*
X0471901Y0458444D01*
X0472782Y0460842D02*
X0493063Y0460842D01*
X0493063Y0463241D02*
X0472462Y0463241D01*
X0470577Y0465639D02*
X0493063Y0465639D01*
X0493063Y0468038D02*
X0472468Y0468038D01*
X0473402Y0470436D02*
X0493063Y0470436D01*
X0493063Y0472835D02*
X0473274Y0472835D01*
X0471944Y0475233D02*
X0493063Y0475233D01*
X0493063Y0477632D02*
X0472062Y0477632D01*
X0473323Y0480030D02*
X0493063Y0480030D01*
X0493063Y0482429D02*
X0473402Y0482429D01*
X0472350Y0484827D02*
X0493063Y0484827D01*
X0486388Y0524469D02*
X0486388Y0524469D01*
X0488151Y0525602D02*
X0493063Y0525602D01*
X0493063Y0528000D02*
X0491443Y0528000D01*
X0490889Y0527362D02*
X0490889Y0527362D01*
X0465059Y0554384D02*
X0429543Y0554384D01*
X0466267Y0555778D02*
X0466267Y0555778D01*
X0410751Y0508812D02*
X0391890Y0508812D01*
X0391890Y0506414D02*
X0408883Y0506414D01*
X0408390Y0504015D02*
X0391890Y0504015D01*
X0391890Y0501617D02*
X0408944Y0501617D01*
X0410956Y0499218D02*
X0391890Y0499218D01*
X0391811Y0496820D02*
X0409051Y0496820D01*
X0408390Y0494421D02*
X0391811Y0494421D01*
X0391811Y0492023D02*
X0408776Y0492023D01*
X0410494Y0489624D02*
X0391725Y0489624D01*
X0391130Y0475233D02*
X0408394Y0475233D01*
X0408440Y0472835D02*
X0391211Y0472835D01*
X0391211Y0470436D02*
X0409682Y0470436D01*
X0409977Y0468038D02*
X0391211Y0468038D01*
X0385290Y0460842D02*
X0382890Y0460842D01*
X0382890Y0458444D02*
X0385290Y0458444D01*
X0385290Y0456045D02*
X0382890Y0456045D01*
X0358609Y0477632D02*
X0409571Y0477632D01*
X0410088Y0480030D02*
X0358091Y0480030D01*
X0359571Y0482429D02*
X0408608Y0482429D01*
X0408390Y0484827D02*
X0359790Y0484827D01*
X0358960Y0487226D02*
X0409219Y0487226D01*
X0419449Y0456045D02*
X0421428Y0456045D01*
X0421428Y0453647D02*
X0419790Y0453647D01*
X0419082Y0451248D02*
X0421428Y0451248D01*
X0421428Y0448850D02*
X0417391Y0448850D01*
X0419281Y0446451D02*
X0421428Y0446451D01*
X0421428Y0444053D02*
X0419790Y0444053D01*
X0419250Y0441654D02*
X0421428Y0441654D01*
X0421428Y0439256D02*
X0417314Y0439256D01*
X0419113Y0436857D02*
X0421428Y0436857D01*
X0421428Y0434459D02*
X0419790Y0434459D01*
X0419419Y0432060D02*
X0421034Y0432060D01*
X0421034Y0429661D02*
X0417723Y0429661D01*
X0418945Y0427263D02*
X0421034Y0427263D01*
X0421034Y0424864D02*
X0419790Y0424864D01*
X0419587Y0422466D02*
X0421034Y0422466D01*
X0421052Y0420067D02*
X0418128Y0420067D01*
X0418572Y0417669D02*
X0421695Y0417669D01*
X0423032Y0415270D02*
X0419770Y0415270D01*
X0419755Y0412872D02*
X0425387Y0412872D01*
X0427785Y0410473D02*
X0418534Y0410473D01*
X0418166Y0408075D02*
X0424243Y0408075D01*
X0421844Y0405676D02*
X0419602Y0405676D01*
X0419790Y0403278D02*
X0421439Y0403278D01*
X0420158Y0400879D02*
X0418930Y0400879D01*
X0409645Y0410473D02*
X0357686Y0410473D01*
X0358166Y0408075D02*
X0396557Y0408075D01*
X0395154Y0405676D02*
X0359602Y0405676D01*
X0359790Y0403278D02*
X0394975Y0403278D01*
X0395827Y0400879D02*
X0358930Y0400879D01*
X0357760Y0398481D02*
X0397972Y0398481D01*
X0395955Y0396082D02*
X0359434Y0396082D01*
X0359790Y0393684D02*
X0395575Y0393684D01*
X0396385Y0391285D02*
X0359098Y0391285D01*
X0357354Y0388887D02*
X0397369Y0388887D01*
X0381397Y0386488D02*
X0359266Y0386488D01*
X0359790Y0384090D02*
X0378999Y0384090D01*
X0376600Y0381691D02*
X0359266Y0381691D01*
X0357354Y0379293D02*
X0374202Y0379293D01*
X0371803Y0376894D02*
X0359098Y0376894D01*
X0359790Y0374496D02*
X0369405Y0374496D01*
X0367006Y0372097D02*
X0359434Y0372097D01*
X0357760Y0369699D02*
X0364608Y0369699D01*
X0362209Y0367300D02*
X0358930Y0367300D01*
X0359790Y0364902D02*
X0359811Y0364902D01*
X0370399Y0355308D02*
X0408425Y0355308D01*
X0408409Y0352909D02*
X0368000Y0352909D01*
X0365602Y0350511D02*
X0409608Y0350511D01*
X0410051Y0348112D02*
X0363203Y0348112D01*
X0360805Y0345714D02*
X0408593Y0345714D01*
X0408390Y0343315D02*
X0359790Y0343315D01*
X0358945Y0340917D02*
X0409234Y0340917D01*
X0410457Y0338518D02*
X0357722Y0338518D01*
X0359419Y0336120D02*
X0408761Y0336120D01*
X0408390Y0333721D02*
X0359790Y0333721D01*
X0359113Y0331323D02*
X0409066Y0331323D01*
X0410866Y0328924D02*
X0367314Y0328924D01*
X0369250Y0326525D02*
X0408929Y0326525D01*
X0408390Y0324127D02*
X0369790Y0324127D01*
X0369281Y0321728D02*
X0408898Y0321728D01*
X0410789Y0319330D02*
X0367391Y0319330D01*
X0369082Y0316931D02*
X0409097Y0316931D01*
X0408390Y0314533D02*
X0369790Y0314533D01*
X0374094Y0312134D02*
X0408730Y0312134D01*
X0410383Y0309736D02*
X0374304Y0309736D01*
X0374304Y0307337D02*
X0409276Y0307337D01*
X0408390Y0304939D02*
X0373294Y0304939D01*
X0369618Y0302540D02*
X0408562Y0302540D01*
X0409977Y0300142D02*
X0368203Y0300142D01*
X0359977Y0300142D02*
X0358203Y0300142D01*
X0358497Y0297743D02*
X0409682Y0297743D01*
X0408440Y0295345D02*
X0359740Y0295345D01*
X0359786Y0292946D02*
X0408394Y0292946D01*
X0409571Y0290548D02*
X0358609Y0290548D01*
X0357179Y0288149D02*
X0360088Y0288149D01*
X0354090Y0284090D02*
X0348990Y0284090D01*
X0348990Y0284491D01*
X0349115Y0285284D01*
X0349363Y0286047D01*
X0349728Y0286763D01*
X0350200Y0287412D01*
X0350767Y0287980D01*
X0351417Y0288452D01*
X0352040Y0288769D01*
X0350861Y0289258D01*
X0349258Y0290861D01*
X0348390Y0292956D01*
X0348390Y0295224D01*
X0349258Y0297319D01*
X0350861Y0298922D01*
X0351266Y0299090D01*
X0350861Y0299258D01*
X0349258Y0300861D01*
X0348390Y0302956D01*
X0348390Y0305224D01*
X0348500Y0305490D01*
X0337742Y0305490D01*
X0337742Y0304136D01*
X0336813Y0301894D01*
X0335268Y0300350D01*
X0336813Y0298805D01*
X0337742Y0296563D01*
X0337742Y0294136D01*
X0336813Y0291894D01*
X0335097Y0290178D01*
X0333568Y0289545D01*
X0333568Y0271345D01*
X0350676Y0254238D01*
X0366446Y0254238D01*
X0351827Y0268858D01*
X0350861Y0269258D01*
X0350029Y0270090D01*
X0345459Y0270090D01*
X0343989Y0270699D01*
X0342864Y0271824D01*
X0342864Y0271824D01*
X0342060Y0272628D01*
X0338848Y0272628D01*
X0337819Y0273055D01*
X0337031Y0273842D01*
X0336605Y0274871D01*
X0336605Y0281103D01*
X0337031Y0282133D01*
X0337271Y0282372D01*
X0337205Y0282619D01*
X0337205Y0285388D01*
X0342278Y0285388D01*
X0342278Y0285547D01*
X0337205Y0285547D01*
X0337205Y0288316D01*
X0337355Y0288876D01*
X0337644Y0289378D01*
X0338054Y0289787D01*
X0338556Y0290077D01*
X0339115Y0290227D01*
X0342278Y0290227D01*
X0342278Y0285547D01*
X0342437Y0285547D01*
X0347510Y0285547D01*
X0347510Y0288316D01*
X0347360Y0288876D01*
X0347071Y0289378D01*
X0346661Y0289787D01*
X0346159Y0290077D01*
X0345600Y0290227D01*
X0342437Y0290227D01*
X0342437Y0285547D01*
X0342437Y0285388D01*
X0347510Y0285388D01*
X0347510Y0282619D01*
X0347444Y0282372D01*
X0347684Y0282133D01*
X0348110Y0281103D01*
X0348110Y0278090D01*
X0350029Y0278090D01*
X0350861Y0278922D01*
X0352040Y0279410D01*
X0351417Y0279728D01*
X0350767Y0280200D01*
X0350200Y0280767D01*
X0349728Y0281417D01*
X0349363Y0282132D01*
X0349115Y0282895D01*
X0348990Y0283688D01*
X0348990Y0284090D01*
X0354090Y0284090D01*
X0354090Y0284090D01*
X0349043Y0283352D02*
X0347510Y0283352D01*
X0347510Y0285751D02*
X0349267Y0285751D01*
X0351001Y0288149D02*
X0347510Y0288149D01*
X0349571Y0290548D02*
X0335467Y0290548D01*
X0337205Y0288149D02*
X0333568Y0288149D01*
X0333568Y0285751D02*
X0337205Y0285751D01*
X0337205Y0283352D02*
X0333568Y0283352D01*
X0333568Y0280954D02*
X0336605Y0280954D01*
X0336605Y0278555D02*
X0333568Y0278555D01*
X0333568Y0276157D02*
X0336605Y0276157D01*
X0337115Y0273758D02*
X0333568Y0273758D01*
X0333568Y0271360D02*
X0343328Y0271360D01*
X0346255Y0274090D02*
X0342357Y0277987D01*
X0346255Y0274090D02*
X0354090Y0274090D01*
X0363263Y0274090D01*
X0364798Y0275231D01*
X0368681Y0268961D02*
X0460667Y0268961D01*
X0460667Y0266563D02*
X0369112Y0266563D01*
X0371511Y0264164D02*
X0460667Y0264164D01*
X0460667Y0261766D02*
X0415484Y0261766D01*
X0416142Y0261108D02*
X0416142Y0261108D01*
X0417882Y0259367D02*
X0460667Y0259367D01*
X0460667Y0256969D02*
X0420281Y0256969D01*
X0422679Y0254570D02*
X0460667Y0254570D01*
X0460667Y0252172D02*
X0425078Y0252172D01*
X0427477Y0249773D02*
X0458813Y0249773D01*
X0456415Y0247375D02*
X0429187Y0247375D01*
X0429508Y0244976D02*
X0454016Y0244976D01*
X0451618Y0242578D02*
X0429508Y0242578D01*
X0429508Y0240179D02*
X0449219Y0240179D01*
X0446821Y0237781D02*
X0429508Y0237781D01*
X0429508Y0235382D02*
X0444422Y0235382D01*
X0442024Y0232984D02*
X0429508Y0232984D01*
X0429508Y0230585D02*
X0439625Y0230585D01*
X0435551Y0228187D02*
X0429508Y0228187D01*
X0429745Y0225788D02*
X0433670Y0225788D01*
X0433108Y0223390D02*
X0430308Y0223390D01*
X0430308Y0220991D02*
X0433108Y0220991D01*
X0433108Y0218592D02*
X0430308Y0218592D01*
X0430308Y0216194D02*
X0433108Y0216194D01*
X0433774Y0213795D02*
X0429642Y0213795D01*
X0424208Y0219917D02*
X0424208Y0226609D01*
X0418302Y0232515D01*
X0413617Y0232909D01*
X0402397Y0232909D01*
X0401806Y0233499D01*
X0396054Y0232984D02*
X0391222Y0232984D01*
X0391757Y0232448D02*
X0390519Y0233686D01*
X0371400Y0252806D01*
X0409453Y0252806D01*
X0412977Y0249282D01*
X0409784Y0249282D01*
X0409225Y0249132D01*
X0408723Y0248842D01*
X0408314Y0248433D01*
X0408024Y0247931D01*
X0407874Y0247372D01*
X0407874Y0244307D01*
X0413242Y0244307D01*
X0413242Y0243557D01*
X0407874Y0243557D01*
X0407874Y0240493D01*
X0408024Y0239934D01*
X0408314Y0239432D01*
X0408723Y0239022D01*
X0409220Y0238735D01*
X0408488Y0238432D01*
X0407700Y0237644D01*
X0407417Y0236959D01*
X0407133Y0237644D01*
X0406893Y0237884D01*
X0406959Y0238131D01*
X0406959Y0240900D01*
X0401886Y0240900D01*
X0401886Y0241059D01*
X0406959Y0241059D01*
X0406959Y0243828D01*
X0406809Y0244388D01*
X0406519Y0244889D01*
X0406110Y0245299D01*
X0405608Y0245589D01*
X0405049Y0245739D01*
X0401886Y0245739D01*
X0401886Y0241059D01*
X0401727Y0241059D01*
X0401727Y0245739D01*
X0398564Y0245739D01*
X0398004Y0245589D01*
X0397503Y0245299D01*
X0397093Y0244889D01*
X0396803Y0244388D01*
X0396654Y0243828D01*
X0396654Y0241059D01*
X0401727Y0241059D01*
X0401727Y0240900D01*
X0396654Y0240900D01*
X0396654Y0238131D01*
X0396720Y0237884D01*
X0396480Y0237644D01*
X0396054Y0236615D01*
X0396054Y0230383D01*
X0396480Y0229354D01*
X0397267Y0228566D01*
X0398297Y0228140D01*
X0399324Y0228140D01*
X0397855Y0226672D01*
X0396927Y0224430D01*
X0396927Y0215403D01*
X0397855Y0213161D01*
X0398892Y0212124D01*
X0392161Y0212124D01*
X0393198Y0213161D01*
X0394127Y0215403D01*
X0394127Y0224430D01*
X0393198Y0226672D01*
X0392427Y0227443D01*
X0392427Y0230831D01*
X0391757Y0232448D01*
X0392427Y0230585D02*
X0396054Y0230585D01*
X0398185Y0228187D02*
X0392427Y0228187D01*
X0393564Y0225788D02*
X0397489Y0225788D01*
X0396927Y0223390D02*
X0394127Y0223390D01*
X0394127Y0220991D02*
X0396927Y0220991D01*
X0396927Y0218592D02*
X0394127Y0218592D01*
X0394127Y0216194D02*
X0396927Y0216194D01*
X0397593Y0213795D02*
X0393461Y0213795D01*
X0396054Y0235382D02*
X0388823Y0235382D01*
X0386425Y0237781D02*
X0396616Y0237781D01*
X0396654Y0240179D02*
X0384026Y0240179D01*
X0381628Y0242578D02*
X0396654Y0242578D01*
X0397180Y0244976D02*
X0379229Y0244976D01*
X0376831Y0247375D02*
X0407875Y0247375D01*
X0407874Y0244976D02*
X0406433Y0244976D01*
X0406959Y0242578D02*
X0407874Y0242578D01*
X0407958Y0240179D02*
X0406959Y0240179D01*
X0406997Y0237781D02*
X0407837Y0237781D01*
X0401886Y0242578D02*
X0401727Y0242578D01*
X0401727Y0244976D02*
X0401886Y0244976D01*
X0410087Y0252172D02*
X0372034Y0252172D01*
X0374432Y0249773D02*
X0412486Y0249773D01*
X0413688Y0268990D02*
X0414090Y0268990D01*
X0414491Y0268990D01*
X0415284Y0269115D01*
X0416047Y0269363D01*
X0416763Y0269728D01*
X0417412Y0270200D01*
X0417980Y0270767D01*
X0418452Y0271417D01*
X0418816Y0272132D01*
X0419064Y0272895D01*
X0419190Y0273688D01*
X0419190Y0274090D01*
X0414090Y0274090D01*
X0414090Y0274090D01*
X0414090Y0268990D01*
X0414090Y0274090D01*
X0414090Y0274090D01*
X0414090Y0274090D01*
X0408990Y0274090D01*
X0408990Y0273688D01*
X0409115Y0272895D01*
X0409363Y0272132D01*
X0409728Y0271417D01*
X0410200Y0270767D01*
X0410767Y0270200D01*
X0411417Y0269728D01*
X0412132Y0269363D01*
X0412895Y0269115D01*
X0413688Y0268990D01*
X0414090Y0271360D02*
X0414090Y0271360D01*
X0414090Y0273758D02*
X0414090Y0273758D01*
X0418410Y0271360D02*
X0460667Y0271360D01*
X0460667Y0273758D02*
X0419190Y0273758D01*
X0418760Y0276157D02*
X0460667Y0276157D01*
X0460667Y0278555D02*
X0416559Y0278555D01*
X0418960Y0280954D02*
X0460667Y0280954D01*
X0460667Y0283352D02*
X0419790Y0283352D01*
X0419571Y0285751D02*
X0423825Y0285751D01*
X0421951Y0288149D02*
X0418091Y0288149D01*
X0418609Y0290548D02*
X0421439Y0290548D01*
X0421439Y0292946D02*
X0419786Y0292946D01*
X0419740Y0295345D02*
X0420342Y0295345D01*
X0430654Y0285751D02*
X0433825Y0285751D01*
X0440654Y0285751D02*
X0445182Y0285751D01*
X0447239Y0285751D02*
X0447239Y0285751D01*
X0449297Y0285751D02*
X0460667Y0285751D01*
X0460667Y0288149D02*
X0451858Y0288149D01*
X0452439Y0290548D02*
X0460667Y0290548D01*
X0460667Y0292946D02*
X0452439Y0292946D01*
X0452439Y0293539D02*
X0447239Y0293539D01*
X0447239Y0301739D01*
X0447239Y0293539D01*
X0447239Y0293539D01*
X0452439Y0293539D01*
X0452439Y0295345D02*
X0460667Y0295345D01*
X0460667Y0297743D02*
X0452313Y0297743D01*
X0450990Y0300142D02*
X0460667Y0300142D01*
X0460667Y0302540D02*
X0441597Y0302540D01*
X0441839Y0300142D02*
X0443489Y0300142D01*
X0447239Y0300142D02*
X0447239Y0300142D01*
X0447239Y0297743D02*
X0447239Y0297743D01*
X0447239Y0295345D02*
X0447239Y0295345D01*
X0447239Y0293539D02*
X0447239Y0293539D01*
X0447239Y0292946D02*
X0447239Y0292946D01*
X0447239Y0290548D02*
X0447239Y0290548D01*
X0447239Y0288149D02*
X0447239Y0288149D01*
X0442621Y0288149D02*
X0442528Y0288149D01*
X0447239Y0304939D02*
X0447239Y0304939D01*
X0447239Y0307337D02*
X0447239Y0307337D01*
X0447239Y0308224D02*
X0447239Y0308224D01*
X0447239Y0318223D01*
X0447239Y0318223D01*
X0447239Y0313024D01*
X0447239Y0308224D01*
X0447239Y0308224D01*
X0452439Y0308224D01*
X0447239Y0308224D01*
X0447239Y0309736D02*
X0447239Y0309736D01*
X0447239Y0312134D02*
X0447239Y0312134D01*
X0447239Y0314533D02*
X0447239Y0314533D01*
X0447239Y0316931D02*
X0447239Y0316931D01*
X0447239Y0318224D02*
X0447239Y0318224D01*
X0447239Y0323424D01*
X0447239Y0318224D01*
X0447239Y0318224D01*
X0452439Y0318224D01*
X0447239Y0318224D01*
X0447239Y0319330D02*
X0447239Y0319330D01*
X0447239Y0321728D02*
X0447239Y0321728D01*
X0444339Y0324127D02*
X0460667Y0324127D01*
X0460667Y0326525D02*
X0444339Y0326525D01*
X0447239Y0326677D02*
X0447239Y0334877D01*
X0447239Y0334877D01*
X0447239Y0334877D01*
X0452439Y0334877D01*
X0452439Y0331468D01*
X0452311Y0330659D01*
X0452058Y0329881D01*
X0451687Y0329152D01*
X0451206Y0328490D01*
X0450627Y0327911D01*
X0449965Y0327430D01*
X0449235Y0327058D01*
X0448457Y0326805D01*
X0447649Y0326677D01*
X0447239Y0326677D01*
X0447239Y0328924D02*
X0447239Y0328924D01*
X0447239Y0331323D02*
X0447239Y0331323D01*
X0447239Y0333721D02*
X0447239Y0333721D01*
X0447239Y0334877D02*
X0452439Y0334877D01*
X0452439Y0338286D01*
X0452311Y0339095D01*
X0452058Y0339873D01*
X0451687Y0340603D01*
X0451206Y0341265D01*
X0450627Y0341843D01*
X0449965Y0342325D01*
X0449235Y0342696D01*
X0448457Y0342949D01*
X0447649Y0343077D01*
X0447239Y0343077D01*
X0447239Y0334877D01*
X0447239Y0336120D02*
X0447239Y0336120D01*
X0447239Y0338518D02*
X0447239Y0338518D01*
X0447239Y0340917D02*
X0447239Y0340917D01*
X0444339Y0343315D02*
X0460667Y0343315D01*
X0460667Y0340917D02*
X0451459Y0340917D01*
X0452403Y0338518D02*
X0460667Y0338518D01*
X0460667Y0336120D02*
X0452439Y0336120D01*
X0452439Y0333721D02*
X0460667Y0333721D01*
X0460667Y0331323D02*
X0452416Y0331323D01*
X0451521Y0328924D02*
X0460667Y0328924D01*
X0460667Y0321728D02*
X0451088Y0321728D01*
X0452439Y0319330D02*
X0460667Y0319330D01*
X0460667Y0316931D02*
X0452439Y0316931D01*
X0450903Y0314533D02*
X0460667Y0314533D01*
X0460667Y0312134D02*
X0450682Y0312134D01*
X0452439Y0309736D02*
X0460667Y0309736D01*
X0460667Y0307337D02*
X0452439Y0307337D01*
X0451309Y0304939D02*
X0460667Y0304939D01*
X0472867Y0304939D02*
X0493063Y0304939D01*
X0493063Y0307337D02*
X0472867Y0307337D01*
X0472867Y0309736D02*
X0493063Y0309736D01*
X0493063Y0312134D02*
X0472867Y0312134D01*
X0472867Y0314533D02*
X0493063Y0314533D01*
X0493063Y0316931D02*
X0472867Y0316931D01*
X0472867Y0319330D02*
X0493063Y0319330D01*
X0493063Y0321728D02*
X0472867Y0321728D01*
X0472867Y0324127D02*
X0493063Y0324127D01*
X0493063Y0326525D02*
X0472867Y0326525D01*
X0472867Y0328924D02*
X0493063Y0328924D01*
X0493063Y0331323D02*
X0472867Y0331323D01*
X0472867Y0333721D02*
X0493063Y0333721D01*
X0493063Y0336120D02*
X0472867Y0336120D01*
X0472867Y0338518D02*
X0493063Y0338518D01*
X0493063Y0340917D02*
X0472867Y0340917D01*
X0472867Y0343315D02*
X0493063Y0343315D01*
X0493063Y0345714D02*
X0472867Y0345714D01*
X0472867Y0348112D02*
X0493063Y0348112D01*
X0493063Y0350511D02*
X0472867Y0350511D01*
X0472867Y0352909D02*
X0493063Y0352909D01*
X0493063Y0355308D02*
X0472867Y0355308D01*
X0472867Y0357706D02*
X0493063Y0357706D01*
X0493063Y0360105D02*
X0472867Y0360105D01*
X0472867Y0362503D02*
X0493063Y0362503D01*
X0493063Y0364902D02*
X0488448Y0364902D01*
X0490606Y0367300D02*
X0493063Y0367300D01*
X0493063Y0369699D02*
X0491285Y0369699D01*
X0490982Y0372097D02*
X0493063Y0372097D01*
X0493063Y0374496D02*
X0489469Y0374496D01*
X0490438Y0376894D02*
X0493063Y0376894D01*
X0493063Y0379293D02*
X0491285Y0379293D01*
X0491150Y0381691D02*
X0493063Y0381691D01*
X0493063Y0384090D02*
X0489875Y0384090D01*
X0489299Y0386488D02*
X0493063Y0386488D01*
X0493063Y0388887D02*
X0490553Y0388887D01*
X0490685Y0390153D02*
X0481885Y0390153D01*
X0481885Y0395653D01*
X0481885Y0390153D01*
X0481885Y0390153D01*
X0481885Y0390153D01*
X0473085Y0390153D01*
X0473085Y0390586D01*
X0473206Y0391351D01*
X0472867Y0391012D01*
X0472867Y0386021D01*
X0473428Y0386253D01*
X0474707Y0386253D01*
X0474390Y0386570D01*
X0473881Y0387270D01*
X0473488Y0388041D01*
X0473220Y0388865D01*
X0473085Y0389720D01*
X0473085Y0390153D01*
X0481885Y0390153D01*
X0490685Y0390153D01*
X0490574Y0391285D02*
X0493063Y0391285D01*
X0493063Y0393684D02*
X0489418Y0393684D01*
X0493063Y0396082D02*
X0477937Y0396082D01*
X0480336Y0398481D02*
X0493063Y0398481D01*
X0493063Y0400879D02*
X0481484Y0400879D01*
X0481528Y0403278D02*
X0493063Y0403278D01*
X0493063Y0405676D02*
X0481528Y0405676D01*
X0481528Y0408075D02*
X0493063Y0408075D01*
X0493063Y0410473D02*
X0481528Y0410473D01*
X0481378Y0412872D02*
X0493063Y0412872D01*
X0493063Y0415270D02*
X0481250Y0415270D01*
X0480544Y0417669D02*
X0493063Y0417669D01*
X0493063Y0420067D02*
X0480544Y0420067D01*
X0465481Y0400879D02*
X0452439Y0400879D01*
X0450205Y0398481D02*
X0463082Y0398481D01*
X0461218Y0396082D02*
X0451380Y0396082D01*
X0452439Y0393684D02*
X0460667Y0393684D01*
X0460667Y0391285D02*
X0452439Y0391285D01*
X0450611Y0388887D02*
X0460667Y0388887D01*
X0460667Y0386488D02*
X0444339Y0386488D01*
X0447239Y0386384D02*
X0447239Y0378184D01*
X0447239Y0378184D01*
X0447239Y0378184D01*
X0452439Y0378184D01*
X0452439Y0381594D01*
X0452311Y0382402D01*
X0452058Y0383180D01*
X0451687Y0383910D01*
X0451206Y0384572D01*
X0450627Y0385151D01*
X0449965Y0385632D01*
X0449235Y0386003D01*
X0448457Y0386256D01*
X0447649Y0386384D01*
X0447239Y0386384D01*
X0447239Y0384090D02*
X0447239Y0384090D01*
X0447239Y0381691D02*
X0447239Y0381691D01*
X0447239Y0379293D02*
X0447239Y0379293D01*
X0447239Y0376894D02*
X0447239Y0376894D01*
X0447239Y0374496D02*
X0447239Y0374496D01*
X0447239Y0372097D02*
X0447239Y0372097D01*
X0444339Y0369699D02*
X0460667Y0369699D01*
X0460667Y0372097D02*
X0451424Y0372097D01*
X0452395Y0374496D02*
X0460667Y0374496D01*
X0460667Y0376894D02*
X0452439Y0376894D01*
X0452439Y0379293D02*
X0460667Y0379293D01*
X0460667Y0381691D02*
X0452424Y0381691D01*
X0451556Y0384090D02*
X0460667Y0384090D01*
X0447239Y0388887D02*
X0447239Y0388887D01*
X0447239Y0391285D02*
X0447239Y0391285D01*
X0447239Y0393684D02*
X0447239Y0393684D01*
X0447239Y0396082D02*
X0447239Y0396082D01*
X0447239Y0398481D02*
X0447239Y0398481D01*
X0447239Y0400879D02*
X0447239Y0400879D01*
X0447239Y0403278D02*
X0447239Y0403278D01*
X0447239Y0405676D02*
X0447239Y0405676D01*
X0473140Y0391285D02*
X0473196Y0391285D01*
X0473217Y0388887D02*
X0472867Y0388887D01*
X0472867Y0386488D02*
X0474471Y0386488D01*
X0481885Y0390153D02*
X0481885Y0390153D01*
X0481885Y0391285D02*
X0481885Y0391285D01*
X0481885Y0393684D02*
X0481885Y0393684D01*
X0473164Y0367300D02*
X0472867Y0367300D01*
X0472867Y0364902D02*
X0475322Y0364902D01*
X0460667Y0364902D02*
X0444339Y0364902D01*
X0444339Y0367300D02*
X0460667Y0367300D01*
X0460667Y0362503D02*
X0451652Y0362503D01*
X0452439Y0361716D02*
X0449393Y0364762D01*
X0447239Y0364762D01*
X0447239Y0359562D01*
X0447239Y0359562D01*
X0447239Y0359562D01*
X0452439Y0359562D01*
X0452439Y0361716D01*
X0452439Y0360105D02*
X0460667Y0360105D01*
X0460667Y0357706D02*
X0452439Y0357706D01*
X0450339Y0355308D02*
X0460667Y0355308D01*
X0460667Y0352909D02*
X0451246Y0352909D01*
X0452439Y0350511D02*
X0460667Y0350511D01*
X0460667Y0348112D02*
X0452439Y0348112D01*
X0450745Y0345714D02*
X0460667Y0345714D01*
X0447239Y0345714D02*
X0447239Y0345714D01*
X0447239Y0348112D02*
X0447239Y0348112D01*
X0447239Y0350511D02*
X0447239Y0350511D01*
X0447239Y0352909D02*
X0447239Y0352909D01*
X0447239Y0355308D02*
X0447239Y0355308D01*
X0447239Y0357706D02*
X0447239Y0357706D01*
X0447239Y0360105D02*
X0447239Y0360105D01*
X0447239Y0362503D02*
X0447239Y0362503D01*
X0409645Y0357706D02*
X0372797Y0357706D01*
X0375196Y0360105D02*
X0396557Y0360105D01*
X0395154Y0362503D02*
X0377594Y0362503D01*
X0379993Y0364902D02*
X0394975Y0364902D01*
X0395827Y0367300D02*
X0382391Y0367300D01*
X0384790Y0369699D02*
X0396963Y0369699D01*
X0360866Y0328924D02*
X0357314Y0328924D01*
X0346563Y0326525D02*
X0336481Y0326525D01*
X0335440Y0319330D02*
X0350789Y0319330D01*
X0349097Y0316931D02*
X0336911Y0316931D01*
X0337081Y0314533D02*
X0348390Y0314533D01*
X0348390Y0304939D02*
X0337742Y0304939D01*
X0337081Y0302540D02*
X0348562Y0302540D01*
X0349977Y0300142D02*
X0335476Y0300142D01*
X0337253Y0297743D02*
X0349682Y0297743D01*
X0348440Y0295345D02*
X0337742Y0295345D01*
X0337249Y0292946D02*
X0348394Y0292946D01*
X0342437Y0288149D02*
X0342278Y0288149D01*
X0342278Y0285751D02*
X0342437Y0285751D01*
X0348110Y0280954D02*
X0350064Y0280954D01*
X0350494Y0278555D02*
X0348110Y0278555D01*
X0351576Y0268961D02*
X0335953Y0268961D01*
X0338351Y0266563D02*
X0354121Y0266563D01*
X0356520Y0264164D02*
X0340750Y0264164D01*
X0343148Y0261766D02*
X0358919Y0261766D01*
X0361317Y0259367D02*
X0345547Y0259367D01*
X0347945Y0256969D02*
X0363716Y0256969D01*
X0366114Y0254570D02*
X0350344Y0254570D01*
X0376197Y0269488D02*
X0376197Y0274857D01*
X0381172Y0274857D01*
X0381172Y0271399D01*
X0381022Y0270839D01*
X0380732Y0270337D01*
X0380322Y0269928D01*
X0379821Y0269638D01*
X0379261Y0269488D01*
X0376197Y0269488D01*
X0376197Y0271360D02*
X0375447Y0271360D01*
X0375447Y0273758D02*
X0376197Y0273758D01*
X0376197Y0276157D02*
X0375447Y0276157D01*
X0375447Y0278555D02*
X0376197Y0278555D01*
X0376197Y0280954D02*
X0375447Y0280954D01*
X0372304Y0280954D02*
X0369729Y0280954D01*
X0369790Y0283352D02*
X0408390Y0283352D01*
X0408608Y0285751D02*
X0369571Y0285751D01*
X0368091Y0288149D02*
X0410088Y0288149D01*
X0409219Y0280954D02*
X0379340Y0280954D01*
X0381172Y0278555D02*
X0411620Y0278555D01*
X0409419Y0276157D02*
X0381172Y0276157D01*
X0381172Y0273758D02*
X0408990Y0273758D01*
X0409769Y0271360D02*
X0381161Y0271360D01*
X0328342Y0316931D02*
X0328342Y0316931D01*
X0328342Y0319330D02*
X0328342Y0319330D01*
X0313893Y0333721D02*
X0313862Y0333721D01*
X0305105Y0333721D02*
X0303041Y0333721D01*
X0303425Y0331323D02*
X0304460Y0331323D01*
X0305287Y0321728D02*
X0275117Y0321728D01*
X0275117Y0319330D02*
X0306102Y0319330D01*
X0297752Y0316931D02*
X0297593Y0316931D01*
X0297593Y0314533D02*
X0297752Y0314533D01*
X0292520Y0314533D02*
X0275117Y0314533D01*
X0275117Y0316931D02*
X0292592Y0316931D01*
X0292520Y0312134D02*
X0275117Y0312134D01*
X0275117Y0309736D02*
X0292038Y0309736D01*
X0291920Y0307337D02*
X0275117Y0307337D01*
X0275117Y0304939D02*
X0291920Y0304939D01*
X0292200Y0302540D02*
X0275117Y0302540D01*
X0275117Y0324127D02*
X0295851Y0324127D01*
X0286030Y0326525D02*
X0275117Y0326525D01*
X0275117Y0328924D02*
X0284209Y0328924D01*
X0283652Y0331323D02*
X0275117Y0331323D01*
X0275117Y0333721D02*
X0284037Y0333721D01*
X0285613Y0336120D02*
X0275117Y0336120D01*
X0275117Y0338518D02*
X0284377Y0338518D01*
X0283652Y0340917D02*
X0275117Y0340917D01*
X0275117Y0343315D02*
X0283868Y0343315D01*
X0285207Y0345714D02*
X0275117Y0345714D01*
X0275117Y0348112D02*
X0284545Y0348112D01*
X0283652Y0350511D02*
X0275117Y0350511D01*
X0275117Y0352909D02*
X0283700Y0352909D01*
X0284801Y0355308D02*
X0275117Y0355308D01*
X0275117Y0357706D02*
X0284849Y0357706D01*
X0283720Y0360105D02*
X0275117Y0360105D01*
X0275117Y0362503D02*
X0283652Y0362503D01*
X0284526Y0364902D02*
X0275117Y0364902D01*
X0275117Y0367300D02*
X0285255Y0367300D01*
X0283888Y0369699D02*
X0275117Y0369699D01*
X0275117Y0372097D02*
X0283652Y0372097D01*
X0284357Y0374496D02*
X0275117Y0374496D01*
X0275117Y0376894D02*
X0285661Y0376894D01*
X0284056Y0379293D02*
X0275117Y0379293D01*
X0275117Y0381691D02*
X0283652Y0381691D01*
X0284189Y0384090D02*
X0275117Y0384090D01*
X0275117Y0386488D02*
X0285982Y0386488D01*
X0295803Y0388887D02*
X0275117Y0388887D01*
X0275117Y0391285D02*
X0305239Y0391285D01*
X0304480Y0381691D02*
X0303425Y0381691D01*
X0303021Y0379293D02*
X0305057Y0379293D01*
X0304560Y0369699D02*
X0303189Y0369699D01*
X0301822Y0367300D02*
X0304876Y0367300D01*
X0304742Y0357706D02*
X0302228Y0357706D01*
X0302276Y0355308D02*
X0304694Y0355308D01*
X0304923Y0345714D02*
X0301870Y0345714D01*
X0303209Y0343315D02*
X0304535Y0343315D01*
X0320530Y0345714D02*
X0320640Y0345714D01*
X0320613Y0367300D02*
X0320688Y0367300D01*
X0323840Y0412872D02*
X0275117Y0412872D01*
X0275117Y0415270D02*
X0316776Y0415270D01*
X0315740Y0417669D02*
X0275117Y0417669D01*
X0275117Y0420067D02*
X0315740Y0420067D01*
X0317592Y0422466D02*
X0275117Y0422466D01*
X0275117Y0424864D02*
X0317182Y0424864D01*
X0315740Y0427263D02*
X0275117Y0427263D01*
X0275117Y0429661D02*
X0315740Y0429661D01*
X0317186Y0432060D02*
X0275117Y0432060D01*
X0275117Y0434459D02*
X0323840Y0434459D01*
X0320940Y0436857D02*
X0320940Y0436857D01*
X0320940Y0439256D02*
X0320940Y0439256D01*
X0320940Y0441654D02*
X0320940Y0441654D01*
X0320940Y0444053D02*
X0320940Y0444053D01*
X0320940Y0446451D02*
X0320940Y0446451D01*
X0320940Y0448850D02*
X0320940Y0448850D01*
X0320940Y0451248D02*
X0320940Y0451248D01*
X0319920Y0451248D02*
X0275117Y0451248D01*
X0275117Y0448850D02*
X0316482Y0448850D01*
X0315740Y0446451D02*
X0275117Y0446451D01*
X0275117Y0444053D02*
X0315740Y0444053D01*
X0315740Y0441654D02*
X0275117Y0441654D01*
X0275117Y0439256D02*
X0315816Y0439256D01*
X0316901Y0436857D02*
X0275117Y0436857D01*
X0275117Y0453647D02*
X0317770Y0453647D01*
X0315740Y0456045D02*
X0275117Y0456045D01*
X0275117Y0458444D02*
X0315740Y0458444D01*
X0316598Y0460842D02*
X0275117Y0460842D01*
X0275117Y0463241D02*
X0318176Y0463241D01*
X0320940Y0463241D02*
X0320940Y0463241D01*
X0320940Y0465639D02*
X0320940Y0465639D01*
X0320940Y0468038D02*
X0320940Y0468038D01*
X0320940Y0470436D02*
X0320940Y0470436D01*
X0320940Y0472835D02*
X0320940Y0472835D01*
X0318591Y0472835D02*
X0275117Y0472835D01*
X0275117Y0475233D02*
X0317987Y0475233D01*
X0320940Y0475233D02*
X0320940Y0475233D01*
X0320940Y0477632D02*
X0320940Y0477632D01*
X0320940Y0480030D02*
X0320940Y0480030D01*
X0320940Y0482429D02*
X0320940Y0482429D01*
X0320940Y0484827D02*
X0320940Y0484827D01*
X0320940Y0487226D02*
X0320940Y0487226D01*
X0320940Y0489624D02*
X0320940Y0489624D01*
X0320940Y0492023D02*
X0320940Y0492023D01*
X0318763Y0492023D02*
X0275117Y0492023D01*
X0275117Y0494421D02*
X0316365Y0494421D01*
X0315740Y0496820D02*
X0275117Y0496820D01*
X0275117Y0499218D02*
X0315740Y0499218D01*
X0318003Y0501617D02*
X0275117Y0501617D01*
X0275117Y0504015D02*
X0316771Y0504015D01*
X0315740Y0506414D02*
X0275117Y0506414D01*
X0275117Y0508812D02*
X0315740Y0508812D01*
X0317597Y0511211D02*
X0275117Y0511211D01*
X0275117Y0513609D02*
X0376290Y0513609D01*
X0376290Y0511211D02*
X0345132Y0511211D01*
X0336749Y0511211D02*
X0335132Y0511211D01*
X0326749Y0511211D02*
X0324283Y0511211D01*
X0320940Y0511211D02*
X0320940Y0511211D01*
X0320940Y0508812D02*
X0320940Y0508812D01*
X0320940Y0506414D02*
X0320940Y0506414D01*
X0320940Y0504015D02*
X0320940Y0504015D01*
X0320940Y0501617D02*
X0320940Y0501617D01*
X0320940Y0499218D02*
X0320940Y0499218D01*
X0320940Y0496820D02*
X0320940Y0496820D01*
X0320940Y0494421D02*
X0320940Y0494421D01*
X0323117Y0492023D02*
X0323840Y0492023D01*
X0317749Y0489624D02*
X0275117Y0489624D01*
X0275117Y0487226D02*
X0316028Y0487226D01*
X0315740Y0484827D02*
X0275117Y0484827D01*
X0275117Y0482429D02*
X0315740Y0482429D01*
X0315740Y0480030D02*
X0275117Y0480030D01*
X0275117Y0477632D02*
X0316084Y0477632D01*
X0316193Y0470436D02*
X0275117Y0470436D01*
X0275117Y0468038D02*
X0315740Y0468038D01*
X0315777Y0465639D02*
X0275117Y0465639D01*
X0320940Y0460842D02*
X0320940Y0460842D01*
X0320940Y0458444D02*
X0320940Y0458444D01*
X0320940Y0456045D02*
X0320940Y0456045D01*
X0320940Y0453647D02*
X0320940Y0453647D01*
X0321961Y0451248D02*
X0323840Y0451248D01*
X0320940Y0432060D02*
X0320940Y0432060D01*
X0320940Y0429661D02*
X0320940Y0429661D01*
X0320940Y0427263D02*
X0320940Y0427263D01*
X0320940Y0424864D02*
X0320940Y0424864D01*
X0320940Y0422466D02*
X0320940Y0422466D01*
X0320940Y0420067D02*
X0320940Y0420067D01*
X0320940Y0417669D02*
X0320940Y0417669D01*
X0320940Y0415270D02*
X0320940Y0415270D01*
X0359066Y0415270D02*
X0408409Y0415270D01*
X0408425Y0412872D02*
X0359056Y0412872D01*
X0323840Y0472835D02*
X0323289Y0472835D01*
X0357685Y0489624D02*
X0376455Y0489624D01*
X0376369Y0492023D02*
X0359403Y0492023D01*
X0359790Y0494421D02*
X0376369Y0494421D01*
X0376369Y0496820D02*
X0359129Y0496820D01*
X0357224Y0499218D02*
X0376290Y0499218D01*
X0376290Y0501617D02*
X0359235Y0501617D01*
X0359790Y0504015D02*
X0376290Y0504015D01*
X0376290Y0506414D02*
X0359297Y0506414D01*
X0357428Y0508812D02*
X0376290Y0508812D01*
X0376290Y0516008D02*
X0275117Y0516008D01*
X0275117Y0518406D02*
X0376290Y0518406D01*
X0373136Y0520805D02*
X0275117Y0520805D01*
X0275117Y0523203D02*
X0286102Y0523203D01*
X0281792Y0524469D02*
X0281792Y0524469D01*
X0280029Y0525602D02*
X0275117Y0525602D01*
X0275117Y0528000D02*
X0276737Y0528000D01*
X0293101Y0523203D02*
X0370216Y0523203D01*
X0368733Y0525602D02*
X0299174Y0525602D01*
X0301913Y0527362D02*
X0301913Y0527362D01*
X0301913Y0527362D01*
X0302466Y0528000D02*
X0368035Y0528000D01*
X0367927Y0530399D02*
X0304544Y0530399D01*
X0305417Y0531406D02*
X0305417Y0531406D01*
X0306053Y0532797D02*
X0367927Y0532797D01*
X0367927Y0535196D02*
X0307148Y0535196D01*
X0307830Y0537594D02*
X0367927Y0537594D01*
X0367927Y0539993D02*
X0308175Y0539993D01*
X0308283Y0542392D02*
X0368405Y0542392D01*
X0369532Y0544790D02*
X0307939Y0544790D01*
X0307493Y0547189D02*
X0371599Y0547189D01*
X0371902Y0547492D02*
X0371902Y0547492D01*
X0373440Y0549587D02*
X0306398Y0549587D01*
X0305417Y0551734D02*
X0305417Y0551734D01*
X0305199Y0551986D02*
X0374083Y0551986D01*
X0375450Y0554384D02*
X0303121Y0554384D01*
X0301913Y0555778D02*
X0301913Y0555778D01*
X0388739Y0535196D02*
X0392012Y0535196D01*
X0391827Y0532797D02*
X0388527Y0532797D01*
X0388527Y0530399D02*
X0391827Y0530399D01*
X0391827Y0528000D02*
X0389005Y0528000D01*
X0390993Y0525602D02*
X0391827Y0525602D01*
X0391890Y0523203D02*
X0392434Y0523203D01*
X0391890Y0520805D02*
X0394505Y0520805D01*
X0393246Y0537594D02*
X0391137Y0537594D01*
X0442028Y0458444D02*
X0443687Y0458444D01*
X0449051Y0443145D02*
X0449051Y0443145D01*
X0472867Y0302540D02*
X0493063Y0302540D01*
X0493063Y0300142D02*
X0472867Y0300142D01*
X0472867Y0297743D02*
X0493063Y0297743D01*
X0493063Y0295345D02*
X0472867Y0295345D01*
X0472867Y0292946D02*
X0493063Y0292946D01*
X0493063Y0290548D02*
X0472867Y0290548D01*
X0472867Y0288149D02*
X0493063Y0288149D01*
X0493063Y0285751D02*
X0472867Y0285751D01*
X0472867Y0283352D02*
X0493063Y0283352D01*
X0493063Y0280954D02*
X0472867Y0280954D01*
X0472867Y0278555D02*
X0493063Y0278555D01*
X0493063Y0276157D02*
X0472867Y0276157D01*
X0472867Y0273758D02*
X0493063Y0273758D01*
X0493063Y0271360D02*
X0472867Y0271360D01*
X0479680Y0268961D02*
X0479839Y0268961D01*
X0479839Y0269164D02*
X0479839Y0264091D01*
X0484518Y0264091D01*
X0484518Y0267253D01*
X0484368Y0267813D01*
X0484079Y0268315D01*
X0483669Y0268724D01*
X0483167Y0269014D01*
X0482608Y0269164D01*
X0479839Y0269164D01*
X0479839Y0266563D02*
X0479680Y0266563D01*
X0479680Y0264164D02*
X0479839Y0264164D01*
X0479839Y0263931D02*
X0484518Y0263931D01*
X0484518Y0260769D01*
X0484368Y0260209D01*
X0484079Y0259707D01*
X0483669Y0259298D01*
X0483167Y0259008D01*
X0482608Y0258858D01*
X0479839Y0258858D01*
X0479839Y0263931D01*
X0479839Y0261766D02*
X0479680Y0261766D01*
X0479680Y0259367D02*
X0479839Y0259367D01*
X0483738Y0259367D02*
X0493063Y0259367D01*
X0493063Y0256969D02*
X0476542Y0256969D01*
X0482534Y0254570D02*
X0483283Y0254570D01*
X0483283Y0252172D02*
X0482534Y0252172D01*
X0482534Y0249773D02*
X0483283Y0249773D01*
X0483283Y0247375D02*
X0482534Y0247375D01*
X0482078Y0244976D02*
X0493063Y0244976D01*
X0493063Y0242578D02*
X0488151Y0242578D01*
X0486388Y0243711D02*
X0486388Y0243711D01*
X0488258Y0247375D02*
X0493063Y0247375D01*
X0493063Y0249773D02*
X0488258Y0249773D01*
X0488258Y0252172D02*
X0493063Y0252172D01*
X0493063Y0254570D02*
X0488258Y0254570D01*
X0484518Y0261766D02*
X0493063Y0261766D01*
X0493063Y0264164D02*
X0484518Y0264164D01*
X0484518Y0266563D02*
X0493063Y0266563D01*
X0493063Y0268961D02*
X0483258Y0268961D01*
X0490889Y0240818D02*
X0490889Y0240818D01*
X0491443Y0240179D02*
X0493063Y0240179D01*
D25*
X0466767Y0250231D02*
X0439208Y0222672D01*
X0439208Y0219917D01*
X0424208Y0219917D02*
X0424208Y0245546D01*
X0411649Y0258106D01*
X0370074Y0258106D01*
X0354090Y0274090D01*
D26*
X0437239Y0308224D02*
X0437239Y0318224D01*
X0437239Y0334877D01*
X0437239Y0349562D01*
X0437239Y0359562D01*
X0437239Y0378184D01*
X0437239Y0392869D01*
X0437239Y0402869D01*
X0330940Y0403775D02*
X0330940Y0418460D01*
X0330940Y0428460D01*
X0330940Y0443145D01*
X0330940Y0457830D01*
X0330940Y0467830D01*
X0330940Y0482515D01*
X0330940Y0497200D01*
D27*
X0378227Y0529759D02*
X0378227Y0539250D01*
X0387239Y0548263D01*
X0383893Y0548263D01*
X0383696Y0548066D01*
X0387239Y0548263D02*
X0421098Y0548263D01*
X0429956Y0539405D01*
X0431728Y0539405D01*
X0431728Y0431728D01*
X0431334Y0431334D01*
X0431334Y0421491D01*
X0432318Y0420507D01*
X0434680Y0418145D01*
D28*
X0432318Y0420507D02*
X0437239Y0415586D01*
X0437239Y0402869D01*
X0384090Y0498854D02*
X0384090Y0521885D01*
X0376216Y0529759D01*
X0376216Y0537239D01*
X0378227Y0539250D01*
M02*
