%
M48
M72
T01C0.02362
T02C0.03800
T03C0.04000
T04C0.04400
T05C0.04724
T06C0.05200
T07C0.11811
%
T01
X369523Y309090
X388027Y250231
T02
X414090Y274090
X414090Y284090
X414090Y294090
X414090Y304090
X414090Y314090
X414090Y324090
X414090Y334090
X414090Y344090
X414090Y354090
X414090Y364090
X414090Y374090
X414090Y384090
X414090Y394090
X414090Y404090
X414090Y414090
X414090Y424090
X414090Y434090
X414090Y444090
X414090Y454090
X414090Y464090
X414090Y474090
X414090Y484090
X414090Y494090
X414090Y504090
X354090Y504090
X354090Y494090
X354090Y484090
X354090Y474090
X354090Y464090
X354090Y454090
X354090Y444090
X354090Y434090
X354090Y424090
X354090Y414090
X354090Y404090
X354090Y394090
X354090Y384090
X354090Y374090
X354090Y364090
X354090Y354090
X354090Y344090
X354090Y334090
X354090Y324090
X364090Y324090
X364090Y314090
X354090Y314090
X354090Y304090
X364090Y304090
X354090Y294090
X354090Y284090
X364090Y284090
X354090Y274090
T03
X427239Y293539
X437239Y293539
X447239Y293539
X447239Y308224
X447239Y318224
X437239Y318224
X437239Y308224
X427239Y308224
X427239Y318224
X427239Y334877
X437239Y334877
X447239Y334877
X447239Y349562
X437239Y349562
X427239Y349562
X427239Y359562
X437239Y359562
X447239Y359562
X447239Y378184
X437239Y378184
X427239Y378184
X427239Y392869
X427239Y402869
X437239Y402869
X447239Y402869
X447239Y392869
X437239Y392869
X453578Y419129
X449050Y433145
X449050Y443145
X449050Y453145
X464602Y451373
X464602Y461373
X464602Y471373
X464602Y481373
X403775Y404090
X403775Y394090
X403775Y384090
X403775Y374090
X403775Y364090
X340940Y403775
X330940Y403775
X320940Y403775
X320940Y418460
X320940Y428460
X330940Y428460
X330940Y418460
X340940Y418460
X340940Y428460
X340940Y443145
X330940Y443145
X320940Y443145
X320940Y457830
X320940Y467830
X330940Y467830
X340940Y467830
X340940Y457830
X330940Y457830
X330940Y482515
X340940Y482515
X340940Y497200
X330940Y497200
X330940Y507200
X340940Y507200
X320940Y507200
X320940Y497200
X320940Y482515
T04
X481885Y390153
X481885Y380153
X481885Y370153
X328342Y315350
X328342Y305350
X328342Y295350
X373027Y219917
X388027Y219917
X403027Y219917
X424208Y219917
X439208Y219917
X454208Y219917
T05
X328972Y331531
X328972Y341531
X328972Y351531
X328972Y361531
X328972Y371531
X328972Y381531
X293539Y381531
X293539Y371531
X293539Y361531
X293539Y351531
X293539Y341531
X293539Y331531
T06
X328620Y219917
X348320Y219917
X378227Y529759
X397927Y529759
T07
X289602Y226609
X478578Y226609
X478578Y541570
X289602Y541570
M30
