G75*
%MOIN*%
%OFA0B0*%
%FSLAX25Y25*%
%IPPOS*%
%LPD*%
%AMOC8*
5,1,8,0,0,1.08239X$1,22.5*
%
%ADD10C,0.00000*%
D10*
X0269917Y0206924D02*
X0269917Y0561255D01*
X0498263Y0561255D01*
X0498263Y0206924D01*
X0269917Y0206924D01*
X0283696Y0226609D02*
X0283698Y0226762D01*
X0283704Y0226916D01*
X0283714Y0227069D01*
X0283728Y0227221D01*
X0283746Y0227374D01*
X0283768Y0227525D01*
X0283793Y0227676D01*
X0283823Y0227827D01*
X0283857Y0227977D01*
X0283894Y0228125D01*
X0283935Y0228273D01*
X0283980Y0228419D01*
X0284029Y0228565D01*
X0284082Y0228709D01*
X0284138Y0228851D01*
X0284198Y0228992D01*
X0284262Y0229132D01*
X0284329Y0229270D01*
X0284400Y0229406D01*
X0284475Y0229540D01*
X0284552Y0229672D01*
X0284634Y0229802D01*
X0284718Y0229930D01*
X0284806Y0230056D01*
X0284897Y0230179D01*
X0284991Y0230300D01*
X0285089Y0230418D01*
X0285189Y0230534D01*
X0285293Y0230647D01*
X0285399Y0230758D01*
X0285508Y0230866D01*
X0285620Y0230971D01*
X0285734Y0231072D01*
X0285852Y0231171D01*
X0285971Y0231267D01*
X0286093Y0231360D01*
X0286218Y0231449D01*
X0286345Y0231536D01*
X0286474Y0231618D01*
X0286605Y0231698D01*
X0286738Y0231774D01*
X0286873Y0231847D01*
X0287010Y0231916D01*
X0287149Y0231981D01*
X0287289Y0232043D01*
X0287431Y0232101D01*
X0287574Y0232156D01*
X0287719Y0232207D01*
X0287865Y0232254D01*
X0288012Y0232297D01*
X0288160Y0232336D01*
X0288309Y0232372D01*
X0288459Y0232403D01*
X0288610Y0232431D01*
X0288761Y0232455D01*
X0288914Y0232475D01*
X0289066Y0232491D01*
X0289219Y0232503D01*
X0289372Y0232511D01*
X0289525Y0232515D01*
X0289679Y0232515D01*
X0289832Y0232511D01*
X0289985Y0232503D01*
X0290138Y0232491D01*
X0290290Y0232475D01*
X0290443Y0232455D01*
X0290594Y0232431D01*
X0290745Y0232403D01*
X0290895Y0232372D01*
X0291044Y0232336D01*
X0291192Y0232297D01*
X0291339Y0232254D01*
X0291485Y0232207D01*
X0291630Y0232156D01*
X0291773Y0232101D01*
X0291915Y0232043D01*
X0292055Y0231981D01*
X0292194Y0231916D01*
X0292331Y0231847D01*
X0292466Y0231774D01*
X0292599Y0231698D01*
X0292730Y0231618D01*
X0292859Y0231536D01*
X0292986Y0231449D01*
X0293111Y0231360D01*
X0293233Y0231267D01*
X0293352Y0231171D01*
X0293470Y0231072D01*
X0293584Y0230971D01*
X0293696Y0230866D01*
X0293805Y0230758D01*
X0293911Y0230647D01*
X0294015Y0230534D01*
X0294115Y0230418D01*
X0294213Y0230300D01*
X0294307Y0230179D01*
X0294398Y0230056D01*
X0294486Y0229930D01*
X0294570Y0229802D01*
X0294652Y0229672D01*
X0294729Y0229540D01*
X0294804Y0229406D01*
X0294875Y0229270D01*
X0294942Y0229132D01*
X0295006Y0228992D01*
X0295066Y0228851D01*
X0295122Y0228709D01*
X0295175Y0228565D01*
X0295224Y0228419D01*
X0295269Y0228273D01*
X0295310Y0228125D01*
X0295347Y0227977D01*
X0295381Y0227827D01*
X0295411Y0227676D01*
X0295436Y0227525D01*
X0295458Y0227374D01*
X0295476Y0227221D01*
X0295490Y0227069D01*
X0295500Y0226916D01*
X0295506Y0226762D01*
X0295508Y0226609D01*
X0295506Y0226456D01*
X0295500Y0226302D01*
X0295490Y0226149D01*
X0295476Y0225997D01*
X0295458Y0225844D01*
X0295436Y0225693D01*
X0295411Y0225542D01*
X0295381Y0225391D01*
X0295347Y0225241D01*
X0295310Y0225093D01*
X0295269Y0224945D01*
X0295224Y0224799D01*
X0295175Y0224653D01*
X0295122Y0224509D01*
X0295066Y0224367D01*
X0295006Y0224226D01*
X0294942Y0224086D01*
X0294875Y0223948D01*
X0294804Y0223812D01*
X0294729Y0223678D01*
X0294652Y0223546D01*
X0294570Y0223416D01*
X0294486Y0223288D01*
X0294398Y0223162D01*
X0294307Y0223039D01*
X0294213Y0222918D01*
X0294115Y0222800D01*
X0294015Y0222684D01*
X0293911Y0222571D01*
X0293805Y0222460D01*
X0293696Y0222352D01*
X0293584Y0222247D01*
X0293470Y0222146D01*
X0293352Y0222047D01*
X0293233Y0221951D01*
X0293111Y0221858D01*
X0292986Y0221769D01*
X0292859Y0221682D01*
X0292730Y0221600D01*
X0292599Y0221520D01*
X0292466Y0221444D01*
X0292331Y0221371D01*
X0292194Y0221302D01*
X0292055Y0221237D01*
X0291915Y0221175D01*
X0291773Y0221117D01*
X0291630Y0221062D01*
X0291485Y0221011D01*
X0291339Y0220964D01*
X0291192Y0220921D01*
X0291044Y0220882D01*
X0290895Y0220846D01*
X0290745Y0220815D01*
X0290594Y0220787D01*
X0290443Y0220763D01*
X0290290Y0220743D01*
X0290138Y0220727D01*
X0289985Y0220715D01*
X0289832Y0220707D01*
X0289679Y0220703D01*
X0289525Y0220703D01*
X0289372Y0220707D01*
X0289219Y0220715D01*
X0289066Y0220727D01*
X0288914Y0220743D01*
X0288761Y0220763D01*
X0288610Y0220787D01*
X0288459Y0220815D01*
X0288309Y0220846D01*
X0288160Y0220882D01*
X0288012Y0220921D01*
X0287865Y0220964D01*
X0287719Y0221011D01*
X0287574Y0221062D01*
X0287431Y0221117D01*
X0287289Y0221175D01*
X0287149Y0221237D01*
X0287010Y0221302D01*
X0286873Y0221371D01*
X0286738Y0221444D01*
X0286605Y0221520D01*
X0286474Y0221600D01*
X0286345Y0221682D01*
X0286218Y0221769D01*
X0286093Y0221858D01*
X0285971Y0221951D01*
X0285852Y0222047D01*
X0285734Y0222146D01*
X0285620Y0222247D01*
X0285508Y0222352D01*
X0285399Y0222460D01*
X0285293Y0222571D01*
X0285189Y0222684D01*
X0285089Y0222800D01*
X0284991Y0222918D01*
X0284897Y0223039D01*
X0284806Y0223162D01*
X0284718Y0223288D01*
X0284634Y0223416D01*
X0284552Y0223546D01*
X0284475Y0223678D01*
X0284400Y0223812D01*
X0284329Y0223948D01*
X0284262Y0224086D01*
X0284198Y0224226D01*
X0284138Y0224367D01*
X0284082Y0224509D01*
X0284029Y0224653D01*
X0283980Y0224799D01*
X0283935Y0224945D01*
X0283894Y0225093D01*
X0283857Y0225241D01*
X0283823Y0225391D01*
X0283793Y0225542D01*
X0283768Y0225693D01*
X0283746Y0225844D01*
X0283728Y0225997D01*
X0283714Y0226149D01*
X0283704Y0226302D01*
X0283698Y0226456D01*
X0283696Y0226609D01*
X0472672Y0226609D02*
X0472674Y0226762D01*
X0472680Y0226916D01*
X0472690Y0227069D01*
X0472704Y0227221D01*
X0472722Y0227374D01*
X0472744Y0227525D01*
X0472769Y0227676D01*
X0472799Y0227827D01*
X0472833Y0227977D01*
X0472870Y0228125D01*
X0472911Y0228273D01*
X0472956Y0228419D01*
X0473005Y0228565D01*
X0473058Y0228709D01*
X0473114Y0228851D01*
X0473174Y0228992D01*
X0473238Y0229132D01*
X0473305Y0229270D01*
X0473376Y0229406D01*
X0473451Y0229540D01*
X0473528Y0229672D01*
X0473610Y0229802D01*
X0473694Y0229930D01*
X0473782Y0230056D01*
X0473873Y0230179D01*
X0473967Y0230300D01*
X0474065Y0230418D01*
X0474165Y0230534D01*
X0474269Y0230647D01*
X0474375Y0230758D01*
X0474484Y0230866D01*
X0474596Y0230971D01*
X0474710Y0231072D01*
X0474828Y0231171D01*
X0474947Y0231267D01*
X0475069Y0231360D01*
X0475194Y0231449D01*
X0475321Y0231536D01*
X0475450Y0231618D01*
X0475581Y0231698D01*
X0475714Y0231774D01*
X0475849Y0231847D01*
X0475986Y0231916D01*
X0476125Y0231981D01*
X0476265Y0232043D01*
X0476407Y0232101D01*
X0476550Y0232156D01*
X0476695Y0232207D01*
X0476841Y0232254D01*
X0476988Y0232297D01*
X0477136Y0232336D01*
X0477285Y0232372D01*
X0477435Y0232403D01*
X0477586Y0232431D01*
X0477737Y0232455D01*
X0477890Y0232475D01*
X0478042Y0232491D01*
X0478195Y0232503D01*
X0478348Y0232511D01*
X0478501Y0232515D01*
X0478655Y0232515D01*
X0478808Y0232511D01*
X0478961Y0232503D01*
X0479114Y0232491D01*
X0479266Y0232475D01*
X0479419Y0232455D01*
X0479570Y0232431D01*
X0479721Y0232403D01*
X0479871Y0232372D01*
X0480020Y0232336D01*
X0480168Y0232297D01*
X0480315Y0232254D01*
X0480461Y0232207D01*
X0480606Y0232156D01*
X0480749Y0232101D01*
X0480891Y0232043D01*
X0481031Y0231981D01*
X0481170Y0231916D01*
X0481307Y0231847D01*
X0481442Y0231774D01*
X0481575Y0231698D01*
X0481706Y0231618D01*
X0481835Y0231536D01*
X0481962Y0231449D01*
X0482087Y0231360D01*
X0482209Y0231267D01*
X0482328Y0231171D01*
X0482446Y0231072D01*
X0482560Y0230971D01*
X0482672Y0230866D01*
X0482781Y0230758D01*
X0482887Y0230647D01*
X0482991Y0230534D01*
X0483091Y0230418D01*
X0483189Y0230300D01*
X0483283Y0230179D01*
X0483374Y0230056D01*
X0483462Y0229930D01*
X0483546Y0229802D01*
X0483628Y0229672D01*
X0483705Y0229540D01*
X0483780Y0229406D01*
X0483851Y0229270D01*
X0483918Y0229132D01*
X0483982Y0228992D01*
X0484042Y0228851D01*
X0484098Y0228709D01*
X0484151Y0228565D01*
X0484200Y0228419D01*
X0484245Y0228273D01*
X0484286Y0228125D01*
X0484323Y0227977D01*
X0484357Y0227827D01*
X0484387Y0227676D01*
X0484412Y0227525D01*
X0484434Y0227374D01*
X0484452Y0227221D01*
X0484466Y0227069D01*
X0484476Y0226916D01*
X0484482Y0226762D01*
X0484484Y0226609D01*
X0484482Y0226456D01*
X0484476Y0226302D01*
X0484466Y0226149D01*
X0484452Y0225997D01*
X0484434Y0225844D01*
X0484412Y0225693D01*
X0484387Y0225542D01*
X0484357Y0225391D01*
X0484323Y0225241D01*
X0484286Y0225093D01*
X0484245Y0224945D01*
X0484200Y0224799D01*
X0484151Y0224653D01*
X0484098Y0224509D01*
X0484042Y0224367D01*
X0483982Y0224226D01*
X0483918Y0224086D01*
X0483851Y0223948D01*
X0483780Y0223812D01*
X0483705Y0223678D01*
X0483628Y0223546D01*
X0483546Y0223416D01*
X0483462Y0223288D01*
X0483374Y0223162D01*
X0483283Y0223039D01*
X0483189Y0222918D01*
X0483091Y0222800D01*
X0482991Y0222684D01*
X0482887Y0222571D01*
X0482781Y0222460D01*
X0482672Y0222352D01*
X0482560Y0222247D01*
X0482446Y0222146D01*
X0482328Y0222047D01*
X0482209Y0221951D01*
X0482087Y0221858D01*
X0481962Y0221769D01*
X0481835Y0221682D01*
X0481706Y0221600D01*
X0481575Y0221520D01*
X0481442Y0221444D01*
X0481307Y0221371D01*
X0481170Y0221302D01*
X0481031Y0221237D01*
X0480891Y0221175D01*
X0480749Y0221117D01*
X0480606Y0221062D01*
X0480461Y0221011D01*
X0480315Y0220964D01*
X0480168Y0220921D01*
X0480020Y0220882D01*
X0479871Y0220846D01*
X0479721Y0220815D01*
X0479570Y0220787D01*
X0479419Y0220763D01*
X0479266Y0220743D01*
X0479114Y0220727D01*
X0478961Y0220715D01*
X0478808Y0220707D01*
X0478655Y0220703D01*
X0478501Y0220703D01*
X0478348Y0220707D01*
X0478195Y0220715D01*
X0478042Y0220727D01*
X0477890Y0220743D01*
X0477737Y0220763D01*
X0477586Y0220787D01*
X0477435Y0220815D01*
X0477285Y0220846D01*
X0477136Y0220882D01*
X0476988Y0220921D01*
X0476841Y0220964D01*
X0476695Y0221011D01*
X0476550Y0221062D01*
X0476407Y0221117D01*
X0476265Y0221175D01*
X0476125Y0221237D01*
X0475986Y0221302D01*
X0475849Y0221371D01*
X0475714Y0221444D01*
X0475581Y0221520D01*
X0475450Y0221600D01*
X0475321Y0221682D01*
X0475194Y0221769D01*
X0475069Y0221858D01*
X0474947Y0221951D01*
X0474828Y0222047D01*
X0474710Y0222146D01*
X0474596Y0222247D01*
X0474484Y0222352D01*
X0474375Y0222460D01*
X0474269Y0222571D01*
X0474165Y0222684D01*
X0474065Y0222800D01*
X0473967Y0222918D01*
X0473873Y0223039D01*
X0473782Y0223162D01*
X0473694Y0223288D01*
X0473610Y0223416D01*
X0473528Y0223546D01*
X0473451Y0223678D01*
X0473376Y0223812D01*
X0473305Y0223948D01*
X0473238Y0224086D01*
X0473174Y0224226D01*
X0473114Y0224367D01*
X0473058Y0224509D01*
X0473005Y0224653D01*
X0472956Y0224799D01*
X0472911Y0224945D01*
X0472870Y0225093D01*
X0472833Y0225241D01*
X0472799Y0225391D01*
X0472769Y0225542D01*
X0472744Y0225693D01*
X0472722Y0225844D01*
X0472704Y0225997D01*
X0472690Y0226149D01*
X0472680Y0226302D01*
X0472674Y0226456D01*
X0472672Y0226609D01*
X0472672Y0541570D02*
X0472674Y0541723D01*
X0472680Y0541877D01*
X0472690Y0542030D01*
X0472704Y0542182D01*
X0472722Y0542335D01*
X0472744Y0542486D01*
X0472769Y0542637D01*
X0472799Y0542788D01*
X0472833Y0542938D01*
X0472870Y0543086D01*
X0472911Y0543234D01*
X0472956Y0543380D01*
X0473005Y0543526D01*
X0473058Y0543670D01*
X0473114Y0543812D01*
X0473174Y0543953D01*
X0473238Y0544093D01*
X0473305Y0544231D01*
X0473376Y0544367D01*
X0473451Y0544501D01*
X0473528Y0544633D01*
X0473610Y0544763D01*
X0473694Y0544891D01*
X0473782Y0545017D01*
X0473873Y0545140D01*
X0473967Y0545261D01*
X0474065Y0545379D01*
X0474165Y0545495D01*
X0474269Y0545608D01*
X0474375Y0545719D01*
X0474484Y0545827D01*
X0474596Y0545932D01*
X0474710Y0546033D01*
X0474828Y0546132D01*
X0474947Y0546228D01*
X0475069Y0546321D01*
X0475194Y0546410D01*
X0475321Y0546497D01*
X0475450Y0546579D01*
X0475581Y0546659D01*
X0475714Y0546735D01*
X0475849Y0546808D01*
X0475986Y0546877D01*
X0476125Y0546942D01*
X0476265Y0547004D01*
X0476407Y0547062D01*
X0476550Y0547117D01*
X0476695Y0547168D01*
X0476841Y0547215D01*
X0476988Y0547258D01*
X0477136Y0547297D01*
X0477285Y0547333D01*
X0477435Y0547364D01*
X0477586Y0547392D01*
X0477737Y0547416D01*
X0477890Y0547436D01*
X0478042Y0547452D01*
X0478195Y0547464D01*
X0478348Y0547472D01*
X0478501Y0547476D01*
X0478655Y0547476D01*
X0478808Y0547472D01*
X0478961Y0547464D01*
X0479114Y0547452D01*
X0479266Y0547436D01*
X0479419Y0547416D01*
X0479570Y0547392D01*
X0479721Y0547364D01*
X0479871Y0547333D01*
X0480020Y0547297D01*
X0480168Y0547258D01*
X0480315Y0547215D01*
X0480461Y0547168D01*
X0480606Y0547117D01*
X0480749Y0547062D01*
X0480891Y0547004D01*
X0481031Y0546942D01*
X0481170Y0546877D01*
X0481307Y0546808D01*
X0481442Y0546735D01*
X0481575Y0546659D01*
X0481706Y0546579D01*
X0481835Y0546497D01*
X0481962Y0546410D01*
X0482087Y0546321D01*
X0482209Y0546228D01*
X0482328Y0546132D01*
X0482446Y0546033D01*
X0482560Y0545932D01*
X0482672Y0545827D01*
X0482781Y0545719D01*
X0482887Y0545608D01*
X0482991Y0545495D01*
X0483091Y0545379D01*
X0483189Y0545261D01*
X0483283Y0545140D01*
X0483374Y0545017D01*
X0483462Y0544891D01*
X0483546Y0544763D01*
X0483628Y0544633D01*
X0483705Y0544501D01*
X0483780Y0544367D01*
X0483851Y0544231D01*
X0483918Y0544093D01*
X0483982Y0543953D01*
X0484042Y0543812D01*
X0484098Y0543670D01*
X0484151Y0543526D01*
X0484200Y0543380D01*
X0484245Y0543234D01*
X0484286Y0543086D01*
X0484323Y0542938D01*
X0484357Y0542788D01*
X0484387Y0542637D01*
X0484412Y0542486D01*
X0484434Y0542335D01*
X0484452Y0542182D01*
X0484466Y0542030D01*
X0484476Y0541877D01*
X0484482Y0541723D01*
X0484484Y0541570D01*
X0484482Y0541417D01*
X0484476Y0541263D01*
X0484466Y0541110D01*
X0484452Y0540958D01*
X0484434Y0540805D01*
X0484412Y0540654D01*
X0484387Y0540503D01*
X0484357Y0540352D01*
X0484323Y0540202D01*
X0484286Y0540054D01*
X0484245Y0539906D01*
X0484200Y0539760D01*
X0484151Y0539614D01*
X0484098Y0539470D01*
X0484042Y0539328D01*
X0483982Y0539187D01*
X0483918Y0539047D01*
X0483851Y0538909D01*
X0483780Y0538773D01*
X0483705Y0538639D01*
X0483628Y0538507D01*
X0483546Y0538377D01*
X0483462Y0538249D01*
X0483374Y0538123D01*
X0483283Y0538000D01*
X0483189Y0537879D01*
X0483091Y0537761D01*
X0482991Y0537645D01*
X0482887Y0537532D01*
X0482781Y0537421D01*
X0482672Y0537313D01*
X0482560Y0537208D01*
X0482446Y0537107D01*
X0482328Y0537008D01*
X0482209Y0536912D01*
X0482087Y0536819D01*
X0481962Y0536730D01*
X0481835Y0536643D01*
X0481706Y0536561D01*
X0481575Y0536481D01*
X0481442Y0536405D01*
X0481307Y0536332D01*
X0481170Y0536263D01*
X0481031Y0536198D01*
X0480891Y0536136D01*
X0480749Y0536078D01*
X0480606Y0536023D01*
X0480461Y0535972D01*
X0480315Y0535925D01*
X0480168Y0535882D01*
X0480020Y0535843D01*
X0479871Y0535807D01*
X0479721Y0535776D01*
X0479570Y0535748D01*
X0479419Y0535724D01*
X0479266Y0535704D01*
X0479114Y0535688D01*
X0478961Y0535676D01*
X0478808Y0535668D01*
X0478655Y0535664D01*
X0478501Y0535664D01*
X0478348Y0535668D01*
X0478195Y0535676D01*
X0478042Y0535688D01*
X0477890Y0535704D01*
X0477737Y0535724D01*
X0477586Y0535748D01*
X0477435Y0535776D01*
X0477285Y0535807D01*
X0477136Y0535843D01*
X0476988Y0535882D01*
X0476841Y0535925D01*
X0476695Y0535972D01*
X0476550Y0536023D01*
X0476407Y0536078D01*
X0476265Y0536136D01*
X0476125Y0536198D01*
X0475986Y0536263D01*
X0475849Y0536332D01*
X0475714Y0536405D01*
X0475581Y0536481D01*
X0475450Y0536561D01*
X0475321Y0536643D01*
X0475194Y0536730D01*
X0475069Y0536819D01*
X0474947Y0536912D01*
X0474828Y0537008D01*
X0474710Y0537107D01*
X0474596Y0537208D01*
X0474484Y0537313D01*
X0474375Y0537421D01*
X0474269Y0537532D01*
X0474165Y0537645D01*
X0474065Y0537761D01*
X0473967Y0537879D01*
X0473873Y0538000D01*
X0473782Y0538123D01*
X0473694Y0538249D01*
X0473610Y0538377D01*
X0473528Y0538507D01*
X0473451Y0538639D01*
X0473376Y0538773D01*
X0473305Y0538909D01*
X0473238Y0539047D01*
X0473174Y0539187D01*
X0473114Y0539328D01*
X0473058Y0539470D01*
X0473005Y0539614D01*
X0472956Y0539760D01*
X0472911Y0539906D01*
X0472870Y0540054D01*
X0472833Y0540202D01*
X0472799Y0540352D01*
X0472769Y0540503D01*
X0472744Y0540654D01*
X0472722Y0540805D01*
X0472704Y0540958D01*
X0472690Y0541110D01*
X0472680Y0541263D01*
X0472674Y0541417D01*
X0472672Y0541570D01*
X0283696Y0541570D02*
X0283698Y0541723D01*
X0283704Y0541877D01*
X0283714Y0542030D01*
X0283728Y0542182D01*
X0283746Y0542335D01*
X0283768Y0542486D01*
X0283793Y0542637D01*
X0283823Y0542788D01*
X0283857Y0542938D01*
X0283894Y0543086D01*
X0283935Y0543234D01*
X0283980Y0543380D01*
X0284029Y0543526D01*
X0284082Y0543670D01*
X0284138Y0543812D01*
X0284198Y0543953D01*
X0284262Y0544093D01*
X0284329Y0544231D01*
X0284400Y0544367D01*
X0284475Y0544501D01*
X0284552Y0544633D01*
X0284634Y0544763D01*
X0284718Y0544891D01*
X0284806Y0545017D01*
X0284897Y0545140D01*
X0284991Y0545261D01*
X0285089Y0545379D01*
X0285189Y0545495D01*
X0285293Y0545608D01*
X0285399Y0545719D01*
X0285508Y0545827D01*
X0285620Y0545932D01*
X0285734Y0546033D01*
X0285852Y0546132D01*
X0285971Y0546228D01*
X0286093Y0546321D01*
X0286218Y0546410D01*
X0286345Y0546497D01*
X0286474Y0546579D01*
X0286605Y0546659D01*
X0286738Y0546735D01*
X0286873Y0546808D01*
X0287010Y0546877D01*
X0287149Y0546942D01*
X0287289Y0547004D01*
X0287431Y0547062D01*
X0287574Y0547117D01*
X0287719Y0547168D01*
X0287865Y0547215D01*
X0288012Y0547258D01*
X0288160Y0547297D01*
X0288309Y0547333D01*
X0288459Y0547364D01*
X0288610Y0547392D01*
X0288761Y0547416D01*
X0288914Y0547436D01*
X0289066Y0547452D01*
X0289219Y0547464D01*
X0289372Y0547472D01*
X0289525Y0547476D01*
X0289679Y0547476D01*
X0289832Y0547472D01*
X0289985Y0547464D01*
X0290138Y0547452D01*
X0290290Y0547436D01*
X0290443Y0547416D01*
X0290594Y0547392D01*
X0290745Y0547364D01*
X0290895Y0547333D01*
X0291044Y0547297D01*
X0291192Y0547258D01*
X0291339Y0547215D01*
X0291485Y0547168D01*
X0291630Y0547117D01*
X0291773Y0547062D01*
X0291915Y0547004D01*
X0292055Y0546942D01*
X0292194Y0546877D01*
X0292331Y0546808D01*
X0292466Y0546735D01*
X0292599Y0546659D01*
X0292730Y0546579D01*
X0292859Y0546497D01*
X0292986Y0546410D01*
X0293111Y0546321D01*
X0293233Y0546228D01*
X0293352Y0546132D01*
X0293470Y0546033D01*
X0293584Y0545932D01*
X0293696Y0545827D01*
X0293805Y0545719D01*
X0293911Y0545608D01*
X0294015Y0545495D01*
X0294115Y0545379D01*
X0294213Y0545261D01*
X0294307Y0545140D01*
X0294398Y0545017D01*
X0294486Y0544891D01*
X0294570Y0544763D01*
X0294652Y0544633D01*
X0294729Y0544501D01*
X0294804Y0544367D01*
X0294875Y0544231D01*
X0294942Y0544093D01*
X0295006Y0543953D01*
X0295066Y0543812D01*
X0295122Y0543670D01*
X0295175Y0543526D01*
X0295224Y0543380D01*
X0295269Y0543234D01*
X0295310Y0543086D01*
X0295347Y0542938D01*
X0295381Y0542788D01*
X0295411Y0542637D01*
X0295436Y0542486D01*
X0295458Y0542335D01*
X0295476Y0542182D01*
X0295490Y0542030D01*
X0295500Y0541877D01*
X0295506Y0541723D01*
X0295508Y0541570D01*
X0295506Y0541417D01*
X0295500Y0541263D01*
X0295490Y0541110D01*
X0295476Y0540958D01*
X0295458Y0540805D01*
X0295436Y0540654D01*
X0295411Y0540503D01*
X0295381Y0540352D01*
X0295347Y0540202D01*
X0295310Y0540054D01*
X0295269Y0539906D01*
X0295224Y0539760D01*
X0295175Y0539614D01*
X0295122Y0539470D01*
X0295066Y0539328D01*
X0295006Y0539187D01*
X0294942Y0539047D01*
X0294875Y0538909D01*
X0294804Y0538773D01*
X0294729Y0538639D01*
X0294652Y0538507D01*
X0294570Y0538377D01*
X0294486Y0538249D01*
X0294398Y0538123D01*
X0294307Y0538000D01*
X0294213Y0537879D01*
X0294115Y0537761D01*
X0294015Y0537645D01*
X0293911Y0537532D01*
X0293805Y0537421D01*
X0293696Y0537313D01*
X0293584Y0537208D01*
X0293470Y0537107D01*
X0293352Y0537008D01*
X0293233Y0536912D01*
X0293111Y0536819D01*
X0292986Y0536730D01*
X0292859Y0536643D01*
X0292730Y0536561D01*
X0292599Y0536481D01*
X0292466Y0536405D01*
X0292331Y0536332D01*
X0292194Y0536263D01*
X0292055Y0536198D01*
X0291915Y0536136D01*
X0291773Y0536078D01*
X0291630Y0536023D01*
X0291485Y0535972D01*
X0291339Y0535925D01*
X0291192Y0535882D01*
X0291044Y0535843D01*
X0290895Y0535807D01*
X0290745Y0535776D01*
X0290594Y0535748D01*
X0290443Y0535724D01*
X0290290Y0535704D01*
X0290138Y0535688D01*
X0289985Y0535676D01*
X0289832Y0535668D01*
X0289679Y0535664D01*
X0289525Y0535664D01*
X0289372Y0535668D01*
X0289219Y0535676D01*
X0289066Y0535688D01*
X0288914Y0535704D01*
X0288761Y0535724D01*
X0288610Y0535748D01*
X0288459Y0535776D01*
X0288309Y0535807D01*
X0288160Y0535843D01*
X0288012Y0535882D01*
X0287865Y0535925D01*
X0287719Y0535972D01*
X0287574Y0536023D01*
X0287431Y0536078D01*
X0287289Y0536136D01*
X0287149Y0536198D01*
X0287010Y0536263D01*
X0286873Y0536332D01*
X0286738Y0536405D01*
X0286605Y0536481D01*
X0286474Y0536561D01*
X0286345Y0536643D01*
X0286218Y0536730D01*
X0286093Y0536819D01*
X0285971Y0536912D01*
X0285852Y0537008D01*
X0285734Y0537107D01*
X0285620Y0537208D01*
X0285508Y0537313D01*
X0285399Y0537421D01*
X0285293Y0537532D01*
X0285189Y0537645D01*
X0285089Y0537761D01*
X0284991Y0537879D01*
X0284897Y0538000D01*
X0284806Y0538123D01*
X0284718Y0538249D01*
X0284634Y0538377D01*
X0284552Y0538507D01*
X0284475Y0538639D01*
X0284400Y0538773D01*
X0284329Y0538909D01*
X0284262Y0539047D01*
X0284198Y0539187D01*
X0284138Y0539328D01*
X0284082Y0539470D01*
X0284029Y0539614D01*
X0283980Y0539760D01*
X0283935Y0539906D01*
X0283894Y0540054D01*
X0283857Y0540202D01*
X0283823Y0540352D01*
X0283793Y0540503D01*
X0283768Y0540654D01*
X0283746Y0540805D01*
X0283728Y0540958D01*
X0283714Y0541110D01*
X0283704Y0541263D01*
X0283698Y0541417D01*
X0283696Y0541570D01*
M02*
