G75*
%MOIN*%
%OFA0B0*%
%FSLAX25Y25*%
%IPPOS*%
%LPD*%
%AMOC8*
5,1,8,0,0,1.08239X$1,22.5*
%
%ADD10C,0.00400*%
%ADD11C,0.00600*%
%ADD12C,0.00500*%
%ADD13C,0.00800*%
D10*
X0290038Y0287739D02*
X0290038Y0289274D01*
X0290805Y0290041D01*
X0290805Y0291576D02*
X0290038Y0292343D01*
X0290038Y0293878D01*
X0290805Y0294645D01*
X0293874Y0294645D01*
X0294642Y0293878D01*
X0294642Y0292343D01*
X0293874Y0291576D01*
X0293107Y0291576D01*
X0292340Y0292343D01*
X0292340Y0294645D01*
X0293874Y0290041D02*
X0294642Y0289274D01*
X0294642Y0287739D01*
X0293874Y0286972D01*
X0290805Y0286972D01*
X0290038Y0287739D01*
X0304014Y0287699D02*
X0304781Y0288466D01*
X0304014Y0287699D02*
X0304014Y0286164D01*
X0304781Y0285397D01*
X0307851Y0285397D01*
X0308618Y0286164D01*
X0308618Y0287699D01*
X0307851Y0288466D01*
X0308618Y0290001D02*
X0308618Y0293070D01*
X0307851Y0293070D01*
X0304781Y0290001D01*
X0304014Y0290001D01*
X0303640Y0305274D02*
X0302872Y0306041D01*
X0302872Y0307576D01*
X0303640Y0308343D01*
X0302872Y0309878D02*
X0302872Y0312947D01*
X0302872Y0311413D02*
X0307476Y0311413D01*
X0305942Y0309878D01*
X0306709Y0308343D02*
X0307476Y0307576D01*
X0307476Y0306041D01*
X0306709Y0305274D01*
X0303640Y0305274D01*
X0303640Y0314482D02*
X0306709Y0317551D01*
X0303640Y0317551D01*
X0302872Y0316784D01*
X0302872Y0315249D01*
X0303640Y0314482D01*
X0306709Y0314482D01*
X0307476Y0315249D01*
X0307476Y0316784D01*
X0306709Y0317551D01*
X0317046Y0313755D02*
X0317046Y0312220D01*
X0317813Y0311453D01*
X0318580Y0311453D01*
X0319348Y0312220D01*
X0319348Y0313755D01*
X0318580Y0314522D01*
X0317813Y0314522D01*
X0317046Y0313755D01*
X0319348Y0313755D02*
X0320115Y0314522D01*
X0320882Y0314522D01*
X0321650Y0313755D01*
X0321650Y0312220D01*
X0320882Y0311453D01*
X0320115Y0311453D01*
X0319348Y0312220D01*
X0320882Y0309918D02*
X0321650Y0309151D01*
X0321650Y0307616D01*
X0320882Y0306849D01*
X0317813Y0306849D01*
X0317046Y0307616D01*
X0317046Y0309151D01*
X0317813Y0309918D01*
X0315524Y0332203D02*
X0315524Y0336807D01*
X0313222Y0336807D01*
X0312454Y0336040D01*
X0312454Y0334505D01*
X0313222Y0333738D01*
X0315524Y0333738D01*
X0313989Y0333738D02*
X0312454Y0332203D01*
X0310920Y0334505D02*
X0307850Y0334505D01*
X0308618Y0332203D02*
X0308618Y0336807D01*
X0310920Y0334505D01*
X0310152Y0344014D02*
X0310920Y0344781D01*
X0310152Y0344014D02*
X0308618Y0344014D01*
X0307850Y0344781D01*
X0307850Y0346316D01*
X0308618Y0347083D01*
X0309385Y0347083D01*
X0310920Y0346316D01*
X0310920Y0348618D01*
X0307850Y0348618D01*
X0312454Y0347851D02*
X0312454Y0346316D01*
X0313222Y0345549D01*
X0315524Y0345549D01*
X0315524Y0344014D02*
X0315524Y0348618D01*
X0313222Y0348618D01*
X0312454Y0347851D01*
X0313989Y0345549D02*
X0312454Y0344014D01*
X0312454Y0355825D02*
X0313989Y0357360D01*
X0313222Y0357360D02*
X0315524Y0357360D01*
X0315524Y0355825D02*
X0315524Y0360429D01*
X0313222Y0360429D01*
X0312454Y0359662D01*
X0312454Y0358127D01*
X0313222Y0357360D01*
X0310920Y0358127D02*
X0310920Y0356593D01*
X0310152Y0355825D01*
X0308618Y0355825D01*
X0307850Y0356593D01*
X0307850Y0357360D01*
X0308618Y0358127D01*
X0310920Y0358127D01*
X0309385Y0359662D01*
X0307850Y0360429D01*
X0310920Y0367636D02*
X0310920Y0368404D01*
X0307850Y0371473D01*
X0307850Y0372240D01*
X0310920Y0372240D01*
X0312454Y0371473D02*
X0312454Y0369938D01*
X0313222Y0369171D01*
X0315524Y0369171D01*
X0315524Y0367636D02*
X0315524Y0372240D01*
X0313222Y0372240D01*
X0312454Y0371473D01*
X0313989Y0369171D02*
X0312454Y0367636D01*
X0312454Y0379447D02*
X0313989Y0380982D01*
X0313222Y0380982D02*
X0315524Y0380982D01*
X0315524Y0379447D02*
X0315524Y0384051D01*
X0313222Y0384051D01*
X0312454Y0383284D01*
X0312454Y0381749D01*
X0313222Y0380982D01*
X0310920Y0380982D02*
X0310152Y0381749D01*
X0308618Y0381749D01*
X0307850Y0380982D01*
X0307850Y0380215D01*
X0308618Y0379447D01*
X0310152Y0379447D01*
X0310920Y0380215D01*
X0310920Y0380982D01*
X0310152Y0381749D02*
X0310920Y0382517D01*
X0310920Y0383284D01*
X0310152Y0384051D01*
X0308618Y0384051D01*
X0307850Y0383284D01*
X0307850Y0382517D01*
X0308618Y0381749D01*
X0308618Y0391258D02*
X0307850Y0392026D01*
X0307850Y0395095D01*
X0308618Y0395862D01*
X0310152Y0395862D01*
X0310920Y0395095D01*
X0310920Y0394328D01*
X0310152Y0393560D01*
X0307850Y0393560D01*
X0308618Y0391258D02*
X0310152Y0391258D01*
X0310920Y0392026D01*
X0312454Y0391258D02*
X0313989Y0392793D01*
X0313222Y0392793D02*
X0315524Y0392793D01*
X0315524Y0391258D02*
X0315524Y0395862D01*
X0313222Y0395862D01*
X0312454Y0395095D01*
X0312454Y0393560D01*
X0313222Y0392793D01*
X0392459Y0471928D02*
X0391691Y0472695D01*
X0391691Y0474230D01*
X0392459Y0474997D01*
X0392459Y0476531D02*
X0391691Y0477299D01*
X0391691Y0478833D01*
X0392459Y0479601D01*
X0393993Y0479601D01*
X0394761Y0478833D01*
X0394761Y0478066D01*
X0393993Y0476531D01*
X0396295Y0476531D01*
X0396295Y0479601D01*
X0395528Y0474997D02*
X0396295Y0474230D01*
X0396295Y0472695D01*
X0395528Y0471928D01*
X0392459Y0471928D01*
X0468598Y0430705D02*
X0468598Y0426101D01*
X0467831Y0428403D02*
X0470900Y0428403D01*
X0468598Y0430705D01*
X0472435Y0429937D02*
X0473202Y0430705D01*
X0474737Y0430705D01*
X0475504Y0429937D01*
X0475504Y0426868D01*
X0474737Y0426101D01*
X0473202Y0426101D01*
X0472435Y0426868D01*
X0472415Y0420665D02*
X0473949Y0420665D01*
X0474717Y0419898D01*
X0474717Y0416829D01*
X0473949Y0416061D01*
X0472415Y0416061D01*
X0471647Y0416829D01*
X0470113Y0416829D02*
X0469345Y0416061D01*
X0467811Y0416061D01*
X0467043Y0416829D01*
X0467043Y0417596D01*
X0467811Y0418363D01*
X0468578Y0418363D01*
X0467811Y0418363D02*
X0467043Y0419131D01*
X0467043Y0419898D01*
X0467811Y0420665D01*
X0469345Y0420665D01*
X0470113Y0419898D01*
X0471647Y0419898D02*
X0472415Y0420665D01*
X0352161Y0287670D02*
X0347557Y0287670D01*
X0347557Y0286135D02*
X0347557Y0289205D01*
X0350627Y0286135D02*
X0352161Y0287670D01*
X0352161Y0283066D02*
X0347557Y0283066D01*
X0347557Y0281531D02*
X0347557Y0284601D01*
X0350627Y0281531D02*
X0352161Y0283066D01*
X0351394Y0279997D02*
X0352161Y0279230D01*
X0352161Y0277695D01*
X0351394Y0276928D01*
X0348325Y0276928D01*
X0347557Y0277695D01*
X0347557Y0279230D01*
X0348325Y0279997D01*
X0366645Y0269268D02*
X0367412Y0270035D01*
X0368947Y0270035D01*
X0369714Y0269268D01*
X0366645Y0269268D02*
X0366645Y0268501D01*
X0369714Y0265431D01*
X0366645Y0265431D01*
X0371249Y0265431D02*
X0374318Y0265431D01*
X0372783Y0265431D02*
X0372783Y0270035D01*
X0374318Y0268501D01*
X0375853Y0269268D02*
X0376620Y0270035D01*
X0378155Y0270035D01*
X0378922Y0269268D01*
X0378922Y0266199D01*
X0378155Y0265431D01*
X0376620Y0265431D01*
X0375853Y0266199D01*
X0407006Y0243949D02*
X0411610Y0243949D01*
X0409308Y0241647D01*
X0409308Y0244716D01*
X0407006Y0240113D02*
X0407006Y0237043D01*
X0407006Y0238578D02*
X0411610Y0238578D01*
X0410076Y0237043D01*
X0410843Y0235509D02*
X0411610Y0234741D01*
X0411610Y0233207D01*
X0410843Y0232439D01*
X0407774Y0232439D01*
X0407006Y0233207D01*
X0407006Y0234741D01*
X0407774Y0235509D01*
X0418817Y0235922D02*
X0419585Y0236690D01*
X0418817Y0235922D02*
X0418817Y0234388D01*
X0419585Y0233620D01*
X0422654Y0233620D01*
X0423421Y0234388D01*
X0423421Y0235922D01*
X0422654Y0236690D01*
X0421887Y0238224D02*
X0423421Y0239759D01*
X0418817Y0239759D01*
X0418817Y0238224D02*
X0418817Y0241294D01*
X0419585Y0242828D02*
X0418817Y0243596D01*
X0418817Y0245130D01*
X0419585Y0245898D01*
X0420352Y0245898D01*
X0421119Y0245130D01*
X0421119Y0244363D01*
X0421119Y0245130D02*
X0421887Y0245898D01*
X0422654Y0245898D01*
X0423421Y0245130D01*
X0423421Y0243596D01*
X0422654Y0242828D01*
X0473732Y0245055D02*
X0476801Y0241986D01*
X0476801Y0241219D01*
X0478335Y0241219D02*
X0481405Y0241219D01*
X0479870Y0241219D02*
X0479870Y0245823D01*
X0481405Y0244288D01*
X0482939Y0245055D02*
X0483707Y0245823D01*
X0485241Y0245823D01*
X0486009Y0245055D01*
X0486009Y0241986D01*
X0485241Y0241219D01*
X0483707Y0241219D01*
X0482939Y0241986D01*
X0476801Y0245823D02*
X0473732Y0245823D01*
X0473732Y0245055D01*
X0473121Y0254211D02*
X0474656Y0254211D01*
X0475423Y0254978D01*
X0475423Y0255746D01*
X0474656Y0256513D01*
X0473121Y0256513D01*
X0472354Y0255746D01*
X0472354Y0254978D01*
X0473121Y0254211D01*
X0473121Y0256513D02*
X0472354Y0257280D01*
X0472354Y0258048D01*
X0473121Y0258815D01*
X0474656Y0258815D01*
X0475423Y0258048D01*
X0475423Y0257280D01*
X0474656Y0256513D01*
X0476957Y0254211D02*
X0480027Y0254211D01*
X0478492Y0254211D02*
X0478492Y0258815D01*
X0480027Y0257280D01*
X0481561Y0258048D02*
X0482329Y0258815D01*
X0483863Y0258815D01*
X0484631Y0258048D01*
X0484631Y0254978D01*
X0483863Y0254211D01*
X0482329Y0254211D01*
X0481561Y0254978D01*
D11*
X0406275Y0359090D02*
X0401275Y0359090D01*
X0398775Y0361590D01*
X0398775Y0366590D01*
X0401275Y0369090D01*
X0406275Y0369090D01*
X0408775Y0366590D01*
X0408775Y0361590D01*
X0406275Y0359090D01*
X0406275Y0369090D02*
X0408775Y0371590D01*
X0408775Y0376590D01*
X0406275Y0379090D01*
X0408775Y0381590D01*
X0408775Y0386590D01*
X0406275Y0389090D01*
X0408775Y0391590D01*
X0408775Y0396590D01*
X0406275Y0399090D01*
X0408775Y0401590D01*
X0408775Y0406590D01*
X0406275Y0409090D01*
X0401275Y0409090D01*
X0398775Y0406590D01*
X0398775Y0401590D01*
X0401275Y0399090D01*
X0398775Y0396590D01*
X0398775Y0391590D01*
X0401275Y0389090D01*
X0406275Y0389090D01*
X0401275Y0389090D02*
X0398775Y0386590D01*
X0398775Y0381590D01*
X0401275Y0379090D01*
X0398775Y0376590D01*
X0398775Y0371590D01*
X0401275Y0369090D01*
X0401275Y0379090D02*
X0406275Y0379090D01*
X0406275Y0399090D02*
X0401275Y0399090D01*
D12*
X0396329Y0398080D02*
X0395578Y0398830D01*
X0392575Y0395828D01*
X0391825Y0396579D01*
X0391825Y0398080D01*
X0392575Y0398830D01*
X0395578Y0398830D01*
X0396329Y0398080D02*
X0396329Y0396579D01*
X0395578Y0395828D01*
X0392575Y0395828D01*
X0392575Y0394227D02*
X0393326Y0394227D01*
X0394077Y0393476D01*
X0394077Y0391224D01*
X0392575Y0391224D01*
X0391825Y0391975D01*
X0391825Y0393476D01*
X0392575Y0394227D01*
X0395578Y0392725D02*
X0394077Y0391224D01*
X0395578Y0392725D02*
X0396329Y0394227D01*
X0396329Y0389623D02*
X0392575Y0389623D01*
X0391825Y0388872D01*
X0391825Y0387371D01*
X0392575Y0386620D01*
X0396329Y0386620D01*
X0395578Y0385019D02*
X0394077Y0385019D01*
X0393326Y0384268D01*
X0393326Y0382016D01*
X0391825Y0382016D02*
X0396329Y0382016D01*
X0396329Y0384268D01*
X0395578Y0385019D01*
X0396329Y0380415D02*
X0391825Y0380415D01*
X0391825Y0377412D02*
X0396329Y0377412D01*
X0394827Y0378914D01*
X0396329Y0380415D01*
X0396329Y0400432D02*
X0394077Y0400432D01*
X0394827Y0401933D01*
X0394827Y0402684D01*
X0394077Y0403434D01*
X0392575Y0403434D01*
X0391825Y0402684D01*
X0391825Y0401182D01*
X0392575Y0400432D01*
X0396329Y0400432D02*
X0396329Y0403434D01*
X0395578Y0405036D02*
X0396329Y0405786D01*
X0396329Y0407288D01*
X0395578Y0408038D01*
X0392575Y0405036D01*
X0391825Y0405786D01*
X0391825Y0407288D01*
X0392575Y0408038D01*
X0395578Y0408038D01*
X0395578Y0405036D02*
X0392575Y0405036D01*
D13*
X0389798Y0459680D02*
X0404365Y0459680D01*
X0404365Y0499641D01*
X0398657Y0505350D01*
X0389798Y0505350D01*
X0378381Y0505350D02*
X0369523Y0505350D01*
X0363814Y0499641D01*
X0363814Y0459680D01*
X0378381Y0459680D01*
X0378578Y0464011D02*
X0378128Y0464151D01*
X0377682Y0464302D01*
X0377240Y0464464D01*
X0376801Y0464637D01*
X0376367Y0464820D01*
X0375937Y0465014D01*
X0375513Y0465218D01*
X0375093Y0465432D01*
X0374679Y0465657D01*
X0374270Y0465892D01*
X0373868Y0466136D01*
X0373471Y0466391D01*
X0373081Y0466654D01*
X0372697Y0466928D01*
X0372320Y0467211D01*
X0371950Y0467502D01*
X0371587Y0467803D01*
X0371232Y0468113D01*
X0370884Y0468431D01*
X0370545Y0468757D01*
X0370213Y0469092D01*
X0369889Y0469434D01*
X0369574Y0469785D01*
X0369268Y0470143D01*
X0368971Y0470508D01*
X0368682Y0470881D01*
X0368403Y0471260D01*
X0368133Y0471646D01*
X0367872Y0472039D01*
X0367621Y0472438D01*
X0367380Y0472843D01*
X0367149Y0473253D01*
X0366928Y0473670D01*
X0366718Y0474091D01*
X0366517Y0474517D01*
X0366327Y0474949D01*
X0366148Y0475384D01*
X0365979Y0475824D01*
X0365821Y0476268D01*
X0365674Y0476716D01*
X0365538Y0477167D01*
X0365413Y0477621D01*
X0365300Y0478079D01*
X0365197Y0478538D01*
X0365106Y0479001D01*
X0365025Y0479465D01*
X0364957Y0479931D01*
X0364899Y0480399D01*
X0364853Y0480868D01*
X0364819Y0481338D01*
X0364796Y0481808D01*
X0364784Y0482279D01*
X0364784Y0482751D01*
X0364796Y0483222D01*
X0364819Y0483692D01*
X0364853Y0484162D01*
X0364899Y0484631D01*
X0364957Y0485099D01*
X0365025Y0485565D01*
X0365106Y0486029D01*
X0365197Y0486492D01*
X0365300Y0486951D01*
X0365413Y0487409D01*
X0365538Y0487863D01*
X0365674Y0488314D01*
X0365821Y0488762D01*
X0365979Y0489206D01*
X0366148Y0489646D01*
X0366327Y0490081D01*
X0366517Y0490513D01*
X0366718Y0490939D01*
X0366928Y0491360D01*
X0367149Y0491777D01*
X0367380Y0492187D01*
X0367621Y0492592D01*
X0367872Y0492991D01*
X0368133Y0493384D01*
X0368403Y0493770D01*
X0368682Y0494149D01*
X0368971Y0494522D01*
X0369268Y0494887D01*
X0369574Y0495245D01*
X0369889Y0495596D01*
X0370213Y0495938D01*
X0370545Y0496273D01*
X0370884Y0496599D01*
X0371232Y0496917D01*
X0371587Y0497227D01*
X0371950Y0497528D01*
X0372320Y0497819D01*
X0372697Y0498102D01*
X0373081Y0498376D01*
X0373471Y0498639D01*
X0373868Y0498894D01*
X0374270Y0499138D01*
X0374679Y0499373D01*
X0375093Y0499598D01*
X0375513Y0499812D01*
X0375937Y0500016D01*
X0376367Y0500210D01*
X0376801Y0500393D01*
X0377240Y0500566D01*
X0377682Y0500728D01*
X0378128Y0500879D01*
X0378578Y0501019D01*
X0389602Y0501019D02*
X0390052Y0500879D01*
X0390498Y0500728D01*
X0390940Y0500566D01*
X0391379Y0500393D01*
X0391813Y0500210D01*
X0392243Y0500016D01*
X0392667Y0499812D01*
X0393087Y0499598D01*
X0393501Y0499373D01*
X0393910Y0499138D01*
X0394312Y0498894D01*
X0394709Y0498639D01*
X0395099Y0498376D01*
X0395483Y0498102D01*
X0395860Y0497819D01*
X0396230Y0497528D01*
X0396593Y0497227D01*
X0396948Y0496917D01*
X0397296Y0496599D01*
X0397635Y0496273D01*
X0397967Y0495938D01*
X0398291Y0495596D01*
X0398606Y0495245D01*
X0398912Y0494887D01*
X0399209Y0494522D01*
X0399498Y0494149D01*
X0399777Y0493770D01*
X0400047Y0493384D01*
X0400308Y0492991D01*
X0400559Y0492592D01*
X0400800Y0492187D01*
X0401031Y0491777D01*
X0401252Y0491360D01*
X0401462Y0490939D01*
X0401663Y0490513D01*
X0401853Y0490081D01*
X0402032Y0489646D01*
X0402201Y0489206D01*
X0402359Y0488762D01*
X0402506Y0488314D01*
X0402642Y0487863D01*
X0402767Y0487409D01*
X0402880Y0486951D01*
X0402983Y0486492D01*
X0403074Y0486029D01*
X0403155Y0485565D01*
X0403223Y0485099D01*
X0403281Y0484631D01*
X0403327Y0484162D01*
X0403361Y0483692D01*
X0403384Y0483222D01*
X0403396Y0482751D01*
X0403396Y0482279D01*
X0403384Y0481808D01*
X0403361Y0481338D01*
X0403327Y0480868D01*
X0403281Y0480399D01*
X0403223Y0479931D01*
X0403155Y0479465D01*
X0403074Y0479001D01*
X0402983Y0478538D01*
X0402880Y0478079D01*
X0402767Y0477621D01*
X0402642Y0477167D01*
X0402506Y0476716D01*
X0402359Y0476268D01*
X0402201Y0475824D01*
X0402032Y0475384D01*
X0401853Y0474949D01*
X0401663Y0474517D01*
X0401462Y0474091D01*
X0401252Y0473670D01*
X0401031Y0473253D01*
X0400800Y0472843D01*
X0400559Y0472438D01*
X0400308Y0472039D01*
X0400047Y0471646D01*
X0399777Y0471260D01*
X0399498Y0470881D01*
X0399209Y0470508D01*
X0398912Y0470143D01*
X0398606Y0469785D01*
X0398291Y0469434D01*
X0397967Y0469092D01*
X0397635Y0468757D01*
X0397296Y0468431D01*
X0396948Y0468113D01*
X0396593Y0467803D01*
X0396230Y0467502D01*
X0395860Y0467211D01*
X0395483Y0466928D01*
X0395099Y0466654D01*
X0394709Y0466391D01*
X0394312Y0466136D01*
X0393910Y0465892D01*
X0393501Y0465657D01*
X0393087Y0465432D01*
X0392667Y0465218D01*
X0392243Y0465014D01*
X0391813Y0464820D01*
X0391379Y0464637D01*
X0390940Y0464464D01*
X0390498Y0464302D01*
X0390052Y0464151D01*
X0389602Y0464011D01*
M02*
