G75*
%MOIN*%
%OFA0B0*%
%FSLAX25Y25*%
%IPPOS*%
%LPD*%
%AMOC8*
5,1,8,0,0,1.08239X$1,22.5*
%
%ADD10C,0.00250*%
%ADD11C,0.00984*%
%ADD12C,0.00400*%
%ADD13C,0.00600*%
%ADD14C,0.00500*%
%ADD15C,0.01200*%
%ADD16C,0.00800*%
%ADD17C,0.00700*%
%ADD18C,0.00200*%
%ADD19R,0.02500X0.03000*%
%ADD20R,0.11000X0.05000*%
%ADD21C,0.01000*%
D10*
X0296294Y0266019D02*
X0296885Y0266609D01*
X0297574Y0265920D01*
X0296983Y0265330D01*
X0296294Y0266019D01*
X0443145Y0509483D02*
X0442554Y0510074D01*
X0443243Y0510763D01*
X0443834Y0510172D01*
X0443145Y0509483D01*
X0443145Y0525231D02*
X0442554Y0525822D01*
X0443243Y0526511D01*
X0443834Y0525920D01*
X0443145Y0525231D01*
D11*
X0444228Y0524247D03*
X0444228Y0508499D03*
X0295310Y0264936D03*
D12*
X0292748Y0264917D02*
X0292748Y0267987D01*
X0292748Y0269521D02*
X0292748Y0271823D01*
X0291981Y0272591D01*
X0288911Y0272591D01*
X0288144Y0271823D01*
X0288144Y0269521D01*
X0292748Y0269521D01*
X0290446Y0266452D02*
X0290446Y0264917D01*
X0288144Y0264917D02*
X0292748Y0264917D01*
X0292748Y0263383D02*
X0292748Y0260313D01*
X0288144Y0260313D01*
X0288144Y0264917D02*
X0288144Y0267987D01*
X0293515Y0274125D02*
X0293515Y0277194D01*
X0292748Y0278729D02*
X0292748Y0281798D01*
X0292748Y0283333D02*
X0289679Y0283333D01*
X0288144Y0284868D01*
X0289679Y0286402D01*
X0292748Y0286402D01*
X0291981Y0287937D02*
X0292748Y0288704D01*
X0292748Y0290239D01*
X0291981Y0291006D01*
X0291213Y0291006D01*
X0290446Y0290239D01*
X0290446Y0288704D01*
X0289679Y0287937D01*
X0288911Y0287937D01*
X0288144Y0288704D01*
X0288144Y0290239D01*
X0288911Y0291006D01*
X0288144Y0292541D02*
X0288144Y0294075D01*
X0288144Y0293308D02*
X0292748Y0293308D01*
X0292748Y0292541D02*
X0292748Y0294075D01*
X0292748Y0295610D02*
X0292748Y0298679D01*
X0292748Y0300214D02*
X0289679Y0300214D01*
X0288144Y0301749D01*
X0289679Y0303283D01*
X0292748Y0303283D01*
X0292748Y0304818D02*
X0288144Y0304818D01*
X0292748Y0307887D01*
X0288144Y0307887D01*
X0288144Y0309422D02*
X0288144Y0310957D01*
X0288144Y0310189D02*
X0292748Y0310189D01*
X0292748Y0309422D02*
X0292748Y0310957D01*
X0292748Y0312491D02*
X0292748Y0315560D01*
X0290446Y0314026D02*
X0290446Y0312491D01*
X0288144Y0312491D02*
X0292748Y0312491D01*
X0288144Y0312491D02*
X0288144Y0315560D01*
X0290446Y0303283D02*
X0290446Y0300214D01*
X0288144Y0295610D02*
X0292748Y0295610D01*
X0290446Y0286402D02*
X0290446Y0283333D01*
X0288911Y0281798D02*
X0291981Y0278729D01*
X0292748Y0278729D01*
X0288144Y0278729D02*
X0288144Y0281798D01*
X0288911Y0281798D01*
X0322735Y0263972D02*
X0322735Y0259369D01*
X0322735Y0260903D02*
X0325037Y0260903D01*
X0325804Y0261670D01*
X0325804Y0263205D01*
X0325037Y0263972D01*
X0322735Y0263972D01*
X0324269Y0260903D02*
X0325804Y0259369D01*
X0327339Y0259369D02*
X0330408Y0262438D01*
X0330408Y0263205D01*
X0329641Y0263972D01*
X0328106Y0263972D01*
X0327339Y0263205D01*
X0327339Y0259369D02*
X0330408Y0259369D01*
X0350294Y0259369D02*
X0350294Y0263972D01*
X0352596Y0263972D01*
X0353363Y0263205D01*
X0353363Y0261670D01*
X0352596Y0260903D01*
X0350294Y0260903D01*
X0351828Y0260903D02*
X0353363Y0259369D01*
X0354898Y0259369D02*
X0357967Y0259369D01*
X0356432Y0259369D02*
X0356432Y0263972D01*
X0354898Y0262438D01*
X0306672Y0240213D02*
X0306672Y0239446D01*
X0305905Y0238678D01*
X0306672Y0237911D01*
X0306672Y0237144D01*
X0305905Y0236376D01*
X0304370Y0236376D01*
X0303603Y0237144D01*
X0302069Y0236376D02*
X0300534Y0237911D01*
X0301301Y0237911D02*
X0298999Y0237911D01*
X0298999Y0236376D02*
X0298999Y0240980D01*
X0301301Y0240980D01*
X0302069Y0240213D01*
X0302069Y0238678D01*
X0301301Y0237911D01*
X0303603Y0240213D02*
X0304370Y0240980D01*
X0305905Y0240980D01*
X0306672Y0240213D01*
X0305905Y0238678D02*
X0305138Y0238678D01*
X0317168Y0325731D02*
X0321772Y0328800D01*
X0321772Y0330335D02*
X0321772Y0333404D01*
X0321772Y0331869D02*
X0317168Y0331869D01*
X0318702Y0330335D01*
X0317168Y0328800D02*
X0321772Y0325731D01*
X0305339Y0378523D02*
X0300735Y0381592D01*
X0301502Y0383127D02*
X0300735Y0383894D01*
X0300735Y0385429D01*
X0301502Y0386196D01*
X0302269Y0386196D01*
X0305339Y0383127D01*
X0305339Y0386196D01*
X0305339Y0381592D02*
X0300735Y0378523D01*
X0417593Y0453679D02*
X0418360Y0452912D01*
X0421430Y0452912D01*
X0422197Y0453679D01*
X0422197Y0455214D01*
X0421430Y0455981D01*
X0422197Y0457516D02*
X0422197Y0460585D01*
X0422197Y0459050D02*
X0417593Y0459050D01*
X0419128Y0457516D01*
X0418360Y0455981D02*
X0417593Y0455214D01*
X0417593Y0453679D01*
X0418360Y0462120D02*
X0419128Y0462120D01*
X0419895Y0462887D01*
X0419895Y0465189D01*
X0421430Y0465189D02*
X0418360Y0465189D01*
X0417593Y0464422D01*
X0417593Y0462887D01*
X0418360Y0462120D01*
X0421430Y0462120D02*
X0422197Y0462887D01*
X0422197Y0464422D01*
X0421430Y0465189D01*
X0427435Y0465603D02*
X0428203Y0466370D01*
X0431272Y0463301D01*
X0432039Y0464068D01*
X0432039Y0465603D01*
X0431272Y0466370D01*
X0428203Y0466370D01*
X0427435Y0465603D02*
X0427435Y0464068D01*
X0428203Y0463301D01*
X0431272Y0463301D01*
X0432039Y0461766D02*
X0432039Y0458697D01*
X0428970Y0461766D01*
X0428203Y0461766D01*
X0427435Y0460999D01*
X0427435Y0459464D01*
X0428203Y0458697D01*
X0428203Y0457162D02*
X0427435Y0456395D01*
X0427435Y0454860D01*
X0428203Y0454093D01*
X0431272Y0454093D01*
X0432039Y0454860D01*
X0432039Y0456395D01*
X0431272Y0457162D01*
X0429737Y0441311D02*
X0429737Y0438242D01*
X0427435Y0440544D01*
X0432039Y0440544D01*
X0432039Y0436707D02*
X0432039Y0433638D01*
X0432039Y0435172D02*
X0427435Y0435172D01*
X0428970Y0433638D01*
X0428203Y0432103D02*
X0429737Y0432103D01*
X0430505Y0431336D01*
X0430505Y0429034D01*
X0432039Y0429034D02*
X0427435Y0429034D01*
X0427435Y0431336D01*
X0428203Y0432103D01*
X0430505Y0430568D02*
X0432039Y0432103D01*
X0432593Y0424625D02*
X0432593Y0421556D01*
X0434895Y0421556D01*
X0434128Y0423091D01*
X0434128Y0423858D01*
X0434895Y0424625D01*
X0436430Y0424625D01*
X0437197Y0423858D01*
X0437197Y0422323D01*
X0436430Y0421556D01*
X0437197Y0420021D02*
X0437197Y0416952D01*
X0437197Y0418487D02*
X0432593Y0418487D01*
X0434128Y0416952D01*
X0434895Y0415417D02*
X0435662Y0414650D01*
X0435662Y0412348D01*
X0435662Y0413883D02*
X0437197Y0415417D01*
X0434895Y0415417D02*
X0433360Y0415417D01*
X0432593Y0414650D01*
X0432593Y0412348D01*
X0437197Y0412348D01*
X0468798Y0424526D02*
X0468798Y0429130D01*
X0471100Y0429130D01*
X0471867Y0428363D01*
X0471867Y0426828D01*
X0471100Y0426061D01*
X0468798Y0426061D01*
X0470332Y0426061D02*
X0471867Y0424526D01*
X0473402Y0424526D02*
X0476471Y0424526D01*
X0474936Y0424526D02*
X0474936Y0429130D01*
X0473402Y0427595D01*
X0478005Y0428363D02*
X0478773Y0429130D01*
X0480307Y0429130D01*
X0481075Y0428363D01*
X0478005Y0425293D01*
X0478773Y0424526D01*
X0480307Y0424526D01*
X0481075Y0425293D01*
X0481075Y0428363D01*
X0478005Y0428363D02*
X0478005Y0425293D01*
X0477415Y0452124D02*
X0480485Y0452124D01*
X0481252Y0452892D01*
X0481252Y0454426D01*
X0480485Y0455194D01*
X0481252Y0456728D02*
X0481252Y0459798D01*
X0481252Y0458263D02*
X0476648Y0458263D01*
X0478183Y0456728D01*
X0477415Y0455194D02*
X0476648Y0454426D01*
X0476648Y0452892D01*
X0477415Y0452124D01*
X0470622Y0453482D02*
X0470622Y0455017D01*
X0469855Y0455784D01*
X0470622Y0457319D02*
X0470622Y0460388D01*
X0470622Y0458854D02*
X0466018Y0458854D01*
X0467553Y0457319D01*
X0466785Y0455784D02*
X0466018Y0455017D01*
X0466018Y0453482D01*
X0466785Y0452715D01*
X0469855Y0452715D01*
X0470622Y0453482D01*
X0469855Y0461923D02*
X0468320Y0461923D01*
X0468320Y0464225D01*
X0469087Y0464992D01*
X0469855Y0464992D01*
X0470622Y0464225D01*
X0470622Y0462690D01*
X0469855Y0461923D01*
X0468320Y0461923D02*
X0466785Y0463457D01*
X0466018Y0464992D01*
X0476648Y0464402D02*
X0476648Y0461332D01*
X0478950Y0461332D01*
X0478183Y0462867D01*
X0478183Y0463634D01*
X0478950Y0464402D01*
X0480485Y0464402D01*
X0481252Y0463634D01*
X0481252Y0462100D01*
X0480485Y0461332D01*
X0467932Y0492400D02*
X0464863Y0492400D01*
X0467932Y0495469D01*
X0467932Y0496237D01*
X0467165Y0497004D01*
X0465630Y0497004D01*
X0464863Y0496237D01*
X0461794Y0497004D02*
X0461794Y0492400D01*
X0463328Y0492400D02*
X0460259Y0492400D01*
X0458724Y0492400D02*
X0457190Y0493935D01*
X0457957Y0493935D02*
X0455655Y0493935D01*
X0455655Y0492400D02*
X0455655Y0497004D01*
X0457957Y0497004D01*
X0458724Y0496237D01*
X0458724Y0494702D01*
X0457957Y0493935D01*
X0460259Y0495469D02*
X0461794Y0497004D01*
X0461794Y0508148D02*
X0461794Y0512752D01*
X0460259Y0511217D01*
X0458724Y0510450D02*
X0457957Y0509683D01*
X0455655Y0509683D01*
X0457190Y0509683D02*
X0458724Y0508148D01*
X0460259Y0508148D02*
X0463328Y0508148D01*
X0464863Y0508915D02*
X0465630Y0508148D01*
X0467165Y0508148D01*
X0467932Y0508915D01*
X0467932Y0509683D01*
X0467165Y0510450D01*
X0466398Y0510450D01*
X0467165Y0510450D02*
X0467932Y0511217D01*
X0467932Y0511985D01*
X0467165Y0512752D01*
X0465630Y0512752D01*
X0464863Y0511985D01*
X0458724Y0511985D02*
X0458724Y0510450D01*
X0458724Y0511985D02*
X0457957Y0512752D01*
X0455655Y0512752D01*
X0455655Y0508148D01*
X0446181Y0505941D02*
X0446181Y0501337D01*
X0444646Y0501337D02*
X0447716Y0501337D01*
X0444646Y0504406D02*
X0446181Y0505941D01*
X0443112Y0505941D02*
X0443112Y0501337D01*
X0440042Y0501337D02*
X0440042Y0505941D01*
X0441577Y0504406D01*
X0443112Y0505941D01*
X0438508Y0505174D02*
X0437741Y0505941D01*
X0436206Y0505941D01*
X0435439Y0505174D01*
X0435439Y0502104D01*
X0436206Y0501337D01*
X0437741Y0501337D01*
X0438508Y0502104D01*
X0438508Y0505174D01*
X0433904Y0505174D02*
X0433137Y0505941D01*
X0431602Y0505941D01*
X0430835Y0505174D01*
X0430835Y0502104D01*
X0431602Y0501337D01*
X0433137Y0501337D01*
X0433904Y0502104D01*
X0429300Y0500570D02*
X0426231Y0500570D01*
X0424696Y0502104D02*
X0424696Y0505174D01*
X0423929Y0505941D01*
X0421627Y0505941D01*
X0421627Y0501337D01*
X0423929Y0501337D01*
X0424696Y0502104D01*
X0420092Y0501337D02*
X0417023Y0501337D01*
X0417023Y0505941D01*
X0420092Y0505941D01*
X0418557Y0503639D02*
X0417023Y0503639D01*
X0415488Y0501337D02*
X0412419Y0501337D01*
X0412419Y0505941D01*
X0412419Y0517085D02*
X0415488Y0517085D01*
X0417023Y0517085D02*
X0420092Y0517085D01*
X0421627Y0517085D02*
X0423929Y0517085D01*
X0424696Y0517852D01*
X0424696Y0520922D01*
X0423929Y0521689D01*
X0421627Y0521689D01*
X0421627Y0517085D01*
X0418557Y0519387D02*
X0417023Y0519387D01*
X0417023Y0521689D02*
X0417023Y0517085D01*
X0417023Y0521689D02*
X0420092Y0521689D01*
X0412419Y0521689D02*
X0412419Y0517085D01*
X0426231Y0516318D02*
X0429300Y0516318D01*
X0430835Y0517852D02*
X0431602Y0517085D01*
X0433137Y0517085D01*
X0433904Y0517852D01*
X0435439Y0517852D02*
X0436206Y0517085D01*
X0437741Y0517085D01*
X0438508Y0517852D01*
X0438508Y0520922D01*
X0437741Y0521689D01*
X0436206Y0521689D01*
X0435439Y0520922D01*
X0435439Y0517852D01*
X0433904Y0520922D02*
X0433137Y0521689D01*
X0431602Y0521689D01*
X0430835Y0520922D01*
X0430835Y0517852D01*
X0440042Y0517085D02*
X0440042Y0521689D01*
X0441577Y0520154D01*
X0443112Y0521689D01*
X0443112Y0517085D01*
X0444646Y0517085D02*
X0447716Y0520154D01*
X0447716Y0520922D01*
X0446948Y0521689D01*
X0445414Y0521689D01*
X0444646Y0520922D01*
X0444646Y0517085D02*
X0447716Y0517085D01*
X0471597Y0345429D02*
X0470830Y0344662D01*
X0470830Y0341593D01*
X0471597Y0340825D01*
X0473132Y0340825D01*
X0473899Y0341593D01*
X0475434Y0340825D02*
X0478503Y0343894D01*
X0478503Y0344662D01*
X0477736Y0345429D01*
X0476201Y0345429D01*
X0475434Y0344662D01*
X0473899Y0344662D02*
X0473132Y0345429D01*
X0471597Y0345429D01*
X0475434Y0340825D02*
X0478503Y0340825D01*
X0476772Y0334012D02*
X0476772Y0329408D01*
X0478306Y0329408D02*
X0475237Y0329408D01*
X0473702Y0330175D02*
X0472935Y0329408D01*
X0471400Y0329408D01*
X0470633Y0330175D01*
X0470633Y0333244D01*
X0471400Y0334012D01*
X0472935Y0334012D01*
X0473702Y0333244D01*
X0475237Y0332477D02*
X0476772Y0334012D01*
D13*
X0452239Y0332377D02*
X0449739Y0329877D01*
X0444739Y0329877D01*
X0442239Y0332377D01*
X0439739Y0329877D01*
X0434739Y0329877D01*
X0432239Y0332377D01*
X0429739Y0329877D01*
X0424739Y0329877D01*
X0422239Y0332377D01*
X0422239Y0337377D01*
X0424739Y0339877D01*
X0429739Y0339877D01*
X0432239Y0337377D01*
X0434739Y0339877D01*
X0439739Y0339877D01*
X0442239Y0337377D01*
X0444739Y0339877D01*
X0449739Y0339877D01*
X0452239Y0337377D01*
X0452239Y0332377D01*
X0449739Y0323224D02*
X0452239Y0320724D01*
X0452239Y0305724D01*
X0449739Y0303224D01*
X0444739Y0303224D01*
X0442239Y0305724D01*
X0442239Y0320724D01*
X0444739Y0323224D01*
X0449739Y0323224D01*
X0442239Y0320724D02*
X0439739Y0323224D01*
X0434739Y0323224D01*
X0432239Y0320724D01*
X0432239Y0305724D01*
X0434739Y0303224D01*
X0439739Y0303224D01*
X0442239Y0305724D01*
X0439739Y0298539D02*
X0434739Y0298539D01*
X0432239Y0296039D01*
X0432239Y0291039D01*
X0434739Y0288539D01*
X0439739Y0288539D01*
X0442239Y0291039D01*
X0444739Y0288539D01*
X0449739Y0288539D01*
X0452239Y0291039D01*
X0452239Y0296039D01*
X0449739Y0298539D01*
X0444739Y0298539D01*
X0442239Y0296039D01*
X0442239Y0291039D01*
X0442239Y0296039D02*
X0439739Y0298539D01*
X0432239Y0296039D02*
X0429739Y0298539D01*
X0424739Y0298539D01*
X0422239Y0296039D01*
X0422239Y0291039D01*
X0424739Y0288539D01*
X0429739Y0288539D01*
X0432239Y0291039D01*
X0429739Y0303224D02*
X0424739Y0303224D01*
X0422239Y0305724D01*
X0422239Y0320724D01*
X0424739Y0323224D01*
X0429739Y0323224D01*
X0432239Y0320724D01*
X0432239Y0332377D02*
X0432239Y0337377D01*
X0429739Y0344562D02*
X0424739Y0344562D01*
X0422239Y0347062D01*
X0422239Y0362062D01*
X0424739Y0364562D01*
X0429739Y0364562D01*
X0432239Y0362062D01*
X0432239Y0347062D01*
X0434739Y0344562D01*
X0439739Y0344562D01*
X0442239Y0347062D01*
X0444739Y0344562D01*
X0449739Y0344562D01*
X0452239Y0347062D01*
X0452239Y0362062D01*
X0449739Y0364562D01*
X0444739Y0364562D01*
X0442239Y0362062D01*
X0442239Y0347062D01*
X0442239Y0337377D02*
X0442239Y0332377D01*
X0429739Y0344562D02*
X0432239Y0347062D01*
X0432239Y0362062D02*
X0434739Y0364562D01*
X0439739Y0364562D01*
X0442239Y0362062D01*
X0439739Y0373184D02*
X0434739Y0373184D01*
X0432239Y0375684D01*
X0429739Y0373184D01*
X0424739Y0373184D01*
X0422239Y0375684D01*
X0422239Y0380684D01*
X0424739Y0383184D01*
X0429739Y0383184D01*
X0432239Y0380684D01*
X0434739Y0383184D01*
X0439739Y0383184D01*
X0442239Y0380684D01*
X0444739Y0383184D01*
X0449739Y0383184D01*
X0452239Y0380684D01*
X0452239Y0375684D01*
X0449739Y0373184D01*
X0444739Y0373184D01*
X0442239Y0375684D01*
X0439739Y0373184D01*
X0442239Y0375684D02*
X0442239Y0380684D01*
X0439739Y0387869D02*
X0434739Y0387869D01*
X0432239Y0390369D01*
X0432239Y0405369D01*
X0434739Y0407869D01*
X0439739Y0407869D01*
X0442239Y0405369D01*
X0444739Y0407869D01*
X0449739Y0407869D01*
X0452239Y0405369D01*
X0452239Y0390369D01*
X0449739Y0387869D01*
X0444739Y0387869D01*
X0442239Y0390369D01*
X0442239Y0405369D01*
X0432239Y0405369D02*
X0429739Y0407869D01*
X0424739Y0407869D01*
X0422239Y0405369D01*
X0422239Y0390369D01*
X0424739Y0387869D01*
X0429739Y0387869D01*
X0432239Y0390369D01*
X0439739Y0387869D02*
X0442239Y0390369D01*
X0432239Y0380684D02*
X0432239Y0375684D01*
X0451078Y0414129D02*
X0456078Y0414129D01*
X0458578Y0416629D01*
X0458578Y0421629D01*
X0456078Y0424129D01*
X0451078Y0424129D01*
X0448578Y0421629D01*
X0448578Y0416629D01*
X0451078Y0414129D01*
X0451550Y0428145D02*
X0454050Y0430645D01*
X0454050Y0435645D01*
X0451550Y0438145D01*
X0454050Y0440645D01*
X0454050Y0445645D01*
X0451550Y0448145D01*
X0454050Y0450645D01*
X0454050Y0455645D01*
X0451550Y0458145D01*
X0446550Y0458145D01*
X0444050Y0455645D01*
X0444050Y0450645D01*
X0446550Y0448145D01*
X0451550Y0448145D01*
X0446550Y0448145D02*
X0444050Y0445645D01*
X0444050Y0440645D01*
X0446550Y0438145D01*
X0451550Y0438145D01*
X0446550Y0438145D02*
X0444050Y0435645D01*
X0444050Y0430645D01*
X0446550Y0428145D01*
X0451550Y0428145D01*
X0462102Y0446373D02*
X0459602Y0448873D01*
X0459602Y0453873D01*
X0462102Y0456373D01*
X0459602Y0458873D01*
X0459602Y0463873D01*
X0462102Y0466373D01*
X0459602Y0468873D01*
X0459602Y0473873D01*
X0462102Y0476373D01*
X0459602Y0478873D01*
X0459602Y0483873D01*
X0462102Y0486373D01*
X0467102Y0486373D01*
X0469602Y0483873D01*
X0469602Y0478873D01*
X0467102Y0476373D01*
X0469602Y0473873D01*
X0469602Y0468873D01*
X0467102Y0466373D01*
X0462102Y0466373D01*
X0467102Y0466373D02*
X0469602Y0463873D01*
X0469602Y0458873D01*
X0467102Y0456373D01*
X0469602Y0453873D01*
X0469602Y0448873D01*
X0467102Y0446373D01*
X0462102Y0446373D01*
X0462102Y0456373D02*
X0467102Y0456373D01*
X0467102Y0476373D02*
X0462102Y0476373D01*
X0408027Y0505259D02*
X0408027Y0517259D01*
X0368027Y0517259D01*
X0368027Y0523259D01*
X0368027Y0527259D01*
X0371727Y0527259D01*
X0371727Y0528759D02*
X0370227Y0528759D01*
X0370227Y0546759D01*
X0370227Y0554259D01*
X0368027Y0554259D01*
X0368027Y0550259D01*
X0368027Y0545759D01*
X0368027Y0527259D01*
X0366027Y0524259D02*
X0368027Y0523259D01*
X0366027Y0524259D02*
X0366027Y0505259D01*
X0368027Y0505259D01*
X0408027Y0505259D01*
X0405927Y0506259D02*
X0389927Y0506259D01*
X0389927Y0516259D01*
X0405927Y0516259D01*
X0405927Y0506259D01*
X0404327Y0512259D02*
X0392327Y0509759D01*
X0391827Y0510259D02*
X0403827Y0512759D01*
X0403561Y0513501D02*
X0403645Y0513452D01*
X0403726Y0513400D01*
X0403805Y0513345D01*
X0403882Y0513286D01*
X0403956Y0513225D01*
X0404028Y0513160D01*
X0404097Y0513092D01*
X0404163Y0513022D01*
X0404226Y0512949D01*
X0404286Y0512873D01*
X0404342Y0512795D01*
X0404396Y0512715D01*
X0404446Y0512633D01*
X0404493Y0512548D01*
X0404536Y0512462D01*
X0404576Y0512374D01*
X0404612Y0512284D01*
X0404644Y0512193D01*
X0404672Y0512101D01*
X0404697Y0512008D01*
X0404718Y0511914D01*
X0404734Y0511818D01*
X0404747Y0511723D01*
X0404756Y0511627D01*
X0404761Y0511530D01*
X0404762Y0511434D01*
X0404759Y0511337D01*
X0404752Y0511241D01*
X0404741Y0511145D01*
X0404726Y0511050D01*
X0404707Y0510955D01*
X0404684Y0510861D01*
X0404657Y0510769D01*
X0404627Y0510677D01*
X0404593Y0510587D01*
X0404555Y0510498D01*
X0404513Y0510411D01*
X0404468Y0510326D01*
X0404419Y0510242D01*
X0404367Y0510161D01*
X0404312Y0510082D01*
X0404253Y0510005D01*
X0404192Y0509931D01*
X0404127Y0509859D01*
X0403726Y0513359D02*
X0403542Y0513503D01*
X0403353Y0513643D01*
X0403162Y0513778D01*
X0402967Y0513908D01*
X0402769Y0514034D01*
X0402568Y0514154D01*
X0402364Y0514270D01*
X0402157Y0514381D01*
X0401948Y0514486D01*
X0401736Y0514587D01*
X0401522Y0514682D01*
X0401305Y0514772D01*
X0401086Y0514857D01*
X0400866Y0514936D01*
X0400643Y0515010D01*
X0400419Y0515079D01*
X0400193Y0515142D01*
X0399966Y0515199D01*
X0399737Y0515251D01*
X0399507Y0515297D01*
X0399276Y0515338D01*
X0399045Y0515373D01*
X0398812Y0515402D01*
X0398579Y0515426D01*
X0398345Y0515444D01*
X0398111Y0515456D01*
X0397876Y0515463D01*
X0397642Y0515464D01*
X0397408Y0515459D01*
X0397173Y0515448D01*
X0396939Y0515432D01*
X0396706Y0515410D01*
X0396473Y0515382D01*
X0396241Y0515349D01*
X0396010Y0515309D01*
X0395780Y0515265D01*
X0395551Y0515214D01*
X0395323Y0515159D01*
X0395097Y0515097D01*
X0394872Y0515030D01*
X0394649Y0514958D01*
X0394428Y0514880D01*
X0394209Y0514797D01*
X0393992Y0514708D01*
X0393777Y0514614D01*
X0393564Y0514515D01*
X0393354Y0514411D01*
X0393147Y0514302D01*
X0392942Y0514188D01*
X0392740Y0514068D01*
X0392541Y0513944D01*
X0392345Y0513815D01*
X0392153Y0513682D01*
X0391963Y0513543D01*
X0392147Y0513677D02*
X0392072Y0513608D01*
X0392000Y0513537D01*
X0391931Y0513463D01*
X0391865Y0513387D01*
X0391801Y0513308D01*
X0391741Y0513227D01*
X0391683Y0513144D01*
X0391629Y0513058D01*
X0391578Y0512971D01*
X0391530Y0512882D01*
X0391486Y0512790D01*
X0391445Y0512698D01*
X0391408Y0512604D01*
X0391374Y0512508D01*
X0391344Y0512412D01*
X0391318Y0512314D01*
X0391295Y0512215D01*
X0391276Y0512116D01*
X0391261Y0512016D01*
X0391249Y0511915D01*
X0391241Y0511814D01*
X0391238Y0511713D01*
X0391237Y0511612D01*
X0391241Y0511511D01*
X0391249Y0511410D01*
X0391260Y0511309D01*
X0391275Y0511209D01*
X0391294Y0511110D01*
X0391316Y0511011D01*
X0391343Y0510913D01*
X0391373Y0510816D01*
X0391406Y0510721D01*
X0391443Y0510627D01*
X0391484Y0510534D01*
X0391528Y0510443D01*
X0391576Y0510354D01*
X0391626Y0510266D01*
X0391680Y0510180D01*
X0391738Y0510097D01*
X0391798Y0510016D01*
X0391861Y0509937D01*
X0391928Y0509860D01*
X0386227Y0506259D02*
X0386227Y0516259D01*
X0370227Y0516259D01*
X0370227Y0506259D01*
X0386227Y0506259D01*
X0384627Y0512259D02*
X0372627Y0509759D01*
X0372127Y0510259D02*
X0384127Y0512759D01*
X0383861Y0513501D02*
X0383945Y0513452D01*
X0384026Y0513400D01*
X0384105Y0513345D01*
X0384182Y0513286D01*
X0384256Y0513225D01*
X0384328Y0513160D01*
X0384397Y0513092D01*
X0384463Y0513022D01*
X0384526Y0512949D01*
X0384586Y0512873D01*
X0384642Y0512795D01*
X0384696Y0512715D01*
X0384746Y0512633D01*
X0384793Y0512548D01*
X0384836Y0512462D01*
X0384876Y0512374D01*
X0384912Y0512284D01*
X0384944Y0512193D01*
X0384972Y0512101D01*
X0384997Y0512008D01*
X0385018Y0511914D01*
X0385034Y0511818D01*
X0385047Y0511723D01*
X0385056Y0511627D01*
X0385061Y0511530D01*
X0385062Y0511434D01*
X0385059Y0511337D01*
X0385052Y0511241D01*
X0385041Y0511145D01*
X0385026Y0511050D01*
X0385007Y0510955D01*
X0384984Y0510861D01*
X0384957Y0510769D01*
X0384927Y0510677D01*
X0384893Y0510587D01*
X0384855Y0510498D01*
X0384813Y0510411D01*
X0384768Y0510326D01*
X0384719Y0510242D01*
X0384667Y0510161D01*
X0384612Y0510082D01*
X0384553Y0510005D01*
X0384492Y0509931D01*
X0384427Y0509859D01*
X0384027Y0513359D02*
X0383842Y0513503D01*
X0383654Y0513643D01*
X0383462Y0513778D01*
X0383267Y0513908D01*
X0383069Y0514034D01*
X0382868Y0514155D01*
X0382664Y0514270D01*
X0382458Y0514381D01*
X0382248Y0514487D01*
X0382037Y0514587D01*
X0381822Y0514682D01*
X0381606Y0514772D01*
X0381387Y0514857D01*
X0381167Y0514936D01*
X0380944Y0515010D01*
X0380720Y0515079D01*
X0380494Y0515142D01*
X0380267Y0515199D01*
X0380038Y0515251D01*
X0379808Y0515297D01*
X0379577Y0515338D01*
X0379345Y0515373D01*
X0379113Y0515402D01*
X0378879Y0515426D01*
X0378646Y0515444D01*
X0378411Y0515456D01*
X0378177Y0515463D01*
X0377943Y0515464D01*
X0377708Y0515459D01*
X0377474Y0515448D01*
X0377240Y0515432D01*
X0377007Y0515410D01*
X0376774Y0515382D01*
X0376542Y0515348D01*
X0376311Y0515309D01*
X0376080Y0515265D01*
X0375851Y0515214D01*
X0375624Y0515158D01*
X0375397Y0515097D01*
X0375173Y0515030D01*
X0374950Y0514958D01*
X0374728Y0514880D01*
X0374509Y0514797D01*
X0374292Y0514708D01*
X0374077Y0514614D01*
X0373865Y0514515D01*
X0373655Y0514411D01*
X0373447Y0514302D01*
X0373243Y0514188D01*
X0373041Y0514068D01*
X0372842Y0513944D01*
X0372646Y0513815D01*
X0372453Y0513681D01*
X0372264Y0513543D01*
X0372447Y0513677D02*
X0372372Y0513608D01*
X0372300Y0513537D01*
X0372231Y0513463D01*
X0372165Y0513387D01*
X0372101Y0513308D01*
X0372041Y0513227D01*
X0371983Y0513144D01*
X0371929Y0513058D01*
X0371878Y0512971D01*
X0371830Y0512882D01*
X0371786Y0512790D01*
X0371745Y0512698D01*
X0371708Y0512604D01*
X0371674Y0512508D01*
X0371644Y0512412D01*
X0371618Y0512314D01*
X0371595Y0512215D01*
X0371576Y0512116D01*
X0371561Y0512016D01*
X0371549Y0511915D01*
X0371541Y0511814D01*
X0371538Y0511713D01*
X0371537Y0511612D01*
X0371541Y0511511D01*
X0371549Y0511410D01*
X0371560Y0511309D01*
X0371575Y0511209D01*
X0371594Y0511110D01*
X0371616Y0511011D01*
X0371643Y0510913D01*
X0371673Y0510816D01*
X0371706Y0510721D01*
X0371743Y0510627D01*
X0371784Y0510534D01*
X0371828Y0510443D01*
X0371876Y0510354D01*
X0371926Y0510266D01*
X0371980Y0510180D01*
X0372038Y0510097D01*
X0372098Y0510016D01*
X0372161Y0509937D01*
X0372228Y0509860D01*
X0368027Y0505259D02*
X0368027Y0517259D01*
X0372209Y0509843D02*
X0372339Y0509697D01*
X0372473Y0509553D01*
X0372611Y0509413D01*
X0372752Y0509276D01*
X0372896Y0509142D01*
X0373044Y0509013D01*
X0373194Y0508886D01*
X0373348Y0508764D01*
X0373504Y0508645D01*
X0373664Y0508530D01*
X0373826Y0508419D01*
X0373991Y0508312D01*
X0374158Y0508208D01*
X0374328Y0508109D01*
X0374500Y0508015D01*
X0374674Y0507924D01*
X0374851Y0507837D01*
X0375029Y0507755D01*
X0375210Y0507678D01*
X0375392Y0507604D01*
X0375576Y0507535D01*
X0375761Y0507471D01*
X0375949Y0507411D01*
X0376137Y0507355D01*
X0376327Y0507305D01*
X0376518Y0507258D01*
X0376710Y0507217D01*
X0376903Y0507180D01*
X0377097Y0507148D01*
X0377292Y0507120D01*
X0377487Y0507098D01*
X0377682Y0507080D01*
X0377878Y0507066D01*
X0378075Y0507058D01*
X0378271Y0507054D01*
X0378468Y0507055D01*
X0378664Y0507061D01*
X0378860Y0507072D01*
X0379056Y0507087D01*
X0379252Y0507107D01*
X0379447Y0507132D01*
X0379641Y0507161D01*
X0379835Y0507195D01*
X0380027Y0507234D01*
X0380219Y0507278D01*
X0380409Y0507326D01*
X0380599Y0507379D01*
X0380787Y0507436D01*
X0380973Y0507498D01*
X0381158Y0507565D01*
X0381341Y0507635D01*
X0381523Y0507711D01*
X0381702Y0507790D01*
X0381880Y0507874D01*
X0382056Y0507963D01*
X0382229Y0508055D01*
X0382400Y0508152D01*
X0382569Y0508253D01*
X0382735Y0508358D01*
X0382899Y0508466D01*
X0383060Y0508579D01*
X0383218Y0508696D01*
X0383373Y0508816D01*
X0383525Y0508941D01*
X0383674Y0509068D01*
X0383821Y0509200D01*
X0383963Y0509335D01*
X0384103Y0509473D01*
X0384239Y0509615D01*
X0384372Y0509760D01*
X0384501Y0509908D01*
X0384626Y0510059D01*
X0391908Y0509842D02*
X0392039Y0509696D01*
X0392173Y0509552D01*
X0392311Y0509412D01*
X0392452Y0509275D01*
X0392596Y0509141D01*
X0392744Y0509011D01*
X0392894Y0508885D01*
X0393048Y0508763D01*
X0393204Y0508644D01*
X0393364Y0508529D01*
X0393526Y0508418D01*
X0393691Y0508310D01*
X0393858Y0508207D01*
X0394028Y0508108D01*
X0394200Y0508013D01*
X0394374Y0507923D01*
X0394551Y0507836D01*
X0394729Y0507754D01*
X0394910Y0507676D01*
X0395092Y0507603D01*
X0395276Y0507534D01*
X0395462Y0507470D01*
X0395649Y0507410D01*
X0395837Y0507354D01*
X0396027Y0507304D01*
X0396218Y0507257D01*
X0396410Y0507216D01*
X0396603Y0507179D01*
X0396797Y0507147D01*
X0396992Y0507119D01*
X0397187Y0507097D01*
X0397383Y0507079D01*
X0397579Y0507065D01*
X0397775Y0507057D01*
X0397972Y0507053D01*
X0398168Y0507054D01*
X0398365Y0507060D01*
X0398561Y0507071D01*
X0398757Y0507086D01*
X0398952Y0507106D01*
X0399147Y0507131D01*
X0399342Y0507160D01*
X0399535Y0507195D01*
X0399728Y0507233D01*
X0399920Y0507277D01*
X0400110Y0507325D01*
X0400299Y0507378D01*
X0400487Y0507435D01*
X0400674Y0507497D01*
X0400859Y0507564D01*
X0401042Y0507635D01*
X0401224Y0507710D01*
X0401403Y0507790D01*
X0401581Y0507874D01*
X0401757Y0507962D01*
X0401930Y0508054D01*
X0402101Y0508151D01*
X0402270Y0508252D01*
X0402436Y0508357D01*
X0402600Y0508466D01*
X0402761Y0508579D01*
X0402919Y0508695D01*
X0403074Y0508816D01*
X0403226Y0508940D01*
X0403375Y0509068D01*
X0403522Y0509199D01*
X0403664Y0509334D01*
X0403804Y0509473D01*
X0403940Y0509614D01*
X0404073Y0509759D01*
X0404202Y0509908D01*
X0404327Y0510059D01*
X0408027Y0517259D02*
X0408027Y0527259D01*
X0404427Y0527259D01*
X0404427Y0528759D02*
X0405927Y0528759D01*
X0405927Y0546759D01*
X0405927Y0554259D01*
X0389927Y0554259D01*
X0386227Y0554259D01*
X0370227Y0554259D01*
X0368027Y0550259D02*
X0366027Y0551259D01*
X0366027Y0544759D01*
X0368027Y0545759D01*
X0370227Y0546759D02*
X0386227Y0546759D01*
X0386227Y0528759D01*
X0384727Y0528759D01*
X0384727Y0527259D02*
X0391427Y0527259D01*
X0391427Y0528759D02*
X0389927Y0528759D01*
X0389927Y0546759D01*
X0405927Y0546759D01*
X0404427Y0544259D02*
X0404427Y0531759D01*
X0408027Y0527259D02*
X0408027Y0554259D01*
X0405927Y0554259D01*
X0404427Y0544259D02*
X0391427Y0544259D01*
X0391427Y0531759D01*
X0384727Y0531759D02*
X0384727Y0544259D01*
X0371727Y0544259D01*
X0371727Y0531759D01*
X0386227Y0546759D02*
X0386227Y0554259D01*
X0389927Y0554259D02*
X0389927Y0546759D01*
X0345940Y0509700D02*
X0345940Y0494700D01*
X0343440Y0492200D01*
X0338440Y0492200D01*
X0335940Y0494700D01*
X0335940Y0509700D01*
X0333440Y0512200D01*
X0328440Y0512200D01*
X0325940Y0509700D01*
X0323440Y0512200D01*
X0318440Y0512200D01*
X0315940Y0509700D01*
X0315940Y0494700D01*
X0318440Y0492200D01*
X0323440Y0492200D01*
X0325940Y0494700D01*
X0325940Y0509700D01*
X0335940Y0509700D02*
X0338440Y0512200D01*
X0343440Y0512200D01*
X0345940Y0509700D01*
X0335940Y0494700D02*
X0333440Y0492200D01*
X0328440Y0492200D01*
X0325940Y0494700D01*
X0323440Y0487515D02*
X0318440Y0487515D01*
X0315940Y0485015D01*
X0315940Y0480015D01*
X0318440Y0477515D01*
X0323440Y0477515D01*
X0325940Y0480015D01*
X0325940Y0485015D01*
X0323440Y0487515D01*
X0325940Y0485015D02*
X0328440Y0487515D01*
X0333440Y0487515D01*
X0335940Y0485015D01*
X0338440Y0487515D01*
X0343440Y0487515D01*
X0345940Y0485015D01*
X0345940Y0480015D01*
X0343440Y0477515D01*
X0338440Y0477515D01*
X0335940Y0480015D01*
X0333440Y0477515D01*
X0328440Y0477515D01*
X0325940Y0480015D01*
X0323440Y0472830D02*
X0318440Y0472830D01*
X0315940Y0470330D01*
X0315940Y0455330D01*
X0318440Y0452830D01*
X0323440Y0452830D01*
X0325940Y0455330D01*
X0325940Y0470330D01*
X0323440Y0472830D01*
X0325940Y0470330D02*
X0328440Y0472830D01*
X0333440Y0472830D01*
X0335940Y0470330D01*
X0335940Y0455330D01*
X0333440Y0452830D01*
X0328440Y0452830D01*
X0325940Y0455330D01*
X0323440Y0448145D02*
X0318440Y0448145D01*
X0315940Y0445645D01*
X0315940Y0440645D01*
X0318440Y0438145D01*
X0323440Y0438145D01*
X0325940Y0440645D01*
X0325940Y0445645D01*
X0323440Y0448145D01*
X0325940Y0445645D02*
X0328440Y0448145D01*
X0333440Y0448145D01*
X0335940Y0445645D01*
X0338440Y0448145D01*
X0343440Y0448145D01*
X0345940Y0445645D01*
X0345940Y0440645D01*
X0343440Y0438145D01*
X0338440Y0438145D01*
X0335940Y0440645D01*
X0333440Y0438145D01*
X0328440Y0438145D01*
X0325940Y0440645D01*
X0323440Y0433460D02*
X0318440Y0433460D01*
X0315940Y0430960D01*
X0315940Y0415960D01*
X0318440Y0413460D01*
X0323440Y0413460D01*
X0325940Y0415960D01*
X0325940Y0430960D01*
X0323440Y0433460D01*
X0325940Y0430960D02*
X0328440Y0433460D01*
X0333440Y0433460D01*
X0335940Y0430960D01*
X0335940Y0415960D01*
X0333440Y0413460D01*
X0328440Y0413460D01*
X0325940Y0415960D01*
X0323440Y0408775D02*
X0318440Y0408775D01*
X0315940Y0406275D01*
X0315940Y0401275D01*
X0318440Y0398775D01*
X0323440Y0398775D01*
X0325940Y0401275D01*
X0325940Y0406275D01*
X0323440Y0408775D01*
X0325940Y0406275D02*
X0328440Y0408775D01*
X0333440Y0408775D01*
X0335940Y0406275D01*
X0338440Y0408775D01*
X0343440Y0408775D01*
X0345940Y0406275D01*
X0345940Y0401275D01*
X0343440Y0398775D01*
X0338440Y0398775D01*
X0335940Y0401275D01*
X0333440Y0398775D01*
X0328440Y0398775D01*
X0325940Y0401275D01*
X0335940Y0401275D02*
X0335940Y0406275D01*
X0338440Y0413460D02*
X0335940Y0415960D01*
X0338440Y0413460D02*
X0343440Y0413460D01*
X0345940Y0415960D01*
X0345940Y0430960D01*
X0343440Y0433460D01*
X0338440Y0433460D01*
X0335940Y0430960D01*
X0335940Y0440645D02*
X0335940Y0445645D01*
X0338440Y0452830D02*
X0335940Y0455330D01*
X0338440Y0452830D02*
X0343440Y0452830D01*
X0345940Y0455330D01*
X0345940Y0470330D01*
X0343440Y0472830D01*
X0338440Y0472830D01*
X0335940Y0470330D01*
X0335940Y0480015D02*
X0335940Y0485015D01*
X0276102Y0541570D02*
X0276106Y0541901D01*
X0276118Y0542232D01*
X0276139Y0542563D01*
X0276167Y0542893D01*
X0276204Y0543223D01*
X0276248Y0543551D01*
X0276301Y0543878D01*
X0276361Y0544204D01*
X0276430Y0544528D01*
X0276507Y0544850D01*
X0276591Y0545171D01*
X0276683Y0545489D01*
X0276783Y0545805D01*
X0276891Y0546118D01*
X0277007Y0546429D01*
X0277130Y0546736D01*
X0277260Y0547041D01*
X0277398Y0547342D01*
X0277543Y0547640D01*
X0277696Y0547934D01*
X0277856Y0548224D01*
X0278023Y0548510D01*
X0278196Y0548792D01*
X0278377Y0549070D01*
X0278565Y0549343D01*
X0278759Y0549612D01*
X0278959Y0549876D01*
X0279166Y0550134D01*
X0279380Y0550388D01*
X0279599Y0550636D01*
X0279825Y0550879D01*
X0280056Y0551116D01*
X0280293Y0551347D01*
X0280536Y0551573D01*
X0280784Y0551792D01*
X0281038Y0552006D01*
X0281296Y0552213D01*
X0281560Y0552413D01*
X0281829Y0552607D01*
X0282102Y0552795D01*
X0282380Y0552976D01*
X0282662Y0553149D01*
X0282948Y0553316D01*
X0283238Y0553476D01*
X0283532Y0553629D01*
X0283830Y0553774D01*
X0284131Y0553912D01*
X0284436Y0554042D01*
X0284743Y0554165D01*
X0285054Y0554281D01*
X0285367Y0554389D01*
X0285683Y0554489D01*
X0286001Y0554581D01*
X0286322Y0554665D01*
X0286644Y0554742D01*
X0286968Y0554811D01*
X0287294Y0554871D01*
X0287621Y0554924D01*
X0287949Y0554968D01*
X0288279Y0555005D01*
X0288609Y0555033D01*
X0288940Y0555054D01*
X0289271Y0555066D01*
X0289602Y0555070D01*
X0289933Y0555066D01*
X0290264Y0555054D01*
X0290595Y0555033D01*
X0290925Y0555005D01*
X0291255Y0554968D01*
X0291583Y0554924D01*
X0291910Y0554871D01*
X0292236Y0554811D01*
X0292560Y0554742D01*
X0292882Y0554665D01*
X0293203Y0554581D01*
X0293521Y0554489D01*
X0293837Y0554389D01*
X0294150Y0554281D01*
X0294461Y0554165D01*
X0294768Y0554042D01*
X0295073Y0553912D01*
X0295374Y0553774D01*
X0295672Y0553629D01*
X0295966Y0553476D01*
X0296256Y0553316D01*
X0296542Y0553149D01*
X0296824Y0552976D01*
X0297102Y0552795D01*
X0297375Y0552607D01*
X0297644Y0552413D01*
X0297908Y0552213D01*
X0298166Y0552006D01*
X0298420Y0551792D01*
X0298668Y0551573D01*
X0298911Y0551347D01*
X0299148Y0551116D01*
X0299379Y0550879D01*
X0299605Y0550636D01*
X0299824Y0550388D01*
X0300038Y0550134D01*
X0300245Y0549876D01*
X0300445Y0549612D01*
X0300639Y0549343D01*
X0300827Y0549070D01*
X0301008Y0548792D01*
X0301181Y0548510D01*
X0301348Y0548224D01*
X0301508Y0547934D01*
X0301661Y0547640D01*
X0301806Y0547342D01*
X0301944Y0547041D01*
X0302074Y0546736D01*
X0302197Y0546429D01*
X0302313Y0546118D01*
X0302421Y0545805D01*
X0302521Y0545489D01*
X0302613Y0545171D01*
X0302697Y0544850D01*
X0302774Y0544528D01*
X0302843Y0544204D01*
X0302903Y0543878D01*
X0302956Y0543551D01*
X0303000Y0543223D01*
X0303037Y0542893D01*
X0303065Y0542563D01*
X0303086Y0542232D01*
X0303098Y0541901D01*
X0303102Y0541570D01*
X0303098Y0541239D01*
X0303086Y0540908D01*
X0303065Y0540577D01*
X0303037Y0540247D01*
X0303000Y0539917D01*
X0302956Y0539589D01*
X0302903Y0539262D01*
X0302843Y0538936D01*
X0302774Y0538612D01*
X0302697Y0538290D01*
X0302613Y0537969D01*
X0302521Y0537651D01*
X0302421Y0537335D01*
X0302313Y0537022D01*
X0302197Y0536711D01*
X0302074Y0536404D01*
X0301944Y0536099D01*
X0301806Y0535798D01*
X0301661Y0535500D01*
X0301508Y0535206D01*
X0301348Y0534916D01*
X0301181Y0534630D01*
X0301008Y0534348D01*
X0300827Y0534070D01*
X0300639Y0533797D01*
X0300445Y0533528D01*
X0300245Y0533264D01*
X0300038Y0533006D01*
X0299824Y0532752D01*
X0299605Y0532504D01*
X0299379Y0532261D01*
X0299148Y0532024D01*
X0298911Y0531793D01*
X0298668Y0531567D01*
X0298420Y0531348D01*
X0298166Y0531134D01*
X0297908Y0530927D01*
X0297644Y0530727D01*
X0297375Y0530533D01*
X0297102Y0530345D01*
X0296824Y0530164D01*
X0296542Y0529991D01*
X0296256Y0529824D01*
X0295966Y0529664D01*
X0295672Y0529511D01*
X0295374Y0529366D01*
X0295073Y0529228D01*
X0294768Y0529098D01*
X0294461Y0528975D01*
X0294150Y0528859D01*
X0293837Y0528751D01*
X0293521Y0528651D01*
X0293203Y0528559D01*
X0292882Y0528475D01*
X0292560Y0528398D01*
X0292236Y0528329D01*
X0291910Y0528269D01*
X0291583Y0528216D01*
X0291255Y0528172D01*
X0290925Y0528135D01*
X0290595Y0528107D01*
X0290264Y0528086D01*
X0289933Y0528074D01*
X0289602Y0528070D01*
X0289271Y0528074D01*
X0288940Y0528086D01*
X0288609Y0528107D01*
X0288279Y0528135D01*
X0287949Y0528172D01*
X0287621Y0528216D01*
X0287294Y0528269D01*
X0286968Y0528329D01*
X0286644Y0528398D01*
X0286322Y0528475D01*
X0286001Y0528559D01*
X0285683Y0528651D01*
X0285367Y0528751D01*
X0285054Y0528859D01*
X0284743Y0528975D01*
X0284436Y0529098D01*
X0284131Y0529228D01*
X0283830Y0529366D01*
X0283532Y0529511D01*
X0283238Y0529664D01*
X0282948Y0529824D01*
X0282662Y0529991D01*
X0282380Y0530164D01*
X0282102Y0530345D01*
X0281829Y0530533D01*
X0281560Y0530727D01*
X0281296Y0530927D01*
X0281038Y0531134D01*
X0280784Y0531348D01*
X0280536Y0531567D01*
X0280293Y0531793D01*
X0280056Y0532024D01*
X0279825Y0532261D01*
X0279599Y0532504D01*
X0279380Y0532752D01*
X0279166Y0533006D01*
X0278959Y0533264D01*
X0278759Y0533528D01*
X0278565Y0533797D01*
X0278377Y0534070D01*
X0278196Y0534348D01*
X0278023Y0534630D01*
X0277856Y0534916D01*
X0277696Y0535206D01*
X0277543Y0535500D01*
X0277398Y0535798D01*
X0277260Y0536099D01*
X0277130Y0536404D01*
X0277007Y0536711D01*
X0276891Y0537022D01*
X0276783Y0537335D01*
X0276683Y0537651D01*
X0276591Y0537969D01*
X0276507Y0538290D01*
X0276430Y0538612D01*
X0276361Y0538936D01*
X0276301Y0539262D01*
X0276248Y0539589D01*
X0276204Y0539917D01*
X0276167Y0540247D01*
X0276139Y0540577D01*
X0276118Y0540908D01*
X0276106Y0541239D01*
X0276102Y0541570D01*
X0297869Y0386609D02*
X0297869Y0326452D01*
X0324641Y0326452D02*
X0324641Y0386609D01*
X0429739Y0303224D02*
X0432239Y0305724D01*
X0358420Y0244417D02*
X0358420Y0217417D01*
X0354820Y0217417D01*
X0354820Y0218917D02*
X0356320Y0218917D01*
X0356320Y0236917D01*
X0356320Y0244417D01*
X0340320Y0244417D01*
X0336620Y0244417D01*
X0320620Y0244417D01*
X0320620Y0236917D01*
X0336620Y0236917D01*
X0336620Y0218917D01*
X0335120Y0218917D01*
X0335120Y0217417D02*
X0341820Y0217417D01*
X0341820Y0218917D02*
X0340320Y0218917D01*
X0340320Y0236917D01*
X0356320Y0236917D01*
X0354820Y0234417D02*
X0354820Y0221917D01*
X0358420Y0217417D02*
X0358420Y0207417D01*
X0358420Y0195417D01*
X0318420Y0195417D01*
X0316420Y0195417D01*
X0316420Y0214417D01*
X0318420Y0213417D01*
X0318420Y0207417D01*
X0358420Y0207417D01*
X0356320Y0206417D02*
X0356320Y0196417D01*
X0340320Y0196417D01*
X0340320Y0206417D01*
X0356320Y0206417D01*
X0354220Y0202917D02*
X0342220Y0200417D01*
X0342720Y0199917D02*
X0354720Y0202417D01*
X0353954Y0203658D02*
X0354038Y0203609D01*
X0354119Y0203557D01*
X0354198Y0203502D01*
X0354275Y0203443D01*
X0354349Y0203382D01*
X0354421Y0203317D01*
X0354490Y0203249D01*
X0354556Y0203179D01*
X0354619Y0203106D01*
X0354679Y0203030D01*
X0354735Y0202952D01*
X0354789Y0202872D01*
X0354839Y0202790D01*
X0354886Y0202705D01*
X0354929Y0202619D01*
X0354969Y0202531D01*
X0355005Y0202441D01*
X0355037Y0202350D01*
X0355065Y0202258D01*
X0355090Y0202165D01*
X0355111Y0202071D01*
X0355127Y0201975D01*
X0355140Y0201880D01*
X0355149Y0201784D01*
X0355154Y0201687D01*
X0355155Y0201591D01*
X0355152Y0201494D01*
X0355145Y0201398D01*
X0355134Y0201302D01*
X0355119Y0201207D01*
X0355100Y0201112D01*
X0355077Y0201018D01*
X0355050Y0200926D01*
X0355020Y0200834D01*
X0354986Y0200744D01*
X0354948Y0200655D01*
X0354906Y0200568D01*
X0354861Y0200483D01*
X0354812Y0200399D01*
X0354760Y0200318D01*
X0354705Y0200239D01*
X0354646Y0200162D01*
X0354585Y0200088D01*
X0354520Y0200016D01*
X0354120Y0203517D02*
X0353936Y0203661D01*
X0353747Y0203801D01*
X0353556Y0203936D01*
X0353361Y0204066D01*
X0353163Y0204192D01*
X0352962Y0204312D01*
X0352758Y0204428D01*
X0352551Y0204539D01*
X0352342Y0204644D01*
X0352130Y0204745D01*
X0351916Y0204840D01*
X0351699Y0204930D01*
X0351480Y0205015D01*
X0351260Y0205094D01*
X0351037Y0205168D01*
X0350813Y0205237D01*
X0350587Y0205300D01*
X0350360Y0205357D01*
X0350131Y0205409D01*
X0349901Y0205455D01*
X0349670Y0205496D01*
X0349439Y0205531D01*
X0349206Y0205560D01*
X0348973Y0205584D01*
X0348739Y0205602D01*
X0348505Y0205614D01*
X0348270Y0205621D01*
X0348036Y0205622D01*
X0347802Y0205617D01*
X0347567Y0205606D01*
X0347333Y0205590D01*
X0347100Y0205568D01*
X0346867Y0205540D01*
X0346635Y0205507D01*
X0346404Y0205467D01*
X0346174Y0205423D01*
X0345945Y0205372D01*
X0345717Y0205317D01*
X0345491Y0205255D01*
X0345266Y0205188D01*
X0345043Y0205116D01*
X0344822Y0205038D01*
X0344603Y0204955D01*
X0344386Y0204866D01*
X0344171Y0204772D01*
X0343958Y0204673D01*
X0343748Y0204569D01*
X0343541Y0204460D01*
X0343336Y0204346D01*
X0343134Y0204226D01*
X0342935Y0204102D01*
X0342739Y0203973D01*
X0342547Y0203840D01*
X0342357Y0203701D01*
X0342540Y0203834D02*
X0342465Y0203765D01*
X0342393Y0203694D01*
X0342324Y0203620D01*
X0342258Y0203544D01*
X0342194Y0203465D01*
X0342134Y0203384D01*
X0342076Y0203301D01*
X0342022Y0203215D01*
X0341971Y0203128D01*
X0341923Y0203039D01*
X0341879Y0202947D01*
X0341838Y0202855D01*
X0341801Y0202761D01*
X0341767Y0202665D01*
X0341737Y0202569D01*
X0341711Y0202471D01*
X0341688Y0202372D01*
X0341669Y0202273D01*
X0341654Y0202173D01*
X0341642Y0202072D01*
X0341634Y0201971D01*
X0341631Y0201870D01*
X0341630Y0201769D01*
X0341634Y0201668D01*
X0341642Y0201567D01*
X0341653Y0201466D01*
X0341668Y0201366D01*
X0341687Y0201267D01*
X0341709Y0201168D01*
X0341736Y0201070D01*
X0341766Y0200973D01*
X0341799Y0200878D01*
X0341836Y0200784D01*
X0341877Y0200691D01*
X0341921Y0200600D01*
X0341969Y0200511D01*
X0342019Y0200423D01*
X0342073Y0200337D01*
X0342131Y0200254D01*
X0342191Y0200173D01*
X0342254Y0200094D01*
X0342321Y0200017D01*
X0336620Y0196417D02*
X0320620Y0196417D01*
X0320620Y0206417D01*
X0336620Y0206417D01*
X0336620Y0196417D01*
X0335020Y0202417D02*
X0323020Y0199917D01*
X0322520Y0200417D02*
X0334520Y0202917D01*
X0334254Y0203658D02*
X0334338Y0203609D01*
X0334419Y0203557D01*
X0334498Y0203502D01*
X0334575Y0203443D01*
X0334649Y0203382D01*
X0334721Y0203317D01*
X0334790Y0203249D01*
X0334856Y0203179D01*
X0334919Y0203106D01*
X0334979Y0203030D01*
X0335035Y0202952D01*
X0335089Y0202872D01*
X0335139Y0202790D01*
X0335186Y0202705D01*
X0335229Y0202619D01*
X0335269Y0202531D01*
X0335305Y0202441D01*
X0335337Y0202350D01*
X0335365Y0202258D01*
X0335390Y0202165D01*
X0335411Y0202071D01*
X0335427Y0201975D01*
X0335440Y0201880D01*
X0335449Y0201784D01*
X0335454Y0201687D01*
X0335455Y0201591D01*
X0335452Y0201494D01*
X0335445Y0201398D01*
X0335434Y0201302D01*
X0335419Y0201207D01*
X0335400Y0201112D01*
X0335377Y0201018D01*
X0335350Y0200926D01*
X0335320Y0200834D01*
X0335286Y0200744D01*
X0335248Y0200655D01*
X0335206Y0200568D01*
X0335161Y0200483D01*
X0335112Y0200399D01*
X0335060Y0200318D01*
X0335005Y0200239D01*
X0334946Y0200162D01*
X0334885Y0200088D01*
X0334820Y0200016D01*
X0334420Y0203517D02*
X0334235Y0203661D01*
X0334047Y0203801D01*
X0333855Y0203936D01*
X0333660Y0204066D01*
X0333462Y0204192D01*
X0333261Y0204313D01*
X0333057Y0204428D01*
X0332851Y0204539D01*
X0332641Y0204645D01*
X0332430Y0204745D01*
X0332215Y0204840D01*
X0331999Y0204930D01*
X0331780Y0205015D01*
X0331560Y0205094D01*
X0331337Y0205168D01*
X0331113Y0205237D01*
X0330887Y0205300D01*
X0330660Y0205357D01*
X0330431Y0205409D01*
X0330201Y0205455D01*
X0329970Y0205496D01*
X0329738Y0205531D01*
X0329506Y0205560D01*
X0329272Y0205584D01*
X0329039Y0205602D01*
X0328804Y0205614D01*
X0328570Y0205621D01*
X0328336Y0205622D01*
X0328101Y0205617D01*
X0327867Y0205606D01*
X0327633Y0205590D01*
X0327400Y0205568D01*
X0327167Y0205540D01*
X0326935Y0205506D01*
X0326704Y0205467D01*
X0326473Y0205423D01*
X0326244Y0205372D01*
X0326017Y0205316D01*
X0325790Y0205255D01*
X0325566Y0205188D01*
X0325343Y0205116D01*
X0325121Y0205038D01*
X0324902Y0204955D01*
X0324685Y0204866D01*
X0324470Y0204772D01*
X0324258Y0204673D01*
X0324048Y0204569D01*
X0323840Y0204460D01*
X0323636Y0204346D01*
X0323434Y0204226D01*
X0323235Y0204102D01*
X0323039Y0203973D01*
X0322846Y0203839D01*
X0322657Y0203701D01*
X0322840Y0203834D02*
X0322765Y0203765D01*
X0322693Y0203694D01*
X0322624Y0203620D01*
X0322558Y0203544D01*
X0322494Y0203465D01*
X0322434Y0203384D01*
X0322376Y0203301D01*
X0322322Y0203215D01*
X0322271Y0203128D01*
X0322223Y0203039D01*
X0322179Y0202947D01*
X0322138Y0202855D01*
X0322101Y0202761D01*
X0322067Y0202665D01*
X0322037Y0202569D01*
X0322011Y0202471D01*
X0321988Y0202372D01*
X0321969Y0202273D01*
X0321954Y0202173D01*
X0321942Y0202072D01*
X0321934Y0201971D01*
X0321931Y0201870D01*
X0321930Y0201769D01*
X0321934Y0201668D01*
X0321942Y0201567D01*
X0321953Y0201466D01*
X0321968Y0201366D01*
X0321987Y0201267D01*
X0322009Y0201168D01*
X0322036Y0201070D01*
X0322066Y0200973D01*
X0322099Y0200878D01*
X0322136Y0200784D01*
X0322177Y0200691D01*
X0322221Y0200600D01*
X0322269Y0200511D01*
X0322319Y0200423D01*
X0322373Y0200337D01*
X0322431Y0200254D01*
X0322491Y0200173D01*
X0322554Y0200094D01*
X0322621Y0200017D01*
X0318420Y0195417D02*
X0318420Y0207417D01*
X0318420Y0213417D02*
X0318420Y0217417D01*
X0322120Y0217417D01*
X0322120Y0218917D02*
X0320620Y0218917D01*
X0320620Y0236917D01*
X0318420Y0235917D02*
X0318420Y0217417D01*
X0322120Y0221917D02*
X0322120Y0234417D01*
X0335120Y0234417D01*
X0335120Y0221917D01*
X0341820Y0221917D02*
X0341820Y0234417D01*
X0354820Y0234417D01*
X0356320Y0244417D02*
X0358420Y0244417D01*
X0366027Y0231917D02*
X0366027Y0207917D01*
X0410027Y0207917D01*
X0410027Y0231917D01*
X0366027Y0231917D01*
X0373027Y0225917D02*
X0373027Y0225417D01*
X0373027Y0225917D02*
X0375027Y0225917D01*
X0377027Y0225917D01*
X0379027Y0225917D01*
X0381027Y0225917D01*
X0383027Y0225917D01*
X0385027Y0225917D01*
X0403027Y0225917D01*
X0403027Y0225417D01*
X0403027Y0214417D02*
X0403027Y0213917D01*
X0385027Y0213917D01*
X0383027Y0213917D01*
X0381027Y0213917D01*
X0379027Y0213917D01*
X0377027Y0213917D01*
X0375027Y0213917D01*
X0373027Y0213917D01*
X0373027Y0214417D01*
X0375027Y0214417D02*
X0375027Y0213917D01*
X0377027Y0213917D02*
X0377027Y0215917D01*
X0379027Y0213917D02*
X0379027Y0225917D01*
X0381027Y0225917D02*
X0381027Y0213917D01*
X0383027Y0213917D02*
X0383027Y0216917D01*
X0385027Y0214917D02*
X0385027Y0213917D01*
X0383027Y0222917D02*
X0383027Y0225917D01*
X0385027Y0225917D02*
X0385027Y0224917D01*
X0377027Y0225917D02*
X0377027Y0223917D01*
X0375027Y0225417D02*
X0375027Y0225917D01*
X0354720Y0200217D02*
X0354595Y0200066D01*
X0354466Y0199917D01*
X0354333Y0199772D01*
X0354197Y0199631D01*
X0354057Y0199492D01*
X0353915Y0199357D01*
X0353768Y0199226D01*
X0353619Y0199098D01*
X0353467Y0198974D01*
X0353312Y0198853D01*
X0353154Y0198737D01*
X0352993Y0198624D01*
X0352829Y0198515D01*
X0352663Y0198410D01*
X0352494Y0198309D01*
X0352323Y0198212D01*
X0352150Y0198120D01*
X0351974Y0198032D01*
X0351796Y0197948D01*
X0351617Y0197868D01*
X0351435Y0197793D01*
X0351252Y0197722D01*
X0351067Y0197655D01*
X0350880Y0197593D01*
X0350692Y0197536D01*
X0350503Y0197483D01*
X0350313Y0197435D01*
X0350121Y0197391D01*
X0349928Y0197353D01*
X0349735Y0197318D01*
X0349540Y0197289D01*
X0349345Y0197264D01*
X0349150Y0197244D01*
X0348954Y0197229D01*
X0348758Y0197218D01*
X0348561Y0197212D01*
X0348365Y0197211D01*
X0348168Y0197215D01*
X0347972Y0197223D01*
X0347776Y0197237D01*
X0347580Y0197255D01*
X0347385Y0197277D01*
X0347190Y0197305D01*
X0346996Y0197337D01*
X0346803Y0197374D01*
X0346611Y0197415D01*
X0346420Y0197462D01*
X0346230Y0197512D01*
X0346042Y0197568D01*
X0345855Y0197628D01*
X0345669Y0197692D01*
X0345485Y0197761D01*
X0345303Y0197834D01*
X0345122Y0197912D01*
X0344944Y0197994D01*
X0344767Y0198081D01*
X0344593Y0198171D01*
X0344421Y0198266D01*
X0344251Y0198365D01*
X0344084Y0198468D01*
X0343919Y0198576D01*
X0343757Y0198687D01*
X0343597Y0198802D01*
X0343441Y0198921D01*
X0343287Y0199043D01*
X0343137Y0199169D01*
X0342989Y0199299D01*
X0342845Y0199433D01*
X0342704Y0199570D01*
X0342566Y0199710D01*
X0342432Y0199854D01*
X0342301Y0200000D01*
X0335020Y0200217D02*
X0334895Y0200066D01*
X0334766Y0199918D01*
X0334633Y0199773D01*
X0334497Y0199631D01*
X0334357Y0199493D01*
X0334215Y0199358D01*
X0334068Y0199226D01*
X0333919Y0199099D01*
X0333767Y0198974D01*
X0333612Y0198854D01*
X0333454Y0198737D01*
X0333293Y0198624D01*
X0333129Y0198516D01*
X0332963Y0198411D01*
X0332794Y0198310D01*
X0332623Y0198213D01*
X0332450Y0198121D01*
X0332274Y0198032D01*
X0332096Y0197948D01*
X0331917Y0197869D01*
X0331735Y0197793D01*
X0331552Y0197723D01*
X0331367Y0197656D01*
X0331181Y0197594D01*
X0330993Y0197537D01*
X0330803Y0197484D01*
X0330613Y0197436D01*
X0330421Y0197392D01*
X0330229Y0197353D01*
X0330035Y0197319D01*
X0329841Y0197290D01*
X0329646Y0197265D01*
X0329450Y0197245D01*
X0329254Y0197230D01*
X0329058Y0197219D01*
X0328862Y0197213D01*
X0328665Y0197212D01*
X0328469Y0197216D01*
X0328272Y0197224D01*
X0328076Y0197238D01*
X0327881Y0197256D01*
X0327686Y0197278D01*
X0327491Y0197306D01*
X0327297Y0197338D01*
X0327104Y0197375D01*
X0326912Y0197416D01*
X0326721Y0197463D01*
X0326531Y0197513D01*
X0326343Y0197569D01*
X0326155Y0197629D01*
X0325970Y0197693D01*
X0325786Y0197762D01*
X0325604Y0197836D01*
X0325423Y0197913D01*
X0325245Y0197995D01*
X0325068Y0198082D01*
X0324894Y0198173D01*
X0324722Y0198267D01*
X0324552Y0198366D01*
X0324385Y0198470D01*
X0324220Y0198577D01*
X0324058Y0198688D01*
X0323898Y0198803D01*
X0323742Y0198922D01*
X0323588Y0199044D01*
X0323438Y0199171D01*
X0323290Y0199300D01*
X0323146Y0199434D01*
X0323005Y0199571D01*
X0322867Y0199711D01*
X0322733Y0199855D01*
X0322603Y0200001D01*
X0276102Y0226609D02*
X0276106Y0226940D01*
X0276118Y0227271D01*
X0276139Y0227602D01*
X0276167Y0227932D01*
X0276204Y0228262D01*
X0276248Y0228590D01*
X0276301Y0228917D01*
X0276361Y0229243D01*
X0276430Y0229567D01*
X0276507Y0229889D01*
X0276591Y0230210D01*
X0276683Y0230528D01*
X0276783Y0230844D01*
X0276891Y0231157D01*
X0277007Y0231468D01*
X0277130Y0231775D01*
X0277260Y0232080D01*
X0277398Y0232381D01*
X0277543Y0232679D01*
X0277696Y0232973D01*
X0277856Y0233263D01*
X0278023Y0233549D01*
X0278196Y0233831D01*
X0278377Y0234109D01*
X0278565Y0234382D01*
X0278759Y0234651D01*
X0278959Y0234915D01*
X0279166Y0235173D01*
X0279380Y0235427D01*
X0279599Y0235675D01*
X0279825Y0235918D01*
X0280056Y0236155D01*
X0280293Y0236386D01*
X0280536Y0236612D01*
X0280784Y0236831D01*
X0281038Y0237045D01*
X0281296Y0237252D01*
X0281560Y0237452D01*
X0281829Y0237646D01*
X0282102Y0237834D01*
X0282380Y0238015D01*
X0282662Y0238188D01*
X0282948Y0238355D01*
X0283238Y0238515D01*
X0283532Y0238668D01*
X0283830Y0238813D01*
X0284131Y0238951D01*
X0284436Y0239081D01*
X0284743Y0239204D01*
X0285054Y0239320D01*
X0285367Y0239428D01*
X0285683Y0239528D01*
X0286001Y0239620D01*
X0286322Y0239704D01*
X0286644Y0239781D01*
X0286968Y0239850D01*
X0287294Y0239910D01*
X0287621Y0239963D01*
X0287949Y0240007D01*
X0288279Y0240044D01*
X0288609Y0240072D01*
X0288940Y0240093D01*
X0289271Y0240105D01*
X0289602Y0240109D01*
X0289933Y0240105D01*
X0290264Y0240093D01*
X0290595Y0240072D01*
X0290925Y0240044D01*
X0291255Y0240007D01*
X0291583Y0239963D01*
X0291910Y0239910D01*
X0292236Y0239850D01*
X0292560Y0239781D01*
X0292882Y0239704D01*
X0293203Y0239620D01*
X0293521Y0239528D01*
X0293837Y0239428D01*
X0294150Y0239320D01*
X0294461Y0239204D01*
X0294768Y0239081D01*
X0295073Y0238951D01*
X0295374Y0238813D01*
X0295672Y0238668D01*
X0295966Y0238515D01*
X0296256Y0238355D01*
X0296542Y0238188D01*
X0296824Y0238015D01*
X0297102Y0237834D01*
X0297375Y0237646D01*
X0297644Y0237452D01*
X0297908Y0237252D01*
X0298166Y0237045D01*
X0298420Y0236831D01*
X0298668Y0236612D01*
X0298911Y0236386D01*
X0299148Y0236155D01*
X0299379Y0235918D01*
X0299605Y0235675D01*
X0299824Y0235427D01*
X0300038Y0235173D01*
X0300245Y0234915D01*
X0300445Y0234651D01*
X0300639Y0234382D01*
X0300827Y0234109D01*
X0301008Y0233831D01*
X0301181Y0233549D01*
X0301348Y0233263D01*
X0301508Y0232973D01*
X0301661Y0232679D01*
X0301806Y0232381D01*
X0301944Y0232080D01*
X0302074Y0231775D01*
X0302197Y0231468D01*
X0302313Y0231157D01*
X0302421Y0230844D01*
X0302521Y0230528D01*
X0302613Y0230210D01*
X0302697Y0229889D01*
X0302774Y0229567D01*
X0302843Y0229243D01*
X0302903Y0228917D01*
X0302956Y0228590D01*
X0303000Y0228262D01*
X0303037Y0227932D01*
X0303065Y0227602D01*
X0303086Y0227271D01*
X0303098Y0226940D01*
X0303102Y0226609D01*
X0303098Y0226278D01*
X0303086Y0225947D01*
X0303065Y0225616D01*
X0303037Y0225286D01*
X0303000Y0224956D01*
X0302956Y0224628D01*
X0302903Y0224301D01*
X0302843Y0223975D01*
X0302774Y0223651D01*
X0302697Y0223329D01*
X0302613Y0223008D01*
X0302521Y0222690D01*
X0302421Y0222374D01*
X0302313Y0222061D01*
X0302197Y0221750D01*
X0302074Y0221443D01*
X0301944Y0221138D01*
X0301806Y0220837D01*
X0301661Y0220539D01*
X0301508Y0220245D01*
X0301348Y0219955D01*
X0301181Y0219669D01*
X0301008Y0219387D01*
X0300827Y0219109D01*
X0300639Y0218836D01*
X0300445Y0218567D01*
X0300245Y0218303D01*
X0300038Y0218045D01*
X0299824Y0217791D01*
X0299605Y0217543D01*
X0299379Y0217300D01*
X0299148Y0217063D01*
X0298911Y0216832D01*
X0298668Y0216606D01*
X0298420Y0216387D01*
X0298166Y0216173D01*
X0297908Y0215966D01*
X0297644Y0215766D01*
X0297375Y0215572D01*
X0297102Y0215384D01*
X0296824Y0215203D01*
X0296542Y0215030D01*
X0296256Y0214863D01*
X0295966Y0214703D01*
X0295672Y0214550D01*
X0295374Y0214405D01*
X0295073Y0214267D01*
X0294768Y0214137D01*
X0294461Y0214014D01*
X0294150Y0213898D01*
X0293837Y0213790D01*
X0293521Y0213690D01*
X0293203Y0213598D01*
X0292882Y0213514D01*
X0292560Y0213437D01*
X0292236Y0213368D01*
X0291910Y0213308D01*
X0291583Y0213255D01*
X0291255Y0213211D01*
X0290925Y0213174D01*
X0290595Y0213146D01*
X0290264Y0213125D01*
X0289933Y0213113D01*
X0289602Y0213109D01*
X0289271Y0213113D01*
X0288940Y0213125D01*
X0288609Y0213146D01*
X0288279Y0213174D01*
X0287949Y0213211D01*
X0287621Y0213255D01*
X0287294Y0213308D01*
X0286968Y0213368D01*
X0286644Y0213437D01*
X0286322Y0213514D01*
X0286001Y0213598D01*
X0285683Y0213690D01*
X0285367Y0213790D01*
X0285054Y0213898D01*
X0284743Y0214014D01*
X0284436Y0214137D01*
X0284131Y0214267D01*
X0283830Y0214405D01*
X0283532Y0214550D01*
X0283238Y0214703D01*
X0282948Y0214863D01*
X0282662Y0215030D01*
X0282380Y0215203D01*
X0282102Y0215384D01*
X0281829Y0215572D01*
X0281560Y0215766D01*
X0281296Y0215966D01*
X0281038Y0216173D01*
X0280784Y0216387D01*
X0280536Y0216606D01*
X0280293Y0216832D01*
X0280056Y0217063D01*
X0279825Y0217300D01*
X0279599Y0217543D01*
X0279380Y0217791D01*
X0279166Y0218045D01*
X0278959Y0218303D01*
X0278759Y0218567D01*
X0278565Y0218836D01*
X0278377Y0219109D01*
X0278196Y0219387D01*
X0278023Y0219669D01*
X0277856Y0219955D01*
X0277696Y0220245D01*
X0277543Y0220539D01*
X0277398Y0220837D01*
X0277260Y0221138D01*
X0277130Y0221443D01*
X0277007Y0221750D01*
X0276891Y0222061D01*
X0276783Y0222374D01*
X0276683Y0222690D01*
X0276591Y0223008D01*
X0276507Y0223329D01*
X0276430Y0223651D01*
X0276361Y0223975D01*
X0276301Y0224301D01*
X0276248Y0224628D01*
X0276204Y0224956D01*
X0276167Y0225286D01*
X0276139Y0225616D01*
X0276118Y0225947D01*
X0276106Y0226278D01*
X0276102Y0226609D01*
X0316420Y0234917D02*
X0316420Y0241417D01*
X0318420Y0240417D01*
X0318420Y0235917D01*
X0316420Y0234917D01*
X0318420Y0240417D02*
X0318420Y0244417D01*
X0320620Y0244417D01*
X0336620Y0244417D02*
X0336620Y0236917D01*
X0340320Y0236917D02*
X0340320Y0244417D01*
X0417208Y0231917D02*
X0417208Y0207917D01*
X0461208Y0207917D01*
X0461208Y0231917D01*
X0417208Y0231917D01*
X0424208Y0225917D02*
X0424208Y0225417D01*
X0424208Y0225917D02*
X0426208Y0225917D01*
X0428208Y0225917D01*
X0430208Y0225917D01*
X0432208Y0225917D01*
X0434208Y0225917D01*
X0436208Y0225917D01*
X0454208Y0225917D01*
X0454208Y0225417D01*
X0454208Y0214417D02*
X0454208Y0213917D01*
X0436208Y0213917D01*
X0434208Y0213917D01*
X0432208Y0213917D01*
X0430208Y0213917D01*
X0428208Y0213917D01*
X0426208Y0213917D01*
X0424208Y0213917D01*
X0424208Y0214417D01*
X0426208Y0214417D02*
X0426208Y0213917D01*
X0428208Y0213917D02*
X0428208Y0215917D01*
X0430208Y0213917D02*
X0430208Y0225917D01*
X0432208Y0225917D02*
X0432208Y0213917D01*
X0434208Y0213917D02*
X0434208Y0216917D01*
X0436208Y0214917D02*
X0436208Y0213917D01*
X0434208Y0222917D02*
X0434208Y0225917D01*
X0436208Y0225917D02*
X0436208Y0224917D01*
X0428208Y0225917D02*
X0428208Y0223917D01*
X0426208Y0225417D02*
X0426208Y0225917D01*
X0465078Y0226609D02*
X0465082Y0226940D01*
X0465094Y0227271D01*
X0465115Y0227602D01*
X0465143Y0227932D01*
X0465180Y0228262D01*
X0465224Y0228590D01*
X0465277Y0228917D01*
X0465337Y0229243D01*
X0465406Y0229567D01*
X0465483Y0229889D01*
X0465567Y0230210D01*
X0465659Y0230528D01*
X0465759Y0230844D01*
X0465867Y0231157D01*
X0465983Y0231468D01*
X0466106Y0231775D01*
X0466236Y0232080D01*
X0466374Y0232381D01*
X0466519Y0232679D01*
X0466672Y0232973D01*
X0466832Y0233263D01*
X0466999Y0233549D01*
X0467172Y0233831D01*
X0467353Y0234109D01*
X0467541Y0234382D01*
X0467735Y0234651D01*
X0467935Y0234915D01*
X0468142Y0235173D01*
X0468356Y0235427D01*
X0468575Y0235675D01*
X0468801Y0235918D01*
X0469032Y0236155D01*
X0469269Y0236386D01*
X0469512Y0236612D01*
X0469760Y0236831D01*
X0470014Y0237045D01*
X0470272Y0237252D01*
X0470536Y0237452D01*
X0470805Y0237646D01*
X0471078Y0237834D01*
X0471356Y0238015D01*
X0471638Y0238188D01*
X0471924Y0238355D01*
X0472214Y0238515D01*
X0472508Y0238668D01*
X0472806Y0238813D01*
X0473107Y0238951D01*
X0473412Y0239081D01*
X0473719Y0239204D01*
X0474030Y0239320D01*
X0474343Y0239428D01*
X0474659Y0239528D01*
X0474977Y0239620D01*
X0475298Y0239704D01*
X0475620Y0239781D01*
X0475944Y0239850D01*
X0476270Y0239910D01*
X0476597Y0239963D01*
X0476925Y0240007D01*
X0477255Y0240044D01*
X0477585Y0240072D01*
X0477916Y0240093D01*
X0478247Y0240105D01*
X0478578Y0240109D01*
X0478909Y0240105D01*
X0479240Y0240093D01*
X0479571Y0240072D01*
X0479901Y0240044D01*
X0480231Y0240007D01*
X0480559Y0239963D01*
X0480886Y0239910D01*
X0481212Y0239850D01*
X0481536Y0239781D01*
X0481858Y0239704D01*
X0482179Y0239620D01*
X0482497Y0239528D01*
X0482813Y0239428D01*
X0483126Y0239320D01*
X0483437Y0239204D01*
X0483744Y0239081D01*
X0484049Y0238951D01*
X0484350Y0238813D01*
X0484648Y0238668D01*
X0484942Y0238515D01*
X0485232Y0238355D01*
X0485518Y0238188D01*
X0485800Y0238015D01*
X0486078Y0237834D01*
X0486351Y0237646D01*
X0486620Y0237452D01*
X0486884Y0237252D01*
X0487142Y0237045D01*
X0487396Y0236831D01*
X0487644Y0236612D01*
X0487887Y0236386D01*
X0488124Y0236155D01*
X0488355Y0235918D01*
X0488581Y0235675D01*
X0488800Y0235427D01*
X0489014Y0235173D01*
X0489221Y0234915D01*
X0489421Y0234651D01*
X0489615Y0234382D01*
X0489803Y0234109D01*
X0489984Y0233831D01*
X0490157Y0233549D01*
X0490324Y0233263D01*
X0490484Y0232973D01*
X0490637Y0232679D01*
X0490782Y0232381D01*
X0490920Y0232080D01*
X0491050Y0231775D01*
X0491173Y0231468D01*
X0491289Y0231157D01*
X0491397Y0230844D01*
X0491497Y0230528D01*
X0491589Y0230210D01*
X0491673Y0229889D01*
X0491750Y0229567D01*
X0491819Y0229243D01*
X0491879Y0228917D01*
X0491932Y0228590D01*
X0491976Y0228262D01*
X0492013Y0227932D01*
X0492041Y0227602D01*
X0492062Y0227271D01*
X0492074Y0226940D01*
X0492078Y0226609D01*
X0492074Y0226278D01*
X0492062Y0225947D01*
X0492041Y0225616D01*
X0492013Y0225286D01*
X0491976Y0224956D01*
X0491932Y0224628D01*
X0491879Y0224301D01*
X0491819Y0223975D01*
X0491750Y0223651D01*
X0491673Y0223329D01*
X0491589Y0223008D01*
X0491497Y0222690D01*
X0491397Y0222374D01*
X0491289Y0222061D01*
X0491173Y0221750D01*
X0491050Y0221443D01*
X0490920Y0221138D01*
X0490782Y0220837D01*
X0490637Y0220539D01*
X0490484Y0220245D01*
X0490324Y0219955D01*
X0490157Y0219669D01*
X0489984Y0219387D01*
X0489803Y0219109D01*
X0489615Y0218836D01*
X0489421Y0218567D01*
X0489221Y0218303D01*
X0489014Y0218045D01*
X0488800Y0217791D01*
X0488581Y0217543D01*
X0488355Y0217300D01*
X0488124Y0217063D01*
X0487887Y0216832D01*
X0487644Y0216606D01*
X0487396Y0216387D01*
X0487142Y0216173D01*
X0486884Y0215966D01*
X0486620Y0215766D01*
X0486351Y0215572D01*
X0486078Y0215384D01*
X0485800Y0215203D01*
X0485518Y0215030D01*
X0485232Y0214863D01*
X0484942Y0214703D01*
X0484648Y0214550D01*
X0484350Y0214405D01*
X0484049Y0214267D01*
X0483744Y0214137D01*
X0483437Y0214014D01*
X0483126Y0213898D01*
X0482813Y0213790D01*
X0482497Y0213690D01*
X0482179Y0213598D01*
X0481858Y0213514D01*
X0481536Y0213437D01*
X0481212Y0213368D01*
X0480886Y0213308D01*
X0480559Y0213255D01*
X0480231Y0213211D01*
X0479901Y0213174D01*
X0479571Y0213146D01*
X0479240Y0213125D01*
X0478909Y0213113D01*
X0478578Y0213109D01*
X0478247Y0213113D01*
X0477916Y0213125D01*
X0477585Y0213146D01*
X0477255Y0213174D01*
X0476925Y0213211D01*
X0476597Y0213255D01*
X0476270Y0213308D01*
X0475944Y0213368D01*
X0475620Y0213437D01*
X0475298Y0213514D01*
X0474977Y0213598D01*
X0474659Y0213690D01*
X0474343Y0213790D01*
X0474030Y0213898D01*
X0473719Y0214014D01*
X0473412Y0214137D01*
X0473107Y0214267D01*
X0472806Y0214405D01*
X0472508Y0214550D01*
X0472214Y0214703D01*
X0471924Y0214863D01*
X0471638Y0215030D01*
X0471356Y0215203D01*
X0471078Y0215384D01*
X0470805Y0215572D01*
X0470536Y0215766D01*
X0470272Y0215966D01*
X0470014Y0216173D01*
X0469760Y0216387D01*
X0469512Y0216606D01*
X0469269Y0216832D01*
X0469032Y0217063D01*
X0468801Y0217300D01*
X0468575Y0217543D01*
X0468356Y0217791D01*
X0468142Y0218045D01*
X0467935Y0218303D01*
X0467735Y0218567D01*
X0467541Y0218836D01*
X0467353Y0219109D01*
X0467172Y0219387D01*
X0466999Y0219669D01*
X0466832Y0219955D01*
X0466672Y0220245D01*
X0466519Y0220539D01*
X0466374Y0220837D01*
X0466236Y0221138D01*
X0466106Y0221443D01*
X0465983Y0221750D01*
X0465867Y0222061D01*
X0465759Y0222374D01*
X0465659Y0222690D01*
X0465567Y0223008D01*
X0465483Y0223329D01*
X0465406Y0223651D01*
X0465337Y0223975D01*
X0465277Y0224301D01*
X0465224Y0224628D01*
X0465180Y0224956D01*
X0465143Y0225286D01*
X0465115Y0225616D01*
X0465094Y0225947D01*
X0465082Y0226278D01*
X0465078Y0226609D01*
X0465078Y0541570D02*
X0465082Y0541901D01*
X0465094Y0542232D01*
X0465115Y0542563D01*
X0465143Y0542893D01*
X0465180Y0543223D01*
X0465224Y0543551D01*
X0465277Y0543878D01*
X0465337Y0544204D01*
X0465406Y0544528D01*
X0465483Y0544850D01*
X0465567Y0545171D01*
X0465659Y0545489D01*
X0465759Y0545805D01*
X0465867Y0546118D01*
X0465983Y0546429D01*
X0466106Y0546736D01*
X0466236Y0547041D01*
X0466374Y0547342D01*
X0466519Y0547640D01*
X0466672Y0547934D01*
X0466832Y0548224D01*
X0466999Y0548510D01*
X0467172Y0548792D01*
X0467353Y0549070D01*
X0467541Y0549343D01*
X0467735Y0549612D01*
X0467935Y0549876D01*
X0468142Y0550134D01*
X0468356Y0550388D01*
X0468575Y0550636D01*
X0468801Y0550879D01*
X0469032Y0551116D01*
X0469269Y0551347D01*
X0469512Y0551573D01*
X0469760Y0551792D01*
X0470014Y0552006D01*
X0470272Y0552213D01*
X0470536Y0552413D01*
X0470805Y0552607D01*
X0471078Y0552795D01*
X0471356Y0552976D01*
X0471638Y0553149D01*
X0471924Y0553316D01*
X0472214Y0553476D01*
X0472508Y0553629D01*
X0472806Y0553774D01*
X0473107Y0553912D01*
X0473412Y0554042D01*
X0473719Y0554165D01*
X0474030Y0554281D01*
X0474343Y0554389D01*
X0474659Y0554489D01*
X0474977Y0554581D01*
X0475298Y0554665D01*
X0475620Y0554742D01*
X0475944Y0554811D01*
X0476270Y0554871D01*
X0476597Y0554924D01*
X0476925Y0554968D01*
X0477255Y0555005D01*
X0477585Y0555033D01*
X0477916Y0555054D01*
X0478247Y0555066D01*
X0478578Y0555070D01*
X0478909Y0555066D01*
X0479240Y0555054D01*
X0479571Y0555033D01*
X0479901Y0555005D01*
X0480231Y0554968D01*
X0480559Y0554924D01*
X0480886Y0554871D01*
X0481212Y0554811D01*
X0481536Y0554742D01*
X0481858Y0554665D01*
X0482179Y0554581D01*
X0482497Y0554489D01*
X0482813Y0554389D01*
X0483126Y0554281D01*
X0483437Y0554165D01*
X0483744Y0554042D01*
X0484049Y0553912D01*
X0484350Y0553774D01*
X0484648Y0553629D01*
X0484942Y0553476D01*
X0485232Y0553316D01*
X0485518Y0553149D01*
X0485800Y0552976D01*
X0486078Y0552795D01*
X0486351Y0552607D01*
X0486620Y0552413D01*
X0486884Y0552213D01*
X0487142Y0552006D01*
X0487396Y0551792D01*
X0487644Y0551573D01*
X0487887Y0551347D01*
X0488124Y0551116D01*
X0488355Y0550879D01*
X0488581Y0550636D01*
X0488800Y0550388D01*
X0489014Y0550134D01*
X0489221Y0549876D01*
X0489421Y0549612D01*
X0489615Y0549343D01*
X0489803Y0549070D01*
X0489984Y0548792D01*
X0490157Y0548510D01*
X0490324Y0548224D01*
X0490484Y0547934D01*
X0490637Y0547640D01*
X0490782Y0547342D01*
X0490920Y0547041D01*
X0491050Y0546736D01*
X0491173Y0546429D01*
X0491289Y0546118D01*
X0491397Y0545805D01*
X0491497Y0545489D01*
X0491589Y0545171D01*
X0491673Y0544850D01*
X0491750Y0544528D01*
X0491819Y0544204D01*
X0491879Y0543878D01*
X0491932Y0543551D01*
X0491976Y0543223D01*
X0492013Y0542893D01*
X0492041Y0542563D01*
X0492062Y0542232D01*
X0492074Y0541901D01*
X0492078Y0541570D01*
X0492074Y0541239D01*
X0492062Y0540908D01*
X0492041Y0540577D01*
X0492013Y0540247D01*
X0491976Y0539917D01*
X0491932Y0539589D01*
X0491879Y0539262D01*
X0491819Y0538936D01*
X0491750Y0538612D01*
X0491673Y0538290D01*
X0491589Y0537969D01*
X0491497Y0537651D01*
X0491397Y0537335D01*
X0491289Y0537022D01*
X0491173Y0536711D01*
X0491050Y0536404D01*
X0490920Y0536099D01*
X0490782Y0535798D01*
X0490637Y0535500D01*
X0490484Y0535206D01*
X0490324Y0534916D01*
X0490157Y0534630D01*
X0489984Y0534348D01*
X0489803Y0534070D01*
X0489615Y0533797D01*
X0489421Y0533528D01*
X0489221Y0533264D01*
X0489014Y0533006D01*
X0488800Y0532752D01*
X0488581Y0532504D01*
X0488355Y0532261D01*
X0488124Y0532024D01*
X0487887Y0531793D01*
X0487644Y0531567D01*
X0487396Y0531348D01*
X0487142Y0531134D01*
X0486884Y0530927D01*
X0486620Y0530727D01*
X0486351Y0530533D01*
X0486078Y0530345D01*
X0485800Y0530164D01*
X0485518Y0529991D01*
X0485232Y0529824D01*
X0484942Y0529664D01*
X0484648Y0529511D01*
X0484350Y0529366D01*
X0484049Y0529228D01*
X0483744Y0529098D01*
X0483437Y0528975D01*
X0483126Y0528859D01*
X0482813Y0528751D01*
X0482497Y0528651D01*
X0482179Y0528559D01*
X0481858Y0528475D01*
X0481536Y0528398D01*
X0481212Y0528329D01*
X0480886Y0528269D01*
X0480559Y0528216D01*
X0480231Y0528172D01*
X0479901Y0528135D01*
X0479571Y0528107D01*
X0479240Y0528086D01*
X0478909Y0528074D01*
X0478578Y0528070D01*
X0478247Y0528074D01*
X0477916Y0528086D01*
X0477585Y0528107D01*
X0477255Y0528135D01*
X0476925Y0528172D01*
X0476597Y0528216D01*
X0476270Y0528269D01*
X0475944Y0528329D01*
X0475620Y0528398D01*
X0475298Y0528475D01*
X0474977Y0528559D01*
X0474659Y0528651D01*
X0474343Y0528751D01*
X0474030Y0528859D01*
X0473719Y0528975D01*
X0473412Y0529098D01*
X0473107Y0529228D01*
X0472806Y0529366D01*
X0472508Y0529511D01*
X0472214Y0529664D01*
X0471924Y0529824D01*
X0471638Y0529991D01*
X0471356Y0530164D01*
X0471078Y0530345D01*
X0470805Y0530533D01*
X0470536Y0530727D01*
X0470272Y0530927D01*
X0470014Y0531134D01*
X0469760Y0531348D01*
X0469512Y0531567D01*
X0469269Y0531793D01*
X0469032Y0532024D01*
X0468801Y0532261D01*
X0468575Y0532504D01*
X0468356Y0532752D01*
X0468142Y0533006D01*
X0467935Y0533264D01*
X0467735Y0533528D01*
X0467541Y0533797D01*
X0467353Y0534070D01*
X0467172Y0534348D01*
X0466999Y0534630D01*
X0466832Y0534916D01*
X0466672Y0535206D01*
X0466519Y0535500D01*
X0466374Y0535798D01*
X0466236Y0536099D01*
X0466106Y0536404D01*
X0465983Y0536711D01*
X0465867Y0537022D01*
X0465759Y0537335D01*
X0465659Y0537651D01*
X0465567Y0537969D01*
X0465483Y0538290D01*
X0465406Y0538612D01*
X0465337Y0538936D01*
X0465277Y0539262D01*
X0465224Y0539589D01*
X0465180Y0539917D01*
X0465143Y0540247D01*
X0465115Y0540577D01*
X0465094Y0540908D01*
X0465082Y0541239D01*
X0465078Y0541570D01*
D14*
X0404375Y0520009D02*
X0401373Y0520009D01*
X0402874Y0520009D02*
X0402874Y0524513D01*
X0401373Y0523012D01*
X0402590Y0506590D02*
X0403090Y0506590D01*
X0403150Y0506588D01*
X0403211Y0506583D01*
X0403270Y0506574D01*
X0403329Y0506561D01*
X0403388Y0506545D01*
X0403445Y0506525D01*
X0403500Y0506502D01*
X0403555Y0506475D01*
X0403607Y0506446D01*
X0403658Y0506413D01*
X0403707Y0506377D01*
X0403753Y0506339D01*
X0403797Y0506297D01*
X0403839Y0506253D01*
X0403877Y0506207D01*
X0403913Y0506158D01*
X0403946Y0506107D01*
X0403975Y0506055D01*
X0404002Y0506000D01*
X0404025Y0505945D01*
X0404045Y0505888D01*
X0404061Y0505829D01*
X0404074Y0505770D01*
X0404083Y0505711D01*
X0404088Y0505650D01*
X0404090Y0505590D01*
X0404090Y0499090D01*
X0401590Y0499090D02*
X0401590Y0505590D01*
X0401592Y0505650D01*
X0401597Y0505711D01*
X0401606Y0505770D01*
X0401619Y0505829D01*
X0401635Y0505888D01*
X0401655Y0505945D01*
X0401678Y0506000D01*
X0401705Y0506055D01*
X0401734Y0506107D01*
X0401767Y0506158D01*
X0401803Y0506207D01*
X0401841Y0506253D01*
X0401883Y0506297D01*
X0401927Y0506339D01*
X0401973Y0506377D01*
X0402022Y0506413D01*
X0402073Y0506446D01*
X0402125Y0506475D01*
X0402180Y0506502D01*
X0402235Y0506525D01*
X0402292Y0506545D01*
X0402351Y0506561D01*
X0402410Y0506574D01*
X0402469Y0506583D01*
X0402530Y0506588D01*
X0402590Y0506590D01*
X0399090Y0505590D02*
X0399090Y0499090D01*
X0396590Y0499090D02*
X0396590Y0505590D01*
X0396592Y0505650D01*
X0396597Y0505711D01*
X0396606Y0505770D01*
X0396619Y0505829D01*
X0396635Y0505888D01*
X0396655Y0505945D01*
X0396678Y0506000D01*
X0396705Y0506055D01*
X0396734Y0506107D01*
X0396767Y0506158D01*
X0396803Y0506207D01*
X0396841Y0506253D01*
X0396883Y0506297D01*
X0396927Y0506339D01*
X0396973Y0506377D01*
X0397022Y0506413D01*
X0397073Y0506446D01*
X0397125Y0506475D01*
X0397180Y0506502D01*
X0397235Y0506525D01*
X0397292Y0506545D01*
X0397351Y0506561D01*
X0397410Y0506574D01*
X0397469Y0506583D01*
X0397530Y0506588D01*
X0397590Y0506590D01*
X0398090Y0506590D01*
X0398150Y0506588D01*
X0398211Y0506583D01*
X0398270Y0506574D01*
X0398329Y0506561D01*
X0398388Y0506545D01*
X0398445Y0506525D01*
X0398500Y0506502D01*
X0398555Y0506475D01*
X0398607Y0506446D01*
X0398658Y0506413D01*
X0398707Y0506377D01*
X0398753Y0506339D01*
X0398797Y0506297D01*
X0398839Y0506253D01*
X0398877Y0506207D01*
X0398913Y0506158D01*
X0398946Y0506107D01*
X0398975Y0506055D01*
X0399002Y0506000D01*
X0399025Y0505945D01*
X0399045Y0505888D01*
X0399061Y0505829D01*
X0399074Y0505770D01*
X0399083Y0505711D01*
X0399088Y0505650D01*
X0399090Y0505590D01*
X0394090Y0505590D02*
X0394090Y0499090D01*
X0391590Y0499090D02*
X0391590Y0505590D01*
X0391592Y0505650D01*
X0391597Y0505711D01*
X0391606Y0505770D01*
X0391619Y0505829D01*
X0391635Y0505888D01*
X0391655Y0505945D01*
X0391678Y0506000D01*
X0391705Y0506055D01*
X0391734Y0506107D01*
X0391767Y0506158D01*
X0391803Y0506207D01*
X0391841Y0506253D01*
X0391883Y0506297D01*
X0391927Y0506339D01*
X0391973Y0506377D01*
X0392022Y0506413D01*
X0392073Y0506446D01*
X0392125Y0506475D01*
X0392180Y0506502D01*
X0392235Y0506525D01*
X0392292Y0506545D01*
X0392351Y0506561D01*
X0392410Y0506574D01*
X0392469Y0506583D01*
X0392530Y0506588D01*
X0392590Y0506590D01*
X0393090Y0506590D01*
X0393150Y0506588D01*
X0393211Y0506583D01*
X0393270Y0506574D01*
X0393329Y0506561D01*
X0393388Y0506545D01*
X0393445Y0506525D01*
X0393500Y0506502D01*
X0393555Y0506475D01*
X0393607Y0506446D01*
X0393658Y0506413D01*
X0393707Y0506377D01*
X0393753Y0506339D01*
X0393797Y0506297D01*
X0393839Y0506253D01*
X0393877Y0506207D01*
X0393913Y0506158D01*
X0393946Y0506107D01*
X0393975Y0506055D01*
X0394002Y0506000D01*
X0394025Y0505945D01*
X0394045Y0505888D01*
X0394061Y0505829D01*
X0394074Y0505770D01*
X0394083Y0505711D01*
X0394088Y0505650D01*
X0394090Y0505590D01*
X0389090Y0505590D02*
X0389090Y0499090D01*
X0386590Y0499090D02*
X0386590Y0505590D01*
X0386592Y0505650D01*
X0386597Y0505711D01*
X0386606Y0505770D01*
X0386619Y0505829D01*
X0386635Y0505888D01*
X0386655Y0505945D01*
X0386678Y0506000D01*
X0386705Y0506055D01*
X0386734Y0506107D01*
X0386767Y0506158D01*
X0386803Y0506207D01*
X0386841Y0506253D01*
X0386883Y0506297D01*
X0386927Y0506339D01*
X0386973Y0506377D01*
X0387022Y0506413D01*
X0387073Y0506446D01*
X0387125Y0506475D01*
X0387180Y0506502D01*
X0387235Y0506525D01*
X0387292Y0506545D01*
X0387351Y0506561D01*
X0387410Y0506574D01*
X0387469Y0506583D01*
X0387530Y0506588D01*
X0387590Y0506590D01*
X0388090Y0506590D01*
X0388150Y0506588D01*
X0388211Y0506583D01*
X0388270Y0506574D01*
X0388329Y0506561D01*
X0388388Y0506545D01*
X0388445Y0506525D01*
X0388500Y0506502D01*
X0388555Y0506475D01*
X0388607Y0506446D01*
X0388658Y0506413D01*
X0388707Y0506377D01*
X0388753Y0506339D01*
X0388797Y0506297D01*
X0388839Y0506253D01*
X0388877Y0506207D01*
X0388913Y0506158D01*
X0388946Y0506107D01*
X0388975Y0506055D01*
X0389002Y0506000D01*
X0389025Y0505945D01*
X0389045Y0505888D01*
X0389061Y0505829D01*
X0389074Y0505770D01*
X0389083Y0505711D01*
X0389088Y0505650D01*
X0389090Y0505590D01*
X0384090Y0505590D02*
X0384090Y0499090D01*
X0381590Y0499090D02*
X0381590Y0505590D01*
X0381592Y0505650D01*
X0381597Y0505711D01*
X0381606Y0505770D01*
X0381619Y0505829D01*
X0381635Y0505888D01*
X0381655Y0505945D01*
X0381678Y0506000D01*
X0381705Y0506055D01*
X0381734Y0506107D01*
X0381767Y0506158D01*
X0381803Y0506207D01*
X0381841Y0506253D01*
X0381883Y0506297D01*
X0381927Y0506339D01*
X0381973Y0506377D01*
X0382022Y0506413D01*
X0382073Y0506446D01*
X0382125Y0506475D01*
X0382180Y0506502D01*
X0382235Y0506525D01*
X0382292Y0506545D01*
X0382351Y0506561D01*
X0382410Y0506574D01*
X0382469Y0506583D01*
X0382530Y0506588D01*
X0382590Y0506590D01*
X0383090Y0506590D01*
X0383150Y0506588D01*
X0383211Y0506583D01*
X0383270Y0506574D01*
X0383329Y0506561D01*
X0383388Y0506545D01*
X0383445Y0506525D01*
X0383500Y0506502D01*
X0383555Y0506475D01*
X0383607Y0506446D01*
X0383658Y0506413D01*
X0383707Y0506377D01*
X0383753Y0506339D01*
X0383797Y0506297D01*
X0383839Y0506253D01*
X0383877Y0506207D01*
X0383913Y0506158D01*
X0383946Y0506107D01*
X0383975Y0506055D01*
X0384002Y0506000D01*
X0384025Y0505945D01*
X0384045Y0505888D01*
X0384061Y0505829D01*
X0384074Y0505770D01*
X0384083Y0505711D01*
X0384088Y0505650D01*
X0384090Y0505590D01*
X0379090Y0505590D02*
X0379090Y0499090D01*
X0376590Y0499090D02*
X0376590Y0505590D01*
X0376592Y0505650D01*
X0376597Y0505711D01*
X0376606Y0505770D01*
X0376619Y0505829D01*
X0376635Y0505888D01*
X0376655Y0505945D01*
X0376678Y0506000D01*
X0376705Y0506055D01*
X0376734Y0506107D01*
X0376767Y0506158D01*
X0376803Y0506207D01*
X0376841Y0506253D01*
X0376883Y0506297D01*
X0376927Y0506339D01*
X0376973Y0506377D01*
X0377022Y0506413D01*
X0377073Y0506446D01*
X0377125Y0506475D01*
X0377180Y0506502D01*
X0377235Y0506525D01*
X0377292Y0506545D01*
X0377351Y0506561D01*
X0377410Y0506574D01*
X0377469Y0506583D01*
X0377530Y0506588D01*
X0377590Y0506590D01*
X0378090Y0506590D01*
X0378150Y0506588D01*
X0378211Y0506583D01*
X0378270Y0506574D01*
X0378329Y0506561D01*
X0378388Y0506545D01*
X0378445Y0506525D01*
X0378500Y0506502D01*
X0378555Y0506475D01*
X0378607Y0506446D01*
X0378658Y0506413D01*
X0378707Y0506377D01*
X0378753Y0506339D01*
X0378797Y0506297D01*
X0378839Y0506253D01*
X0378877Y0506207D01*
X0378913Y0506158D01*
X0378946Y0506107D01*
X0378975Y0506055D01*
X0379002Y0506000D01*
X0379025Y0505945D01*
X0379045Y0505888D01*
X0379061Y0505829D01*
X0379074Y0505770D01*
X0379083Y0505711D01*
X0379088Y0505650D01*
X0379090Y0505590D01*
X0374090Y0505590D02*
X0374090Y0499090D01*
X0371590Y0499090D02*
X0371590Y0505590D01*
X0371592Y0505650D01*
X0371597Y0505711D01*
X0371606Y0505770D01*
X0371619Y0505829D01*
X0371635Y0505888D01*
X0371655Y0505945D01*
X0371678Y0506000D01*
X0371705Y0506055D01*
X0371734Y0506107D01*
X0371767Y0506158D01*
X0371803Y0506207D01*
X0371841Y0506253D01*
X0371883Y0506297D01*
X0371927Y0506339D01*
X0371973Y0506377D01*
X0372022Y0506413D01*
X0372073Y0506446D01*
X0372125Y0506475D01*
X0372180Y0506502D01*
X0372235Y0506525D01*
X0372292Y0506545D01*
X0372351Y0506561D01*
X0372410Y0506574D01*
X0372469Y0506583D01*
X0372530Y0506588D01*
X0372590Y0506590D01*
X0373090Y0506590D01*
X0373150Y0506588D01*
X0373211Y0506583D01*
X0373270Y0506574D01*
X0373329Y0506561D01*
X0373388Y0506545D01*
X0373445Y0506525D01*
X0373500Y0506502D01*
X0373555Y0506475D01*
X0373607Y0506446D01*
X0373658Y0506413D01*
X0373707Y0506377D01*
X0373753Y0506339D01*
X0373797Y0506297D01*
X0373839Y0506253D01*
X0373877Y0506207D01*
X0373913Y0506158D01*
X0373946Y0506107D01*
X0373975Y0506055D01*
X0374002Y0506000D01*
X0374025Y0505945D01*
X0374045Y0505888D01*
X0374061Y0505829D01*
X0374074Y0505770D01*
X0374083Y0505711D01*
X0374088Y0505650D01*
X0374090Y0505590D01*
X0364090Y0497840D02*
X0362840Y0497840D01*
X0362772Y0497842D01*
X0362705Y0497847D01*
X0362638Y0497856D01*
X0362571Y0497869D01*
X0362506Y0497886D01*
X0362441Y0497905D01*
X0362377Y0497929D01*
X0362315Y0497956D01*
X0362254Y0497986D01*
X0362196Y0498019D01*
X0362139Y0498055D01*
X0362084Y0498095D01*
X0362031Y0498137D01*
X0361980Y0498183D01*
X0361933Y0498230D01*
X0361887Y0498281D01*
X0361845Y0498334D01*
X0361805Y0498389D01*
X0361769Y0498446D01*
X0361736Y0498504D01*
X0361706Y0498565D01*
X0361679Y0498627D01*
X0361655Y0498691D01*
X0361636Y0498756D01*
X0361619Y0498821D01*
X0361606Y0498888D01*
X0361597Y0498955D01*
X0361592Y0499022D01*
X0361590Y0499090D01*
X0361590Y0500340D01*
X0364090Y0497840D02*
X0364090Y0494090D01*
X0364088Y0494022D01*
X0364083Y0493955D01*
X0364074Y0493888D01*
X0364061Y0493821D01*
X0364044Y0493756D01*
X0364025Y0493691D01*
X0364001Y0493627D01*
X0363974Y0493565D01*
X0363944Y0493504D01*
X0363911Y0493446D01*
X0363875Y0493389D01*
X0363835Y0493334D01*
X0363793Y0493281D01*
X0363747Y0493230D01*
X0363700Y0493183D01*
X0363649Y0493137D01*
X0363596Y0493095D01*
X0363541Y0493055D01*
X0363484Y0493019D01*
X0363426Y0492986D01*
X0363365Y0492956D01*
X0363303Y0492929D01*
X0363239Y0492905D01*
X0363174Y0492886D01*
X0363109Y0492869D01*
X0363042Y0492856D01*
X0362975Y0492847D01*
X0362908Y0492842D01*
X0362840Y0492840D01*
X0359090Y0492840D01*
X0359090Y0484090D02*
X0359090Y0476590D01*
X0359090Y0469090D02*
X0359090Y0460090D01*
X0359092Y0460030D01*
X0359097Y0459969D01*
X0359106Y0459910D01*
X0359119Y0459851D01*
X0359135Y0459792D01*
X0359155Y0459735D01*
X0359178Y0459680D01*
X0359205Y0459625D01*
X0359234Y0459573D01*
X0359267Y0459522D01*
X0359303Y0459473D01*
X0359341Y0459427D01*
X0359383Y0459383D01*
X0359427Y0459341D01*
X0359473Y0459303D01*
X0359522Y0459267D01*
X0359573Y0459234D01*
X0359625Y0459205D01*
X0359680Y0459178D01*
X0359735Y0459155D01*
X0359792Y0459135D01*
X0359851Y0459119D01*
X0359910Y0459106D01*
X0359969Y0459097D01*
X0360030Y0459092D01*
X0360090Y0459090D01*
X0364090Y0459090D01*
X0375090Y0449090D02*
X0393090Y0449090D01*
X0393150Y0449088D01*
X0393211Y0449083D01*
X0393270Y0449074D01*
X0393329Y0449061D01*
X0393388Y0449045D01*
X0393445Y0449025D01*
X0393500Y0449002D01*
X0393555Y0448975D01*
X0393607Y0448946D01*
X0393658Y0448913D01*
X0393707Y0448877D01*
X0393753Y0448839D01*
X0393797Y0448797D01*
X0393839Y0448753D01*
X0393877Y0448707D01*
X0393913Y0448658D01*
X0393946Y0448607D01*
X0393975Y0448555D01*
X0394002Y0448500D01*
X0394025Y0448445D01*
X0394045Y0448388D01*
X0394061Y0448329D01*
X0394074Y0448270D01*
X0394083Y0448211D01*
X0394088Y0448150D01*
X0394090Y0448090D01*
X0394090Y0435090D01*
X0394088Y0435030D01*
X0394083Y0434969D01*
X0394074Y0434910D01*
X0394061Y0434851D01*
X0394045Y0434792D01*
X0394025Y0434735D01*
X0394002Y0434680D01*
X0393975Y0434625D01*
X0393946Y0434573D01*
X0393913Y0434522D01*
X0393877Y0434473D01*
X0393839Y0434427D01*
X0393797Y0434383D01*
X0393753Y0434341D01*
X0393707Y0434303D01*
X0393658Y0434267D01*
X0393607Y0434234D01*
X0393555Y0434205D01*
X0393500Y0434178D01*
X0393445Y0434155D01*
X0393388Y0434135D01*
X0393329Y0434119D01*
X0393270Y0434106D01*
X0393211Y0434097D01*
X0393150Y0434092D01*
X0393090Y0434090D01*
X0375090Y0434090D01*
X0375030Y0434092D01*
X0374969Y0434097D01*
X0374910Y0434106D01*
X0374851Y0434119D01*
X0374792Y0434135D01*
X0374735Y0434155D01*
X0374680Y0434178D01*
X0374625Y0434205D01*
X0374573Y0434234D01*
X0374522Y0434267D01*
X0374473Y0434303D01*
X0374427Y0434341D01*
X0374383Y0434383D01*
X0374341Y0434427D01*
X0374303Y0434473D01*
X0374267Y0434522D01*
X0374234Y0434573D01*
X0374205Y0434625D01*
X0374178Y0434680D01*
X0374155Y0434735D01*
X0374135Y0434792D01*
X0374119Y0434851D01*
X0374106Y0434910D01*
X0374097Y0434969D01*
X0374092Y0435030D01*
X0374090Y0435090D01*
X0374090Y0448090D01*
X0374092Y0448150D01*
X0374097Y0448211D01*
X0374106Y0448270D01*
X0374119Y0448329D01*
X0374135Y0448388D01*
X0374155Y0448445D01*
X0374178Y0448500D01*
X0374205Y0448555D01*
X0374234Y0448607D01*
X0374267Y0448658D01*
X0374303Y0448707D01*
X0374341Y0448753D01*
X0374383Y0448797D01*
X0374427Y0448839D01*
X0374473Y0448877D01*
X0374522Y0448913D01*
X0374573Y0448946D01*
X0374625Y0448975D01*
X0374680Y0449002D01*
X0374735Y0449025D01*
X0374792Y0449045D01*
X0374851Y0449061D01*
X0374910Y0449074D01*
X0374969Y0449083D01*
X0375030Y0449088D01*
X0375090Y0449090D01*
X0391590Y0463840D02*
X0391590Y0468090D01*
X0391592Y0468150D01*
X0391597Y0468211D01*
X0391606Y0468270D01*
X0391619Y0468329D01*
X0391635Y0468388D01*
X0391655Y0468445D01*
X0391678Y0468500D01*
X0391705Y0468555D01*
X0391734Y0468607D01*
X0391767Y0468658D01*
X0391803Y0468707D01*
X0391841Y0468753D01*
X0391883Y0468797D01*
X0391927Y0468839D01*
X0391973Y0468877D01*
X0392022Y0468913D01*
X0392073Y0468946D01*
X0392125Y0468975D01*
X0392180Y0469002D01*
X0392235Y0469025D01*
X0392292Y0469045D01*
X0392351Y0469061D01*
X0392410Y0469074D01*
X0392469Y0469083D01*
X0392530Y0469088D01*
X0392590Y0469090D01*
X0394340Y0469090D01*
X0394400Y0469088D01*
X0394461Y0469083D01*
X0394520Y0469074D01*
X0394579Y0469061D01*
X0394638Y0469045D01*
X0394695Y0469025D01*
X0394750Y0469002D01*
X0394805Y0468975D01*
X0394857Y0468946D01*
X0394908Y0468913D01*
X0394957Y0468877D01*
X0395003Y0468839D01*
X0395047Y0468797D01*
X0395089Y0468753D01*
X0395127Y0468707D01*
X0395163Y0468658D01*
X0395196Y0468607D01*
X0395225Y0468555D01*
X0395252Y0468500D01*
X0395275Y0468445D01*
X0395295Y0468388D01*
X0395311Y0468329D01*
X0395324Y0468270D01*
X0395333Y0468211D01*
X0395338Y0468150D01*
X0395340Y0468090D01*
X0395340Y0463840D01*
X0395338Y0463780D01*
X0395333Y0463719D01*
X0395324Y0463660D01*
X0395311Y0463601D01*
X0395295Y0463542D01*
X0395275Y0463485D01*
X0395252Y0463430D01*
X0395225Y0463375D01*
X0395196Y0463323D01*
X0395163Y0463272D01*
X0395127Y0463223D01*
X0395089Y0463177D01*
X0395047Y0463133D01*
X0395003Y0463091D01*
X0394957Y0463053D01*
X0394908Y0463017D01*
X0394857Y0462984D01*
X0394805Y0462955D01*
X0394750Y0462928D01*
X0394695Y0462905D01*
X0394638Y0462885D01*
X0394579Y0462869D01*
X0394520Y0462856D01*
X0394461Y0462847D01*
X0394400Y0462842D01*
X0394340Y0462840D01*
X0392590Y0462840D01*
X0392530Y0462842D01*
X0392469Y0462847D01*
X0392410Y0462856D01*
X0392351Y0462869D01*
X0392292Y0462885D01*
X0392235Y0462905D01*
X0392180Y0462928D01*
X0392125Y0462955D01*
X0392073Y0462984D01*
X0392022Y0463017D01*
X0391973Y0463053D01*
X0391927Y0463091D01*
X0391883Y0463133D01*
X0391841Y0463177D01*
X0391803Y0463223D01*
X0391767Y0463272D01*
X0391734Y0463323D01*
X0391705Y0463375D01*
X0391678Y0463430D01*
X0391655Y0463485D01*
X0391635Y0463542D01*
X0391619Y0463601D01*
X0391606Y0463660D01*
X0391597Y0463719D01*
X0391592Y0463780D01*
X0391590Y0463840D01*
X0399090Y0462840D02*
X0405340Y0462840D01*
X0405340Y0469090D01*
X0437097Y0448762D02*
X0437847Y0449513D01*
X0439348Y0449513D01*
X0440099Y0448762D01*
X0440099Y0446511D01*
X0441600Y0446511D02*
X0437097Y0446511D01*
X0437097Y0448762D01*
X0437847Y0444909D02*
X0439348Y0444909D01*
X0440099Y0444159D01*
X0440099Y0441907D01*
X0440099Y0443408D02*
X0441600Y0444909D01*
X0441600Y0441907D02*
X0437097Y0441907D01*
X0437097Y0444159D01*
X0437847Y0444909D01*
X0438598Y0440305D02*
X0441600Y0440305D01*
X0439348Y0440305D02*
X0439348Y0437303D01*
X0438598Y0437303D02*
X0437097Y0438804D01*
X0438598Y0440305D01*
X0438598Y0437303D02*
X0441600Y0437303D01*
X0441600Y0435701D02*
X0437097Y0435701D01*
X0439348Y0435701D02*
X0439348Y0432699D01*
X0440099Y0431097D02*
X0440850Y0431097D01*
X0441600Y0430347D01*
X0441600Y0428846D01*
X0440850Y0428095D01*
X0439348Y0428846D02*
X0439348Y0430347D01*
X0440099Y0431097D01*
X0441600Y0432699D02*
X0437097Y0432699D01*
X0437847Y0431097D02*
X0437097Y0430347D01*
X0437097Y0428846D01*
X0437847Y0428095D01*
X0438598Y0428095D01*
X0439348Y0428846D01*
X0448528Y0427330D02*
X0449279Y0426579D01*
X0450029Y0426579D01*
X0450780Y0427330D01*
X0450780Y0431083D01*
X0450029Y0431083D02*
X0451531Y0431083D01*
X0453132Y0431083D02*
X0453132Y0426579D01*
X0453132Y0428080D02*
X0455384Y0428080D01*
X0456134Y0428831D01*
X0456134Y0430332D01*
X0455384Y0431083D01*
X0453132Y0431083D01*
X0457736Y0429582D02*
X0459237Y0431083D01*
X0459237Y0426579D01*
X0457736Y0426579D02*
X0460738Y0426579D01*
X0448512Y0414372D02*
X0447761Y0415123D01*
X0446260Y0415123D01*
X0445509Y0414372D01*
X0448512Y0414372D02*
X0448512Y0413622D01*
X0445509Y0410619D01*
X0448512Y0410619D01*
X0443908Y0409869D02*
X0440905Y0409869D01*
X0439304Y0410619D02*
X0436301Y0410619D01*
X0437802Y0410619D02*
X0437802Y0415123D01*
X0436301Y0413622D01*
X0434700Y0414372D02*
X0433949Y0415123D01*
X0432448Y0415123D01*
X0431697Y0414372D01*
X0431697Y0411370D01*
X0432448Y0410619D01*
X0433949Y0410619D01*
X0434700Y0411370D01*
X0434700Y0412871D01*
X0433198Y0412871D01*
X0430096Y0410619D02*
X0427093Y0410619D01*
X0427093Y0415123D01*
X0430096Y0415123D01*
X0428595Y0412871D02*
X0427093Y0412871D01*
X0425492Y0410619D02*
X0422489Y0410619D01*
X0422489Y0415123D01*
X0422189Y0390138D02*
X0422189Y0385634D01*
X0425192Y0385634D01*
X0426793Y0385634D02*
X0429796Y0385634D01*
X0431397Y0386385D02*
X0432148Y0385634D01*
X0433649Y0385634D01*
X0434400Y0386385D01*
X0434400Y0387886D01*
X0432898Y0387886D01*
X0431397Y0389387D02*
X0431397Y0386385D01*
X0431397Y0389387D02*
X0432148Y0390138D01*
X0433649Y0390138D01*
X0434400Y0389387D01*
X0436001Y0388637D02*
X0437502Y0390138D01*
X0437502Y0385634D01*
X0436001Y0385634D02*
X0439004Y0385634D01*
X0440605Y0384884D02*
X0443608Y0384884D01*
X0445209Y0385634D02*
X0448212Y0385634D01*
X0446710Y0385634D02*
X0446710Y0390138D01*
X0445209Y0388637D01*
X0429796Y0390138D02*
X0426793Y0390138D01*
X0426793Y0385634D01*
X0426793Y0387886D02*
X0428295Y0387886D01*
X0427093Y0371816D02*
X0427093Y0367312D01*
X0430096Y0367312D01*
X0431697Y0368063D02*
X0432448Y0367312D01*
X0433949Y0367312D01*
X0434700Y0368063D01*
X0434700Y0369564D01*
X0433198Y0369564D01*
X0431697Y0371065D02*
X0431697Y0368063D01*
X0431697Y0371065D02*
X0432448Y0371816D01*
X0433949Y0371816D01*
X0434700Y0371065D01*
X0436301Y0371065D02*
X0437052Y0371816D01*
X0438553Y0371816D01*
X0439304Y0371065D01*
X0439304Y0370315D01*
X0436301Y0367312D01*
X0439304Y0367312D01*
X0440905Y0366562D02*
X0443908Y0366562D01*
X0445509Y0367312D02*
X0448512Y0370315D01*
X0448512Y0371065D01*
X0447761Y0371816D01*
X0446260Y0371816D01*
X0445509Y0371065D01*
X0445509Y0367312D02*
X0448512Y0367312D01*
X0430096Y0371816D02*
X0427093Y0371816D01*
X0427093Y0369564D02*
X0428595Y0369564D01*
X0425492Y0367312D02*
X0422489Y0367312D01*
X0422489Y0371816D01*
X0407840Y0361590D02*
X0406590Y0361590D01*
X0406590Y0359090D01*
X0407840Y0359090D01*
X0406590Y0359090D02*
X0406590Y0356590D01*
X0407840Y0356590D01*
X0406590Y0356590D02*
X0406590Y0354090D01*
X0407840Y0354090D01*
X0406590Y0354090D02*
X0406590Y0352590D01*
X0406588Y0352530D01*
X0406583Y0352469D01*
X0406574Y0352410D01*
X0406561Y0352351D01*
X0406545Y0352292D01*
X0406525Y0352235D01*
X0406502Y0352180D01*
X0406475Y0352125D01*
X0406446Y0352073D01*
X0406413Y0352022D01*
X0406377Y0351973D01*
X0406339Y0351927D01*
X0406297Y0351883D01*
X0406253Y0351841D01*
X0406207Y0351803D01*
X0406158Y0351767D01*
X0406107Y0351734D01*
X0406055Y0351705D01*
X0406000Y0351678D01*
X0405945Y0351655D01*
X0405888Y0351635D01*
X0405829Y0351619D01*
X0405770Y0351606D01*
X0405711Y0351597D01*
X0405650Y0351592D01*
X0405590Y0351590D01*
X0404090Y0351590D01*
X0404090Y0350340D01*
X0404090Y0351590D02*
X0401590Y0351590D01*
X0401590Y0350340D01*
X0401590Y0351590D02*
X0399090Y0351590D01*
X0399090Y0350340D01*
X0399090Y0351590D02*
X0396590Y0351590D01*
X0396590Y0350340D01*
X0396590Y0351590D02*
X0395090Y0351590D01*
X0395030Y0351592D01*
X0394969Y0351597D01*
X0394910Y0351606D01*
X0394851Y0351619D01*
X0394792Y0351635D01*
X0394735Y0351655D01*
X0394680Y0351678D01*
X0394625Y0351705D01*
X0394573Y0351734D01*
X0394522Y0351767D01*
X0394473Y0351803D01*
X0394427Y0351841D01*
X0394383Y0351883D01*
X0394341Y0351927D01*
X0394303Y0351973D01*
X0394267Y0352022D01*
X0394234Y0352073D01*
X0394205Y0352125D01*
X0394178Y0352180D01*
X0394155Y0352235D01*
X0394135Y0352292D01*
X0394119Y0352351D01*
X0394106Y0352410D01*
X0394097Y0352469D01*
X0394092Y0352530D01*
X0394090Y0352590D01*
X0394090Y0354090D01*
X0392840Y0354090D01*
X0394090Y0354090D02*
X0394090Y0356590D01*
X0392840Y0356590D01*
X0394090Y0356590D02*
X0394090Y0359090D01*
X0392840Y0359090D01*
X0394090Y0359090D02*
X0394090Y0361590D01*
X0392840Y0361590D01*
X0394090Y0361590D02*
X0394090Y0363090D01*
X0394092Y0363150D01*
X0394097Y0363211D01*
X0394106Y0363270D01*
X0394119Y0363329D01*
X0394135Y0363388D01*
X0394155Y0363445D01*
X0394178Y0363500D01*
X0394205Y0363555D01*
X0394234Y0363607D01*
X0394267Y0363658D01*
X0394303Y0363707D01*
X0394341Y0363753D01*
X0394383Y0363797D01*
X0394427Y0363839D01*
X0394473Y0363877D01*
X0394522Y0363913D01*
X0394573Y0363946D01*
X0394625Y0363975D01*
X0394680Y0364002D01*
X0394735Y0364025D01*
X0394792Y0364045D01*
X0394851Y0364061D01*
X0394910Y0364074D01*
X0394969Y0364083D01*
X0395030Y0364088D01*
X0395090Y0364090D01*
X0396590Y0364090D01*
X0396590Y0365340D01*
X0396590Y0364090D02*
X0399090Y0364090D01*
X0399090Y0365340D01*
X0399090Y0364090D02*
X0401590Y0364090D01*
X0401590Y0365340D01*
X0401590Y0364090D02*
X0404090Y0364090D01*
X0404090Y0365340D01*
X0404090Y0364090D02*
X0405590Y0364090D01*
X0405650Y0364088D01*
X0405711Y0364083D01*
X0405770Y0364074D01*
X0405829Y0364061D01*
X0405888Y0364045D01*
X0405945Y0364025D01*
X0406000Y0364002D01*
X0406055Y0363975D01*
X0406107Y0363946D01*
X0406158Y0363913D01*
X0406207Y0363877D01*
X0406253Y0363839D01*
X0406297Y0363797D01*
X0406339Y0363753D01*
X0406377Y0363707D01*
X0406413Y0363658D01*
X0406446Y0363607D01*
X0406475Y0363555D01*
X0406502Y0363500D01*
X0406525Y0363445D01*
X0406545Y0363388D01*
X0406561Y0363329D01*
X0406574Y0363270D01*
X0406583Y0363211D01*
X0406588Y0363150D01*
X0406590Y0363090D01*
X0406590Y0361590D01*
X0406590Y0344090D02*
X0396590Y0344090D01*
X0396590Y0304090D01*
X0406590Y0304090D01*
X0406590Y0294090D01*
X0396590Y0294090D01*
X0396590Y0304090D01*
X0390242Y0305350D02*
X0390244Y0305524D01*
X0390251Y0305698D01*
X0390261Y0305872D01*
X0390276Y0306046D01*
X0390295Y0306219D01*
X0390319Y0306392D01*
X0390347Y0306564D01*
X0390378Y0306735D01*
X0390415Y0306906D01*
X0390455Y0307075D01*
X0390499Y0307244D01*
X0390548Y0307411D01*
X0390600Y0307577D01*
X0390657Y0307742D01*
X0390718Y0307905D01*
X0390782Y0308067D01*
X0390851Y0308227D01*
X0390924Y0308386D01*
X0391000Y0308542D01*
X0391080Y0308697D01*
X0391164Y0308850D01*
X0391252Y0309000D01*
X0391344Y0309148D01*
X0391439Y0309295D01*
X0391537Y0309438D01*
X0391639Y0309579D01*
X0391745Y0309718D01*
X0391854Y0309854D01*
X0391966Y0309988D01*
X0392081Y0310118D01*
X0392200Y0310246D01*
X0392322Y0310370D01*
X0392446Y0310492D01*
X0392574Y0310611D01*
X0392704Y0310726D01*
X0392838Y0310838D01*
X0392974Y0310947D01*
X0393113Y0311053D01*
X0393254Y0311155D01*
X0393397Y0311253D01*
X0393544Y0311348D01*
X0393692Y0311440D01*
X0393842Y0311528D01*
X0393995Y0311612D01*
X0394150Y0311692D01*
X0394306Y0311768D01*
X0394465Y0311841D01*
X0394625Y0311910D01*
X0394787Y0311974D01*
X0394950Y0312035D01*
X0395115Y0312092D01*
X0395281Y0312144D01*
X0395448Y0312193D01*
X0395617Y0312237D01*
X0395786Y0312277D01*
X0395957Y0312314D01*
X0396128Y0312345D01*
X0396300Y0312373D01*
X0396473Y0312397D01*
X0396646Y0312416D01*
X0396820Y0312431D01*
X0396994Y0312441D01*
X0397168Y0312448D01*
X0397342Y0312450D01*
X0397516Y0312448D01*
X0397690Y0312441D01*
X0397864Y0312431D01*
X0398038Y0312416D01*
X0398211Y0312397D01*
X0398384Y0312373D01*
X0398556Y0312345D01*
X0398727Y0312314D01*
X0398898Y0312277D01*
X0399067Y0312237D01*
X0399236Y0312193D01*
X0399403Y0312144D01*
X0399569Y0312092D01*
X0399734Y0312035D01*
X0399897Y0311974D01*
X0400059Y0311910D01*
X0400219Y0311841D01*
X0400378Y0311768D01*
X0400534Y0311692D01*
X0400689Y0311612D01*
X0400842Y0311528D01*
X0400992Y0311440D01*
X0401140Y0311348D01*
X0401287Y0311253D01*
X0401430Y0311155D01*
X0401571Y0311053D01*
X0401710Y0310947D01*
X0401846Y0310838D01*
X0401980Y0310726D01*
X0402110Y0310611D01*
X0402238Y0310492D01*
X0402362Y0310370D01*
X0402484Y0310246D01*
X0402603Y0310118D01*
X0402718Y0309988D01*
X0402830Y0309854D01*
X0402939Y0309718D01*
X0403045Y0309579D01*
X0403147Y0309438D01*
X0403245Y0309295D01*
X0403340Y0309148D01*
X0403432Y0309000D01*
X0403520Y0308850D01*
X0403604Y0308697D01*
X0403684Y0308542D01*
X0403760Y0308386D01*
X0403833Y0308227D01*
X0403902Y0308067D01*
X0403966Y0307905D01*
X0404027Y0307742D01*
X0404084Y0307577D01*
X0404136Y0307411D01*
X0404185Y0307244D01*
X0404229Y0307075D01*
X0404269Y0306906D01*
X0404306Y0306735D01*
X0404337Y0306564D01*
X0404365Y0306392D01*
X0404389Y0306219D01*
X0404408Y0306046D01*
X0404423Y0305872D01*
X0404433Y0305698D01*
X0404440Y0305524D01*
X0404442Y0305350D01*
X0404440Y0305176D01*
X0404433Y0305002D01*
X0404423Y0304828D01*
X0404408Y0304654D01*
X0404389Y0304481D01*
X0404365Y0304308D01*
X0404337Y0304136D01*
X0404306Y0303965D01*
X0404269Y0303794D01*
X0404229Y0303625D01*
X0404185Y0303456D01*
X0404136Y0303289D01*
X0404084Y0303123D01*
X0404027Y0302958D01*
X0403966Y0302795D01*
X0403902Y0302633D01*
X0403833Y0302473D01*
X0403760Y0302314D01*
X0403684Y0302158D01*
X0403604Y0302003D01*
X0403520Y0301850D01*
X0403432Y0301700D01*
X0403340Y0301552D01*
X0403245Y0301405D01*
X0403147Y0301262D01*
X0403045Y0301121D01*
X0402939Y0300982D01*
X0402830Y0300846D01*
X0402718Y0300712D01*
X0402603Y0300582D01*
X0402484Y0300454D01*
X0402362Y0300330D01*
X0402238Y0300208D01*
X0402110Y0300089D01*
X0401980Y0299974D01*
X0401846Y0299862D01*
X0401710Y0299753D01*
X0401571Y0299647D01*
X0401430Y0299545D01*
X0401287Y0299447D01*
X0401140Y0299352D01*
X0400992Y0299260D01*
X0400842Y0299172D01*
X0400689Y0299088D01*
X0400534Y0299008D01*
X0400378Y0298932D01*
X0400219Y0298859D01*
X0400059Y0298790D01*
X0399897Y0298726D01*
X0399734Y0298665D01*
X0399569Y0298608D01*
X0399403Y0298556D01*
X0399236Y0298507D01*
X0399067Y0298463D01*
X0398898Y0298423D01*
X0398727Y0298386D01*
X0398556Y0298355D01*
X0398384Y0298327D01*
X0398211Y0298303D01*
X0398038Y0298284D01*
X0397864Y0298269D01*
X0397690Y0298259D01*
X0397516Y0298252D01*
X0397342Y0298250D01*
X0397168Y0298252D01*
X0396994Y0298259D01*
X0396820Y0298269D01*
X0396646Y0298284D01*
X0396473Y0298303D01*
X0396300Y0298327D01*
X0396128Y0298355D01*
X0395957Y0298386D01*
X0395786Y0298423D01*
X0395617Y0298463D01*
X0395448Y0298507D01*
X0395281Y0298556D01*
X0395115Y0298608D01*
X0394950Y0298665D01*
X0394787Y0298726D01*
X0394625Y0298790D01*
X0394465Y0298859D01*
X0394306Y0298932D01*
X0394150Y0299008D01*
X0393995Y0299088D01*
X0393842Y0299172D01*
X0393692Y0299260D01*
X0393544Y0299352D01*
X0393397Y0299447D01*
X0393254Y0299545D01*
X0393113Y0299647D01*
X0392974Y0299753D01*
X0392838Y0299862D01*
X0392704Y0299974D01*
X0392574Y0300089D01*
X0392446Y0300208D01*
X0392322Y0300330D01*
X0392200Y0300454D01*
X0392081Y0300582D01*
X0391966Y0300712D01*
X0391854Y0300846D01*
X0391745Y0300982D01*
X0391639Y0301121D01*
X0391537Y0301262D01*
X0391439Y0301405D01*
X0391344Y0301552D01*
X0391252Y0301700D01*
X0391164Y0301850D01*
X0391080Y0302003D01*
X0391000Y0302158D01*
X0390924Y0302314D01*
X0390851Y0302473D01*
X0390782Y0302633D01*
X0390718Y0302795D01*
X0390657Y0302958D01*
X0390600Y0303123D01*
X0390548Y0303289D01*
X0390499Y0303456D01*
X0390455Y0303625D01*
X0390415Y0303794D01*
X0390378Y0303965D01*
X0390347Y0304136D01*
X0390319Y0304308D01*
X0390295Y0304481D01*
X0390276Y0304654D01*
X0390261Y0304828D01*
X0390251Y0305002D01*
X0390244Y0305176D01*
X0390242Y0305350D01*
X0387992Y0305019D02*
X0387992Y0302750D01*
X0387992Y0303885D02*
X0384589Y0303885D01*
X0385723Y0302750D01*
X0385723Y0301428D02*
X0387992Y0301428D01*
X0386290Y0301428D02*
X0386290Y0299159D01*
X0385723Y0299159D02*
X0384589Y0300293D01*
X0385723Y0301428D01*
X0385723Y0299159D02*
X0387992Y0299159D01*
X0387992Y0306341D02*
X0387425Y0306341D01*
X0385156Y0308610D01*
X0384589Y0308610D01*
X0384589Y0306341D01*
X0387425Y0310500D02*
X0387992Y0310500D01*
X0387992Y0311067D01*
X0387425Y0311067D01*
X0387425Y0310500D01*
X0387992Y0311067D02*
X0389126Y0309932D01*
X0387425Y0312326D02*
X0387992Y0312894D01*
X0387992Y0314028D01*
X0387425Y0314595D01*
X0386290Y0314595D01*
X0385723Y0314028D01*
X0385723Y0313461D01*
X0386290Y0312326D01*
X0384589Y0312326D01*
X0384589Y0314595D01*
X0385723Y0315917D02*
X0385723Y0316485D01*
X0386290Y0317052D01*
X0385723Y0317619D01*
X0386290Y0318186D01*
X0387992Y0318186D01*
X0387992Y0317052D02*
X0386290Y0317052D01*
X0385723Y0315917D02*
X0387992Y0315917D01*
X0387992Y0319509D02*
X0385723Y0319509D01*
X0385723Y0320076D01*
X0386290Y0320643D01*
X0385723Y0321210D01*
X0386290Y0321777D01*
X0387992Y0321777D01*
X0387992Y0320643D02*
X0386290Y0320643D01*
X0388090Y0331590D02*
X0380090Y0331590D01*
X0380030Y0331592D01*
X0379969Y0331597D01*
X0379910Y0331606D01*
X0379851Y0331619D01*
X0379792Y0331635D01*
X0379735Y0331655D01*
X0379680Y0331678D01*
X0379625Y0331705D01*
X0379573Y0331734D01*
X0379522Y0331767D01*
X0379473Y0331803D01*
X0379427Y0331841D01*
X0379383Y0331883D01*
X0379341Y0331927D01*
X0379303Y0331973D01*
X0379267Y0332022D01*
X0379234Y0332073D01*
X0379205Y0332125D01*
X0379178Y0332180D01*
X0379155Y0332235D01*
X0379135Y0332292D01*
X0379119Y0332351D01*
X0379106Y0332410D01*
X0379097Y0332469D01*
X0379092Y0332530D01*
X0379090Y0332590D01*
X0379090Y0340590D01*
X0379092Y0340650D01*
X0379097Y0340711D01*
X0379106Y0340770D01*
X0379119Y0340829D01*
X0379135Y0340888D01*
X0379155Y0340945D01*
X0379178Y0341000D01*
X0379205Y0341055D01*
X0379234Y0341107D01*
X0379267Y0341158D01*
X0379303Y0341207D01*
X0379341Y0341253D01*
X0379383Y0341297D01*
X0379427Y0341339D01*
X0379473Y0341377D01*
X0379522Y0341413D01*
X0379573Y0341446D01*
X0379625Y0341475D01*
X0379680Y0341502D01*
X0379735Y0341525D01*
X0379792Y0341545D01*
X0379851Y0341561D01*
X0379910Y0341574D01*
X0379969Y0341583D01*
X0380030Y0341588D01*
X0380090Y0341590D01*
X0388090Y0341590D01*
X0388150Y0341588D01*
X0388211Y0341583D01*
X0388270Y0341574D01*
X0388329Y0341561D01*
X0388388Y0341545D01*
X0388445Y0341525D01*
X0388500Y0341502D01*
X0388555Y0341475D01*
X0388607Y0341446D01*
X0388658Y0341413D01*
X0388707Y0341377D01*
X0388753Y0341339D01*
X0388797Y0341297D01*
X0388839Y0341253D01*
X0388877Y0341207D01*
X0388913Y0341158D01*
X0388946Y0341107D01*
X0388975Y0341055D01*
X0389002Y0341000D01*
X0389025Y0340945D01*
X0389045Y0340888D01*
X0389061Y0340829D01*
X0389074Y0340770D01*
X0389083Y0340711D01*
X0389088Y0340650D01*
X0389090Y0340590D01*
X0389090Y0332590D01*
X0389088Y0332530D01*
X0389083Y0332469D01*
X0389074Y0332410D01*
X0389061Y0332351D01*
X0389045Y0332292D01*
X0389025Y0332235D01*
X0389002Y0332180D01*
X0388975Y0332125D01*
X0388946Y0332073D01*
X0388913Y0332022D01*
X0388877Y0331973D01*
X0388839Y0331927D01*
X0388797Y0331883D01*
X0388753Y0331841D01*
X0388707Y0331803D01*
X0388658Y0331767D01*
X0388607Y0331734D01*
X0388555Y0331705D01*
X0388500Y0331678D01*
X0388445Y0331655D01*
X0388388Y0331635D01*
X0388329Y0331619D01*
X0388270Y0331606D01*
X0388211Y0331597D01*
X0388150Y0331592D01*
X0388090Y0331590D01*
X0397342Y0325850D02*
X0397342Y0322350D01*
X0403342Y0322350D01*
X0403342Y0325850D01*
X0410842Y0325850D01*
X0410842Y0284850D01*
X0403342Y0284850D01*
X0403342Y0288350D01*
X0397342Y0288350D01*
X0397342Y0284850D01*
X0348342Y0284850D01*
X0348342Y0325850D01*
X0397342Y0325850D01*
X0406590Y0344090D02*
X0406590Y0304090D01*
X0422189Y0305492D02*
X0422189Y0300989D01*
X0425192Y0300989D01*
X0426793Y0300989D02*
X0429796Y0300989D01*
X0431397Y0301739D02*
X0432148Y0300989D01*
X0433649Y0300989D01*
X0434400Y0301739D01*
X0434400Y0303241D01*
X0432898Y0303241D01*
X0431397Y0304742D02*
X0431397Y0301739D01*
X0431397Y0304742D02*
X0432148Y0305492D01*
X0433649Y0305492D01*
X0434400Y0304742D01*
X0436001Y0304742D02*
X0436752Y0305492D01*
X0438253Y0305492D01*
X0439004Y0304742D01*
X0439004Y0303991D01*
X0438253Y0303241D01*
X0439004Y0302490D01*
X0439004Y0301739D01*
X0438253Y0300989D01*
X0436752Y0300989D01*
X0436001Y0301739D01*
X0437502Y0303241D02*
X0438253Y0303241D01*
X0440605Y0300238D02*
X0443608Y0300238D01*
X0445209Y0300989D02*
X0448212Y0300989D01*
X0446710Y0300989D02*
X0446710Y0305492D01*
X0445209Y0303991D01*
X0429796Y0305492D02*
X0426793Y0305492D01*
X0426793Y0300989D01*
X0426793Y0303241D02*
X0428295Y0303241D01*
X0427093Y0325974D02*
X0430096Y0325974D01*
X0431697Y0326724D02*
X0432448Y0325974D01*
X0433949Y0325974D01*
X0434700Y0326724D01*
X0434700Y0328226D01*
X0433198Y0328226D01*
X0431697Y0329727D02*
X0431697Y0326724D01*
X0431697Y0329727D02*
X0432448Y0330477D01*
X0433949Y0330477D01*
X0434700Y0329727D01*
X0436301Y0329727D02*
X0437052Y0330477D01*
X0438553Y0330477D01*
X0439304Y0329727D01*
X0439304Y0328976D01*
X0438553Y0328226D01*
X0439304Y0327475D01*
X0439304Y0326724D01*
X0438553Y0325974D01*
X0437052Y0325974D01*
X0436301Y0326724D01*
X0437802Y0328226D02*
X0438553Y0328226D01*
X0440905Y0325223D02*
X0443908Y0325223D01*
X0445509Y0325974D02*
X0448512Y0328976D01*
X0448512Y0329727D01*
X0447761Y0330477D01*
X0446260Y0330477D01*
X0445509Y0329727D01*
X0445509Y0325974D02*
X0448512Y0325974D01*
X0443608Y0341577D02*
X0440605Y0341577D01*
X0439004Y0342327D02*
X0436001Y0342327D01*
X0439004Y0345330D01*
X0439004Y0346080D01*
X0438253Y0346831D01*
X0436752Y0346831D01*
X0436001Y0346080D01*
X0434400Y0346080D02*
X0433649Y0346831D01*
X0432148Y0346831D01*
X0431397Y0346080D01*
X0431397Y0343078D01*
X0432148Y0342327D01*
X0433649Y0342327D01*
X0434400Y0343078D01*
X0434400Y0344579D01*
X0432898Y0344579D01*
X0429796Y0342327D02*
X0426793Y0342327D01*
X0426793Y0346831D01*
X0429796Y0346831D01*
X0428295Y0344579D02*
X0426793Y0344579D01*
X0425192Y0342327D02*
X0422189Y0342327D01*
X0422189Y0346831D01*
X0422489Y0330477D02*
X0422489Y0325974D01*
X0425492Y0325974D01*
X0427093Y0325974D02*
X0427093Y0330477D01*
X0430096Y0330477D01*
X0428595Y0328226D02*
X0427093Y0328226D01*
X0445209Y0342327D02*
X0448212Y0342327D01*
X0446710Y0342327D02*
X0446710Y0346831D01*
X0445209Y0345330D01*
X0501885Y0359653D02*
X0550885Y0359653D01*
X0550885Y0363153D01*
X0556885Y0363153D01*
X0556885Y0359653D01*
X0564385Y0359653D01*
X0564385Y0400653D01*
X0556885Y0400653D01*
X0556885Y0397153D01*
X0550885Y0397153D01*
X0550885Y0400653D01*
X0501885Y0400653D01*
X0501885Y0359653D01*
X0538132Y0375097D02*
X0539266Y0376231D01*
X0541535Y0376231D01*
X0541535Y0377553D02*
X0541535Y0379822D01*
X0541535Y0378688D02*
X0538132Y0378688D01*
X0539266Y0377553D01*
X0539834Y0376231D02*
X0539834Y0373962D01*
X0539266Y0373962D02*
X0538132Y0375097D01*
X0539266Y0373962D02*
X0541535Y0373962D01*
X0541535Y0381144D02*
X0540968Y0381144D01*
X0538699Y0383413D01*
X0538132Y0383413D01*
X0538132Y0381144D01*
X0540968Y0385303D02*
X0541535Y0385303D01*
X0541535Y0385870D01*
X0540968Y0385870D01*
X0540968Y0385303D01*
X0541535Y0385870D02*
X0542669Y0384736D01*
X0540968Y0387130D02*
X0541535Y0387697D01*
X0541535Y0388831D01*
X0540968Y0389398D01*
X0539834Y0389398D01*
X0539266Y0388831D01*
X0539266Y0388264D01*
X0539834Y0387130D01*
X0538132Y0387130D01*
X0538132Y0389398D01*
X0539266Y0390721D02*
X0539266Y0391288D01*
X0539834Y0391855D01*
X0539266Y0392422D01*
X0539834Y0392989D01*
X0541535Y0392989D01*
X0541535Y0391855D02*
X0539834Y0391855D01*
X0539266Y0390721D02*
X0541535Y0390721D01*
X0541535Y0394312D02*
X0539266Y0394312D01*
X0539266Y0394879D01*
X0539834Y0395446D01*
X0539266Y0396013D01*
X0539834Y0396580D01*
X0541535Y0396580D01*
X0541535Y0395446D02*
X0539834Y0395446D01*
X0543785Y0380153D02*
X0543787Y0380327D01*
X0543794Y0380501D01*
X0543804Y0380675D01*
X0543819Y0380849D01*
X0543838Y0381022D01*
X0543862Y0381195D01*
X0543890Y0381367D01*
X0543921Y0381538D01*
X0543958Y0381709D01*
X0543998Y0381878D01*
X0544042Y0382047D01*
X0544091Y0382214D01*
X0544143Y0382380D01*
X0544200Y0382545D01*
X0544261Y0382708D01*
X0544325Y0382870D01*
X0544394Y0383030D01*
X0544467Y0383189D01*
X0544543Y0383345D01*
X0544623Y0383500D01*
X0544707Y0383653D01*
X0544795Y0383803D01*
X0544887Y0383951D01*
X0544982Y0384098D01*
X0545080Y0384241D01*
X0545182Y0384382D01*
X0545288Y0384521D01*
X0545397Y0384657D01*
X0545509Y0384791D01*
X0545624Y0384921D01*
X0545743Y0385049D01*
X0545865Y0385173D01*
X0545989Y0385295D01*
X0546117Y0385414D01*
X0546247Y0385529D01*
X0546381Y0385641D01*
X0546517Y0385750D01*
X0546656Y0385856D01*
X0546797Y0385958D01*
X0546940Y0386056D01*
X0547087Y0386151D01*
X0547235Y0386243D01*
X0547385Y0386331D01*
X0547538Y0386415D01*
X0547693Y0386495D01*
X0547849Y0386571D01*
X0548008Y0386644D01*
X0548168Y0386713D01*
X0548330Y0386777D01*
X0548493Y0386838D01*
X0548658Y0386895D01*
X0548824Y0386947D01*
X0548991Y0386996D01*
X0549160Y0387040D01*
X0549329Y0387080D01*
X0549500Y0387117D01*
X0549671Y0387148D01*
X0549843Y0387176D01*
X0550016Y0387200D01*
X0550189Y0387219D01*
X0550363Y0387234D01*
X0550537Y0387244D01*
X0550711Y0387251D01*
X0550885Y0387253D01*
X0551059Y0387251D01*
X0551233Y0387244D01*
X0551407Y0387234D01*
X0551581Y0387219D01*
X0551754Y0387200D01*
X0551927Y0387176D01*
X0552099Y0387148D01*
X0552270Y0387117D01*
X0552441Y0387080D01*
X0552610Y0387040D01*
X0552779Y0386996D01*
X0552946Y0386947D01*
X0553112Y0386895D01*
X0553277Y0386838D01*
X0553440Y0386777D01*
X0553602Y0386713D01*
X0553762Y0386644D01*
X0553921Y0386571D01*
X0554077Y0386495D01*
X0554232Y0386415D01*
X0554385Y0386331D01*
X0554535Y0386243D01*
X0554683Y0386151D01*
X0554830Y0386056D01*
X0554973Y0385958D01*
X0555114Y0385856D01*
X0555253Y0385750D01*
X0555389Y0385641D01*
X0555523Y0385529D01*
X0555653Y0385414D01*
X0555781Y0385295D01*
X0555905Y0385173D01*
X0556027Y0385049D01*
X0556146Y0384921D01*
X0556261Y0384791D01*
X0556373Y0384657D01*
X0556482Y0384521D01*
X0556588Y0384382D01*
X0556690Y0384241D01*
X0556788Y0384098D01*
X0556883Y0383951D01*
X0556975Y0383803D01*
X0557063Y0383653D01*
X0557147Y0383500D01*
X0557227Y0383345D01*
X0557303Y0383189D01*
X0557376Y0383030D01*
X0557445Y0382870D01*
X0557509Y0382708D01*
X0557570Y0382545D01*
X0557627Y0382380D01*
X0557679Y0382214D01*
X0557728Y0382047D01*
X0557772Y0381878D01*
X0557812Y0381709D01*
X0557849Y0381538D01*
X0557880Y0381367D01*
X0557908Y0381195D01*
X0557932Y0381022D01*
X0557951Y0380849D01*
X0557966Y0380675D01*
X0557976Y0380501D01*
X0557983Y0380327D01*
X0557985Y0380153D01*
X0557983Y0379979D01*
X0557976Y0379805D01*
X0557966Y0379631D01*
X0557951Y0379457D01*
X0557932Y0379284D01*
X0557908Y0379111D01*
X0557880Y0378939D01*
X0557849Y0378768D01*
X0557812Y0378597D01*
X0557772Y0378428D01*
X0557728Y0378259D01*
X0557679Y0378092D01*
X0557627Y0377926D01*
X0557570Y0377761D01*
X0557509Y0377598D01*
X0557445Y0377436D01*
X0557376Y0377276D01*
X0557303Y0377117D01*
X0557227Y0376961D01*
X0557147Y0376806D01*
X0557063Y0376653D01*
X0556975Y0376503D01*
X0556883Y0376355D01*
X0556788Y0376208D01*
X0556690Y0376065D01*
X0556588Y0375924D01*
X0556482Y0375785D01*
X0556373Y0375649D01*
X0556261Y0375515D01*
X0556146Y0375385D01*
X0556027Y0375257D01*
X0555905Y0375133D01*
X0555781Y0375011D01*
X0555653Y0374892D01*
X0555523Y0374777D01*
X0555389Y0374665D01*
X0555253Y0374556D01*
X0555114Y0374450D01*
X0554973Y0374348D01*
X0554830Y0374250D01*
X0554683Y0374155D01*
X0554535Y0374063D01*
X0554385Y0373975D01*
X0554232Y0373891D01*
X0554077Y0373811D01*
X0553921Y0373735D01*
X0553762Y0373662D01*
X0553602Y0373593D01*
X0553440Y0373529D01*
X0553277Y0373468D01*
X0553112Y0373411D01*
X0552946Y0373359D01*
X0552779Y0373310D01*
X0552610Y0373266D01*
X0552441Y0373226D01*
X0552270Y0373189D01*
X0552099Y0373158D01*
X0551927Y0373130D01*
X0551754Y0373106D01*
X0551581Y0373087D01*
X0551407Y0373072D01*
X0551233Y0373062D01*
X0551059Y0373055D01*
X0550885Y0373053D01*
X0550711Y0373055D01*
X0550537Y0373062D01*
X0550363Y0373072D01*
X0550189Y0373087D01*
X0550016Y0373106D01*
X0549843Y0373130D01*
X0549671Y0373158D01*
X0549500Y0373189D01*
X0549329Y0373226D01*
X0549160Y0373266D01*
X0548991Y0373310D01*
X0548824Y0373359D01*
X0548658Y0373411D01*
X0548493Y0373468D01*
X0548330Y0373529D01*
X0548168Y0373593D01*
X0548008Y0373662D01*
X0547849Y0373735D01*
X0547693Y0373811D01*
X0547538Y0373891D01*
X0547385Y0373975D01*
X0547235Y0374063D01*
X0547087Y0374155D01*
X0546940Y0374250D01*
X0546797Y0374348D01*
X0546656Y0374450D01*
X0546517Y0374556D01*
X0546381Y0374665D01*
X0546247Y0374777D01*
X0546117Y0374892D01*
X0545989Y0375011D01*
X0545865Y0375133D01*
X0545743Y0375257D01*
X0545624Y0375385D01*
X0545509Y0375515D01*
X0545397Y0375649D01*
X0545288Y0375785D01*
X0545182Y0375924D01*
X0545080Y0376065D01*
X0544982Y0376208D01*
X0544887Y0376355D01*
X0544795Y0376503D01*
X0544707Y0376653D01*
X0544623Y0376806D01*
X0544543Y0376961D01*
X0544467Y0377117D01*
X0544394Y0377276D01*
X0544325Y0377436D01*
X0544261Y0377598D01*
X0544200Y0377761D01*
X0544143Y0377926D01*
X0544091Y0378092D01*
X0544042Y0378259D01*
X0543998Y0378428D01*
X0543958Y0378597D01*
X0543921Y0378768D01*
X0543890Y0378939D01*
X0543862Y0379111D01*
X0543838Y0379284D01*
X0543819Y0379457D01*
X0543804Y0379631D01*
X0543794Y0379805D01*
X0543787Y0379979D01*
X0543785Y0380153D01*
X0476552Y0463904D02*
X0472048Y0463904D01*
X0474300Y0463904D02*
X0474300Y0466906D01*
X0475801Y0468507D02*
X0476552Y0469258D01*
X0476552Y0470759D01*
X0475801Y0471510D01*
X0474300Y0473111D02*
X0474300Y0476114D01*
X0475801Y0477715D02*
X0472798Y0480718D01*
X0475801Y0480718D01*
X0476552Y0479967D01*
X0476552Y0478466D01*
X0475801Y0477715D01*
X0472798Y0477715D01*
X0472048Y0478466D01*
X0472048Y0479967D01*
X0472798Y0480718D01*
X0474300Y0482319D02*
X0474300Y0484571D01*
X0475050Y0485322D01*
X0475801Y0485322D01*
X0476552Y0484571D01*
X0476552Y0483070D01*
X0475801Y0482319D01*
X0474300Y0482319D01*
X0472798Y0483821D01*
X0472048Y0485322D01*
X0472798Y0471510D02*
X0472048Y0470759D01*
X0472048Y0469258D01*
X0472798Y0468507D01*
X0475801Y0468507D01*
X0476552Y0466906D02*
X0472048Y0466906D01*
X0384375Y0520009D02*
X0381373Y0520009D01*
X0384375Y0523012D01*
X0384375Y0523762D01*
X0383625Y0524513D01*
X0382123Y0524513D01*
X0381373Y0523762D01*
X0344589Y0488703D02*
X0344589Y0487953D01*
X0341586Y0484950D01*
X0344589Y0484950D01*
X0344589Y0488703D02*
X0343838Y0489454D01*
X0342337Y0489454D01*
X0341586Y0488703D01*
X0339985Y0484199D02*
X0336982Y0484199D01*
X0335381Y0485701D02*
X0335381Y0486451D01*
X0334630Y0487202D01*
X0332378Y0487202D01*
X0332378Y0485701D01*
X0333129Y0484950D01*
X0334630Y0484950D01*
X0335381Y0485701D01*
X0333880Y0488703D02*
X0332378Y0487202D01*
X0330777Y0487202D02*
X0329276Y0487202D01*
X0330777Y0487202D02*
X0330777Y0485701D01*
X0330026Y0484950D01*
X0328525Y0484950D01*
X0327774Y0485701D01*
X0327774Y0488703D01*
X0328525Y0489454D01*
X0330026Y0489454D01*
X0330777Y0488703D01*
X0333880Y0488703D02*
X0335381Y0489454D01*
X0326173Y0489454D02*
X0323170Y0489454D01*
X0323170Y0484950D01*
X0326173Y0484950D01*
X0324672Y0487202D02*
X0323170Y0487202D01*
X0321569Y0484950D02*
X0318567Y0484950D01*
X0318567Y0489454D01*
X0318867Y0475069D02*
X0318867Y0470565D01*
X0321869Y0470565D01*
X0323470Y0470565D02*
X0326473Y0470565D01*
X0328074Y0471316D02*
X0328825Y0470565D01*
X0330326Y0470565D01*
X0331077Y0471316D01*
X0331077Y0472817D01*
X0329576Y0472817D01*
X0331077Y0474318D02*
X0330326Y0475069D01*
X0328825Y0475069D01*
X0328074Y0474318D01*
X0328074Y0471316D01*
X0324972Y0472817D02*
X0323470Y0472817D01*
X0323470Y0475069D02*
X0323470Y0470565D01*
X0323470Y0475069D02*
X0326473Y0475069D01*
X0332678Y0472817D02*
X0334930Y0472817D01*
X0335681Y0472066D01*
X0335681Y0471316D01*
X0334930Y0470565D01*
X0333429Y0470565D01*
X0332678Y0471316D01*
X0332678Y0472817D01*
X0334180Y0474318D01*
X0335681Y0475069D01*
X0337282Y0469814D02*
X0340285Y0469814D01*
X0341886Y0470565D02*
X0344889Y0470565D01*
X0343387Y0470565D02*
X0343387Y0475069D01*
X0341886Y0473568D01*
X0342337Y0450084D02*
X0341586Y0449333D01*
X0342337Y0450084D02*
X0343838Y0450084D01*
X0344589Y0449333D01*
X0344589Y0448582D01*
X0341586Y0445580D01*
X0344589Y0445580D01*
X0339985Y0444829D02*
X0336982Y0444829D01*
X0335381Y0446331D02*
X0334630Y0445580D01*
X0333129Y0445580D01*
X0332378Y0446331D01*
X0332378Y0447832D02*
X0333880Y0448582D01*
X0334630Y0448582D01*
X0335381Y0447832D01*
X0335381Y0446331D01*
X0332378Y0447832D02*
X0332378Y0450084D01*
X0335381Y0450084D01*
X0330777Y0449333D02*
X0330026Y0450084D01*
X0328525Y0450084D01*
X0327774Y0449333D01*
X0327774Y0446331D01*
X0328525Y0445580D01*
X0330026Y0445580D01*
X0330777Y0446331D01*
X0330777Y0447832D01*
X0329276Y0447832D01*
X0326173Y0450084D02*
X0323170Y0450084D01*
X0323170Y0445580D01*
X0326173Y0445580D01*
X0324672Y0447832D02*
X0323170Y0447832D01*
X0321569Y0445580D02*
X0318567Y0445580D01*
X0318567Y0450084D01*
X0318867Y0435699D02*
X0318867Y0431195D01*
X0321869Y0431195D01*
X0323470Y0431195D02*
X0326473Y0431195D01*
X0328074Y0431946D02*
X0328825Y0431195D01*
X0330326Y0431195D01*
X0331077Y0431946D01*
X0331077Y0433447D01*
X0329576Y0433447D01*
X0331077Y0434948D02*
X0330326Y0435699D01*
X0328825Y0435699D01*
X0328074Y0434948D01*
X0328074Y0431946D01*
X0324972Y0433447D02*
X0323470Y0433447D01*
X0323470Y0435699D02*
X0323470Y0431195D01*
X0323470Y0435699D02*
X0326473Y0435699D01*
X0332678Y0435699D02*
X0332678Y0433447D01*
X0334180Y0434197D01*
X0334930Y0434197D01*
X0335681Y0433447D01*
X0335681Y0431946D01*
X0334930Y0431195D01*
X0333429Y0431195D01*
X0332678Y0431946D01*
X0332678Y0435699D02*
X0335681Y0435699D01*
X0337282Y0430444D02*
X0340285Y0430444D01*
X0341886Y0431195D02*
X0344889Y0431195D01*
X0343387Y0431195D02*
X0343387Y0435699D01*
X0341886Y0434197D01*
X0342337Y0410714D02*
X0341586Y0409963D01*
X0342337Y0410714D02*
X0343838Y0410714D01*
X0344589Y0409963D01*
X0344589Y0409212D01*
X0341586Y0406210D01*
X0344589Y0406210D01*
X0339985Y0405459D02*
X0336982Y0405459D01*
X0334630Y0406210D02*
X0334630Y0410714D01*
X0332378Y0408462D01*
X0335381Y0408462D01*
X0330777Y0408462D02*
X0329276Y0408462D01*
X0330777Y0408462D02*
X0330777Y0406960D01*
X0330026Y0406210D01*
X0328525Y0406210D01*
X0327774Y0406960D01*
X0327774Y0409963D01*
X0328525Y0410714D01*
X0330026Y0410714D01*
X0330777Y0409963D01*
X0326173Y0410714D02*
X0323170Y0410714D01*
X0323170Y0406210D01*
X0326173Y0406210D01*
X0324672Y0408462D02*
X0323170Y0408462D01*
X0321569Y0406210D02*
X0318567Y0406210D01*
X0318567Y0410714D01*
X0318867Y0396329D02*
X0318867Y0391825D01*
X0321869Y0391825D01*
X0323470Y0391825D02*
X0326473Y0391825D01*
X0328074Y0392575D02*
X0328825Y0391825D01*
X0330326Y0391825D01*
X0331077Y0392575D01*
X0331077Y0394077D01*
X0329576Y0394077D01*
X0331077Y0395578D02*
X0330326Y0396329D01*
X0328825Y0396329D01*
X0328074Y0395578D01*
X0328074Y0392575D01*
X0324972Y0394077D02*
X0323470Y0394077D01*
X0323470Y0396329D02*
X0323470Y0391825D01*
X0323470Y0396329D02*
X0326473Y0396329D01*
X0332678Y0394077D02*
X0335681Y0394077D01*
X0334930Y0396329D02*
X0332678Y0394077D01*
X0334930Y0391825D02*
X0334930Y0396329D01*
X0337282Y0391074D02*
X0340285Y0391074D01*
X0341886Y0391825D02*
X0344889Y0391825D01*
X0343387Y0391825D02*
X0343387Y0396329D01*
X0341886Y0394827D01*
X0371590Y0289090D02*
X0371590Y0284090D01*
X0372146Y0281961D02*
X0375340Y0284090D01*
X0376590Y0284090D02*
X0376590Y0289090D01*
X0371590Y0289090D01*
X0379090Y0289090D02*
X0379090Y0284090D01*
X0379090Y0279090D01*
X0371590Y0279090D01*
X0371590Y0280921D01*
X0371592Y0280989D01*
X0371597Y0281057D01*
X0371607Y0281125D01*
X0371620Y0281192D01*
X0371636Y0281258D01*
X0371656Y0281323D01*
X0371680Y0281387D01*
X0371707Y0281450D01*
X0371738Y0281511D01*
X0371772Y0281570D01*
X0371809Y0281627D01*
X0371849Y0281683D01*
X0371892Y0281736D01*
X0371938Y0281786D01*
X0371986Y0281834D01*
X0372037Y0281879D01*
X0372091Y0281922D01*
X0372147Y0281961D01*
X0369090Y0276590D02*
X0364090Y0276590D01*
X0364090Y0271590D01*
X0369090Y0271590D01*
X0371590Y0272840D02*
X0371590Y0266590D01*
X0376590Y0266590D01*
X0376590Y0272840D01*
X0376588Y0272908D01*
X0376583Y0272975D01*
X0376574Y0273042D01*
X0376561Y0273109D01*
X0376544Y0273174D01*
X0376525Y0273239D01*
X0376501Y0273303D01*
X0376474Y0273365D01*
X0376444Y0273426D01*
X0376411Y0273484D01*
X0376375Y0273541D01*
X0376335Y0273596D01*
X0376293Y0273649D01*
X0376247Y0273700D01*
X0376200Y0273747D01*
X0376149Y0273793D01*
X0376096Y0273835D01*
X0376041Y0273875D01*
X0375984Y0273911D01*
X0375926Y0273944D01*
X0375865Y0273974D01*
X0375803Y0274001D01*
X0375739Y0274025D01*
X0375674Y0274044D01*
X0375609Y0274061D01*
X0375542Y0274074D01*
X0375475Y0274083D01*
X0375408Y0274088D01*
X0375340Y0274090D01*
X0372840Y0274090D01*
X0372772Y0274088D01*
X0372705Y0274083D01*
X0372638Y0274074D01*
X0372571Y0274061D01*
X0372506Y0274044D01*
X0372441Y0274025D01*
X0372377Y0274001D01*
X0372315Y0273974D01*
X0372254Y0273944D01*
X0372196Y0273911D01*
X0372139Y0273875D01*
X0372084Y0273835D01*
X0372031Y0273793D01*
X0371980Y0273747D01*
X0371933Y0273700D01*
X0371887Y0273649D01*
X0371845Y0273596D01*
X0371805Y0273541D01*
X0371769Y0273484D01*
X0371736Y0273426D01*
X0371706Y0273365D01*
X0371679Y0273303D01*
X0371655Y0273239D01*
X0371636Y0273174D01*
X0371619Y0273109D01*
X0371606Y0273042D01*
X0371597Y0272975D01*
X0371592Y0272908D01*
X0371590Y0272840D01*
X0381590Y0284090D02*
X0381590Y0289090D01*
X0384090Y0289090D02*
X0384090Y0284090D01*
X0386590Y0284090D02*
X0386590Y0289090D01*
X0389090Y0289090D02*
X0389090Y0284090D01*
X0389090Y0279090D01*
X0396590Y0279090D01*
X0396590Y0280921D01*
X0396033Y0281961D02*
X0392840Y0284090D01*
X0391590Y0284090D02*
X0391590Y0289090D01*
X0396590Y0289090D01*
X0396590Y0284090D01*
X0396033Y0281961D02*
X0396089Y0281922D01*
X0396143Y0281879D01*
X0396194Y0281834D01*
X0396242Y0281786D01*
X0396288Y0281736D01*
X0396331Y0281683D01*
X0396371Y0281627D01*
X0396408Y0281570D01*
X0396442Y0281511D01*
X0396473Y0281450D01*
X0396500Y0281387D01*
X0396524Y0281323D01*
X0396544Y0281258D01*
X0396560Y0281192D01*
X0396573Y0281125D01*
X0396583Y0281057D01*
X0396588Y0280989D01*
X0396590Y0280921D01*
X0399090Y0276590D02*
X0404090Y0276590D01*
X0404090Y0271590D01*
X0399090Y0271590D01*
X0396590Y0272840D02*
X0396590Y0266590D01*
X0391590Y0266590D01*
X0391590Y0272840D01*
X0391592Y0272908D01*
X0391597Y0272975D01*
X0391606Y0273042D01*
X0391619Y0273109D01*
X0391636Y0273174D01*
X0391655Y0273239D01*
X0391679Y0273303D01*
X0391706Y0273365D01*
X0391736Y0273426D01*
X0391769Y0273484D01*
X0391805Y0273541D01*
X0391845Y0273596D01*
X0391887Y0273649D01*
X0391933Y0273700D01*
X0391980Y0273747D01*
X0392031Y0273793D01*
X0392084Y0273835D01*
X0392139Y0273875D01*
X0392196Y0273911D01*
X0392254Y0273944D01*
X0392315Y0273974D01*
X0392377Y0274001D01*
X0392441Y0274025D01*
X0392506Y0274044D01*
X0392571Y0274061D01*
X0392638Y0274074D01*
X0392705Y0274083D01*
X0392772Y0274088D01*
X0392840Y0274090D01*
X0395340Y0274090D01*
X0395408Y0274088D01*
X0395475Y0274083D01*
X0395542Y0274074D01*
X0395609Y0274061D01*
X0395674Y0274044D01*
X0395739Y0274025D01*
X0395803Y0274001D01*
X0395865Y0273974D01*
X0395926Y0273944D01*
X0395984Y0273911D01*
X0396041Y0273875D01*
X0396096Y0273835D01*
X0396149Y0273793D01*
X0396200Y0273747D01*
X0396247Y0273700D01*
X0396293Y0273649D01*
X0396335Y0273596D01*
X0396375Y0273541D01*
X0396411Y0273484D01*
X0396444Y0273426D01*
X0396474Y0273365D01*
X0396501Y0273303D01*
X0396525Y0273239D01*
X0396544Y0273174D01*
X0396561Y0273109D01*
X0396574Y0273042D01*
X0396583Y0272975D01*
X0396588Y0272908D01*
X0396590Y0272840D01*
X0396970Y0238670D02*
X0396970Y0234167D01*
X0396970Y0235668D02*
X0399972Y0238670D01*
X0397720Y0236418D02*
X0399972Y0234167D01*
X0395402Y0234167D02*
X0393900Y0234167D01*
X0394651Y0234167D02*
X0394651Y0238670D01*
X0393900Y0238670D02*
X0395402Y0238670D01*
X0392299Y0238670D02*
X0392299Y0234167D01*
X0389296Y0238670D01*
X0389296Y0234167D01*
X0387695Y0234167D02*
X0384692Y0234167D01*
X0384692Y0234917D01*
X0387695Y0237920D01*
X0387695Y0238670D01*
X0384692Y0238670D01*
X0383091Y0237920D02*
X0382340Y0238670D01*
X0380839Y0238670D01*
X0380089Y0237920D01*
X0380089Y0234917D01*
X0380839Y0234167D01*
X0382340Y0234167D01*
X0383091Y0234917D01*
X0378487Y0234167D02*
X0378487Y0237169D01*
X0376986Y0238670D01*
X0375485Y0237169D01*
X0375485Y0234167D01*
X0373883Y0234167D02*
X0370881Y0234167D01*
X0370881Y0238670D01*
X0369279Y0238670D02*
X0369279Y0234167D01*
X0367778Y0235668D01*
X0366277Y0234167D01*
X0366277Y0238670D01*
X0375485Y0236418D02*
X0378487Y0236418D01*
X0369278Y0213670D02*
X0369278Y0209167D01*
X0367777Y0209167D02*
X0370779Y0209167D01*
X0367777Y0212169D02*
X0369278Y0213670D01*
X0354769Y0210167D02*
X0351767Y0210167D01*
X0353268Y0210167D02*
X0353268Y0214670D01*
X0351767Y0213169D01*
X0334769Y0213169D02*
X0331767Y0210167D01*
X0334769Y0210167D01*
X0334769Y0213169D02*
X0334769Y0213920D01*
X0334018Y0214670D01*
X0332517Y0214670D01*
X0331767Y0213920D01*
X0404777Y0212920D02*
X0405527Y0213670D01*
X0407029Y0213670D01*
X0407779Y0212920D01*
X0407779Y0212169D01*
X0404777Y0209167D01*
X0407779Y0209167D01*
X0418958Y0209167D02*
X0421960Y0209167D01*
X0420459Y0209167D02*
X0420459Y0213670D01*
X0418958Y0212169D01*
X0417458Y0234167D02*
X0418959Y0235668D01*
X0420460Y0234167D01*
X0420460Y0238670D01*
X0422062Y0238670D02*
X0422062Y0234167D01*
X0425064Y0234167D01*
X0426666Y0234167D02*
X0426666Y0237169D01*
X0428167Y0238670D01*
X0429668Y0237169D01*
X0429668Y0234167D01*
X0431270Y0234917D02*
X0432020Y0234167D01*
X0433522Y0234167D01*
X0434272Y0234917D01*
X0435874Y0234917D02*
X0435874Y0234167D01*
X0438876Y0234167D01*
X0440477Y0234167D02*
X0440477Y0238670D01*
X0443480Y0234167D01*
X0443480Y0238670D01*
X0445081Y0238670D02*
X0446583Y0238670D01*
X0445832Y0238670D02*
X0445832Y0234167D01*
X0445081Y0234167D02*
X0446583Y0234167D01*
X0448151Y0234167D02*
X0448151Y0238670D01*
X0448901Y0236418D02*
X0451153Y0234167D01*
X0452755Y0234167D02*
X0455757Y0234167D01*
X0454256Y0234167D02*
X0454256Y0238670D01*
X0452755Y0237169D01*
X0451153Y0238670D02*
X0448151Y0235668D01*
X0438876Y0237920D02*
X0435874Y0234917D01*
X0434272Y0237920D02*
X0433522Y0238670D01*
X0432020Y0238670D01*
X0431270Y0237920D01*
X0431270Y0234917D01*
X0429668Y0236418D02*
X0426666Y0236418D01*
X0435874Y0238670D02*
X0438876Y0238670D01*
X0438876Y0237920D01*
X0417458Y0238670D02*
X0417458Y0234167D01*
X0455958Y0212920D02*
X0456709Y0213670D01*
X0458210Y0213670D01*
X0458960Y0212920D01*
X0458960Y0212169D01*
X0455958Y0209167D01*
X0458960Y0209167D01*
D15*
X0419090Y0269090D02*
X0399090Y0269090D01*
X0399090Y0271590D01*
X0399090Y0276590D01*
X0399090Y0284090D01*
X0396590Y0284090D01*
X0392840Y0284090D01*
X0391590Y0284090D01*
X0389090Y0284090D01*
X0386590Y0284090D01*
X0384090Y0284090D01*
X0381590Y0284090D01*
X0379090Y0284090D01*
X0376590Y0284090D01*
X0375340Y0284090D01*
X0371590Y0284090D01*
X0369090Y0284090D01*
X0369090Y0276590D01*
X0369090Y0271590D01*
X0369090Y0269090D01*
X0349090Y0269090D01*
X0349090Y0509090D01*
X0419090Y0509090D01*
X0419090Y0269090D01*
X0399090Y0269090D02*
X0399090Y0264090D01*
X0369090Y0264090D01*
X0369090Y0269090D01*
X0399090Y0299090D02*
X0399092Y0299189D01*
X0399098Y0299289D01*
X0399108Y0299388D01*
X0399122Y0299486D01*
X0399139Y0299584D01*
X0399161Y0299681D01*
X0399186Y0299777D01*
X0399215Y0299872D01*
X0399248Y0299966D01*
X0399285Y0300058D01*
X0399325Y0300149D01*
X0399369Y0300238D01*
X0399417Y0300326D01*
X0399468Y0300411D01*
X0399522Y0300494D01*
X0399579Y0300576D01*
X0399640Y0300654D01*
X0399704Y0300731D01*
X0399770Y0300804D01*
X0399840Y0300875D01*
X0399912Y0300943D01*
X0399987Y0301009D01*
X0400065Y0301071D01*
X0400145Y0301130D01*
X0400227Y0301186D01*
X0400311Y0301238D01*
X0400398Y0301287D01*
X0400486Y0301333D01*
X0400576Y0301375D01*
X0400668Y0301414D01*
X0400761Y0301449D01*
X0400855Y0301480D01*
X0400951Y0301507D01*
X0401048Y0301530D01*
X0401145Y0301550D01*
X0401243Y0301566D01*
X0401342Y0301578D01*
X0401441Y0301586D01*
X0401540Y0301590D01*
X0401640Y0301590D01*
X0401739Y0301586D01*
X0401838Y0301578D01*
X0401937Y0301566D01*
X0402035Y0301550D01*
X0402132Y0301530D01*
X0402229Y0301507D01*
X0402325Y0301480D01*
X0402419Y0301449D01*
X0402512Y0301414D01*
X0402604Y0301375D01*
X0402694Y0301333D01*
X0402782Y0301287D01*
X0402869Y0301238D01*
X0402953Y0301186D01*
X0403035Y0301130D01*
X0403115Y0301071D01*
X0403193Y0301009D01*
X0403268Y0300943D01*
X0403340Y0300875D01*
X0403410Y0300804D01*
X0403476Y0300731D01*
X0403540Y0300654D01*
X0403601Y0300576D01*
X0403658Y0300494D01*
X0403712Y0300411D01*
X0403763Y0300326D01*
X0403811Y0300238D01*
X0403855Y0300149D01*
X0403895Y0300058D01*
X0403932Y0299966D01*
X0403965Y0299872D01*
X0403994Y0299777D01*
X0404019Y0299681D01*
X0404041Y0299584D01*
X0404058Y0299486D01*
X0404072Y0299388D01*
X0404082Y0299289D01*
X0404088Y0299189D01*
X0404090Y0299090D01*
X0404088Y0298991D01*
X0404082Y0298891D01*
X0404072Y0298792D01*
X0404058Y0298694D01*
X0404041Y0298596D01*
X0404019Y0298499D01*
X0403994Y0298403D01*
X0403965Y0298308D01*
X0403932Y0298214D01*
X0403895Y0298122D01*
X0403855Y0298031D01*
X0403811Y0297942D01*
X0403763Y0297854D01*
X0403712Y0297769D01*
X0403658Y0297686D01*
X0403601Y0297604D01*
X0403540Y0297526D01*
X0403476Y0297449D01*
X0403410Y0297376D01*
X0403340Y0297305D01*
X0403268Y0297237D01*
X0403193Y0297171D01*
X0403115Y0297109D01*
X0403035Y0297050D01*
X0402953Y0296994D01*
X0402869Y0296942D01*
X0402782Y0296893D01*
X0402694Y0296847D01*
X0402604Y0296805D01*
X0402512Y0296766D01*
X0402419Y0296731D01*
X0402325Y0296700D01*
X0402229Y0296673D01*
X0402132Y0296650D01*
X0402035Y0296630D01*
X0401937Y0296614D01*
X0401838Y0296602D01*
X0401739Y0296594D01*
X0401640Y0296590D01*
X0401540Y0296590D01*
X0401441Y0296594D01*
X0401342Y0296602D01*
X0401243Y0296614D01*
X0401145Y0296630D01*
X0401048Y0296650D01*
X0400951Y0296673D01*
X0400855Y0296700D01*
X0400761Y0296731D01*
X0400668Y0296766D01*
X0400576Y0296805D01*
X0400486Y0296847D01*
X0400398Y0296893D01*
X0400311Y0296942D01*
X0400227Y0296994D01*
X0400145Y0297050D01*
X0400065Y0297109D01*
X0399987Y0297171D01*
X0399912Y0297237D01*
X0399840Y0297305D01*
X0399770Y0297376D01*
X0399704Y0297449D01*
X0399640Y0297526D01*
X0399579Y0297604D01*
X0399522Y0297686D01*
X0399468Y0297769D01*
X0399417Y0297854D01*
X0399369Y0297942D01*
X0399325Y0298031D01*
X0399285Y0298122D01*
X0399248Y0298214D01*
X0399215Y0298308D01*
X0399186Y0298403D01*
X0399161Y0298499D01*
X0399139Y0298596D01*
X0399122Y0298694D01*
X0399108Y0298792D01*
X0399098Y0298891D01*
X0399092Y0298991D01*
X0399090Y0299090D01*
X0399090Y0309090D02*
X0399092Y0309189D01*
X0399098Y0309289D01*
X0399108Y0309388D01*
X0399122Y0309486D01*
X0399139Y0309584D01*
X0399161Y0309681D01*
X0399186Y0309777D01*
X0399215Y0309872D01*
X0399248Y0309966D01*
X0399285Y0310058D01*
X0399325Y0310149D01*
X0399369Y0310238D01*
X0399417Y0310326D01*
X0399468Y0310411D01*
X0399522Y0310494D01*
X0399579Y0310576D01*
X0399640Y0310654D01*
X0399704Y0310731D01*
X0399770Y0310804D01*
X0399840Y0310875D01*
X0399912Y0310943D01*
X0399987Y0311009D01*
X0400065Y0311071D01*
X0400145Y0311130D01*
X0400227Y0311186D01*
X0400311Y0311238D01*
X0400398Y0311287D01*
X0400486Y0311333D01*
X0400576Y0311375D01*
X0400668Y0311414D01*
X0400761Y0311449D01*
X0400855Y0311480D01*
X0400951Y0311507D01*
X0401048Y0311530D01*
X0401145Y0311550D01*
X0401243Y0311566D01*
X0401342Y0311578D01*
X0401441Y0311586D01*
X0401540Y0311590D01*
X0401640Y0311590D01*
X0401739Y0311586D01*
X0401838Y0311578D01*
X0401937Y0311566D01*
X0402035Y0311550D01*
X0402132Y0311530D01*
X0402229Y0311507D01*
X0402325Y0311480D01*
X0402419Y0311449D01*
X0402512Y0311414D01*
X0402604Y0311375D01*
X0402694Y0311333D01*
X0402782Y0311287D01*
X0402869Y0311238D01*
X0402953Y0311186D01*
X0403035Y0311130D01*
X0403115Y0311071D01*
X0403193Y0311009D01*
X0403268Y0310943D01*
X0403340Y0310875D01*
X0403410Y0310804D01*
X0403476Y0310731D01*
X0403540Y0310654D01*
X0403601Y0310576D01*
X0403658Y0310494D01*
X0403712Y0310411D01*
X0403763Y0310326D01*
X0403811Y0310238D01*
X0403855Y0310149D01*
X0403895Y0310058D01*
X0403932Y0309966D01*
X0403965Y0309872D01*
X0403994Y0309777D01*
X0404019Y0309681D01*
X0404041Y0309584D01*
X0404058Y0309486D01*
X0404072Y0309388D01*
X0404082Y0309289D01*
X0404088Y0309189D01*
X0404090Y0309090D01*
X0404088Y0308991D01*
X0404082Y0308891D01*
X0404072Y0308792D01*
X0404058Y0308694D01*
X0404041Y0308596D01*
X0404019Y0308499D01*
X0403994Y0308403D01*
X0403965Y0308308D01*
X0403932Y0308214D01*
X0403895Y0308122D01*
X0403855Y0308031D01*
X0403811Y0307942D01*
X0403763Y0307854D01*
X0403712Y0307769D01*
X0403658Y0307686D01*
X0403601Y0307604D01*
X0403540Y0307526D01*
X0403476Y0307449D01*
X0403410Y0307376D01*
X0403340Y0307305D01*
X0403268Y0307237D01*
X0403193Y0307171D01*
X0403115Y0307109D01*
X0403035Y0307050D01*
X0402953Y0306994D01*
X0402869Y0306942D01*
X0402782Y0306893D01*
X0402694Y0306847D01*
X0402604Y0306805D01*
X0402512Y0306766D01*
X0402419Y0306731D01*
X0402325Y0306700D01*
X0402229Y0306673D01*
X0402132Y0306650D01*
X0402035Y0306630D01*
X0401937Y0306614D01*
X0401838Y0306602D01*
X0401739Y0306594D01*
X0401640Y0306590D01*
X0401540Y0306590D01*
X0401441Y0306594D01*
X0401342Y0306602D01*
X0401243Y0306614D01*
X0401145Y0306630D01*
X0401048Y0306650D01*
X0400951Y0306673D01*
X0400855Y0306700D01*
X0400761Y0306731D01*
X0400668Y0306766D01*
X0400576Y0306805D01*
X0400486Y0306847D01*
X0400398Y0306893D01*
X0400311Y0306942D01*
X0400227Y0306994D01*
X0400145Y0307050D01*
X0400065Y0307109D01*
X0399987Y0307171D01*
X0399912Y0307237D01*
X0399840Y0307305D01*
X0399770Y0307376D01*
X0399704Y0307449D01*
X0399640Y0307526D01*
X0399579Y0307604D01*
X0399522Y0307686D01*
X0399468Y0307769D01*
X0399417Y0307854D01*
X0399369Y0307942D01*
X0399325Y0308031D01*
X0399285Y0308122D01*
X0399248Y0308214D01*
X0399215Y0308308D01*
X0399186Y0308403D01*
X0399161Y0308499D01*
X0399139Y0308596D01*
X0399122Y0308694D01*
X0399108Y0308792D01*
X0399098Y0308891D01*
X0399092Y0308991D01*
X0399090Y0309090D01*
X0399090Y0319090D02*
X0399092Y0319189D01*
X0399098Y0319289D01*
X0399108Y0319388D01*
X0399122Y0319486D01*
X0399139Y0319584D01*
X0399161Y0319681D01*
X0399186Y0319777D01*
X0399215Y0319872D01*
X0399248Y0319966D01*
X0399285Y0320058D01*
X0399325Y0320149D01*
X0399369Y0320238D01*
X0399417Y0320326D01*
X0399468Y0320411D01*
X0399522Y0320494D01*
X0399579Y0320576D01*
X0399640Y0320654D01*
X0399704Y0320731D01*
X0399770Y0320804D01*
X0399840Y0320875D01*
X0399912Y0320943D01*
X0399987Y0321009D01*
X0400065Y0321071D01*
X0400145Y0321130D01*
X0400227Y0321186D01*
X0400311Y0321238D01*
X0400398Y0321287D01*
X0400486Y0321333D01*
X0400576Y0321375D01*
X0400668Y0321414D01*
X0400761Y0321449D01*
X0400855Y0321480D01*
X0400951Y0321507D01*
X0401048Y0321530D01*
X0401145Y0321550D01*
X0401243Y0321566D01*
X0401342Y0321578D01*
X0401441Y0321586D01*
X0401540Y0321590D01*
X0401640Y0321590D01*
X0401739Y0321586D01*
X0401838Y0321578D01*
X0401937Y0321566D01*
X0402035Y0321550D01*
X0402132Y0321530D01*
X0402229Y0321507D01*
X0402325Y0321480D01*
X0402419Y0321449D01*
X0402512Y0321414D01*
X0402604Y0321375D01*
X0402694Y0321333D01*
X0402782Y0321287D01*
X0402869Y0321238D01*
X0402953Y0321186D01*
X0403035Y0321130D01*
X0403115Y0321071D01*
X0403193Y0321009D01*
X0403268Y0320943D01*
X0403340Y0320875D01*
X0403410Y0320804D01*
X0403476Y0320731D01*
X0403540Y0320654D01*
X0403601Y0320576D01*
X0403658Y0320494D01*
X0403712Y0320411D01*
X0403763Y0320326D01*
X0403811Y0320238D01*
X0403855Y0320149D01*
X0403895Y0320058D01*
X0403932Y0319966D01*
X0403965Y0319872D01*
X0403994Y0319777D01*
X0404019Y0319681D01*
X0404041Y0319584D01*
X0404058Y0319486D01*
X0404072Y0319388D01*
X0404082Y0319289D01*
X0404088Y0319189D01*
X0404090Y0319090D01*
X0404088Y0318991D01*
X0404082Y0318891D01*
X0404072Y0318792D01*
X0404058Y0318694D01*
X0404041Y0318596D01*
X0404019Y0318499D01*
X0403994Y0318403D01*
X0403965Y0318308D01*
X0403932Y0318214D01*
X0403895Y0318122D01*
X0403855Y0318031D01*
X0403811Y0317942D01*
X0403763Y0317854D01*
X0403712Y0317769D01*
X0403658Y0317686D01*
X0403601Y0317604D01*
X0403540Y0317526D01*
X0403476Y0317449D01*
X0403410Y0317376D01*
X0403340Y0317305D01*
X0403268Y0317237D01*
X0403193Y0317171D01*
X0403115Y0317109D01*
X0403035Y0317050D01*
X0402953Y0316994D01*
X0402869Y0316942D01*
X0402782Y0316893D01*
X0402694Y0316847D01*
X0402604Y0316805D01*
X0402512Y0316766D01*
X0402419Y0316731D01*
X0402325Y0316700D01*
X0402229Y0316673D01*
X0402132Y0316650D01*
X0402035Y0316630D01*
X0401937Y0316614D01*
X0401838Y0316602D01*
X0401739Y0316594D01*
X0401640Y0316590D01*
X0401540Y0316590D01*
X0401441Y0316594D01*
X0401342Y0316602D01*
X0401243Y0316614D01*
X0401145Y0316630D01*
X0401048Y0316650D01*
X0400951Y0316673D01*
X0400855Y0316700D01*
X0400761Y0316731D01*
X0400668Y0316766D01*
X0400576Y0316805D01*
X0400486Y0316847D01*
X0400398Y0316893D01*
X0400311Y0316942D01*
X0400227Y0316994D01*
X0400145Y0317050D01*
X0400065Y0317109D01*
X0399987Y0317171D01*
X0399912Y0317237D01*
X0399840Y0317305D01*
X0399770Y0317376D01*
X0399704Y0317449D01*
X0399640Y0317526D01*
X0399579Y0317604D01*
X0399522Y0317686D01*
X0399468Y0317769D01*
X0399417Y0317854D01*
X0399369Y0317942D01*
X0399325Y0318031D01*
X0399285Y0318122D01*
X0399248Y0318214D01*
X0399215Y0318308D01*
X0399186Y0318403D01*
X0399161Y0318499D01*
X0399139Y0318596D01*
X0399122Y0318694D01*
X0399108Y0318792D01*
X0399098Y0318891D01*
X0399092Y0318991D01*
X0399090Y0319090D01*
X0399090Y0329090D02*
X0399092Y0329189D01*
X0399098Y0329289D01*
X0399108Y0329388D01*
X0399122Y0329486D01*
X0399139Y0329584D01*
X0399161Y0329681D01*
X0399186Y0329777D01*
X0399215Y0329872D01*
X0399248Y0329966D01*
X0399285Y0330058D01*
X0399325Y0330149D01*
X0399369Y0330238D01*
X0399417Y0330326D01*
X0399468Y0330411D01*
X0399522Y0330494D01*
X0399579Y0330576D01*
X0399640Y0330654D01*
X0399704Y0330731D01*
X0399770Y0330804D01*
X0399840Y0330875D01*
X0399912Y0330943D01*
X0399987Y0331009D01*
X0400065Y0331071D01*
X0400145Y0331130D01*
X0400227Y0331186D01*
X0400311Y0331238D01*
X0400398Y0331287D01*
X0400486Y0331333D01*
X0400576Y0331375D01*
X0400668Y0331414D01*
X0400761Y0331449D01*
X0400855Y0331480D01*
X0400951Y0331507D01*
X0401048Y0331530D01*
X0401145Y0331550D01*
X0401243Y0331566D01*
X0401342Y0331578D01*
X0401441Y0331586D01*
X0401540Y0331590D01*
X0401640Y0331590D01*
X0401739Y0331586D01*
X0401838Y0331578D01*
X0401937Y0331566D01*
X0402035Y0331550D01*
X0402132Y0331530D01*
X0402229Y0331507D01*
X0402325Y0331480D01*
X0402419Y0331449D01*
X0402512Y0331414D01*
X0402604Y0331375D01*
X0402694Y0331333D01*
X0402782Y0331287D01*
X0402869Y0331238D01*
X0402953Y0331186D01*
X0403035Y0331130D01*
X0403115Y0331071D01*
X0403193Y0331009D01*
X0403268Y0330943D01*
X0403340Y0330875D01*
X0403410Y0330804D01*
X0403476Y0330731D01*
X0403540Y0330654D01*
X0403601Y0330576D01*
X0403658Y0330494D01*
X0403712Y0330411D01*
X0403763Y0330326D01*
X0403811Y0330238D01*
X0403855Y0330149D01*
X0403895Y0330058D01*
X0403932Y0329966D01*
X0403965Y0329872D01*
X0403994Y0329777D01*
X0404019Y0329681D01*
X0404041Y0329584D01*
X0404058Y0329486D01*
X0404072Y0329388D01*
X0404082Y0329289D01*
X0404088Y0329189D01*
X0404090Y0329090D01*
X0404088Y0328991D01*
X0404082Y0328891D01*
X0404072Y0328792D01*
X0404058Y0328694D01*
X0404041Y0328596D01*
X0404019Y0328499D01*
X0403994Y0328403D01*
X0403965Y0328308D01*
X0403932Y0328214D01*
X0403895Y0328122D01*
X0403855Y0328031D01*
X0403811Y0327942D01*
X0403763Y0327854D01*
X0403712Y0327769D01*
X0403658Y0327686D01*
X0403601Y0327604D01*
X0403540Y0327526D01*
X0403476Y0327449D01*
X0403410Y0327376D01*
X0403340Y0327305D01*
X0403268Y0327237D01*
X0403193Y0327171D01*
X0403115Y0327109D01*
X0403035Y0327050D01*
X0402953Y0326994D01*
X0402869Y0326942D01*
X0402782Y0326893D01*
X0402694Y0326847D01*
X0402604Y0326805D01*
X0402512Y0326766D01*
X0402419Y0326731D01*
X0402325Y0326700D01*
X0402229Y0326673D01*
X0402132Y0326650D01*
X0402035Y0326630D01*
X0401937Y0326614D01*
X0401838Y0326602D01*
X0401739Y0326594D01*
X0401640Y0326590D01*
X0401540Y0326590D01*
X0401441Y0326594D01*
X0401342Y0326602D01*
X0401243Y0326614D01*
X0401145Y0326630D01*
X0401048Y0326650D01*
X0400951Y0326673D01*
X0400855Y0326700D01*
X0400761Y0326731D01*
X0400668Y0326766D01*
X0400576Y0326805D01*
X0400486Y0326847D01*
X0400398Y0326893D01*
X0400311Y0326942D01*
X0400227Y0326994D01*
X0400145Y0327050D01*
X0400065Y0327109D01*
X0399987Y0327171D01*
X0399912Y0327237D01*
X0399840Y0327305D01*
X0399770Y0327376D01*
X0399704Y0327449D01*
X0399640Y0327526D01*
X0399579Y0327604D01*
X0399522Y0327686D01*
X0399468Y0327769D01*
X0399417Y0327854D01*
X0399369Y0327942D01*
X0399325Y0328031D01*
X0399285Y0328122D01*
X0399248Y0328214D01*
X0399215Y0328308D01*
X0399186Y0328403D01*
X0399161Y0328499D01*
X0399139Y0328596D01*
X0399122Y0328694D01*
X0399108Y0328792D01*
X0399098Y0328891D01*
X0399092Y0328991D01*
X0399090Y0329090D01*
X0399090Y0339090D02*
X0399092Y0339189D01*
X0399098Y0339289D01*
X0399108Y0339388D01*
X0399122Y0339486D01*
X0399139Y0339584D01*
X0399161Y0339681D01*
X0399186Y0339777D01*
X0399215Y0339872D01*
X0399248Y0339966D01*
X0399285Y0340058D01*
X0399325Y0340149D01*
X0399369Y0340238D01*
X0399417Y0340326D01*
X0399468Y0340411D01*
X0399522Y0340494D01*
X0399579Y0340576D01*
X0399640Y0340654D01*
X0399704Y0340731D01*
X0399770Y0340804D01*
X0399840Y0340875D01*
X0399912Y0340943D01*
X0399987Y0341009D01*
X0400065Y0341071D01*
X0400145Y0341130D01*
X0400227Y0341186D01*
X0400311Y0341238D01*
X0400398Y0341287D01*
X0400486Y0341333D01*
X0400576Y0341375D01*
X0400668Y0341414D01*
X0400761Y0341449D01*
X0400855Y0341480D01*
X0400951Y0341507D01*
X0401048Y0341530D01*
X0401145Y0341550D01*
X0401243Y0341566D01*
X0401342Y0341578D01*
X0401441Y0341586D01*
X0401540Y0341590D01*
X0401640Y0341590D01*
X0401739Y0341586D01*
X0401838Y0341578D01*
X0401937Y0341566D01*
X0402035Y0341550D01*
X0402132Y0341530D01*
X0402229Y0341507D01*
X0402325Y0341480D01*
X0402419Y0341449D01*
X0402512Y0341414D01*
X0402604Y0341375D01*
X0402694Y0341333D01*
X0402782Y0341287D01*
X0402869Y0341238D01*
X0402953Y0341186D01*
X0403035Y0341130D01*
X0403115Y0341071D01*
X0403193Y0341009D01*
X0403268Y0340943D01*
X0403340Y0340875D01*
X0403410Y0340804D01*
X0403476Y0340731D01*
X0403540Y0340654D01*
X0403601Y0340576D01*
X0403658Y0340494D01*
X0403712Y0340411D01*
X0403763Y0340326D01*
X0403811Y0340238D01*
X0403855Y0340149D01*
X0403895Y0340058D01*
X0403932Y0339966D01*
X0403965Y0339872D01*
X0403994Y0339777D01*
X0404019Y0339681D01*
X0404041Y0339584D01*
X0404058Y0339486D01*
X0404072Y0339388D01*
X0404082Y0339289D01*
X0404088Y0339189D01*
X0404090Y0339090D01*
X0404088Y0338991D01*
X0404082Y0338891D01*
X0404072Y0338792D01*
X0404058Y0338694D01*
X0404041Y0338596D01*
X0404019Y0338499D01*
X0403994Y0338403D01*
X0403965Y0338308D01*
X0403932Y0338214D01*
X0403895Y0338122D01*
X0403855Y0338031D01*
X0403811Y0337942D01*
X0403763Y0337854D01*
X0403712Y0337769D01*
X0403658Y0337686D01*
X0403601Y0337604D01*
X0403540Y0337526D01*
X0403476Y0337449D01*
X0403410Y0337376D01*
X0403340Y0337305D01*
X0403268Y0337237D01*
X0403193Y0337171D01*
X0403115Y0337109D01*
X0403035Y0337050D01*
X0402953Y0336994D01*
X0402869Y0336942D01*
X0402782Y0336893D01*
X0402694Y0336847D01*
X0402604Y0336805D01*
X0402512Y0336766D01*
X0402419Y0336731D01*
X0402325Y0336700D01*
X0402229Y0336673D01*
X0402132Y0336650D01*
X0402035Y0336630D01*
X0401937Y0336614D01*
X0401838Y0336602D01*
X0401739Y0336594D01*
X0401640Y0336590D01*
X0401540Y0336590D01*
X0401441Y0336594D01*
X0401342Y0336602D01*
X0401243Y0336614D01*
X0401145Y0336630D01*
X0401048Y0336650D01*
X0400951Y0336673D01*
X0400855Y0336700D01*
X0400761Y0336731D01*
X0400668Y0336766D01*
X0400576Y0336805D01*
X0400486Y0336847D01*
X0400398Y0336893D01*
X0400311Y0336942D01*
X0400227Y0336994D01*
X0400145Y0337050D01*
X0400065Y0337109D01*
X0399987Y0337171D01*
X0399912Y0337237D01*
X0399840Y0337305D01*
X0399770Y0337376D01*
X0399704Y0337449D01*
X0399640Y0337526D01*
X0399579Y0337604D01*
X0399522Y0337686D01*
X0399468Y0337769D01*
X0399417Y0337854D01*
X0399369Y0337942D01*
X0399325Y0338031D01*
X0399285Y0338122D01*
X0399248Y0338214D01*
X0399215Y0338308D01*
X0399186Y0338403D01*
X0399161Y0338499D01*
X0399139Y0338596D01*
X0399122Y0338694D01*
X0399108Y0338792D01*
X0399098Y0338891D01*
X0399092Y0338991D01*
X0399090Y0339090D01*
X0408090Y0369090D02*
X0360090Y0369090D01*
X0360030Y0369092D01*
X0359969Y0369097D01*
X0359910Y0369106D01*
X0359851Y0369119D01*
X0359792Y0369135D01*
X0359735Y0369155D01*
X0359680Y0369178D01*
X0359625Y0369205D01*
X0359573Y0369234D01*
X0359522Y0369267D01*
X0359473Y0369303D01*
X0359427Y0369341D01*
X0359383Y0369383D01*
X0359341Y0369427D01*
X0359303Y0369473D01*
X0359267Y0369522D01*
X0359234Y0369573D01*
X0359205Y0369625D01*
X0359178Y0369680D01*
X0359155Y0369735D01*
X0359135Y0369792D01*
X0359119Y0369851D01*
X0359106Y0369910D01*
X0359097Y0369969D01*
X0359092Y0370030D01*
X0359090Y0370090D01*
X0359090Y0418090D01*
X0359092Y0418150D01*
X0359097Y0418211D01*
X0359106Y0418270D01*
X0359119Y0418329D01*
X0359135Y0418388D01*
X0359155Y0418445D01*
X0359178Y0418500D01*
X0359205Y0418555D01*
X0359234Y0418607D01*
X0359267Y0418658D01*
X0359303Y0418707D01*
X0359341Y0418753D01*
X0359383Y0418797D01*
X0359427Y0418839D01*
X0359473Y0418877D01*
X0359522Y0418913D01*
X0359573Y0418946D01*
X0359625Y0418975D01*
X0359680Y0419002D01*
X0359735Y0419025D01*
X0359792Y0419045D01*
X0359851Y0419061D01*
X0359910Y0419074D01*
X0359969Y0419083D01*
X0360030Y0419088D01*
X0360090Y0419090D01*
X0408090Y0419090D01*
X0408150Y0419088D01*
X0408211Y0419083D01*
X0408270Y0419074D01*
X0408329Y0419061D01*
X0408388Y0419045D01*
X0408445Y0419025D01*
X0408500Y0419002D01*
X0408555Y0418975D01*
X0408607Y0418946D01*
X0408658Y0418913D01*
X0408707Y0418877D01*
X0408753Y0418839D01*
X0408797Y0418797D01*
X0408839Y0418753D01*
X0408877Y0418707D01*
X0408913Y0418658D01*
X0408946Y0418607D01*
X0408975Y0418555D01*
X0409002Y0418500D01*
X0409025Y0418445D01*
X0409045Y0418388D01*
X0409061Y0418329D01*
X0409074Y0418270D01*
X0409083Y0418211D01*
X0409088Y0418150D01*
X0409090Y0418090D01*
X0409090Y0370090D01*
X0409088Y0370030D01*
X0409083Y0369969D01*
X0409074Y0369910D01*
X0409061Y0369851D01*
X0409045Y0369792D01*
X0409025Y0369735D01*
X0409002Y0369680D01*
X0408975Y0369625D01*
X0408946Y0369573D01*
X0408913Y0369522D01*
X0408877Y0369473D01*
X0408839Y0369427D01*
X0408797Y0369383D01*
X0408753Y0369341D01*
X0408707Y0369303D01*
X0408658Y0369267D01*
X0408607Y0369234D01*
X0408555Y0369205D01*
X0408500Y0369178D01*
X0408445Y0369155D01*
X0408388Y0369135D01*
X0408329Y0369119D01*
X0408270Y0369106D01*
X0408211Y0369097D01*
X0408150Y0369092D01*
X0408090Y0369090D01*
X0386590Y0436590D02*
X0381590Y0436590D01*
X0376590Y0441590D02*
X0376592Y0441730D01*
X0376598Y0441870D01*
X0376608Y0442010D01*
X0376621Y0442150D01*
X0376639Y0442289D01*
X0376661Y0442428D01*
X0376686Y0442565D01*
X0376715Y0442703D01*
X0376748Y0442839D01*
X0376785Y0442974D01*
X0376826Y0443108D01*
X0376871Y0443241D01*
X0376919Y0443373D01*
X0376971Y0443503D01*
X0377026Y0443632D01*
X0377085Y0443759D01*
X0377148Y0443885D01*
X0377214Y0444009D01*
X0377283Y0444130D01*
X0377356Y0444250D01*
X0377433Y0444368D01*
X0377512Y0444483D01*
X0377595Y0444597D01*
X0377681Y0444707D01*
X0377770Y0444816D01*
X0377862Y0444922D01*
X0377957Y0445025D01*
X0378054Y0445126D01*
X0378155Y0445223D01*
X0378258Y0445318D01*
X0378364Y0445410D01*
X0378473Y0445499D01*
X0378583Y0445585D01*
X0378697Y0445668D01*
X0378812Y0445747D01*
X0378930Y0445824D01*
X0379050Y0445897D01*
X0379171Y0445966D01*
X0379295Y0446032D01*
X0379421Y0446095D01*
X0379548Y0446154D01*
X0379677Y0446209D01*
X0379807Y0446261D01*
X0379939Y0446309D01*
X0380072Y0446354D01*
X0380206Y0446395D01*
X0380341Y0446432D01*
X0380477Y0446465D01*
X0380615Y0446494D01*
X0380752Y0446519D01*
X0380891Y0446541D01*
X0381030Y0446559D01*
X0381170Y0446572D01*
X0381310Y0446582D01*
X0381450Y0446588D01*
X0381590Y0446590D01*
X0386590Y0446590D01*
X0386730Y0446588D01*
X0386870Y0446582D01*
X0387010Y0446572D01*
X0387150Y0446559D01*
X0387289Y0446541D01*
X0387428Y0446519D01*
X0387565Y0446494D01*
X0387703Y0446465D01*
X0387839Y0446432D01*
X0387974Y0446395D01*
X0388108Y0446354D01*
X0388241Y0446309D01*
X0388373Y0446261D01*
X0388503Y0446209D01*
X0388632Y0446154D01*
X0388759Y0446095D01*
X0388885Y0446032D01*
X0389009Y0445966D01*
X0389130Y0445897D01*
X0389250Y0445824D01*
X0389368Y0445747D01*
X0389483Y0445668D01*
X0389597Y0445585D01*
X0389707Y0445499D01*
X0389816Y0445410D01*
X0389922Y0445318D01*
X0390025Y0445223D01*
X0390126Y0445126D01*
X0390223Y0445025D01*
X0390318Y0444922D01*
X0390410Y0444816D01*
X0390499Y0444707D01*
X0390585Y0444597D01*
X0390668Y0444483D01*
X0390747Y0444368D01*
X0390824Y0444250D01*
X0390897Y0444130D01*
X0390966Y0444009D01*
X0391032Y0443885D01*
X0391095Y0443759D01*
X0391154Y0443632D01*
X0391209Y0443503D01*
X0391261Y0443373D01*
X0391309Y0443241D01*
X0391354Y0443108D01*
X0391395Y0442974D01*
X0391432Y0442839D01*
X0391465Y0442703D01*
X0391494Y0442565D01*
X0391519Y0442428D01*
X0391541Y0442289D01*
X0391559Y0442150D01*
X0391572Y0442010D01*
X0391582Y0441870D01*
X0391588Y0441730D01*
X0391590Y0441590D01*
X0391588Y0441450D01*
X0391582Y0441310D01*
X0391572Y0441170D01*
X0391559Y0441030D01*
X0391541Y0440891D01*
X0391519Y0440752D01*
X0391494Y0440615D01*
X0391465Y0440477D01*
X0391432Y0440341D01*
X0391395Y0440206D01*
X0391354Y0440072D01*
X0391309Y0439939D01*
X0391261Y0439807D01*
X0391209Y0439677D01*
X0391154Y0439548D01*
X0391095Y0439421D01*
X0391032Y0439295D01*
X0390966Y0439171D01*
X0390897Y0439050D01*
X0390824Y0438930D01*
X0390747Y0438812D01*
X0390668Y0438697D01*
X0390585Y0438583D01*
X0390499Y0438473D01*
X0390410Y0438364D01*
X0390318Y0438258D01*
X0390223Y0438155D01*
X0390126Y0438054D01*
X0390025Y0437957D01*
X0389922Y0437862D01*
X0389816Y0437770D01*
X0389707Y0437681D01*
X0389597Y0437595D01*
X0389483Y0437512D01*
X0389368Y0437433D01*
X0389250Y0437356D01*
X0389130Y0437283D01*
X0389009Y0437214D01*
X0388885Y0437148D01*
X0388759Y0437085D01*
X0388632Y0437026D01*
X0388503Y0436971D01*
X0388373Y0436919D01*
X0388241Y0436871D01*
X0388108Y0436826D01*
X0387974Y0436785D01*
X0387839Y0436748D01*
X0387703Y0436715D01*
X0387565Y0436686D01*
X0387428Y0436661D01*
X0387289Y0436639D01*
X0387150Y0436621D01*
X0387010Y0436608D01*
X0386870Y0436598D01*
X0386730Y0436592D01*
X0386590Y0436590D01*
X0381590Y0436590D02*
X0381450Y0436592D01*
X0381310Y0436598D01*
X0381170Y0436608D01*
X0381030Y0436621D01*
X0380891Y0436639D01*
X0380752Y0436661D01*
X0380615Y0436686D01*
X0380477Y0436715D01*
X0380341Y0436748D01*
X0380206Y0436785D01*
X0380072Y0436826D01*
X0379939Y0436871D01*
X0379807Y0436919D01*
X0379677Y0436971D01*
X0379548Y0437026D01*
X0379421Y0437085D01*
X0379295Y0437148D01*
X0379171Y0437214D01*
X0379050Y0437283D01*
X0378930Y0437356D01*
X0378812Y0437433D01*
X0378697Y0437512D01*
X0378583Y0437595D01*
X0378473Y0437681D01*
X0378364Y0437770D01*
X0378258Y0437862D01*
X0378155Y0437957D01*
X0378054Y0438054D01*
X0377957Y0438155D01*
X0377862Y0438258D01*
X0377770Y0438364D01*
X0377681Y0438473D01*
X0377595Y0438583D01*
X0377512Y0438697D01*
X0377433Y0438812D01*
X0377356Y0438930D01*
X0377283Y0439050D01*
X0377214Y0439171D01*
X0377148Y0439295D01*
X0377085Y0439421D01*
X0377026Y0439548D01*
X0376971Y0439677D01*
X0376919Y0439807D01*
X0376871Y0439939D01*
X0376826Y0440072D01*
X0376785Y0440206D01*
X0376748Y0440341D01*
X0376715Y0440477D01*
X0376686Y0440615D01*
X0376661Y0440752D01*
X0376639Y0440891D01*
X0376621Y0441030D01*
X0376608Y0441170D01*
X0376598Y0441310D01*
X0376592Y0441450D01*
X0376590Y0441590D01*
X0371590Y0454090D02*
X0371592Y0454189D01*
X0371598Y0454289D01*
X0371608Y0454388D01*
X0371622Y0454486D01*
X0371639Y0454584D01*
X0371661Y0454681D01*
X0371686Y0454777D01*
X0371715Y0454872D01*
X0371748Y0454966D01*
X0371785Y0455058D01*
X0371825Y0455149D01*
X0371869Y0455238D01*
X0371917Y0455326D01*
X0371968Y0455411D01*
X0372022Y0455494D01*
X0372079Y0455576D01*
X0372140Y0455654D01*
X0372204Y0455731D01*
X0372270Y0455804D01*
X0372340Y0455875D01*
X0372412Y0455943D01*
X0372487Y0456009D01*
X0372565Y0456071D01*
X0372645Y0456130D01*
X0372727Y0456186D01*
X0372811Y0456238D01*
X0372898Y0456287D01*
X0372986Y0456333D01*
X0373076Y0456375D01*
X0373168Y0456414D01*
X0373261Y0456449D01*
X0373355Y0456480D01*
X0373451Y0456507D01*
X0373548Y0456530D01*
X0373645Y0456550D01*
X0373743Y0456566D01*
X0373842Y0456578D01*
X0373941Y0456586D01*
X0374040Y0456590D01*
X0374140Y0456590D01*
X0374239Y0456586D01*
X0374338Y0456578D01*
X0374437Y0456566D01*
X0374535Y0456550D01*
X0374632Y0456530D01*
X0374729Y0456507D01*
X0374825Y0456480D01*
X0374919Y0456449D01*
X0375012Y0456414D01*
X0375104Y0456375D01*
X0375194Y0456333D01*
X0375282Y0456287D01*
X0375369Y0456238D01*
X0375453Y0456186D01*
X0375535Y0456130D01*
X0375615Y0456071D01*
X0375693Y0456009D01*
X0375768Y0455943D01*
X0375840Y0455875D01*
X0375910Y0455804D01*
X0375976Y0455731D01*
X0376040Y0455654D01*
X0376101Y0455576D01*
X0376158Y0455494D01*
X0376212Y0455411D01*
X0376263Y0455326D01*
X0376311Y0455238D01*
X0376355Y0455149D01*
X0376395Y0455058D01*
X0376432Y0454966D01*
X0376465Y0454872D01*
X0376494Y0454777D01*
X0376519Y0454681D01*
X0376541Y0454584D01*
X0376558Y0454486D01*
X0376572Y0454388D01*
X0376582Y0454289D01*
X0376588Y0454189D01*
X0376590Y0454090D01*
X0376588Y0453991D01*
X0376582Y0453891D01*
X0376572Y0453792D01*
X0376558Y0453694D01*
X0376541Y0453596D01*
X0376519Y0453499D01*
X0376494Y0453403D01*
X0376465Y0453308D01*
X0376432Y0453214D01*
X0376395Y0453122D01*
X0376355Y0453031D01*
X0376311Y0452942D01*
X0376263Y0452854D01*
X0376212Y0452769D01*
X0376158Y0452686D01*
X0376101Y0452604D01*
X0376040Y0452526D01*
X0375976Y0452449D01*
X0375910Y0452376D01*
X0375840Y0452305D01*
X0375768Y0452237D01*
X0375693Y0452171D01*
X0375615Y0452109D01*
X0375535Y0452050D01*
X0375453Y0451994D01*
X0375369Y0451942D01*
X0375282Y0451893D01*
X0375194Y0451847D01*
X0375104Y0451805D01*
X0375012Y0451766D01*
X0374919Y0451731D01*
X0374825Y0451700D01*
X0374729Y0451673D01*
X0374632Y0451650D01*
X0374535Y0451630D01*
X0374437Y0451614D01*
X0374338Y0451602D01*
X0374239Y0451594D01*
X0374140Y0451590D01*
X0374040Y0451590D01*
X0373941Y0451594D01*
X0373842Y0451602D01*
X0373743Y0451614D01*
X0373645Y0451630D01*
X0373548Y0451650D01*
X0373451Y0451673D01*
X0373355Y0451700D01*
X0373261Y0451731D01*
X0373168Y0451766D01*
X0373076Y0451805D01*
X0372986Y0451847D01*
X0372898Y0451893D01*
X0372811Y0451942D01*
X0372727Y0451994D01*
X0372645Y0452050D01*
X0372565Y0452109D01*
X0372487Y0452171D01*
X0372412Y0452237D01*
X0372340Y0452305D01*
X0372270Y0452376D01*
X0372204Y0452449D01*
X0372140Y0452526D01*
X0372079Y0452604D01*
X0372022Y0452686D01*
X0371968Y0452769D01*
X0371917Y0452854D01*
X0371869Y0452942D01*
X0371825Y0453031D01*
X0371785Y0453122D01*
X0371748Y0453214D01*
X0371715Y0453308D01*
X0371686Y0453403D01*
X0371661Y0453499D01*
X0371639Y0453596D01*
X0371622Y0453694D01*
X0371608Y0453792D01*
X0371598Y0453891D01*
X0371592Y0453991D01*
X0371590Y0454090D01*
X0361590Y0454090D02*
X0361592Y0454189D01*
X0361598Y0454289D01*
X0361608Y0454388D01*
X0361622Y0454486D01*
X0361639Y0454584D01*
X0361661Y0454681D01*
X0361686Y0454777D01*
X0361715Y0454872D01*
X0361748Y0454966D01*
X0361785Y0455058D01*
X0361825Y0455149D01*
X0361869Y0455238D01*
X0361917Y0455326D01*
X0361968Y0455411D01*
X0362022Y0455494D01*
X0362079Y0455576D01*
X0362140Y0455654D01*
X0362204Y0455731D01*
X0362270Y0455804D01*
X0362340Y0455875D01*
X0362412Y0455943D01*
X0362487Y0456009D01*
X0362565Y0456071D01*
X0362645Y0456130D01*
X0362727Y0456186D01*
X0362811Y0456238D01*
X0362898Y0456287D01*
X0362986Y0456333D01*
X0363076Y0456375D01*
X0363168Y0456414D01*
X0363261Y0456449D01*
X0363355Y0456480D01*
X0363451Y0456507D01*
X0363548Y0456530D01*
X0363645Y0456550D01*
X0363743Y0456566D01*
X0363842Y0456578D01*
X0363941Y0456586D01*
X0364040Y0456590D01*
X0364140Y0456590D01*
X0364239Y0456586D01*
X0364338Y0456578D01*
X0364437Y0456566D01*
X0364535Y0456550D01*
X0364632Y0456530D01*
X0364729Y0456507D01*
X0364825Y0456480D01*
X0364919Y0456449D01*
X0365012Y0456414D01*
X0365104Y0456375D01*
X0365194Y0456333D01*
X0365282Y0456287D01*
X0365369Y0456238D01*
X0365453Y0456186D01*
X0365535Y0456130D01*
X0365615Y0456071D01*
X0365693Y0456009D01*
X0365768Y0455943D01*
X0365840Y0455875D01*
X0365910Y0455804D01*
X0365976Y0455731D01*
X0366040Y0455654D01*
X0366101Y0455576D01*
X0366158Y0455494D01*
X0366212Y0455411D01*
X0366263Y0455326D01*
X0366311Y0455238D01*
X0366355Y0455149D01*
X0366395Y0455058D01*
X0366432Y0454966D01*
X0366465Y0454872D01*
X0366494Y0454777D01*
X0366519Y0454681D01*
X0366541Y0454584D01*
X0366558Y0454486D01*
X0366572Y0454388D01*
X0366582Y0454289D01*
X0366588Y0454189D01*
X0366590Y0454090D01*
X0366588Y0453991D01*
X0366582Y0453891D01*
X0366572Y0453792D01*
X0366558Y0453694D01*
X0366541Y0453596D01*
X0366519Y0453499D01*
X0366494Y0453403D01*
X0366465Y0453308D01*
X0366432Y0453214D01*
X0366395Y0453122D01*
X0366355Y0453031D01*
X0366311Y0452942D01*
X0366263Y0452854D01*
X0366212Y0452769D01*
X0366158Y0452686D01*
X0366101Y0452604D01*
X0366040Y0452526D01*
X0365976Y0452449D01*
X0365910Y0452376D01*
X0365840Y0452305D01*
X0365768Y0452237D01*
X0365693Y0452171D01*
X0365615Y0452109D01*
X0365535Y0452050D01*
X0365453Y0451994D01*
X0365369Y0451942D01*
X0365282Y0451893D01*
X0365194Y0451847D01*
X0365104Y0451805D01*
X0365012Y0451766D01*
X0364919Y0451731D01*
X0364825Y0451700D01*
X0364729Y0451673D01*
X0364632Y0451650D01*
X0364535Y0451630D01*
X0364437Y0451614D01*
X0364338Y0451602D01*
X0364239Y0451594D01*
X0364140Y0451590D01*
X0364040Y0451590D01*
X0363941Y0451594D01*
X0363842Y0451602D01*
X0363743Y0451614D01*
X0363645Y0451630D01*
X0363548Y0451650D01*
X0363451Y0451673D01*
X0363355Y0451700D01*
X0363261Y0451731D01*
X0363168Y0451766D01*
X0363076Y0451805D01*
X0362986Y0451847D01*
X0362898Y0451893D01*
X0362811Y0451942D01*
X0362727Y0451994D01*
X0362645Y0452050D01*
X0362565Y0452109D01*
X0362487Y0452171D01*
X0362412Y0452237D01*
X0362340Y0452305D01*
X0362270Y0452376D01*
X0362204Y0452449D01*
X0362140Y0452526D01*
X0362079Y0452604D01*
X0362022Y0452686D01*
X0361968Y0452769D01*
X0361917Y0452854D01*
X0361869Y0452942D01*
X0361825Y0453031D01*
X0361785Y0453122D01*
X0361748Y0453214D01*
X0361715Y0453308D01*
X0361686Y0453403D01*
X0361661Y0453499D01*
X0361639Y0453596D01*
X0361622Y0453694D01*
X0361608Y0453792D01*
X0361598Y0453891D01*
X0361592Y0453991D01*
X0361590Y0454090D01*
X0364090Y0459090D02*
X0364090Y0468090D01*
X0364088Y0468150D01*
X0364083Y0468211D01*
X0364074Y0468270D01*
X0364061Y0468329D01*
X0364045Y0468388D01*
X0364025Y0468445D01*
X0364002Y0468500D01*
X0363975Y0468555D01*
X0363946Y0468607D01*
X0363913Y0468658D01*
X0363877Y0468707D01*
X0363839Y0468753D01*
X0363797Y0468797D01*
X0363753Y0468839D01*
X0363707Y0468877D01*
X0363658Y0468913D01*
X0363607Y0468946D01*
X0363555Y0468975D01*
X0363500Y0469002D01*
X0363445Y0469025D01*
X0363388Y0469045D01*
X0363329Y0469061D01*
X0363270Y0469074D01*
X0363211Y0469083D01*
X0363150Y0469088D01*
X0363090Y0469090D01*
X0359090Y0469090D01*
X0359090Y0476590D01*
X0363090Y0476590D01*
X0363150Y0476592D01*
X0363211Y0476597D01*
X0363270Y0476606D01*
X0363329Y0476619D01*
X0363388Y0476635D01*
X0363445Y0476655D01*
X0363500Y0476678D01*
X0363555Y0476705D01*
X0363607Y0476734D01*
X0363658Y0476767D01*
X0363707Y0476803D01*
X0363753Y0476841D01*
X0363797Y0476883D01*
X0363839Y0476927D01*
X0363877Y0476973D01*
X0363913Y0477022D01*
X0363946Y0477073D01*
X0363975Y0477125D01*
X0364002Y0477180D01*
X0364025Y0477235D01*
X0364045Y0477292D01*
X0364061Y0477351D01*
X0364074Y0477410D01*
X0364083Y0477469D01*
X0364088Y0477530D01*
X0364090Y0477590D01*
X0364090Y0483090D01*
X0364088Y0483150D01*
X0364083Y0483211D01*
X0364074Y0483270D01*
X0364061Y0483329D01*
X0364045Y0483388D01*
X0364025Y0483445D01*
X0364002Y0483500D01*
X0363975Y0483555D01*
X0363946Y0483607D01*
X0363913Y0483658D01*
X0363877Y0483707D01*
X0363839Y0483753D01*
X0363797Y0483797D01*
X0363753Y0483839D01*
X0363707Y0483877D01*
X0363658Y0483913D01*
X0363607Y0483946D01*
X0363555Y0483975D01*
X0363500Y0484002D01*
X0363445Y0484025D01*
X0363388Y0484045D01*
X0363329Y0484061D01*
X0363270Y0484074D01*
X0363211Y0484083D01*
X0363150Y0484088D01*
X0363090Y0484090D01*
X0359090Y0484090D01*
X0359090Y0492840D01*
X0359090Y0505590D01*
X0359092Y0505650D01*
X0359097Y0505711D01*
X0359106Y0505770D01*
X0359119Y0505829D01*
X0359135Y0505888D01*
X0359155Y0505945D01*
X0359178Y0506000D01*
X0359205Y0506055D01*
X0359234Y0506107D01*
X0359267Y0506158D01*
X0359303Y0506207D01*
X0359341Y0506253D01*
X0359383Y0506297D01*
X0359427Y0506339D01*
X0359473Y0506377D01*
X0359522Y0506413D01*
X0359573Y0506446D01*
X0359625Y0506475D01*
X0359680Y0506502D01*
X0359735Y0506525D01*
X0359792Y0506545D01*
X0359851Y0506561D01*
X0359910Y0506574D01*
X0359969Y0506583D01*
X0360030Y0506588D01*
X0360090Y0506590D01*
X0362840Y0506590D01*
X0362908Y0506588D01*
X0362975Y0506583D01*
X0363042Y0506574D01*
X0363109Y0506561D01*
X0363174Y0506544D01*
X0363239Y0506525D01*
X0363303Y0506501D01*
X0363365Y0506474D01*
X0363426Y0506444D01*
X0363484Y0506411D01*
X0363541Y0506375D01*
X0363596Y0506335D01*
X0363649Y0506293D01*
X0363700Y0506247D01*
X0363747Y0506200D01*
X0363793Y0506149D01*
X0363835Y0506096D01*
X0363875Y0506041D01*
X0363911Y0505984D01*
X0363944Y0505926D01*
X0363974Y0505865D01*
X0364001Y0505803D01*
X0364025Y0505739D01*
X0364044Y0505674D01*
X0364061Y0505609D01*
X0364074Y0505542D01*
X0364083Y0505475D01*
X0364088Y0505408D01*
X0364090Y0505340D01*
X0364090Y0501590D01*
X0364092Y0501492D01*
X0364098Y0501394D01*
X0364107Y0501296D01*
X0364121Y0501199D01*
X0364138Y0501102D01*
X0364159Y0501006D01*
X0364184Y0500911D01*
X0364212Y0500817D01*
X0364245Y0500725D01*
X0364280Y0500633D01*
X0364320Y0500543D01*
X0364362Y0500455D01*
X0364409Y0500368D01*
X0364458Y0500284D01*
X0364511Y0500201D01*
X0364567Y0500121D01*
X0364627Y0500042D01*
X0364689Y0499966D01*
X0364754Y0499893D01*
X0364822Y0499822D01*
X0364893Y0499754D01*
X0364966Y0499689D01*
X0365042Y0499627D01*
X0365121Y0499567D01*
X0365201Y0499511D01*
X0365284Y0499458D01*
X0365368Y0499409D01*
X0365455Y0499362D01*
X0365543Y0499320D01*
X0365633Y0499280D01*
X0365725Y0499245D01*
X0365817Y0499212D01*
X0365911Y0499184D01*
X0366006Y0499159D01*
X0366102Y0499138D01*
X0366199Y0499121D01*
X0366296Y0499107D01*
X0366394Y0499098D01*
X0366492Y0499092D01*
X0366590Y0499090D01*
X0371590Y0499090D01*
X0374090Y0499090D01*
X0376590Y0499090D01*
X0379090Y0499090D01*
X0381590Y0499090D01*
X0384090Y0499090D01*
X0386590Y0499090D01*
X0389090Y0499090D01*
X0391590Y0499090D01*
X0394090Y0499090D01*
X0396590Y0499090D01*
X0399090Y0499090D01*
X0401590Y0499090D01*
X0404090Y0499090D01*
X0404188Y0499092D01*
X0404286Y0499098D01*
X0404384Y0499107D01*
X0404481Y0499121D01*
X0404578Y0499138D01*
X0404674Y0499159D01*
X0404769Y0499184D01*
X0404863Y0499212D01*
X0404955Y0499245D01*
X0405047Y0499280D01*
X0405137Y0499320D01*
X0405225Y0499362D01*
X0405312Y0499409D01*
X0405396Y0499458D01*
X0405479Y0499511D01*
X0405559Y0499567D01*
X0405638Y0499627D01*
X0405714Y0499689D01*
X0405787Y0499754D01*
X0405858Y0499822D01*
X0405926Y0499893D01*
X0405991Y0499966D01*
X0406053Y0500042D01*
X0406113Y0500121D01*
X0406169Y0500201D01*
X0406222Y0500284D01*
X0406271Y0500368D01*
X0406318Y0500455D01*
X0406360Y0500543D01*
X0406400Y0500633D01*
X0406435Y0500725D01*
X0406468Y0500817D01*
X0406496Y0500911D01*
X0406521Y0501006D01*
X0406542Y0501102D01*
X0406559Y0501199D01*
X0406573Y0501296D01*
X0406582Y0501394D01*
X0406588Y0501492D01*
X0406590Y0501590D01*
X0406590Y0505340D01*
X0406592Y0505408D01*
X0406597Y0505475D01*
X0406606Y0505542D01*
X0406619Y0505609D01*
X0406636Y0505674D01*
X0406655Y0505739D01*
X0406679Y0505803D01*
X0406706Y0505865D01*
X0406736Y0505926D01*
X0406769Y0505984D01*
X0406805Y0506041D01*
X0406845Y0506096D01*
X0406887Y0506149D01*
X0406933Y0506200D01*
X0406980Y0506247D01*
X0407031Y0506293D01*
X0407084Y0506335D01*
X0407139Y0506375D01*
X0407196Y0506411D01*
X0407254Y0506444D01*
X0407315Y0506474D01*
X0407377Y0506501D01*
X0407441Y0506525D01*
X0407506Y0506544D01*
X0407571Y0506561D01*
X0407638Y0506574D01*
X0407705Y0506583D01*
X0407772Y0506588D01*
X0407840Y0506590D01*
X0408090Y0506590D01*
X0408150Y0506588D01*
X0408211Y0506583D01*
X0408270Y0506574D01*
X0408329Y0506561D01*
X0408388Y0506545D01*
X0408445Y0506525D01*
X0408500Y0506502D01*
X0408555Y0506475D01*
X0408607Y0506446D01*
X0408658Y0506413D01*
X0408707Y0506377D01*
X0408753Y0506339D01*
X0408797Y0506297D01*
X0408839Y0506253D01*
X0408877Y0506207D01*
X0408913Y0506158D01*
X0408946Y0506107D01*
X0408975Y0506055D01*
X0409002Y0506000D01*
X0409025Y0505945D01*
X0409045Y0505888D01*
X0409061Y0505829D01*
X0409074Y0505770D01*
X0409083Y0505711D01*
X0409088Y0505650D01*
X0409090Y0505590D01*
X0409090Y0460090D01*
X0409088Y0460030D01*
X0409083Y0459969D01*
X0409074Y0459910D01*
X0409061Y0459851D01*
X0409045Y0459792D01*
X0409025Y0459735D01*
X0409002Y0459680D01*
X0408975Y0459625D01*
X0408946Y0459573D01*
X0408913Y0459522D01*
X0408877Y0459473D01*
X0408839Y0459427D01*
X0408797Y0459383D01*
X0408753Y0459341D01*
X0408707Y0459303D01*
X0408658Y0459267D01*
X0408607Y0459234D01*
X0408555Y0459205D01*
X0408500Y0459178D01*
X0408445Y0459155D01*
X0408388Y0459135D01*
X0408329Y0459119D01*
X0408270Y0459106D01*
X0408211Y0459097D01*
X0408150Y0459092D01*
X0408090Y0459090D01*
X0364090Y0459090D01*
X0381590Y0454090D02*
X0381592Y0454189D01*
X0381598Y0454289D01*
X0381608Y0454388D01*
X0381622Y0454486D01*
X0381639Y0454584D01*
X0381661Y0454681D01*
X0381686Y0454777D01*
X0381715Y0454872D01*
X0381748Y0454966D01*
X0381785Y0455058D01*
X0381825Y0455149D01*
X0381869Y0455238D01*
X0381917Y0455326D01*
X0381968Y0455411D01*
X0382022Y0455494D01*
X0382079Y0455576D01*
X0382140Y0455654D01*
X0382204Y0455731D01*
X0382270Y0455804D01*
X0382340Y0455875D01*
X0382412Y0455943D01*
X0382487Y0456009D01*
X0382565Y0456071D01*
X0382645Y0456130D01*
X0382727Y0456186D01*
X0382811Y0456238D01*
X0382898Y0456287D01*
X0382986Y0456333D01*
X0383076Y0456375D01*
X0383168Y0456414D01*
X0383261Y0456449D01*
X0383355Y0456480D01*
X0383451Y0456507D01*
X0383548Y0456530D01*
X0383645Y0456550D01*
X0383743Y0456566D01*
X0383842Y0456578D01*
X0383941Y0456586D01*
X0384040Y0456590D01*
X0384140Y0456590D01*
X0384239Y0456586D01*
X0384338Y0456578D01*
X0384437Y0456566D01*
X0384535Y0456550D01*
X0384632Y0456530D01*
X0384729Y0456507D01*
X0384825Y0456480D01*
X0384919Y0456449D01*
X0385012Y0456414D01*
X0385104Y0456375D01*
X0385194Y0456333D01*
X0385282Y0456287D01*
X0385369Y0456238D01*
X0385453Y0456186D01*
X0385535Y0456130D01*
X0385615Y0456071D01*
X0385693Y0456009D01*
X0385768Y0455943D01*
X0385840Y0455875D01*
X0385910Y0455804D01*
X0385976Y0455731D01*
X0386040Y0455654D01*
X0386101Y0455576D01*
X0386158Y0455494D01*
X0386212Y0455411D01*
X0386263Y0455326D01*
X0386311Y0455238D01*
X0386355Y0455149D01*
X0386395Y0455058D01*
X0386432Y0454966D01*
X0386465Y0454872D01*
X0386494Y0454777D01*
X0386519Y0454681D01*
X0386541Y0454584D01*
X0386558Y0454486D01*
X0386572Y0454388D01*
X0386582Y0454289D01*
X0386588Y0454189D01*
X0386590Y0454090D01*
X0386588Y0453991D01*
X0386582Y0453891D01*
X0386572Y0453792D01*
X0386558Y0453694D01*
X0386541Y0453596D01*
X0386519Y0453499D01*
X0386494Y0453403D01*
X0386465Y0453308D01*
X0386432Y0453214D01*
X0386395Y0453122D01*
X0386355Y0453031D01*
X0386311Y0452942D01*
X0386263Y0452854D01*
X0386212Y0452769D01*
X0386158Y0452686D01*
X0386101Y0452604D01*
X0386040Y0452526D01*
X0385976Y0452449D01*
X0385910Y0452376D01*
X0385840Y0452305D01*
X0385768Y0452237D01*
X0385693Y0452171D01*
X0385615Y0452109D01*
X0385535Y0452050D01*
X0385453Y0451994D01*
X0385369Y0451942D01*
X0385282Y0451893D01*
X0385194Y0451847D01*
X0385104Y0451805D01*
X0385012Y0451766D01*
X0384919Y0451731D01*
X0384825Y0451700D01*
X0384729Y0451673D01*
X0384632Y0451650D01*
X0384535Y0451630D01*
X0384437Y0451614D01*
X0384338Y0451602D01*
X0384239Y0451594D01*
X0384140Y0451590D01*
X0384040Y0451590D01*
X0383941Y0451594D01*
X0383842Y0451602D01*
X0383743Y0451614D01*
X0383645Y0451630D01*
X0383548Y0451650D01*
X0383451Y0451673D01*
X0383355Y0451700D01*
X0383261Y0451731D01*
X0383168Y0451766D01*
X0383076Y0451805D01*
X0382986Y0451847D01*
X0382898Y0451893D01*
X0382811Y0451942D01*
X0382727Y0451994D01*
X0382645Y0452050D01*
X0382565Y0452109D01*
X0382487Y0452171D01*
X0382412Y0452237D01*
X0382340Y0452305D01*
X0382270Y0452376D01*
X0382204Y0452449D01*
X0382140Y0452526D01*
X0382079Y0452604D01*
X0382022Y0452686D01*
X0381968Y0452769D01*
X0381917Y0452854D01*
X0381869Y0452942D01*
X0381825Y0453031D01*
X0381785Y0453122D01*
X0381748Y0453214D01*
X0381715Y0453308D01*
X0381686Y0453403D01*
X0381661Y0453499D01*
X0381639Y0453596D01*
X0381622Y0453694D01*
X0381608Y0453792D01*
X0381598Y0453891D01*
X0381592Y0453991D01*
X0381590Y0454090D01*
X0391590Y0454090D02*
X0391592Y0454189D01*
X0391598Y0454289D01*
X0391608Y0454388D01*
X0391622Y0454486D01*
X0391639Y0454584D01*
X0391661Y0454681D01*
X0391686Y0454777D01*
X0391715Y0454872D01*
X0391748Y0454966D01*
X0391785Y0455058D01*
X0391825Y0455149D01*
X0391869Y0455238D01*
X0391917Y0455326D01*
X0391968Y0455411D01*
X0392022Y0455494D01*
X0392079Y0455576D01*
X0392140Y0455654D01*
X0392204Y0455731D01*
X0392270Y0455804D01*
X0392340Y0455875D01*
X0392412Y0455943D01*
X0392487Y0456009D01*
X0392565Y0456071D01*
X0392645Y0456130D01*
X0392727Y0456186D01*
X0392811Y0456238D01*
X0392898Y0456287D01*
X0392986Y0456333D01*
X0393076Y0456375D01*
X0393168Y0456414D01*
X0393261Y0456449D01*
X0393355Y0456480D01*
X0393451Y0456507D01*
X0393548Y0456530D01*
X0393645Y0456550D01*
X0393743Y0456566D01*
X0393842Y0456578D01*
X0393941Y0456586D01*
X0394040Y0456590D01*
X0394140Y0456590D01*
X0394239Y0456586D01*
X0394338Y0456578D01*
X0394437Y0456566D01*
X0394535Y0456550D01*
X0394632Y0456530D01*
X0394729Y0456507D01*
X0394825Y0456480D01*
X0394919Y0456449D01*
X0395012Y0456414D01*
X0395104Y0456375D01*
X0395194Y0456333D01*
X0395282Y0456287D01*
X0395369Y0456238D01*
X0395453Y0456186D01*
X0395535Y0456130D01*
X0395615Y0456071D01*
X0395693Y0456009D01*
X0395768Y0455943D01*
X0395840Y0455875D01*
X0395910Y0455804D01*
X0395976Y0455731D01*
X0396040Y0455654D01*
X0396101Y0455576D01*
X0396158Y0455494D01*
X0396212Y0455411D01*
X0396263Y0455326D01*
X0396311Y0455238D01*
X0396355Y0455149D01*
X0396395Y0455058D01*
X0396432Y0454966D01*
X0396465Y0454872D01*
X0396494Y0454777D01*
X0396519Y0454681D01*
X0396541Y0454584D01*
X0396558Y0454486D01*
X0396572Y0454388D01*
X0396582Y0454289D01*
X0396588Y0454189D01*
X0396590Y0454090D01*
X0396588Y0453991D01*
X0396582Y0453891D01*
X0396572Y0453792D01*
X0396558Y0453694D01*
X0396541Y0453596D01*
X0396519Y0453499D01*
X0396494Y0453403D01*
X0396465Y0453308D01*
X0396432Y0453214D01*
X0396395Y0453122D01*
X0396355Y0453031D01*
X0396311Y0452942D01*
X0396263Y0452854D01*
X0396212Y0452769D01*
X0396158Y0452686D01*
X0396101Y0452604D01*
X0396040Y0452526D01*
X0395976Y0452449D01*
X0395910Y0452376D01*
X0395840Y0452305D01*
X0395768Y0452237D01*
X0395693Y0452171D01*
X0395615Y0452109D01*
X0395535Y0452050D01*
X0395453Y0451994D01*
X0395369Y0451942D01*
X0395282Y0451893D01*
X0395194Y0451847D01*
X0395104Y0451805D01*
X0395012Y0451766D01*
X0394919Y0451731D01*
X0394825Y0451700D01*
X0394729Y0451673D01*
X0394632Y0451650D01*
X0394535Y0451630D01*
X0394437Y0451614D01*
X0394338Y0451602D01*
X0394239Y0451594D01*
X0394140Y0451590D01*
X0394040Y0451590D01*
X0393941Y0451594D01*
X0393842Y0451602D01*
X0393743Y0451614D01*
X0393645Y0451630D01*
X0393548Y0451650D01*
X0393451Y0451673D01*
X0393355Y0451700D01*
X0393261Y0451731D01*
X0393168Y0451766D01*
X0393076Y0451805D01*
X0392986Y0451847D01*
X0392898Y0451893D01*
X0392811Y0451942D01*
X0392727Y0451994D01*
X0392645Y0452050D01*
X0392565Y0452109D01*
X0392487Y0452171D01*
X0392412Y0452237D01*
X0392340Y0452305D01*
X0392270Y0452376D01*
X0392204Y0452449D01*
X0392140Y0452526D01*
X0392079Y0452604D01*
X0392022Y0452686D01*
X0391968Y0452769D01*
X0391917Y0452854D01*
X0391869Y0452942D01*
X0391825Y0453031D01*
X0391785Y0453122D01*
X0391748Y0453214D01*
X0391715Y0453308D01*
X0391686Y0453403D01*
X0391661Y0453499D01*
X0391639Y0453596D01*
X0391622Y0453694D01*
X0391608Y0453792D01*
X0391598Y0453891D01*
X0391592Y0453991D01*
X0391590Y0454090D01*
X0401590Y0454090D02*
X0401592Y0454189D01*
X0401598Y0454289D01*
X0401608Y0454388D01*
X0401622Y0454486D01*
X0401639Y0454584D01*
X0401661Y0454681D01*
X0401686Y0454777D01*
X0401715Y0454872D01*
X0401748Y0454966D01*
X0401785Y0455058D01*
X0401825Y0455149D01*
X0401869Y0455238D01*
X0401917Y0455326D01*
X0401968Y0455411D01*
X0402022Y0455494D01*
X0402079Y0455576D01*
X0402140Y0455654D01*
X0402204Y0455731D01*
X0402270Y0455804D01*
X0402340Y0455875D01*
X0402412Y0455943D01*
X0402487Y0456009D01*
X0402565Y0456071D01*
X0402645Y0456130D01*
X0402727Y0456186D01*
X0402811Y0456238D01*
X0402898Y0456287D01*
X0402986Y0456333D01*
X0403076Y0456375D01*
X0403168Y0456414D01*
X0403261Y0456449D01*
X0403355Y0456480D01*
X0403451Y0456507D01*
X0403548Y0456530D01*
X0403645Y0456550D01*
X0403743Y0456566D01*
X0403842Y0456578D01*
X0403941Y0456586D01*
X0404040Y0456590D01*
X0404140Y0456590D01*
X0404239Y0456586D01*
X0404338Y0456578D01*
X0404437Y0456566D01*
X0404535Y0456550D01*
X0404632Y0456530D01*
X0404729Y0456507D01*
X0404825Y0456480D01*
X0404919Y0456449D01*
X0405012Y0456414D01*
X0405104Y0456375D01*
X0405194Y0456333D01*
X0405282Y0456287D01*
X0405369Y0456238D01*
X0405453Y0456186D01*
X0405535Y0456130D01*
X0405615Y0456071D01*
X0405693Y0456009D01*
X0405768Y0455943D01*
X0405840Y0455875D01*
X0405910Y0455804D01*
X0405976Y0455731D01*
X0406040Y0455654D01*
X0406101Y0455576D01*
X0406158Y0455494D01*
X0406212Y0455411D01*
X0406263Y0455326D01*
X0406311Y0455238D01*
X0406355Y0455149D01*
X0406395Y0455058D01*
X0406432Y0454966D01*
X0406465Y0454872D01*
X0406494Y0454777D01*
X0406519Y0454681D01*
X0406541Y0454584D01*
X0406558Y0454486D01*
X0406572Y0454388D01*
X0406582Y0454289D01*
X0406588Y0454189D01*
X0406590Y0454090D01*
X0406588Y0453991D01*
X0406582Y0453891D01*
X0406572Y0453792D01*
X0406558Y0453694D01*
X0406541Y0453596D01*
X0406519Y0453499D01*
X0406494Y0453403D01*
X0406465Y0453308D01*
X0406432Y0453214D01*
X0406395Y0453122D01*
X0406355Y0453031D01*
X0406311Y0452942D01*
X0406263Y0452854D01*
X0406212Y0452769D01*
X0406158Y0452686D01*
X0406101Y0452604D01*
X0406040Y0452526D01*
X0405976Y0452449D01*
X0405910Y0452376D01*
X0405840Y0452305D01*
X0405768Y0452237D01*
X0405693Y0452171D01*
X0405615Y0452109D01*
X0405535Y0452050D01*
X0405453Y0451994D01*
X0405369Y0451942D01*
X0405282Y0451893D01*
X0405194Y0451847D01*
X0405104Y0451805D01*
X0405012Y0451766D01*
X0404919Y0451731D01*
X0404825Y0451700D01*
X0404729Y0451673D01*
X0404632Y0451650D01*
X0404535Y0451630D01*
X0404437Y0451614D01*
X0404338Y0451602D01*
X0404239Y0451594D01*
X0404140Y0451590D01*
X0404040Y0451590D01*
X0403941Y0451594D01*
X0403842Y0451602D01*
X0403743Y0451614D01*
X0403645Y0451630D01*
X0403548Y0451650D01*
X0403451Y0451673D01*
X0403355Y0451700D01*
X0403261Y0451731D01*
X0403168Y0451766D01*
X0403076Y0451805D01*
X0402986Y0451847D01*
X0402898Y0451893D01*
X0402811Y0451942D01*
X0402727Y0451994D01*
X0402645Y0452050D01*
X0402565Y0452109D01*
X0402487Y0452171D01*
X0402412Y0452237D01*
X0402340Y0452305D01*
X0402270Y0452376D01*
X0402204Y0452449D01*
X0402140Y0452526D01*
X0402079Y0452604D01*
X0402022Y0452686D01*
X0401968Y0452769D01*
X0401917Y0452854D01*
X0401869Y0452942D01*
X0401825Y0453031D01*
X0401785Y0453122D01*
X0401748Y0453214D01*
X0401715Y0453308D01*
X0401686Y0453403D01*
X0401661Y0453499D01*
X0401639Y0453596D01*
X0401622Y0453694D01*
X0401608Y0453792D01*
X0401598Y0453891D01*
X0401592Y0453991D01*
X0401590Y0454090D01*
D16*
X0283303Y0226609D02*
X0283305Y0226767D01*
X0283311Y0226925D01*
X0283321Y0227083D01*
X0283335Y0227241D01*
X0283353Y0227398D01*
X0283374Y0227555D01*
X0283400Y0227711D01*
X0283430Y0227867D01*
X0283463Y0228022D01*
X0283501Y0228175D01*
X0283542Y0228328D01*
X0283587Y0228480D01*
X0283636Y0228631D01*
X0283689Y0228780D01*
X0283745Y0228928D01*
X0283805Y0229074D01*
X0283869Y0229219D01*
X0283937Y0229362D01*
X0284008Y0229504D01*
X0284082Y0229644D01*
X0284160Y0229781D01*
X0284242Y0229917D01*
X0284326Y0230051D01*
X0284415Y0230182D01*
X0284506Y0230311D01*
X0284601Y0230438D01*
X0284698Y0230563D01*
X0284799Y0230685D01*
X0284903Y0230804D01*
X0285010Y0230921D01*
X0285120Y0231035D01*
X0285233Y0231146D01*
X0285348Y0231255D01*
X0285466Y0231360D01*
X0285587Y0231462D01*
X0285710Y0231562D01*
X0285836Y0231658D01*
X0285964Y0231751D01*
X0286094Y0231841D01*
X0286227Y0231927D01*
X0286362Y0232011D01*
X0286498Y0232090D01*
X0286637Y0232167D01*
X0286778Y0232239D01*
X0286920Y0232309D01*
X0287064Y0232374D01*
X0287210Y0232436D01*
X0287357Y0232494D01*
X0287506Y0232549D01*
X0287656Y0232600D01*
X0287807Y0232647D01*
X0287959Y0232690D01*
X0288112Y0232729D01*
X0288267Y0232765D01*
X0288422Y0232796D01*
X0288578Y0232824D01*
X0288734Y0232848D01*
X0288891Y0232868D01*
X0289049Y0232884D01*
X0289206Y0232896D01*
X0289365Y0232904D01*
X0289523Y0232908D01*
X0289681Y0232908D01*
X0289839Y0232904D01*
X0289998Y0232896D01*
X0290155Y0232884D01*
X0290313Y0232868D01*
X0290470Y0232848D01*
X0290626Y0232824D01*
X0290782Y0232796D01*
X0290937Y0232765D01*
X0291092Y0232729D01*
X0291245Y0232690D01*
X0291397Y0232647D01*
X0291548Y0232600D01*
X0291698Y0232549D01*
X0291847Y0232494D01*
X0291994Y0232436D01*
X0292140Y0232374D01*
X0292284Y0232309D01*
X0292426Y0232239D01*
X0292567Y0232167D01*
X0292706Y0232090D01*
X0292842Y0232011D01*
X0292977Y0231927D01*
X0293110Y0231841D01*
X0293240Y0231751D01*
X0293368Y0231658D01*
X0293494Y0231562D01*
X0293617Y0231462D01*
X0293738Y0231360D01*
X0293856Y0231255D01*
X0293971Y0231146D01*
X0294084Y0231035D01*
X0294194Y0230921D01*
X0294301Y0230804D01*
X0294405Y0230685D01*
X0294506Y0230563D01*
X0294603Y0230438D01*
X0294698Y0230311D01*
X0294789Y0230182D01*
X0294878Y0230051D01*
X0294962Y0229917D01*
X0295044Y0229781D01*
X0295122Y0229644D01*
X0295196Y0229504D01*
X0295267Y0229362D01*
X0295335Y0229219D01*
X0295399Y0229074D01*
X0295459Y0228928D01*
X0295515Y0228780D01*
X0295568Y0228631D01*
X0295617Y0228480D01*
X0295662Y0228328D01*
X0295703Y0228175D01*
X0295741Y0228022D01*
X0295774Y0227867D01*
X0295804Y0227711D01*
X0295830Y0227555D01*
X0295851Y0227398D01*
X0295869Y0227241D01*
X0295883Y0227083D01*
X0295893Y0226925D01*
X0295899Y0226767D01*
X0295901Y0226609D01*
X0295899Y0226451D01*
X0295893Y0226293D01*
X0295883Y0226135D01*
X0295869Y0225977D01*
X0295851Y0225820D01*
X0295830Y0225663D01*
X0295804Y0225507D01*
X0295774Y0225351D01*
X0295741Y0225196D01*
X0295703Y0225043D01*
X0295662Y0224890D01*
X0295617Y0224738D01*
X0295568Y0224587D01*
X0295515Y0224438D01*
X0295459Y0224290D01*
X0295399Y0224144D01*
X0295335Y0223999D01*
X0295267Y0223856D01*
X0295196Y0223714D01*
X0295122Y0223574D01*
X0295044Y0223437D01*
X0294962Y0223301D01*
X0294878Y0223167D01*
X0294789Y0223036D01*
X0294698Y0222907D01*
X0294603Y0222780D01*
X0294506Y0222655D01*
X0294405Y0222533D01*
X0294301Y0222414D01*
X0294194Y0222297D01*
X0294084Y0222183D01*
X0293971Y0222072D01*
X0293856Y0221963D01*
X0293738Y0221858D01*
X0293617Y0221756D01*
X0293494Y0221656D01*
X0293368Y0221560D01*
X0293240Y0221467D01*
X0293110Y0221377D01*
X0292977Y0221291D01*
X0292842Y0221207D01*
X0292706Y0221128D01*
X0292567Y0221051D01*
X0292426Y0220979D01*
X0292284Y0220909D01*
X0292140Y0220844D01*
X0291994Y0220782D01*
X0291847Y0220724D01*
X0291698Y0220669D01*
X0291548Y0220618D01*
X0291397Y0220571D01*
X0291245Y0220528D01*
X0291092Y0220489D01*
X0290937Y0220453D01*
X0290782Y0220422D01*
X0290626Y0220394D01*
X0290470Y0220370D01*
X0290313Y0220350D01*
X0290155Y0220334D01*
X0289998Y0220322D01*
X0289839Y0220314D01*
X0289681Y0220310D01*
X0289523Y0220310D01*
X0289365Y0220314D01*
X0289206Y0220322D01*
X0289049Y0220334D01*
X0288891Y0220350D01*
X0288734Y0220370D01*
X0288578Y0220394D01*
X0288422Y0220422D01*
X0288267Y0220453D01*
X0288112Y0220489D01*
X0287959Y0220528D01*
X0287807Y0220571D01*
X0287656Y0220618D01*
X0287506Y0220669D01*
X0287357Y0220724D01*
X0287210Y0220782D01*
X0287064Y0220844D01*
X0286920Y0220909D01*
X0286778Y0220979D01*
X0286637Y0221051D01*
X0286498Y0221128D01*
X0286362Y0221207D01*
X0286227Y0221291D01*
X0286094Y0221377D01*
X0285964Y0221467D01*
X0285836Y0221560D01*
X0285710Y0221656D01*
X0285587Y0221756D01*
X0285466Y0221858D01*
X0285348Y0221963D01*
X0285233Y0222072D01*
X0285120Y0222183D01*
X0285010Y0222297D01*
X0284903Y0222414D01*
X0284799Y0222533D01*
X0284698Y0222655D01*
X0284601Y0222780D01*
X0284506Y0222907D01*
X0284415Y0223036D01*
X0284326Y0223167D01*
X0284242Y0223301D01*
X0284160Y0223437D01*
X0284082Y0223574D01*
X0284008Y0223714D01*
X0283937Y0223856D01*
X0283869Y0223999D01*
X0283805Y0224144D01*
X0283745Y0224290D01*
X0283689Y0224438D01*
X0283636Y0224587D01*
X0283587Y0224738D01*
X0283542Y0224890D01*
X0283501Y0225043D01*
X0283463Y0225196D01*
X0283430Y0225351D01*
X0283400Y0225507D01*
X0283374Y0225663D01*
X0283353Y0225820D01*
X0283335Y0225977D01*
X0283321Y0226135D01*
X0283311Y0226293D01*
X0283305Y0226451D01*
X0283303Y0226609D01*
X0376609Y0375778D02*
X0376609Y0379915D01*
X0376609Y0377847D02*
X0382815Y0377847D01*
X0382815Y0382224D02*
X0376609Y0382224D01*
X0376609Y0386361D01*
X0376609Y0388669D02*
X0382815Y0388669D01*
X0382815Y0392806D01*
X0382815Y0395115D02*
X0376609Y0395115D01*
X0382815Y0399252D01*
X0376609Y0399252D01*
X0377644Y0401560D02*
X0378678Y0401560D01*
X0379712Y0402594D01*
X0379712Y0404663D01*
X0380746Y0405697D01*
X0381781Y0405697D01*
X0382815Y0404663D01*
X0382815Y0402594D01*
X0381781Y0401560D01*
X0385359Y0400863D02*
X0386394Y0398795D01*
X0388462Y0396726D01*
X0388462Y0399829D01*
X0389496Y0400863D01*
X0390531Y0400863D01*
X0391565Y0399829D01*
X0391565Y0397760D01*
X0390531Y0396726D01*
X0388462Y0396726D01*
X0390531Y0394538D02*
X0391565Y0394538D01*
X0391565Y0393503D01*
X0390531Y0393503D01*
X0390531Y0394538D01*
X0390531Y0391195D02*
X0391565Y0390161D01*
X0391565Y0388092D01*
X0390531Y0387058D01*
X0388462Y0389126D02*
X0388462Y0390161D01*
X0389496Y0391195D01*
X0390531Y0391195D01*
X0388462Y0390161D02*
X0387428Y0391195D01*
X0386394Y0391195D01*
X0385359Y0390161D01*
X0385359Y0388092D01*
X0386394Y0387058D01*
X0382815Y0386361D02*
X0382815Y0382224D01*
X0379712Y0382224D02*
X0379712Y0384292D01*
X0379712Y0388669D02*
X0379712Y0390738D01*
X0376609Y0392806D02*
X0376609Y0388669D01*
X0377644Y0401560D02*
X0376609Y0402594D01*
X0376609Y0404663D01*
X0377644Y0405697D01*
X0377644Y0408006D02*
X0379712Y0410074D01*
X0382815Y0410074D01*
X0379712Y0410074D02*
X0377644Y0412143D01*
X0376609Y0412143D01*
X0376609Y0408006D02*
X0377644Y0408006D01*
X0283303Y0541570D02*
X0283305Y0541728D01*
X0283311Y0541886D01*
X0283321Y0542044D01*
X0283335Y0542202D01*
X0283353Y0542359D01*
X0283374Y0542516D01*
X0283400Y0542672D01*
X0283430Y0542828D01*
X0283463Y0542983D01*
X0283501Y0543136D01*
X0283542Y0543289D01*
X0283587Y0543441D01*
X0283636Y0543592D01*
X0283689Y0543741D01*
X0283745Y0543889D01*
X0283805Y0544035D01*
X0283869Y0544180D01*
X0283937Y0544323D01*
X0284008Y0544465D01*
X0284082Y0544605D01*
X0284160Y0544742D01*
X0284242Y0544878D01*
X0284326Y0545012D01*
X0284415Y0545143D01*
X0284506Y0545272D01*
X0284601Y0545399D01*
X0284698Y0545524D01*
X0284799Y0545646D01*
X0284903Y0545765D01*
X0285010Y0545882D01*
X0285120Y0545996D01*
X0285233Y0546107D01*
X0285348Y0546216D01*
X0285466Y0546321D01*
X0285587Y0546423D01*
X0285710Y0546523D01*
X0285836Y0546619D01*
X0285964Y0546712D01*
X0286094Y0546802D01*
X0286227Y0546888D01*
X0286362Y0546972D01*
X0286498Y0547051D01*
X0286637Y0547128D01*
X0286778Y0547200D01*
X0286920Y0547270D01*
X0287064Y0547335D01*
X0287210Y0547397D01*
X0287357Y0547455D01*
X0287506Y0547510D01*
X0287656Y0547561D01*
X0287807Y0547608D01*
X0287959Y0547651D01*
X0288112Y0547690D01*
X0288267Y0547726D01*
X0288422Y0547757D01*
X0288578Y0547785D01*
X0288734Y0547809D01*
X0288891Y0547829D01*
X0289049Y0547845D01*
X0289206Y0547857D01*
X0289365Y0547865D01*
X0289523Y0547869D01*
X0289681Y0547869D01*
X0289839Y0547865D01*
X0289998Y0547857D01*
X0290155Y0547845D01*
X0290313Y0547829D01*
X0290470Y0547809D01*
X0290626Y0547785D01*
X0290782Y0547757D01*
X0290937Y0547726D01*
X0291092Y0547690D01*
X0291245Y0547651D01*
X0291397Y0547608D01*
X0291548Y0547561D01*
X0291698Y0547510D01*
X0291847Y0547455D01*
X0291994Y0547397D01*
X0292140Y0547335D01*
X0292284Y0547270D01*
X0292426Y0547200D01*
X0292567Y0547128D01*
X0292706Y0547051D01*
X0292842Y0546972D01*
X0292977Y0546888D01*
X0293110Y0546802D01*
X0293240Y0546712D01*
X0293368Y0546619D01*
X0293494Y0546523D01*
X0293617Y0546423D01*
X0293738Y0546321D01*
X0293856Y0546216D01*
X0293971Y0546107D01*
X0294084Y0545996D01*
X0294194Y0545882D01*
X0294301Y0545765D01*
X0294405Y0545646D01*
X0294506Y0545524D01*
X0294603Y0545399D01*
X0294698Y0545272D01*
X0294789Y0545143D01*
X0294878Y0545012D01*
X0294962Y0544878D01*
X0295044Y0544742D01*
X0295122Y0544605D01*
X0295196Y0544465D01*
X0295267Y0544323D01*
X0295335Y0544180D01*
X0295399Y0544035D01*
X0295459Y0543889D01*
X0295515Y0543741D01*
X0295568Y0543592D01*
X0295617Y0543441D01*
X0295662Y0543289D01*
X0295703Y0543136D01*
X0295741Y0542983D01*
X0295774Y0542828D01*
X0295804Y0542672D01*
X0295830Y0542516D01*
X0295851Y0542359D01*
X0295869Y0542202D01*
X0295883Y0542044D01*
X0295893Y0541886D01*
X0295899Y0541728D01*
X0295901Y0541570D01*
X0295899Y0541412D01*
X0295893Y0541254D01*
X0295883Y0541096D01*
X0295869Y0540938D01*
X0295851Y0540781D01*
X0295830Y0540624D01*
X0295804Y0540468D01*
X0295774Y0540312D01*
X0295741Y0540157D01*
X0295703Y0540004D01*
X0295662Y0539851D01*
X0295617Y0539699D01*
X0295568Y0539548D01*
X0295515Y0539399D01*
X0295459Y0539251D01*
X0295399Y0539105D01*
X0295335Y0538960D01*
X0295267Y0538817D01*
X0295196Y0538675D01*
X0295122Y0538535D01*
X0295044Y0538398D01*
X0294962Y0538262D01*
X0294878Y0538128D01*
X0294789Y0537997D01*
X0294698Y0537868D01*
X0294603Y0537741D01*
X0294506Y0537616D01*
X0294405Y0537494D01*
X0294301Y0537375D01*
X0294194Y0537258D01*
X0294084Y0537144D01*
X0293971Y0537033D01*
X0293856Y0536924D01*
X0293738Y0536819D01*
X0293617Y0536717D01*
X0293494Y0536617D01*
X0293368Y0536521D01*
X0293240Y0536428D01*
X0293110Y0536338D01*
X0292977Y0536252D01*
X0292842Y0536168D01*
X0292706Y0536089D01*
X0292567Y0536012D01*
X0292426Y0535940D01*
X0292284Y0535870D01*
X0292140Y0535805D01*
X0291994Y0535743D01*
X0291847Y0535685D01*
X0291698Y0535630D01*
X0291548Y0535579D01*
X0291397Y0535532D01*
X0291245Y0535489D01*
X0291092Y0535450D01*
X0290937Y0535414D01*
X0290782Y0535383D01*
X0290626Y0535355D01*
X0290470Y0535331D01*
X0290313Y0535311D01*
X0290155Y0535295D01*
X0289998Y0535283D01*
X0289839Y0535275D01*
X0289681Y0535271D01*
X0289523Y0535271D01*
X0289365Y0535275D01*
X0289206Y0535283D01*
X0289049Y0535295D01*
X0288891Y0535311D01*
X0288734Y0535331D01*
X0288578Y0535355D01*
X0288422Y0535383D01*
X0288267Y0535414D01*
X0288112Y0535450D01*
X0287959Y0535489D01*
X0287807Y0535532D01*
X0287656Y0535579D01*
X0287506Y0535630D01*
X0287357Y0535685D01*
X0287210Y0535743D01*
X0287064Y0535805D01*
X0286920Y0535870D01*
X0286778Y0535940D01*
X0286637Y0536012D01*
X0286498Y0536089D01*
X0286362Y0536168D01*
X0286227Y0536252D01*
X0286094Y0536338D01*
X0285964Y0536428D01*
X0285836Y0536521D01*
X0285710Y0536617D01*
X0285587Y0536717D01*
X0285466Y0536819D01*
X0285348Y0536924D01*
X0285233Y0537033D01*
X0285120Y0537144D01*
X0285010Y0537258D01*
X0284903Y0537375D01*
X0284799Y0537494D01*
X0284698Y0537616D01*
X0284601Y0537741D01*
X0284506Y0537868D01*
X0284415Y0537997D01*
X0284326Y0538128D01*
X0284242Y0538262D01*
X0284160Y0538398D01*
X0284082Y0538535D01*
X0284008Y0538675D01*
X0283937Y0538817D01*
X0283869Y0538960D01*
X0283805Y0539105D01*
X0283745Y0539251D01*
X0283689Y0539399D01*
X0283636Y0539548D01*
X0283587Y0539699D01*
X0283542Y0539851D01*
X0283501Y0540004D01*
X0283463Y0540157D01*
X0283430Y0540312D01*
X0283400Y0540468D01*
X0283374Y0540624D01*
X0283353Y0540781D01*
X0283335Y0540938D01*
X0283321Y0541096D01*
X0283311Y0541254D01*
X0283305Y0541412D01*
X0283303Y0541570D01*
X0472279Y0541570D02*
X0472281Y0541728D01*
X0472287Y0541886D01*
X0472297Y0542044D01*
X0472311Y0542202D01*
X0472329Y0542359D01*
X0472350Y0542516D01*
X0472376Y0542672D01*
X0472406Y0542828D01*
X0472439Y0542983D01*
X0472477Y0543136D01*
X0472518Y0543289D01*
X0472563Y0543441D01*
X0472612Y0543592D01*
X0472665Y0543741D01*
X0472721Y0543889D01*
X0472781Y0544035D01*
X0472845Y0544180D01*
X0472913Y0544323D01*
X0472984Y0544465D01*
X0473058Y0544605D01*
X0473136Y0544742D01*
X0473218Y0544878D01*
X0473302Y0545012D01*
X0473391Y0545143D01*
X0473482Y0545272D01*
X0473577Y0545399D01*
X0473674Y0545524D01*
X0473775Y0545646D01*
X0473879Y0545765D01*
X0473986Y0545882D01*
X0474096Y0545996D01*
X0474209Y0546107D01*
X0474324Y0546216D01*
X0474442Y0546321D01*
X0474563Y0546423D01*
X0474686Y0546523D01*
X0474812Y0546619D01*
X0474940Y0546712D01*
X0475070Y0546802D01*
X0475203Y0546888D01*
X0475338Y0546972D01*
X0475474Y0547051D01*
X0475613Y0547128D01*
X0475754Y0547200D01*
X0475896Y0547270D01*
X0476040Y0547335D01*
X0476186Y0547397D01*
X0476333Y0547455D01*
X0476482Y0547510D01*
X0476632Y0547561D01*
X0476783Y0547608D01*
X0476935Y0547651D01*
X0477088Y0547690D01*
X0477243Y0547726D01*
X0477398Y0547757D01*
X0477554Y0547785D01*
X0477710Y0547809D01*
X0477867Y0547829D01*
X0478025Y0547845D01*
X0478182Y0547857D01*
X0478341Y0547865D01*
X0478499Y0547869D01*
X0478657Y0547869D01*
X0478815Y0547865D01*
X0478974Y0547857D01*
X0479131Y0547845D01*
X0479289Y0547829D01*
X0479446Y0547809D01*
X0479602Y0547785D01*
X0479758Y0547757D01*
X0479913Y0547726D01*
X0480068Y0547690D01*
X0480221Y0547651D01*
X0480373Y0547608D01*
X0480524Y0547561D01*
X0480674Y0547510D01*
X0480823Y0547455D01*
X0480970Y0547397D01*
X0481116Y0547335D01*
X0481260Y0547270D01*
X0481402Y0547200D01*
X0481543Y0547128D01*
X0481682Y0547051D01*
X0481818Y0546972D01*
X0481953Y0546888D01*
X0482086Y0546802D01*
X0482216Y0546712D01*
X0482344Y0546619D01*
X0482470Y0546523D01*
X0482593Y0546423D01*
X0482714Y0546321D01*
X0482832Y0546216D01*
X0482947Y0546107D01*
X0483060Y0545996D01*
X0483170Y0545882D01*
X0483277Y0545765D01*
X0483381Y0545646D01*
X0483482Y0545524D01*
X0483579Y0545399D01*
X0483674Y0545272D01*
X0483765Y0545143D01*
X0483854Y0545012D01*
X0483938Y0544878D01*
X0484020Y0544742D01*
X0484098Y0544605D01*
X0484172Y0544465D01*
X0484243Y0544323D01*
X0484311Y0544180D01*
X0484375Y0544035D01*
X0484435Y0543889D01*
X0484491Y0543741D01*
X0484544Y0543592D01*
X0484593Y0543441D01*
X0484638Y0543289D01*
X0484679Y0543136D01*
X0484717Y0542983D01*
X0484750Y0542828D01*
X0484780Y0542672D01*
X0484806Y0542516D01*
X0484827Y0542359D01*
X0484845Y0542202D01*
X0484859Y0542044D01*
X0484869Y0541886D01*
X0484875Y0541728D01*
X0484877Y0541570D01*
X0484875Y0541412D01*
X0484869Y0541254D01*
X0484859Y0541096D01*
X0484845Y0540938D01*
X0484827Y0540781D01*
X0484806Y0540624D01*
X0484780Y0540468D01*
X0484750Y0540312D01*
X0484717Y0540157D01*
X0484679Y0540004D01*
X0484638Y0539851D01*
X0484593Y0539699D01*
X0484544Y0539548D01*
X0484491Y0539399D01*
X0484435Y0539251D01*
X0484375Y0539105D01*
X0484311Y0538960D01*
X0484243Y0538817D01*
X0484172Y0538675D01*
X0484098Y0538535D01*
X0484020Y0538398D01*
X0483938Y0538262D01*
X0483854Y0538128D01*
X0483765Y0537997D01*
X0483674Y0537868D01*
X0483579Y0537741D01*
X0483482Y0537616D01*
X0483381Y0537494D01*
X0483277Y0537375D01*
X0483170Y0537258D01*
X0483060Y0537144D01*
X0482947Y0537033D01*
X0482832Y0536924D01*
X0482714Y0536819D01*
X0482593Y0536717D01*
X0482470Y0536617D01*
X0482344Y0536521D01*
X0482216Y0536428D01*
X0482086Y0536338D01*
X0481953Y0536252D01*
X0481818Y0536168D01*
X0481682Y0536089D01*
X0481543Y0536012D01*
X0481402Y0535940D01*
X0481260Y0535870D01*
X0481116Y0535805D01*
X0480970Y0535743D01*
X0480823Y0535685D01*
X0480674Y0535630D01*
X0480524Y0535579D01*
X0480373Y0535532D01*
X0480221Y0535489D01*
X0480068Y0535450D01*
X0479913Y0535414D01*
X0479758Y0535383D01*
X0479602Y0535355D01*
X0479446Y0535331D01*
X0479289Y0535311D01*
X0479131Y0535295D01*
X0478974Y0535283D01*
X0478815Y0535275D01*
X0478657Y0535271D01*
X0478499Y0535271D01*
X0478341Y0535275D01*
X0478182Y0535283D01*
X0478025Y0535295D01*
X0477867Y0535311D01*
X0477710Y0535331D01*
X0477554Y0535355D01*
X0477398Y0535383D01*
X0477243Y0535414D01*
X0477088Y0535450D01*
X0476935Y0535489D01*
X0476783Y0535532D01*
X0476632Y0535579D01*
X0476482Y0535630D01*
X0476333Y0535685D01*
X0476186Y0535743D01*
X0476040Y0535805D01*
X0475896Y0535870D01*
X0475754Y0535940D01*
X0475613Y0536012D01*
X0475474Y0536089D01*
X0475338Y0536168D01*
X0475203Y0536252D01*
X0475070Y0536338D01*
X0474940Y0536428D01*
X0474812Y0536521D01*
X0474686Y0536617D01*
X0474563Y0536717D01*
X0474442Y0536819D01*
X0474324Y0536924D01*
X0474209Y0537033D01*
X0474096Y0537144D01*
X0473986Y0537258D01*
X0473879Y0537375D01*
X0473775Y0537494D01*
X0473674Y0537616D01*
X0473577Y0537741D01*
X0473482Y0537868D01*
X0473391Y0537997D01*
X0473302Y0538128D01*
X0473218Y0538262D01*
X0473136Y0538398D01*
X0473058Y0538535D01*
X0472984Y0538675D01*
X0472913Y0538817D01*
X0472845Y0538960D01*
X0472781Y0539105D01*
X0472721Y0539251D01*
X0472665Y0539399D01*
X0472612Y0539548D01*
X0472563Y0539699D01*
X0472518Y0539851D01*
X0472477Y0540004D01*
X0472439Y0540157D01*
X0472406Y0540312D01*
X0472376Y0540468D01*
X0472350Y0540624D01*
X0472329Y0540781D01*
X0472311Y0540938D01*
X0472297Y0541096D01*
X0472287Y0541254D01*
X0472281Y0541412D01*
X0472279Y0541570D01*
X0472279Y0226609D02*
X0472281Y0226767D01*
X0472287Y0226925D01*
X0472297Y0227083D01*
X0472311Y0227241D01*
X0472329Y0227398D01*
X0472350Y0227555D01*
X0472376Y0227711D01*
X0472406Y0227867D01*
X0472439Y0228022D01*
X0472477Y0228175D01*
X0472518Y0228328D01*
X0472563Y0228480D01*
X0472612Y0228631D01*
X0472665Y0228780D01*
X0472721Y0228928D01*
X0472781Y0229074D01*
X0472845Y0229219D01*
X0472913Y0229362D01*
X0472984Y0229504D01*
X0473058Y0229644D01*
X0473136Y0229781D01*
X0473218Y0229917D01*
X0473302Y0230051D01*
X0473391Y0230182D01*
X0473482Y0230311D01*
X0473577Y0230438D01*
X0473674Y0230563D01*
X0473775Y0230685D01*
X0473879Y0230804D01*
X0473986Y0230921D01*
X0474096Y0231035D01*
X0474209Y0231146D01*
X0474324Y0231255D01*
X0474442Y0231360D01*
X0474563Y0231462D01*
X0474686Y0231562D01*
X0474812Y0231658D01*
X0474940Y0231751D01*
X0475070Y0231841D01*
X0475203Y0231927D01*
X0475338Y0232011D01*
X0475474Y0232090D01*
X0475613Y0232167D01*
X0475754Y0232239D01*
X0475896Y0232309D01*
X0476040Y0232374D01*
X0476186Y0232436D01*
X0476333Y0232494D01*
X0476482Y0232549D01*
X0476632Y0232600D01*
X0476783Y0232647D01*
X0476935Y0232690D01*
X0477088Y0232729D01*
X0477243Y0232765D01*
X0477398Y0232796D01*
X0477554Y0232824D01*
X0477710Y0232848D01*
X0477867Y0232868D01*
X0478025Y0232884D01*
X0478182Y0232896D01*
X0478341Y0232904D01*
X0478499Y0232908D01*
X0478657Y0232908D01*
X0478815Y0232904D01*
X0478974Y0232896D01*
X0479131Y0232884D01*
X0479289Y0232868D01*
X0479446Y0232848D01*
X0479602Y0232824D01*
X0479758Y0232796D01*
X0479913Y0232765D01*
X0480068Y0232729D01*
X0480221Y0232690D01*
X0480373Y0232647D01*
X0480524Y0232600D01*
X0480674Y0232549D01*
X0480823Y0232494D01*
X0480970Y0232436D01*
X0481116Y0232374D01*
X0481260Y0232309D01*
X0481402Y0232239D01*
X0481543Y0232167D01*
X0481682Y0232090D01*
X0481818Y0232011D01*
X0481953Y0231927D01*
X0482086Y0231841D01*
X0482216Y0231751D01*
X0482344Y0231658D01*
X0482470Y0231562D01*
X0482593Y0231462D01*
X0482714Y0231360D01*
X0482832Y0231255D01*
X0482947Y0231146D01*
X0483060Y0231035D01*
X0483170Y0230921D01*
X0483277Y0230804D01*
X0483381Y0230685D01*
X0483482Y0230563D01*
X0483579Y0230438D01*
X0483674Y0230311D01*
X0483765Y0230182D01*
X0483854Y0230051D01*
X0483938Y0229917D01*
X0484020Y0229781D01*
X0484098Y0229644D01*
X0484172Y0229504D01*
X0484243Y0229362D01*
X0484311Y0229219D01*
X0484375Y0229074D01*
X0484435Y0228928D01*
X0484491Y0228780D01*
X0484544Y0228631D01*
X0484593Y0228480D01*
X0484638Y0228328D01*
X0484679Y0228175D01*
X0484717Y0228022D01*
X0484750Y0227867D01*
X0484780Y0227711D01*
X0484806Y0227555D01*
X0484827Y0227398D01*
X0484845Y0227241D01*
X0484859Y0227083D01*
X0484869Y0226925D01*
X0484875Y0226767D01*
X0484877Y0226609D01*
X0484875Y0226451D01*
X0484869Y0226293D01*
X0484859Y0226135D01*
X0484845Y0225977D01*
X0484827Y0225820D01*
X0484806Y0225663D01*
X0484780Y0225507D01*
X0484750Y0225351D01*
X0484717Y0225196D01*
X0484679Y0225043D01*
X0484638Y0224890D01*
X0484593Y0224738D01*
X0484544Y0224587D01*
X0484491Y0224438D01*
X0484435Y0224290D01*
X0484375Y0224144D01*
X0484311Y0223999D01*
X0484243Y0223856D01*
X0484172Y0223714D01*
X0484098Y0223574D01*
X0484020Y0223437D01*
X0483938Y0223301D01*
X0483854Y0223167D01*
X0483765Y0223036D01*
X0483674Y0222907D01*
X0483579Y0222780D01*
X0483482Y0222655D01*
X0483381Y0222533D01*
X0483277Y0222414D01*
X0483170Y0222297D01*
X0483060Y0222183D01*
X0482947Y0222072D01*
X0482832Y0221963D01*
X0482714Y0221858D01*
X0482593Y0221756D01*
X0482470Y0221656D01*
X0482344Y0221560D01*
X0482216Y0221467D01*
X0482086Y0221377D01*
X0481953Y0221291D01*
X0481818Y0221207D01*
X0481682Y0221128D01*
X0481543Y0221051D01*
X0481402Y0220979D01*
X0481260Y0220909D01*
X0481116Y0220844D01*
X0480970Y0220782D01*
X0480823Y0220724D01*
X0480674Y0220669D01*
X0480524Y0220618D01*
X0480373Y0220571D01*
X0480221Y0220528D01*
X0480068Y0220489D01*
X0479913Y0220453D01*
X0479758Y0220422D01*
X0479602Y0220394D01*
X0479446Y0220370D01*
X0479289Y0220350D01*
X0479131Y0220334D01*
X0478974Y0220322D01*
X0478815Y0220314D01*
X0478657Y0220310D01*
X0478499Y0220310D01*
X0478341Y0220314D01*
X0478182Y0220322D01*
X0478025Y0220334D01*
X0477867Y0220350D01*
X0477710Y0220370D01*
X0477554Y0220394D01*
X0477398Y0220422D01*
X0477243Y0220453D01*
X0477088Y0220489D01*
X0476935Y0220528D01*
X0476783Y0220571D01*
X0476632Y0220618D01*
X0476482Y0220669D01*
X0476333Y0220724D01*
X0476186Y0220782D01*
X0476040Y0220844D01*
X0475896Y0220909D01*
X0475754Y0220979D01*
X0475613Y0221051D01*
X0475474Y0221128D01*
X0475338Y0221207D01*
X0475203Y0221291D01*
X0475070Y0221377D01*
X0474940Y0221467D01*
X0474812Y0221560D01*
X0474686Y0221656D01*
X0474563Y0221756D01*
X0474442Y0221858D01*
X0474324Y0221963D01*
X0474209Y0222072D01*
X0474096Y0222183D01*
X0473986Y0222297D01*
X0473879Y0222414D01*
X0473775Y0222533D01*
X0473674Y0222655D01*
X0473577Y0222780D01*
X0473482Y0222907D01*
X0473391Y0223036D01*
X0473302Y0223167D01*
X0473218Y0223301D01*
X0473136Y0223437D01*
X0473058Y0223574D01*
X0472984Y0223714D01*
X0472913Y0223856D01*
X0472845Y0223999D01*
X0472781Y0224144D01*
X0472721Y0224290D01*
X0472665Y0224438D01*
X0472612Y0224587D01*
X0472563Y0224738D01*
X0472518Y0224890D01*
X0472477Y0225043D01*
X0472439Y0225196D01*
X0472406Y0225351D01*
X0472376Y0225507D01*
X0472350Y0225663D01*
X0472329Y0225820D01*
X0472311Y0225977D01*
X0472297Y0226135D01*
X0472287Y0226293D01*
X0472281Y0226451D01*
X0472279Y0226609D01*
D17*
X0380492Y0308859D02*
X0379441Y0307809D01*
X0380492Y0308859D02*
X0380492Y0310961D01*
X0379441Y0312012D01*
X0378390Y0312012D01*
X0377339Y0310961D01*
X0377339Y0309910D01*
X0377339Y0310961D02*
X0376288Y0312012D01*
X0375237Y0312012D01*
X0374186Y0310961D01*
X0374186Y0308859D01*
X0375237Y0307809D01*
X0374186Y0314254D02*
X0378390Y0314254D01*
X0380492Y0316356D01*
X0378390Y0318458D01*
X0374186Y0318458D01*
X0354427Y0193072D02*
X0352325Y0190970D01*
X0352325Y0186767D01*
X0350130Y0186767D02*
X0348028Y0186767D01*
X0349079Y0186767D02*
X0349079Y0193072D01*
X0348028Y0193072D02*
X0350130Y0193072D01*
X0352325Y0189919D02*
X0356528Y0189919D01*
X0356528Y0190970D02*
X0356528Y0186767D01*
X0356528Y0190970D02*
X0354427Y0193072D01*
X0345786Y0192021D02*
X0345786Y0189919D01*
X0344735Y0188868D01*
X0341582Y0188868D01*
X0341582Y0186767D02*
X0341582Y0193072D01*
X0344735Y0193072D01*
X0345786Y0192021D01*
X0343684Y0188868D02*
X0345786Y0186767D01*
X0339341Y0186767D02*
X0335137Y0186767D01*
X0335137Y0193072D01*
X0339341Y0193072D01*
X0337239Y0189919D02*
X0335137Y0189919D01*
X0332895Y0193072D02*
X0328691Y0193072D01*
X0330793Y0193072D02*
X0330793Y0186767D01*
X0326450Y0186767D02*
X0326450Y0190970D01*
X0324348Y0193072D01*
X0322246Y0190970D01*
X0322246Y0186767D01*
X0320004Y0187817D02*
X0318953Y0186767D01*
X0315800Y0186767D01*
X0315800Y0193072D01*
X0318953Y0193072D01*
X0320004Y0192021D01*
X0320004Y0190970D01*
X0318953Y0189919D01*
X0315800Y0189919D01*
X0318953Y0189919D02*
X0320004Y0188868D01*
X0320004Y0187817D01*
X0322246Y0189919D02*
X0326450Y0189919D01*
X0527730Y0382612D02*
X0530882Y0382612D01*
X0529831Y0384714D01*
X0529831Y0385764D01*
X0530882Y0386815D01*
X0532984Y0386815D01*
X0534035Y0385764D01*
X0534035Y0383663D01*
X0532984Y0382612D01*
X0527730Y0382612D02*
X0527730Y0386815D01*
X0527730Y0389057D02*
X0531933Y0389057D01*
X0534035Y0391159D01*
X0531933Y0393261D01*
X0527730Y0393261D01*
X0406135Y0496609D02*
X0401931Y0496609D01*
X0404033Y0496609D02*
X0404033Y0502914D01*
X0401931Y0500813D01*
X0399689Y0500813D02*
X0399689Y0496609D01*
X0399689Y0499762D02*
X0395486Y0499762D01*
X0395486Y0500813D02*
X0397587Y0502914D01*
X0399689Y0500813D01*
X0395486Y0500813D02*
X0395486Y0496609D01*
X0393244Y0497660D02*
X0392193Y0496609D01*
X0390091Y0496609D01*
X0389040Y0497660D01*
X0389040Y0501864D01*
X0390091Y0502914D01*
X0392193Y0502914D01*
X0393244Y0501864D01*
X0386845Y0502914D02*
X0384743Y0502914D01*
X0385794Y0502914D02*
X0385794Y0496609D01*
X0384743Y0496609D02*
X0386845Y0496609D01*
X0382501Y0496609D02*
X0382501Y0502914D01*
X0378298Y0502914D02*
X0378298Y0496609D01*
X0376056Y0496609D02*
X0373954Y0498711D01*
X0375005Y0498711D02*
X0371852Y0498711D01*
X0371852Y0496609D02*
X0371852Y0502914D01*
X0375005Y0502914D01*
X0376056Y0501864D01*
X0376056Y0499762D01*
X0375005Y0498711D01*
X0378298Y0502914D02*
X0382501Y0496609D01*
X0369610Y0497660D02*
X0369610Y0501864D01*
X0368559Y0502914D01*
X0366458Y0502914D01*
X0365407Y0501864D01*
X0365407Y0497660D01*
X0366458Y0496609D01*
X0368559Y0496609D01*
X0369610Y0497660D01*
X0363165Y0496609D02*
X0363165Y0502914D01*
X0358961Y0502914D02*
X0358961Y0496609D01*
X0361063Y0498711D01*
X0363165Y0496609D01*
X0354617Y0496609D02*
X0354617Y0502914D01*
X0352516Y0502914D02*
X0356719Y0502914D01*
X0350274Y0502914D02*
X0346070Y0502914D01*
X0346070Y0496609D01*
X0350274Y0496609D01*
X0348172Y0499762D02*
X0346070Y0499762D01*
X0343828Y0501864D02*
X0343828Y0502914D01*
X0339625Y0502914D01*
X0337383Y0501864D02*
X0337383Y0499762D01*
X0336332Y0498711D01*
X0333179Y0498711D01*
X0333179Y0496609D02*
X0333179Y0502914D01*
X0336332Y0502914D01*
X0337383Y0501864D01*
X0335281Y0498711D02*
X0337383Y0496609D01*
X0339625Y0496609D02*
X0343828Y0496609D01*
X0339625Y0496609D02*
X0339625Y0497660D01*
X0343828Y0501864D01*
X0330937Y0501864D02*
X0329886Y0502914D01*
X0326734Y0502914D01*
X0326734Y0496609D01*
X0326734Y0498711D02*
X0329886Y0498711D01*
X0330937Y0499762D01*
X0330937Y0501864D01*
D18*
X0504385Y0398153D02*
X0504385Y0362153D01*
X0536885Y0362153D01*
X0536885Y0398153D01*
X0504385Y0398153D01*
X0383342Y0323350D02*
X0383342Y0287350D01*
X0350842Y0287350D01*
X0350842Y0323350D01*
X0383342Y0323350D01*
D19*
X0336092Y0315350D03*
X0336092Y0305350D03*
X0336092Y0295350D03*
X0489635Y0370153D03*
X0489635Y0380153D03*
X0489635Y0390153D03*
D20*
X0496385Y0390153D03*
X0496385Y0380153D03*
X0496385Y0370153D03*
X0342842Y0315350D03*
X0342842Y0305350D03*
X0342842Y0295350D03*
D21*
X0334680Y0326019D02*
X0323263Y0326019D01*
X0323263Y0387043D01*
X0334680Y0387043D01*
X0334680Y0326019D01*
X0299247Y0326019D02*
X0299247Y0387043D01*
X0287830Y0387043D01*
X0287830Y0326019D01*
X0299247Y0326019D01*
M02*
