G75*
%MOIN*%
%OFA0B0*%
%FSLAX25Y25*%
%IPPOS*%
%LPD*%
%AMOC8*
5,1,8,0,0,1.08239X$1,22.5*
%
%ADD10R,0.04724X0.04724*%
%ADD11C,0.06000*%
%ADD12OC8,0.06000*%
%ADD13R,0.05118X0.05906*%
%ADD14C,0.05800*%
%ADD15R,0.06299X0.07087*%
%ADD16C,0.07800*%
%ADD17C,0.06600*%
%ADD18C,0.07087*%
%ADD19R,0.05906X0.05118*%
%ADD20R,0.07087X0.06299*%
%ADD21C,0.03200*%
%ADD22R,0.03962X0.03962*%
%ADD23C,0.02400*%
%ADD24C,0.05000*%
%ADD25C,0.01600*%
%ADD26C,0.08600*%
%ADD27C,0.15000*%
%ADD28C,0.10000*%
D10*
X0296885Y0261885D03*
X0296885Y0270153D03*
X0439011Y0510074D03*
X0447279Y0510074D03*
X0447279Y0525822D03*
X0439011Y0525822D03*
D11*
X0461602Y0481373D02*
X0467602Y0481373D01*
X0467602Y0471373D02*
X0461602Y0471373D01*
X0461602Y0461373D02*
X0467602Y0461373D01*
X0467602Y0451373D02*
X0461602Y0451373D01*
X0452050Y0453145D02*
X0446050Y0453145D01*
X0446050Y0443145D02*
X0452050Y0443145D01*
X0452050Y0433145D02*
X0446050Y0433145D01*
X0406775Y0404090D02*
X0400775Y0404090D01*
X0400775Y0394090D02*
X0406775Y0394090D01*
X0406775Y0384090D02*
X0400775Y0384090D01*
X0400775Y0374090D02*
X0406775Y0374090D01*
X0406775Y0364090D02*
X0400775Y0364090D01*
X0427239Y0375184D02*
X0427239Y0381184D01*
X0437239Y0381184D02*
X0437239Y0375184D01*
X0447239Y0375184D02*
X0447239Y0381184D01*
X0447239Y0337877D02*
X0447239Y0331877D01*
X0437239Y0331877D02*
X0437239Y0337877D01*
X0427239Y0337877D02*
X0427239Y0331877D01*
X0427239Y0296539D02*
X0427239Y0290539D01*
X0437239Y0290539D02*
X0437239Y0296539D01*
X0447239Y0296539D02*
X0447239Y0290539D01*
X0340940Y0400775D02*
X0340940Y0406775D01*
X0330940Y0406775D02*
X0330940Y0400775D01*
X0320940Y0400775D02*
X0320940Y0406775D01*
X0320940Y0440145D02*
X0320940Y0446145D01*
X0330940Y0446145D02*
X0330940Y0440145D01*
X0340940Y0440145D02*
X0340940Y0446145D01*
X0340940Y0479515D02*
X0340940Y0485515D01*
X0330940Y0485515D02*
X0330940Y0479515D01*
X0320940Y0479515D02*
X0320940Y0485515D01*
D12*
X0320940Y0497200D03*
X0320940Y0507200D03*
X0330940Y0507200D03*
X0330940Y0497200D03*
X0340940Y0497200D03*
X0340940Y0507200D03*
X0340940Y0467830D03*
X0330940Y0467830D03*
X0320940Y0467830D03*
X0320940Y0457830D03*
X0330940Y0457830D03*
X0340940Y0457830D03*
X0340940Y0428460D03*
X0330940Y0428460D03*
X0330940Y0418460D03*
X0340940Y0418460D03*
X0320940Y0418460D03*
X0320940Y0428460D03*
X0427239Y0402869D03*
X0427239Y0392869D03*
X0437239Y0392869D03*
X0447239Y0392869D03*
X0447239Y0402869D03*
X0437239Y0402869D03*
X0453578Y0419129D03*
X0447239Y0359562D03*
X0437239Y0359562D03*
X0427239Y0359562D03*
X0427239Y0349562D03*
X0437239Y0349562D03*
X0447239Y0349562D03*
X0447239Y0318224D03*
X0437239Y0318224D03*
X0437239Y0308224D03*
X0447239Y0308224D03*
X0427239Y0308224D03*
X0427239Y0318224D03*
D13*
X0470901Y0339208D03*
X0478381Y0339208D03*
X0474838Y0419326D03*
X0467357Y0419326D03*
X0470507Y0502200D03*
X0463027Y0502200D03*
X0463027Y0517948D03*
X0470507Y0517948D03*
X0356334Y0254169D03*
X0348854Y0254169D03*
X0328775Y0254169D03*
X0321294Y0254169D03*
X0309247Y0246176D03*
X0301767Y0246176D03*
D14*
X0354090Y0274090D03*
X0354090Y0284090D03*
X0364090Y0284090D03*
X0354090Y0294090D03*
X0354090Y0304090D03*
X0364090Y0304090D03*
X0364090Y0314090D03*
X0364090Y0324090D03*
X0354090Y0324090D03*
X0354090Y0334090D03*
X0354090Y0344090D03*
X0354090Y0354090D03*
X0354090Y0364090D03*
X0354090Y0374090D03*
X0354090Y0384090D03*
X0354090Y0394090D03*
X0354090Y0404090D03*
X0354090Y0414090D03*
X0354090Y0424090D03*
X0354090Y0434090D03*
X0354090Y0444090D03*
X0354090Y0454090D03*
X0354090Y0464090D03*
X0354090Y0474090D03*
X0354090Y0484090D03*
X0354090Y0494090D03*
X0354090Y0504090D03*
X0414090Y0504090D03*
X0414090Y0494090D03*
X0414090Y0484090D03*
X0414090Y0474090D03*
X0414090Y0464090D03*
X0414090Y0454090D03*
X0414090Y0444090D03*
X0414090Y0434090D03*
X0414090Y0424090D03*
X0414090Y0414090D03*
X0414090Y0404090D03*
X0414090Y0394090D03*
X0414090Y0384090D03*
X0414090Y0374090D03*
X0414090Y0364090D03*
X0414090Y0354090D03*
X0414090Y0344090D03*
X0414090Y0334090D03*
X0414090Y0324090D03*
X0414090Y0314090D03*
X0414090Y0304090D03*
X0414090Y0294090D03*
X0414090Y0284090D03*
X0414090Y0274090D03*
X0354090Y0314090D03*
D15*
X0469326Y0350625D03*
X0480350Y0350625D03*
D16*
X0348320Y0223817D02*
X0348320Y0216017D01*
X0328620Y0216017D02*
X0328620Y0223817D01*
X0378227Y0525859D02*
X0378227Y0533659D01*
X0397927Y0533659D02*
X0397927Y0525859D01*
D17*
X0478585Y0390153D02*
X0485185Y0390153D01*
X0485185Y0380153D02*
X0478585Y0380153D01*
X0478585Y0370153D02*
X0485185Y0370153D01*
X0331642Y0315350D02*
X0325042Y0315350D01*
X0325042Y0305350D02*
X0331642Y0305350D01*
X0331642Y0295350D02*
X0325042Y0295350D01*
X0373027Y0223217D02*
X0373027Y0216617D01*
X0388027Y0216617D02*
X0388027Y0223217D01*
X0403027Y0223217D02*
X0403027Y0216617D01*
X0424208Y0216617D02*
X0424208Y0223217D01*
X0439208Y0223217D02*
X0439208Y0216617D01*
X0454208Y0216617D02*
X0454208Y0223217D01*
D18*
X0332515Y0331531D02*
X0325428Y0331531D01*
X0325428Y0341531D02*
X0332515Y0341531D01*
X0332515Y0351531D02*
X0325428Y0351531D01*
X0325428Y0361531D02*
X0332515Y0361531D01*
X0332515Y0371531D02*
X0325428Y0371531D01*
X0325428Y0381531D02*
X0332515Y0381531D01*
X0297082Y0381531D02*
X0289995Y0381531D01*
X0289995Y0371531D02*
X0297082Y0371531D01*
X0297082Y0361531D02*
X0289995Y0361531D01*
X0289995Y0351531D02*
X0297082Y0351531D01*
X0297082Y0341531D02*
X0289995Y0341531D01*
X0289995Y0331531D02*
X0297082Y0331531D01*
D19*
X0427397Y0419720D03*
X0427397Y0427200D03*
X0437239Y0427594D03*
X0437239Y0435074D03*
X0427397Y0453972D03*
X0427397Y0461452D03*
X0486452Y0460665D03*
X0486452Y0453184D03*
D20*
X0475822Y0452003D03*
X0475822Y0463027D03*
X0437239Y0464405D03*
X0437239Y0453381D03*
D21*
X0403775Y0404090D02*
X0401137Y0404090D01*
X0386649Y0389602D01*
X0386649Y0326216D01*
X0369523Y0309090D01*
X0328342Y0305350D02*
X0325035Y0305350D01*
X0296885Y0277200D01*
X0296885Y0270153D01*
X0296885Y0261885D02*
X0296885Y0251058D01*
X0301767Y0246176D01*
X0348320Y0219917D02*
X0373027Y0219917D01*
X0388027Y0219917D02*
X0388027Y0229956D01*
X0363814Y0254169D01*
X0356334Y0254169D01*
X0388027Y0222672D02*
X0415586Y0250231D01*
X0435271Y0250231D01*
X0485822Y0300783D01*
X0485822Y0331767D01*
X0478381Y0339208D01*
X0485822Y0345153D02*
X0485822Y0331767D01*
X0485822Y0345153D02*
X0485822Y0366216D01*
X0481885Y0370153D01*
X0480350Y0350625D02*
X0485822Y0345153D01*
X0388027Y0222672D02*
X0388027Y0219917D01*
D22*
X0388027Y0250231D03*
X0369523Y0309090D03*
D23*
X0277290Y0240818D02*
X0275117Y0238309D01*
X0275117Y0529871D01*
X0277290Y0527362D01*
X0277290Y0527362D01*
X0281792Y0524469D01*
X0286926Y0522961D01*
X0292277Y0522961D01*
X0297411Y0524469D01*
X0297411Y0524469D01*
X0301913Y0527362D01*
X0305417Y0531406D01*
X0307640Y0536273D01*
X0307640Y0536274D01*
X0308402Y0541570D01*
X0307640Y0546867D01*
X0305417Y0551734D01*
X0305417Y0551734D01*
X0301913Y0555778D01*
X0301913Y0555778D01*
X0301482Y0556055D01*
X0466698Y0556055D01*
X0466267Y0555778D01*
X0466267Y0555778D01*
X0462762Y0551734D01*
X0460539Y0546867D01*
X0460539Y0546867D01*
X0459778Y0541570D01*
X0460539Y0536274D01*
X0460539Y0536273D01*
X0462762Y0531406D01*
X0466267Y0527362D01*
X0470768Y0524469D01*
X0470768Y0524469D01*
X0475902Y0522961D01*
X0481253Y0522961D01*
X0486388Y0524469D01*
X0490889Y0527362D01*
X0490889Y0527362D01*
X0493063Y0529871D01*
X0493063Y0238309D01*
X0490889Y0240818D01*
X0486388Y0243711D01*
X0481253Y0245218D01*
X0475902Y0245218D01*
X0470768Y0243711D01*
X0466267Y0240818D01*
X0466267Y0240818D01*
X0466267Y0240818D01*
X0462762Y0236773D01*
X0460539Y0231906D01*
X0459778Y0226609D01*
X0459976Y0225231D01*
X0459379Y0226672D01*
X0457663Y0228388D01*
X0455421Y0229317D01*
X0452995Y0229317D01*
X0450752Y0228388D01*
X0449037Y0226672D01*
X0448108Y0224430D01*
X0448108Y0215403D01*
X0449037Y0213161D01*
X0450073Y0212124D01*
X0443342Y0212124D01*
X0444379Y0213161D01*
X0445308Y0215403D01*
X0445308Y0224430D01*
X0444379Y0226672D01*
X0442663Y0228388D01*
X0440421Y0229317D01*
X0437995Y0229317D01*
X0435752Y0228388D01*
X0434037Y0226672D01*
X0433108Y0224430D01*
X0433108Y0215403D01*
X0434037Y0213161D01*
X0435073Y0212124D01*
X0428342Y0212124D01*
X0429379Y0213161D01*
X0430308Y0215403D01*
X0430308Y0224430D01*
X0429379Y0226672D01*
X0427663Y0228388D01*
X0425421Y0229317D01*
X0422995Y0229317D01*
X0420752Y0228388D01*
X0419037Y0226672D01*
X0418108Y0224430D01*
X0418108Y0215403D01*
X0419037Y0213161D01*
X0420073Y0212124D01*
X0407161Y0212124D01*
X0408198Y0213161D01*
X0409127Y0215403D01*
X0409127Y0224430D01*
X0408198Y0226672D01*
X0406482Y0228388D01*
X0404240Y0229317D01*
X0401813Y0229317D01*
X0400243Y0228666D01*
X0417408Y0245831D01*
X0436146Y0245831D01*
X0437763Y0246501D01*
X0439001Y0247739D01*
X0489552Y0298290D01*
X0490222Y0299907D01*
X0490222Y0366563D01*
X0490356Y0366697D01*
X0491285Y0368939D01*
X0491285Y0371366D01*
X0490356Y0373608D01*
X0488812Y0375153D01*
X0490356Y0376697D01*
X0491285Y0378939D01*
X0491285Y0381366D01*
X0490356Y0383608D01*
X0488640Y0385324D01*
X0488166Y0385520D01*
X0488768Y0385958D01*
X0489380Y0386570D01*
X0489889Y0387270D01*
X0490282Y0388041D01*
X0490550Y0388865D01*
X0490685Y0389720D01*
X0490685Y0390153D01*
X0490685Y0390586D01*
X0490550Y0391441D01*
X0490282Y0392264D01*
X0489889Y0393035D01*
X0489380Y0393736D01*
X0488768Y0394348D01*
X0488068Y0394857D01*
X0487296Y0395250D01*
X0486473Y0395517D01*
X0485618Y0395653D01*
X0481885Y0395653D01*
X0478152Y0395653D01*
X0477297Y0395517D01*
X0476474Y0395250D01*
X0475702Y0394857D01*
X0475002Y0394348D01*
X0474390Y0393736D01*
X0473881Y0393035D01*
X0473488Y0392264D01*
X0473220Y0391441D01*
X0473085Y0390586D01*
X0473085Y0390153D01*
X0481885Y0390153D01*
X0481885Y0395653D01*
X0481885Y0390153D01*
X0481885Y0390153D01*
X0481885Y0390153D01*
X0490685Y0390153D01*
X0481885Y0390153D01*
X0481885Y0390153D01*
X0473085Y0390153D01*
X0473085Y0389720D01*
X0473220Y0388865D01*
X0473488Y0388041D01*
X0473881Y0387270D01*
X0474390Y0386570D01*
X0475002Y0385958D01*
X0475604Y0385520D01*
X0475130Y0385324D01*
X0473414Y0383608D01*
X0472485Y0381366D01*
X0472485Y0378939D01*
X0473414Y0376697D01*
X0474958Y0375153D01*
X0473414Y0373608D01*
X0472485Y0371366D01*
X0472485Y0368939D01*
X0473414Y0366697D01*
X0475130Y0364981D01*
X0477372Y0364053D01*
X0481422Y0364053D01*
X0481422Y0356968D01*
X0476643Y0356968D01*
X0475614Y0356542D01*
X0474826Y0355755D01*
X0474523Y0355022D01*
X0474236Y0355519D01*
X0473826Y0355929D01*
X0473325Y0356219D01*
X0472765Y0356368D01*
X0469701Y0356368D01*
X0469701Y0351000D01*
X0468951Y0351000D01*
X0468951Y0350250D01*
X0469701Y0350250D01*
X0469701Y0344882D01*
X0472765Y0344882D01*
X0473325Y0345032D01*
X0473826Y0345321D01*
X0474236Y0345731D01*
X0474523Y0346228D01*
X0474826Y0345496D01*
X0475361Y0344961D01*
X0475265Y0344961D01*
X0474236Y0344534D01*
X0473996Y0344295D01*
X0473749Y0344361D01*
X0470980Y0344361D01*
X0470980Y0339287D01*
X0470821Y0339287D01*
X0470821Y0339128D01*
X0470980Y0339128D01*
X0470980Y0334055D01*
X0473749Y0334055D01*
X0473996Y0334121D01*
X0474236Y0333881D01*
X0475265Y0333455D01*
X0477911Y0333455D01*
X0481422Y0329944D01*
X0481422Y0302605D01*
X0433448Y0254631D01*
X0414711Y0254631D01*
X0413093Y0253962D01*
X0411856Y0252724D01*
X0391669Y0232537D01*
X0390519Y0233686D01*
X0366307Y0257899D01*
X0364689Y0258568D01*
X0361324Y0258568D01*
X0361267Y0258707D01*
X0360479Y0259495D01*
X0359450Y0259921D01*
X0353218Y0259921D01*
X0352594Y0259663D01*
X0351970Y0259921D01*
X0347690Y0259921D01*
X0347772Y0260003D01*
X0348320Y0261326D01*
X0348320Y0296772D01*
X0350833Y0299285D01*
X0350861Y0299258D01*
X0351266Y0299090D01*
X0350861Y0298922D01*
X0349258Y0297319D01*
X0348390Y0295224D01*
X0348390Y0292956D01*
X0349258Y0290861D01*
X0350861Y0289258D01*
X0352040Y0288769D01*
X0351417Y0288452D01*
X0350767Y0287980D01*
X0350200Y0287412D01*
X0349728Y0286763D01*
X0349363Y0286047D01*
X0349115Y0285284D01*
X0348990Y0284491D01*
X0348990Y0284090D01*
X0354090Y0284090D01*
X0354090Y0284090D01*
X0348990Y0284090D01*
X0348990Y0283688D01*
X0349115Y0282895D01*
X0349363Y0282132D01*
X0349728Y0281417D01*
X0350200Y0280767D01*
X0350767Y0280200D01*
X0351417Y0279728D01*
X0352040Y0279410D01*
X0350861Y0278922D01*
X0349258Y0277319D01*
X0348390Y0275224D01*
X0348390Y0272956D01*
X0349258Y0270861D01*
X0350861Y0269258D01*
X0352956Y0268390D01*
X0355224Y0268390D01*
X0357319Y0269258D01*
X0358922Y0270861D01*
X0359790Y0272956D01*
X0359790Y0275224D01*
X0358922Y0277319D01*
X0357319Y0278922D01*
X0356140Y0279410D01*
X0356763Y0279728D01*
X0357412Y0280200D01*
X0357980Y0280767D01*
X0358452Y0281417D01*
X0358769Y0282040D01*
X0359258Y0280861D01*
X0360861Y0279258D01*
X0362956Y0278390D01*
X0365224Y0278390D01*
X0367319Y0279258D01*
X0368922Y0280861D01*
X0369790Y0282956D01*
X0369790Y0285224D01*
X0368922Y0287319D01*
X0367319Y0288922D01*
X0365224Y0289790D01*
X0362956Y0289790D01*
X0360861Y0288922D01*
X0359258Y0287319D01*
X0358769Y0286140D01*
X0358452Y0286763D01*
X0357980Y0287412D01*
X0357412Y0287980D01*
X0356763Y0288452D01*
X0356140Y0288769D01*
X0357319Y0289258D01*
X0358922Y0290861D01*
X0359790Y0292956D01*
X0359790Y0295224D01*
X0358922Y0297319D01*
X0357319Y0298922D01*
X0356913Y0299090D01*
X0357319Y0299258D01*
X0358922Y0300861D01*
X0359090Y0301266D01*
X0359258Y0300861D01*
X0360861Y0299258D01*
X0362956Y0298390D01*
X0365224Y0298390D01*
X0367319Y0299258D01*
X0368922Y0300861D01*
X0369790Y0302956D01*
X0369790Y0304309D01*
X0372061Y0304309D01*
X0373090Y0304735D01*
X0373878Y0305523D01*
X0374304Y0306552D01*
X0374304Y0307648D01*
X0389141Y0322486D01*
X0390379Y0323723D01*
X0391049Y0325341D01*
X0391049Y0387779D01*
X0395811Y0392541D01*
X0395956Y0392094D01*
X0396327Y0391364D01*
X0396808Y0390702D01*
X0397387Y0390123D01*
X0398049Y0389642D01*
X0398486Y0389420D01*
X0397489Y0389007D01*
X0395858Y0387375D01*
X0394975Y0385243D01*
X0394975Y0382936D01*
X0395858Y0380804D01*
X0397489Y0379173D01*
X0397690Y0379090D01*
X0397489Y0379007D01*
X0395858Y0377375D01*
X0394975Y0375243D01*
X0394975Y0372936D01*
X0395858Y0370804D01*
X0397489Y0369173D01*
X0397690Y0369090D01*
X0397489Y0369007D01*
X0395858Y0367375D01*
X0394975Y0365243D01*
X0394975Y0362936D01*
X0395858Y0360804D01*
X0397489Y0359173D01*
X0399621Y0358290D01*
X0407928Y0358290D01*
X0410060Y0359173D01*
X0410503Y0359616D01*
X0410861Y0359258D01*
X0411266Y0359090D01*
X0410861Y0358922D01*
X0409258Y0357319D01*
X0408390Y0355224D01*
X0408390Y0352956D01*
X0409258Y0350861D01*
X0410861Y0349258D01*
X0411266Y0349090D01*
X0410861Y0348922D01*
X0409258Y0347319D01*
X0408390Y0345224D01*
X0408390Y0342956D01*
X0409258Y0340861D01*
X0410861Y0339258D01*
X0411266Y0339090D01*
X0410861Y0338922D01*
X0409258Y0337319D01*
X0408390Y0335224D01*
X0408390Y0332956D01*
X0409258Y0330861D01*
X0410861Y0329258D01*
X0411266Y0329090D01*
X0410861Y0328922D01*
X0409258Y0327319D01*
X0408390Y0325224D01*
X0408390Y0322956D01*
X0409258Y0320861D01*
X0410861Y0319258D01*
X0411266Y0319090D01*
X0410861Y0318922D01*
X0409258Y0317319D01*
X0408390Y0315224D01*
X0408390Y0312956D01*
X0409258Y0310861D01*
X0410861Y0309258D01*
X0411266Y0309090D01*
X0410861Y0308922D01*
X0409258Y0307319D01*
X0408390Y0305224D01*
X0408390Y0302956D01*
X0409258Y0300861D01*
X0410861Y0299258D01*
X0411266Y0299090D01*
X0410861Y0298922D01*
X0409258Y0297319D01*
X0408390Y0295224D01*
X0408390Y0292956D01*
X0409258Y0290861D01*
X0410861Y0289258D01*
X0411266Y0289090D01*
X0410861Y0288922D01*
X0409258Y0287319D01*
X0408390Y0285224D01*
X0408390Y0282956D01*
X0409258Y0280861D01*
X0410861Y0279258D01*
X0412040Y0278769D01*
X0411417Y0278452D01*
X0410767Y0277980D01*
X0410200Y0277412D01*
X0409728Y0276763D01*
X0409363Y0276047D01*
X0409115Y0275284D01*
X0408990Y0274491D01*
X0408990Y0274090D01*
X0414090Y0274090D01*
X0419190Y0274090D01*
X0419190Y0274491D01*
X0419064Y0275284D01*
X0418816Y0276047D01*
X0418452Y0276763D01*
X0417980Y0277412D01*
X0417412Y0277980D01*
X0416763Y0278452D01*
X0416140Y0278769D01*
X0417319Y0279258D01*
X0418922Y0280861D01*
X0419790Y0282956D01*
X0419790Y0285224D01*
X0418922Y0287319D01*
X0417319Y0288922D01*
X0416913Y0289090D01*
X0417319Y0289258D01*
X0418922Y0290861D01*
X0419790Y0292956D01*
X0419790Y0295224D01*
X0418922Y0297319D01*
X0417319Y0298922D01*
X0416913Y0299090D01*
X0417319Y0299258D01*
X0418922Y0300861D01*
X0419790Y0302956D01*
X0419790Y0305224D01*
X0418922Y0307319D01*
X0417319Y0308922D01*
X0416913Y0309090D01*
X0417319Y0309258D01*
X0418922Y0310861D01*
X0419790Y0312956D01*
X0419790Y0315224D01*
X0418922Y0317319D01*
X0417319Y0318922D01*
X0416913Y0319090D01*
X0417319Y0319258D01*
X0418922Y0320861D01*
X0419790Y0322956D01*
X0419790Y0325224D01*
X0418922Y0327319D01*
X0417319Y0328922D01*
X0416913Y0329090D01*
X0417319Y0329258D01*
X0418922Y0330861D01*
X0419790Y0332956D01*
X0419790Y0335224D01*
X0418922Y0337319D01*
X0417319Y0338922D01*
X0416913Y0339090D01*
X0417319Y0339258D01*
X0418922Y0340861D01*
X0419790Y0342956D01*
X0419790Y0345224D01*
X0418922Y0347319D01*
X0417319Y0348922D01*
X0416913Y0349090D01*
X0417319Y0349258D01*
X0418922Y0350861D01*
X0419790Y0352956D01*
X0419790Y0355224D01*
X0418922Y0357319D01*
X0417319Y0358922D01*
X0416913Y0359090D01*
X0417319Y0359258D01*
X0418922Y0360861D01*
X0419790Y0362956D01*
X0419790Y0365224D01*
X0418922Y0367319D01*
X0417319Y0368922D01*
X0416913Y0369090D01*
X0417319Y0369258D01*
X0418922Y0370861D01*
X0419790Y0372956D01*
X0419790Y0375224D01*
X0418922Y0377319D01*
X0417319Y0378922D01*
X0416913Y0379090D01*
X0417319Y0379258D01*
X0418922Y0380861D01*
X0419790Y0382956D01*
X0419790Y0385224D01*
X0418922Y0387319D01*
X0417319Y0388922D01*
X0416913Y0389090D01*
X0417319Y0389258D01*
X0418922Y0390861D01*
X0419790Y0392956D01*
X0419790Y0395224D01*
X0418922Y0397319D01*
X0417319Y0398922D01*
X0416913Y0399090D01*
X0417319Y0399258D01*
X0418922Y0400861D01*
X0419602Y0402503D01*
X0421439Y0404340D01*
X0421439Y0400467D01*
X0424037Y0397869D01*
X0421439Y0395272D01*
X0421439Y0390467D01*
X0424837Y0387069D01*
X0429642Y0387069D01*
X0430139Y0387567D01*
X0430139Y0386261D01*
X0428393Y0386984D01*
X0426086Y0386984D01*
X0423954Y0386101D01*
X0422322Y0384470D01*
X0421439Y0382338D01*
X0421439Y0374031D01*
X0422322Y0371899D01*
X0423954Y0370267D01*
X0426086Y0369384D01*
X0428393Y0369384D01*
X0430139Y0370108D01*
X0430139Y0364865D01*
X0429642Y0365362D01*
X0424837Y0365362D01*
X0421439Y0361965D01*
X0421439Y0357160D01*
X0424037Y0354562D01*
X0421439Y0351965D01*
X0421439Y0347160D01*
X0424837Y0343762D01*
X0429642Y0343762D01*
X0430139Y0344260D01*
X0430139Y0342954D01*
X0428393Y0343677D01*
X0426086Y0343677D01*
X0423954Y0342794D01*
X0422322Y0341163D01*
X0421439Y0339031D01*
X0421439Y0330723D01*
X0422322Y0328592D01*
X0423954Y0326960D01*
X0426086Y0326077D01*
X0428393Y0326077D01*
X0430139Y0326801D01*
X0430139Y0323526D01*
X0429642Y0324024D01*
X0424837Y0324024D01*
X0421439Y0320626D01*
X0421439Y0315821D01*
X0424037Y0313224D01*
X0421439Y0310626D01*
X0421439Y0305821D01*
X0424837Y0302424D01*
X0429642Y0302424D01*
X0430139Y0302921D01*
X0430139Y0301615D01*
X0428393Y0302339D01*
X0426086Y0302339D01*
X0423954Y0301456D01*
X0422322Y0299824D01*
X0421439Y0297692D01*
X0421439Y0289385D01*
X0422322Y0287253D01*
X0423954Y0285622D01*
X0426086Y0284739D01*
X0428393Y0284739D01*
X0430525Y0285622D01*
X0432156Y0287253D01*
X0432239Y0287454D01*
X0432322Y0287253D01*
X0433954Y0285622D01*
X0436086Y0284739D01*
X0438393Y0284739D01*
X0440525Y0285622D01*
X0442156Y0287253D01*
X0442569Y0288250D01*
X0442792Y0287813D01*
X0443273Y0287151D01*
X0443852Y0286572D01*
X0444514Y0286091D01*
X0445243Y0285720D01*
X0446022Y0285467D01*
X0446830Y0285339D01*
X0447239Y0285339D01*
X0447239Y0293538D01*
X0447239Y0293538D01*
X0447239Y0285339D01*
X0447649Y0285339D01*
X0448457Y0285467D01*
X0449235Y0285720D01*
X0449965Y0286091D01*
X0450627Y0286572D01*
X0451206Y0287151D01*
X0451687Y0287813D01*
X0452058Y0288542D01*
X0452311Y0289321D01*
X0452439Y0290129D01*
X0452439Y0293539D01*
X0452439Y0296948D01*
X0452311Y0297756D01*
X0452058Y0298535D01*
X0451687Y0299264D01*
X0451206Y0299926D01*
X0450627Y0300505D01*
X0449965Y0300986D01*
X0449235Y0301358D01*
X0448457Y0301611D01*
X0447649Y0301739D01*
X0447239Y0301739D01*
X0446830Y0301739D01*
X0446022Y0301611D01*
X0445243Y0301358D01*
X0444514Y0300986D01*
X0444339Y0300859D01*
X0444339Y0303770D01*
X0445085Y0303024D01*
X0447239Y0303024D01*
X0447239Y0308223D01*
X0447239Y0308223D01*
X0447239Y0303024D01*
X0449393Y0303024D01*
X0452439Y0306070D01*
X0452439Y0308224D01*
X0452439Y0310378D01*
X0449593Y0313224D01*
X0452439Y0316070D01*
X0452439Y0318224D01*
X0452439Y0320378D01*
X0449393Y0323424D01*
X0447239Y0323424D01*
X0445085Y0323424D01*
X0444339Y0322677D01*
X0444339Y0327557D01*
X0444514Y0327430D01*
X0445243Y0327058D01*
X0446022Y0326805D01*
X0446830Y0326677D01*
X0447239Y0326677D01*
X0447239Y0334877D01*
X0447239Y0334877D01*
X0447239Y0343077D01*
X0446830Y0343077D01*
X0446022Y0342949D01*
X0445243Y0342696D01*
X0444514Y0342325D01*
X0444339Y0342198D01*
X0444339Y0345108D01*
X0445085Y0344362D01*
X0447239Y0344362D01*
X0447239Y0349562D01*
X0447239Y0349562D01*
X0447239Y0344362D01*
X0449393Y0344362D01*
X0452439Y0347408D01*
X0452439Y0349562D01*
X0447239Y0349562D01*
X0447239Y0359562D01*
X0447239Y0359562D01*
X0447239Y0354362D01*
X0447239Y0349562D01*
X0447239Y0349562D01*
X0447239Y0349562D01*
X0452439Y0349562D01*
X0452439Y0351716D01*
X0449593Y0354562D01*
X0452439Y0357408D01*
X0452439Y0359562D01*
X0447239Y0359562D01*
X0447239Y0364762D01*
X0445085Y0364762D01*
X0444339Y0364016D01*
X0444339Y0370864D01*
X0444514Y0370737D01*
X0445243Y0370365D01*
X0446022Y0370112D01*
X0446830Y0369984D01*
X0447239Y0369984D01*
X0447239Y0378184D01*
X0447239Y0378184D01*
X0447239Y0369984D01*
X0447649Y0369984D01*
X0448457Y0370112D01*
X0449235Y0370365D01*
X0449965Y0370737D01*
X0450627Y0371218D01*
X0451206Y0371797D01*
X0451687Y0372459D01*
X0452058Y0373188D01*
X0452311Y0373967D01*
X0452439Y0374775D01*
X0452439Y0378184D01*
X0447239Y0378184D01*
X0447239Y0386384D01*
X0446830Y0386384D01*
X0446022Y0386256D01*
X0445243Y0386003D01*
X0444514Y0385632D01*
X0444339Y0385505D01*
X0444339Y0388415D01*
X0445085Y0387669D01*
X0447239Y0387669D01*
X0447239Y0392869D01*
X0447239Y0392869D01*
X0447239Y0387669D01*
X0449393Y0387669D01*
X0452439Y0390715D01*
X0452439Y0392869D01*
X0447239Y0392869D01*
X0447239Y0402869D01*
X0447239Y0402869D01*
X0447239Y0397669D01*
X0447239Y0392869D01*
X0447239Y0392869D01*
X0447239Y0392869D01*
X0452439Y0392869D01*
X0452439Y0395023D01*
X0449593Y0397869D01*
X0452439Y0400715D01*
X0452439Y0402869D01*
X0447239Y0402869D01*
X0447239Y0408069D01*
X0446863Y0408069D01*
X0448137Y0408597D01*
X0452869Y0413329D01*
X0455980Y0413329D01*
X0458180Y0415529D01*
X0462117Y0415529D01*
X0462425Y0414787D01*
X0463212Y0413999D01*
X0464241Y0413573D01*
X0470473Y0413573D01*
X0471503Y0413999D01*
X0471742Y0414239D01*
X0471989Y0414173D01*
X0474758Y0414173D01*
X0474758Y0419246D01*
X0474917Y0419246D01*
X0474917Y0414173D01*
X0477686Y0414173D01*
X0478246Y0414323D01*
X0478748Y0414613D01*
X0479157Y0415022D01*
X0479447Y0415524D01*
X0479597Y0416084D01*
X0479597Y0419246D01*
X0474917Y0419246D01*
X0474917Y0419406D01*
X0474758Y0419406D01*
X0474758Y0424479D01*
X0471989Y0424479D01*
X0471742Y0424413D01*
X0471503Y0424652D01*
X0470473Y0425079D01*
X0464241Y0425079D01*
X0463212Y0424652D01*
X0462425Y0423865D01*
X0461998Y0422836D01*
X0461998Y0422729D01*
X0458180Y0422729D01*
X0455980Y0424929D01*
X0451176Y0424929D01*
X0447778Y0421532D01*
X0447778Y0418420D01*
X0444606Y0415249D01*
X0431438Y0415249D01*
X0431700Y0415400D01*
X0432110Y0415810D01*
X0432400Y0416311D01*
X0432550Y0416871D01*
X0432550Y0419640D01*
X0427476Y0419640D01*
X0427476Y0419799D01*
X0432550Y0419799D01*
X0432550Y0422568D01*
X0432483Y0422815D01*
X0432515Y0422847D01*
X0432701Y0422661D01*
X0433730Y0422235D01*
X0440749Y0422235D01*
X0441778Y0422661D01*
X0442566Y0423449D01*
X0442992Y0424478D01*
X0442992Y0428134D01*
X0444897Y0427345D01*
X0453204Y0427345D01*
X0455336Y0428228D01*
X0456967Y0429859D01*
X0457850Y0431991D01*
X0457850Y0434299D01*
X0456967Y0436430D01*
X0455336Y0438062D01*
X0454339Y0438475D01*
X0454776Y0438697D01*
X0455438Y0439179D01*
X0456017Y0439757D01*
X0456498Y0440419D01*
X0456869Y0441149D01*
X0457122Y0441927D01*
X0457250Y0442736D01*
X0457250Y0443145D01*
X0457250Y0443554D01*
X0457122Y0444363D01*
X0456869Y0445141D01*
X0456498Y0445870D01*
X0456017Y0446532D01*
X0455438Y0447111D01*
X0454776Y0447592D01*
X0454339Y0447815D01*
X0454411Y0447845D01*
X0456927Y0447845D01*
X0458316Y0446456D01*
X0460448Y0445573D01*
X0468755Y0445573D01*
X0470818Y0446428D01*
X0471722Y0446054D01*
X0479922Y0446054D01*
X0480951Y0446480D01*
X0481739Y0447267D01*
X0482044Y0448003D01*
X0482513Y0448003D01*
X0482942Y0447825D01*
X0489962Y0447825D01*
X0490991Y0448251D01*
X0491778Y0449039D01*
X0492205Y0450068D01*
X0492205Y0456300D01*
X0491778Y0457329D01*
X0491539Y0457569D01*
X0491605Y0457816D01*
X0491605Y0460585D01*
X0486532Y0460585D01*
X0486532Y0460744D01*
X0491605Y0460744D01*
X0491605Y0463513D01*
X0491455Y0464073D01*
X0491165Y0464574D01*
X0490756Y0464984D01*
X0490254Y0465274D01*
X0489694Y0465424D01*
X0486531Y0465424D01*
X0486531Y0460744D01*
X0486372Y0460744D01*
X0486372Y0465424D01*
X0483210Y0465424D01*
X0482650Y0465274D01*
X0482148Y0464984D01*
X0481739Y0464574D01*
X0481565Y0464274D01*
X0481565Y0466466D01*
X0481415Y0467026D01*
X0481126Y0467527D01*
X0480716Y0467937D01*
X0480215Y0468226D01*
X0479655Y0468376D01*
X0476197Y0468376D01*
X0476197Y0463402D01*
X0475447Y0463402D01*
X0475447Y0468376D01*
X0472638Y0468376D01*
X0473402Y0470220D01*
X0473402Y0472527D01*
X0472519Y0474659D01*
X0470887Y0476290D01*
X0470687Y0476373D01*
X0470887Y0476456D01*
X0472519Y0478088D01*
X0473402Y0480220D01*
X0473402Y0482527D01*
X0472519Y0484659D01*
X0470887Y0486290D01*
X0468755Y0487173D01*
X0460448Y0487173D01*
X0458316Y0486290D01*
X0456685Y0484659D01*
X0455802Y0482527D01*
X0455802Y0480406D01*
X0419114Y0480406D01*
X0419820Y0480699D01*
X0435174Y0496053D01*
X0436300Y0497178D01*
X0436909Y0498648D01*
X0436909Y0502315D01*
X0439506Y0504912D01*
X0441930Y0504912D01*
X0442959Y0505338D01*
X0443145Y0505524D01*
X0443330Y0505338D01*
X0444360Y0504912D01*
X0450198Y0504912D01*
X0451227Y0505338D01*
X0451963Y0506074D01*
X0453496Y0506074D01*
X0457668Y0501902D01*
X0457668Y0498690D01*
X0458094Y0497661D01*
X0458882Y0496874D01*
X0459911Y0496447D01*
X0466143Y0496447D01*
X0467172Y0496874D01*
X0467412Y0497113D01*
X0467658Y0497047D01*
X0470428Y0497047D01*
X0470428Y0502120D01*
X0470587Y0502120D01*
X0470587Y0502280D01*
X0470428Y0502280D01*
X0470428Y0507353D01*
X0467658Y0507353D01*
X0467412Y0507287D01*
X0467172Y0507526D01*
X0466143Y0507953D01*
X0462931Y0507953D01*
X0457419Y0513465D01*
X0455948Y0514074D01*
X0451963Y0514074D01*
X0451227Y0514810D01*
X0450198Y0515236D01*
X0444360Y0515236D01*
X0443330Y0514810D01*
X0443145Y0514624D01*
X0442959Y0514810D01*
X0441930Y0515236D01*
X0436092Y0515236D01*
X0435063Y0514810D01*
X0434275Y0514022D01*
X0433849Y0512993D01*
X0433849Y0510569D01*
X0431200Y0507920D01*
X0431200Y0516291D01*
X0435722Y0520813D01*
X0436092Y0520660D01*
X0441930Y0520660D01*
X0442959Y0521086D01*
X0443145Y0521272D01*
X0443330Y0521086D01*
X0444360Y0520660D01*
X0450198Y0520660D01*
X0451227Y0521086D01*
X0451963Y0521822D01*
X0453496Y0521822D01*
X0457668Y0517650D01*
X0457668Y0514438D01*
X0458094Y0513409D01*
X0458882Y0512622D01*
X0459911Y0512195D01*
X0466143Y0512195D01*
X0467172Y0512622D01*
X0467412Y0512861D01*
X0467658Y0512795D01*
X0470428Y0512795D01*
X0470428Y0517868D01*
X0470587Y0517868D01*
X0470587Y0518028D01*
X0470428Y0518028D01*
X0470428Y0523101D01*
X0467658Y0523101D01*
X0467412Y0523035D01*
X0467172Y0523275D01*
X0466143Y0523701D01*
X0462931Y0523701D01*
X0457419Y0529213D01*
X0455948Y0529822D01*
X0451963Y0529822D01*
X0451227Y0530558D01*
X0450198Y0530984D01*
X0444360Y0530984D01*
X0443330Y0530558D01*
X0443145Y0530372D01*
X0442959Y0530558D01*
X0441930Y0530984D01*
X0436092Y0530984D01*
X0435063Y0530558D01*
X0434327Y0529822D01*
X0434278Y0529822D01*
X0432808Y0529213D01*
X0424934Y0521339D01*
X0423809Y0520214D01*
X0423200Y0518744D01*
X0423200Y0507203D01*
X0419790Y0503793D01*
X0419790Y0505224D01*
X0418922Y0507319D01*
X0417319Y0508922D01*
X0415224Y0509790D01*
X0412956Y0509790D01*
X0410861Y0508922D01*
X0409258Y0507319D01*
X0408390Y0505224D01*
X0408390Y0502956D01*
X0409258Y0500861D01*
X0410861Y0499258D01*
X0411266Y0499090D01*
X0410861Y0498922D01*
X0409258Y0497319D01*
X0408390Y0495224D01*
X0408390Y0492956D01*
X0409258Y0490861D01*
X0410861Y0489258D01*
X0411266Y0489090D01*
X0410861Y0488922D01*
X0409258Y0487319D01*
X0408390Y0485224D01*
X0408390Y0482956D01*
X0409258Y0480861D01*
X0410861Y0479258D01*
X0411266Y0479090D01*
X0410861Y0478922D01*
X0409258Y0477319D01*
X0408390Y0475224D01*
X0408390Y0472956D01*
X0409258Y0470861D01*
X0410861Y0469258D01*
X0411266Y0469090D01*
X0410861Y0468922D01*
X0409258Y0467319D01*
X0408390Y0465224D01*
X0408390Y0462956D01*
X0409258Y0460861D01*
X0410861Y0459258D01*
X0411266Y0459090D01*
X0410861Y0458922D01*
X0409258Y0457319D01*
X0408390Y0455224D01*
X0408390Y0452956D01*
X0409258Y0450861D01*
X0410861Y0449258D01*
X0411266Y0449090D01*
X0410861Y0448922D01*
X0409258Y0447319D01*
X0408390Y0445224D01*
X0408390Y0442956D01*
X0409258Y0440861D01*
X0410861Y0439258D01*
X0411266Y0439090D01*
X0410861Y0438922D01*
X0409258Y0437319D01*
X0408390Y0435224D01*
X0408390Y0432956D01*
X0409258Y0430861D01*
X0410861Y0429258D01*
X0411266Y0429090D01*
X0410861Y0428922D01*
X0409258Y0427319D01*
X0408390Y0425224D01*
X0408390Y0422956D01*
X0409258Y0420861D01*
X0410861Y0419258D01*
X0411266Y0419090D01*
X0410861Y0418922D01*
X0409258Y0417319D01*
X0408390Y0415224D01*
X0408390Y0412956D01*
X0409258Y0410861D01*
X0410861Y0409258D01*
X0411266Y0409090D01*
X0410861Y0408922D01*
X0410503Y0408564D01*
X0410060Y0409007D01*
X0407928Y0409890D01*
X0399621Y0409890D01*
X0397489Y0409007D01*
X0395858Y0407375D01*
X0394975Y0405243D01*
X0394975Y0404150D01*
X0382919Y0392094D01*
X0382249Y0390477D01*
X0382249Y0328038D01*
X0369686Y0315475D01*
X0368922Y0317319D01*
X0367319Y0318922D01*
X0366913Y0319090D01*
X0367319Y0319258D01*
X0368922Y0320861D01*
X0369790Y0322956D01*
X0369790Y0325224D01*
X0368922Y0327319D01*
X0367319Y0328922D01*
X0365224Y0329790D01*
X0362956Y0329790D01*
X0360861Y0328922D01*
X0359258Y0327319D01*
X0359090Y0326913D01*
X0358922Y0327319D01*
X0357319Y0328922D01*
X0356913Y0329090D01*
X0357319Y0329258D01*
X0358922Y0330861D01*
X0359790Y0332956D01*
X0359790Y0335224D01*
X0358922Y0337319D01*
X0357319Y0338922D01*
X0356913Y0339090D01*
X0357319Y0339258D01*
X0358922Y0340861D01*
X0359790Y0342956D01*
X0359790Y0345224D01*
X0358922Y0347319D01*
X0357319Y0348922D01*
X0356913Y0349090D01*
X0357319Y0349258D01*
X0358922Y0350861D01*
X0359790Y0352956D01*
X0359790Y0355224D01*
X0358922Y0357319D01*
X0357319Y0358922D01*
X0356913Y0359090D01*
X0357319Y0359258D01*
X0358922Y0360861D01*
X0359790Y0362956D01*
X0359790Y0365224D01*
X0358922Y0367319D01*
X0357319Y0368922D01*
X0356913Y0369090D01*
X0357319Y0369258D01*
X0358922Y0370861D01*
X0359790Y0372956D01*
X0359790Y0375224D01*
X0358922Y0377319D01*
X0357319Y0378922D01*
X0356913Y0379090D01*
X0357319Y0379258D01*
X0358922Y0380861D01*
X0359790Y0382956D01*
X0359790Y0385224D01*
X0358922Y0387319D01*
X0357319Y0388922D01*
X0356913Y0389090D01*
X0357319Y0389258D01*
X0358922Y0390861D01*
X0359790Y0392956D01*
X0359790Y0395224D01*
X0358922Y0397319D01*
X0357319Y0398922D01*
X0356913Y0399090D01*
X0357319Y0399258D01*
X0358922Y0400861D01*
X0359790Y0402956D01*
X0359790Y0405224D01*
X0358922Y0407319D01*
X0357319Y0408922D01*
X0356140Y0409410D01*
X0356763Y0409728D01*
X0357412Y0410200D01*
X0357980Y0410767D01*
X0358452Y0411417D01*
X0358816Y0412132D01*
X0359064Y0412895D01*
X0359190Y0413688D01*
X0359190Y0414090D01*
X0359190Y0414491D01*
X0359064Y0415284D01*
X0358816Y0416047D01*
X0358452Y0416763D01*
X0357980Y0417412D01*
X0357412Y0417980D01*
X0356763Y0418452D01*
X0356140Y0418769D01*
X0357319Y0419258D01*
X0358922Y0420861D01*
X0359790Y0422956D01*
X0359790Y0425224D01*
X0358922Y0427319D01*
X0357319Y0428922D01*
X0356913Y0429090D01*
X0357319Y0429258D01*
X0358922Y0430861D01*
X0359790Y0432956D01*
X0359790Y0435224D01*
X0358922Y0437319D01*
X0357319Y0438922D01*
X0356913Y0439090D01*
X0357319Y0439258D01*
X0358922Y0440861D01*
X0359790Y0442956D01*
X0359790Y0445224D01*
X0358922Y0447319D01*
X0357319Y0448922D01*
X0356913Y0449090D01*
X0357319Y0449258D01*
X0358922Y0450861D01*
X0359790Y0452956D01*
X0359790Y0455224D01*
X0358922Y0457319D01*
X0357319Y0458922D01*
X0356913Y0459090D01*
X0357319Y0459258D01*
X0358922Y0460861D01*
X0359790Y0462956D01*
X0359790Y0465224D01*
X0358922Y0467319D01*
X0357319Y0468922D01*
X0356913Y0469090D01*
X0357319Y0469258D01*
X0358922Y0470861D01*
X0359790Y0472956D01*
X0359790Y0475224D01*
X0358922Y0477319D01*
X0357319Y0478922D01*
X0356913Y0479090D01*
X0357319Y0479258D01*
X0358922Y0480861D01*
X0359790Y0482956D01*
X0359790Y0485224D01*
X0358922Y0487319D01*
X0357319Y0488922D01*
X0356913Y0489090D01*
X0357319Y0489258D01*
X0358922Y0490861D01*
X0359790Y0492956D01*
X0359790Y0495224D01*
X0358922Y0497319D01*
X0357319Y0498922D01*
X0356913Y0499090D01*
X0357319Y0499258D01*
X0358922Y0500861D01*
X0359790Y0502956D01*
X0359790Y0505224D01*
X0358922Y0507319D01*
X0357319Y0508922D01*
X0355224Y0509790D01*
X0352956Y0509790D01*
X0350861Y0508922D01*
X0349258Y0507319D01*
X0348390Y0505224D01*
X0348390Y0502956D01*
X0349258Y0500861D01*
X0350861Y0499258D01*
X0351266Y0499090D01*
X0350861Y0498922D01*
X0349258Y0497319D01*
X0348390Y0495224D01*
X0348390Y0492956D01*
X0349258Y0490861D01*
X0350861Y0489258D01*
X0351266Y0489090D01*
X0350861Y0488922D01*
X0349258Y0487319D01*
X0348390Y0485224D01*
X0348390Y0482956D01*
X0349258Y0480861D01*
X0350861Y0479258D01*
X0351266Y0479090D01*
X0350861Y0478922D01*
X0349258Y0477319D01*
X0348390Y0475224D01*
X0348390Y0472956D01*
X0349258Y0470861D01*
X0350861Y0469258D01*
X0351266Y0469090D01*
X0350861Y0468922D01*
X0349258Y0467319D01*
X0348390Y0465224D01*
X0348390Y0462956D01*
X0349258Y0460861D01*
X0350861Y0459258D01*
X0351266Y0459090D01*
X0350861Y0458922D01*
X0349258Y0457319D01*
X0348390Y0455224D01*
X0348390Y0452956D01*
X0349258Y0450861D01*
X0350861Y0449258D01*
X0351266Y0449090D01*
X0350861Y0448922D01*
X0349258Y0447319D01*
X0348390Y0445224D01*
X0348390Y0442956D01*
X0349258Y0440861D01*
X0350861Y0439258D01*
X0351266Y0439090D01*
X0350861Y0438922D01*
X0349258Y0437319D01*
X0348390Y0435224D01*
X0348390Y0432956D01*
X0349258Y0430861D01*
X0350861Y0429258D01*
X0351266Y0429090D01*
X0350861Y0428922D01*
X0349258Y0427319D01*
X0348390Y0425224D01*
X0348390Y0422956D01*
X0349258Y0420861D01*
X0350861Y0419258D01*
X0352040Y0418769D01*
X0351417Y0418452D01*
X0350767Y0417980D01*
X0350200Y0417412D01*
X0349728Y0416763D01*
X0349363Y0416047D01*
X0349115Y0415284D01*
X0348990Y0414491D01*
X0348990Y0414090D01*
X0354090Y0414090D01*
X0359190Y0414090D01*
X0354090Y0414090D01*
X0354090Y0414090D01*
X0354090Y0414090D01*
X0348990Y0414090D01*
X0348990Y0413688D01*
X0349115Y0412895D01*
X0349363Y0412132D01*
X0349728Y0411417D01*
X0350200Y0410767D01*
X0350767Y0410200D01*
X0351417Y0409728D01*
X0352040Y0409410D01*
X0350861Y0408922D01*
X0349258Y0407319D01*
X0348390Y0405224D01*
X0348390Y0402956D01*
X0349258Y0400861D01*
X0350861Y0399258D01*
X0351266Y0399090D01*
X0350861Y0398922D01*
X0349258Y0397319D01*
X0348390Y0395224D01*
X0348390Y0392956D01*
X0349258Y0390861D01*
X0350861Y0389258D01*
X0351266Y0389090D01*
X0350861Y0388922D01*
X0349258Y0387319D01*
X0348390Y0385224D01*
X0348390Y0382956D01*
X0349258Y0380861D01*
X0350861Y0379258D01*
X0351266Y0379090D01*
X0350861Y0378922D01*
X0349258Y0377319D01*
X0348390Y0375224D01*
X0348390Y0372956D01*
X0349258Y0370861D01*
X0350861Y0369258D01*
X0351266Y0369090D01*
X0350861Y0368922D01*
X0349258Y0367319D01*
X0348390Y0365224D01*
X0348390Y0362956D01*
X0349258Y0360861D01*
X0350861Y0359258D01*
X0351266Y0359090D01*
X0350861Y0358922D01*
X0349258Y0357319D01*
X0348390Y0355224D01*
X0348390Y0352956D01*
X0349258Y0350861D01*
X0350861Y0349258D01*
X0351266Y0349090D01*
X0350861Y0348922D01*
X0349258Y0347319D01*
X0348390Y0345224D01*
X0348390Y0342956D01*
X0349258Y0340861D01*
X0350861Y0339258D01*
X0351266Y0339090D01*
X0350861Y0338922D01*
X0349258Y0337319D01*
X0348390Y0335224D01*
X0348390Y0332956D01*
X0349258Y0330861D01*
X0350861Y0329258D01*
X0351266Y0329090D01*
X0350861Y0328922D01*
X0349258Y0327319D01*
X0348390Y0325224D01*
X0348390Y0322956D01*
X0349258Y0320861D01*
X0350861Y0319258D01*
X0351266Y0319090D01*
X0350861Y0318922D01*
X0349258Y0317319D01*
X0348390Y0315224D01*
X0348390Y0312956D01*
X0349258Y0310861D01*
X0350861Y0309258D01*
X0351266Y0309090D01*
X0350861Y0308922D01*
X0349486Y0307547D01*
X0348507Y0307142D01*
X0342680Y0301315D01*
X0341668Y0300302D01*
X0341120Y0298979D01*
X0341120Y0263534D01*
X0335354Y0257768D01*
X0334096Y0257768D01*
X0333708Y0258707D01*
X0332920Y0259495D01*
X0331891Y0259921D01*
X0325659Y0259921D01*
X0324630Y0259495D01*
X0324390Y0259255D01*
X0324143Y0259321D01*
X0321374Y0259321D01*
X0321374Y0254248D01*
X0321215Y0254248D01*
X0321215Y0254089D01*
X0321374Y0254089D01*
X0321374Y0249016D01*
X0324143Y0249016D01*
X0324390Y0249082D01*
X0324630Y0248842D01*
X0325659Y0248416D01*
X0331891Y0248416D01*
X0332920Y0248842D01*
X0333708Y0249630D01*
X0334096Y0250569D01*
X0343532Y0250569D01*
X0343921Y0249630D01*
X0344708Y0248842D01*
X0345738Y0248416D01*
X0351970Y0248416D01*
X0352594Y0248674D01*
X0353218Y0248416D01*
X0359450Y0248416D01*
X0360479Y0248842D01*
X0361267Y0249630D01*
X0361324Y0249769D01*
X0361992Y0249769D01*
X0383627Y0228133D01*
X0383627Y0227443D01*
X0382855Y0226672D01*
X0381927Y0224430D01*
X0381927Y0215403D01*
X0382855Y0213161D01*
X0383892Y0212124D01*
X0377161Y0212124D01*
X0378198Y0213161D01*
X0379127Y0215403D01*
X0379127Y0224430D01*
X0378198Y0226672D01*
X0376482Y0228388D01*
X0374240Y0229317D01*
X0371813Y0229317D01*
X0369571Y0228388D01*
X0367855Y0226672D01*
X0366927Y0224430D01*
X0366927Y0224317D01*
X0355020Y0224317D01*
X0355020Y0225149D01*
X0354000Y0227612D01*
X0352116Y0229497D01*
X0349653Y0230517D01*
X0346988Y0230517D01*
X0344525Y0229497D01*
X0342640Y0227612D01*
X0341620Y0225149D01*
X0341620Y0214684D01*
X0342640Y0212221D01*
X0342737Y0212124D01*
X0333333Y0212124D01*
X0333838Y0212819D01*
X0334274Y0213675D01*
X0334570Y0214588D01*
X0334720Y0215536D01*
X0334720Y0219817D01*
X0328721Y0219817D01*
X0328721Y0220017D01*
X0328720Y0220017D02*
X0328520Y0220017D01*
X0328520Y0229917D01*
X0328140Y0229917D01*
X0327192Y0229766D01*
X0326279Y0229470D01*
X0325423Y0229034D01*
X0324647Y0228469D01*
X0323968Y0227790D01*
X0323403Y0227014D01*
X0322967Y0226158D01*
X0322671Y0225245D01*
X0322520Y0224297D01*
X0322520Y0220017D01*
X0328520Y0220017D01*
X0328520Y0219817D01*
X0322520Y0219817D01*
X0322520Y0215536D01*
X0322671Y0214588D01*
X0322967Y0213675D01*
X0323403Y0212819D01*
X0323908Y0212124D01*
X0301482Y0212124D01*
X0301913Y0212401D01*
X0301913Y0212401D01*
X0301913Y0212401D01*
X0305417Y0216445D01*
X0305417Y0216445D01*
X0307640Y0221313D01*
X0308402Y0226609D01*
X0307640Y0231906D01*
X0305417Y0236773D01*
X0302254Y0240424D01*
X0304883Y0240424D01*
X0305912Y0240850D01*
X0306152Y0241090D01*
X0306399Y0241024D01*
X0309168Y0241024D01*
X0309168Y0246097D01*
X0309327Y0246097D01*
X0309327Y0246256D01*
X0314006Y0246256D01*
X0314006Y0249419D01*
X0313856Y0249978D01*
X0313567Y0250480D01*
X0313157Y0250890D01*
X0312655Y0251179D01*
X0312096Y0251329D01*
X0309327Y0251329D01*
X0309327Y0246256D01*
X0309168Y0246256D01*
X0309168Y0251329D01*
X0306399Y0251329D01*
X0306152Y0251263D01*
X0305912Y0251503D01*
X0304883Y0251929D01*
X0302237Y0251929D01*
X0301285Y0252881D01*
X0301285Y0257601D01*
X0301621Y0257937D01*
X0302047Y0258966D01*
X0302047Y0264804D01*
X0301621Y0265833D01*
X0301435Y0266019D01*
X0301621Y0266204D01*
X0302047Y0267234D01*
X0302047Y0273072D01*
X0301621Y0274101D01*
X0301285Y0274437D01*
X0301285Y0275377D01*
X0319265Y0293357D01*
X0319870Y0291894D01*
X0321586Y0290178D01*
X0323828Y0289250D01*
X0332855Y0289250D01*
X0335097Y0290178D01*
X0336813Y0291894D01*
X0337742Y0294136D01*
X0337742Y0296563D01*
X0336813Y0298805D01*
X0335268Y0300350D01*
X0336813Y0301894D01*
X0337742Y0304136D01*
X0337742Y0306563D01*
X0336813Y0308805D01*
X0335097Y0310521D01*
X0334623Y0310717D01*
X0335225Y0311154D01*
X0335837Y0311767D01*
X0336346Y0312467D01*
X0336739Y0313238D01*
X0337006Y0314062D01*
X0337142Y0314917D01*
X0337142Y0315350D01*
X0337142Y0315782D01*
X0337006Y0316638D01*
X0336739Y0317461D01*
X0336346Y0318232D01*
X0335837Y0318933D01*
X0335225Y0319545D01*
X0334524Y0320054D01*
X0333753Y0320447D01*
X0332930Y0320714D01*
X0332075Y0320850D01*
X0328342Y0320850D01*
X0328342Y0315350D01*
X0328342Y0315350D01*
X0337142Y0315350D01*
X0328342Y0315350D01*
X0328342Y0315350D01*
X0328342Y0320850D01*
X0324609Y0320850D01*
X0323754Y0320714D01*
X0322930Y0320447D01*
X0322159Y0320054D01*
X0321459Y0319545D01*
X0320847Y0318933D01*
X0320338Y0318232D01*
X0319945Y0317461D01*
X0319677Y0316638D01*
X0319542Y0315782D01*
X0319542Y0315350D01*
X0328342Y0315350D01*
X0328342Y0315350D01*
X0319542Y0315350D01*
X0319542Y0314917D01*
X0319677Y0314062D01*
X0319945Y0313238D01*
X0320338Y0312467D01*
X0320847Y0311767D01*
X0321459Y0311154D01*
X0322060Y0310717D01*
X0321586Y0310521D01*
X0319870Y0308805D01*
X0318942Y0306563D01*
X0318942Y0305479D01*
X0293155Y0279692D01*
X0292485Y0278075D01*
X0292485Y0274437D01*
X0292149Y0274101D01*
X0291723Y0273072D01*
X0291723Y0267234D01*
X0292149Y0266204D01*
X0292335Y0266019D01*
X0292149Y0265833D01*
X0291723Y0264804D01*
X0291723Y0258966D01*
X0292149Y0257937D01*
X0292485Y0257601D01*
X0292485Y0250183D01*
X0293155Y0248566D01*
X0296408Y0245313D01*
X0296408Y0244005D01*
X0292277Y0245218D01*
X0286926Y0245218D01*
X0281792Y0243711D01*
X0281792Y0243711D01*
X0277290Y0240818D01*
X0277290Y0240818D01*
X0277290Y0240818D01*
X0276737Y0240179D02*
X0275117Y0240179D01*
X0275117Y0242578D02*
X0280029Y0242578D01*
X0275117Y0244976D02*
X0286102Y0244976D01*
X0292277Y0245218D02*
X0292277Y0245218D01*
X0293101Y0244976D02*
X0296408Y0244976D01*
X0294346Y0247375D02*
X0275117Y0247375D01*
X0275117Y0249773D02*
X0292655Y0249773D01*
X0292485Y0252172D02*
X0275117Y0252172D01*
X0275117Y0254570D02*
X0292485Y0254570D01*
X0292485Y0256969D02*
X0275117Y0256969D01*
X0275117Y0259367D02*
X0291723Y0259367D01*
X0291723Y0261766D02*
X0275117Y0261766D01*
X0275117Y0264164D02*
X0291723Y0264164D01*
X0292001Y0266563D02*
X0275117Y0266563D01*
X0275117Y0268961D02*
X0291723Y0268961D01*
X0291723Y0271360D02*
X0275117Y0271360D01*
X0275117Y0273758D02*
X0292007Y0273758D01*
X0292485Y0276157D02*
X0275117Y0276157D01*
X0275117Y0278555D02*
X0292684Y0278555D01*
X0294416Y0280954D02*
X0275117Y0280954D01*
X0275117Y0283352D02*
X0296815Y0283352D01*
X0299213Y0285751D02*
X0275117Y0285751D01*
X0275117Y0288149D02*
X0301612Y0288149D01*
X0304010Y0290548D02*
X0275117Y0290548D01*
X0275117Y0292946D02*
X0306409Y0292946D01*
X0308807Y0295345D02*
X0275117Y0295345D01*
X0275117Y0297743D02*
X0311206Y0297743D01*
X0313604Y0300142D02*
X0275117Y0300142D01*
X0275117Y0302540D02*
X0316003Y0302540D01*
X0318401Y0304939D02*
X0275117Y0304939D01*
X0275117Y0307337D02*
X0319263Y0307337D01*
X0320801Y0309736D02*
X0275117Y0309736D01*
X0275117Y0312134D02*
X0320579Y0312134D01*
X0319603Y0314533D02*
X0275117Y0314533D01*
X0275117Y0316931D02*
X0319773Y0316931D01*
X0321244Y0319330D02*
X0275117Y0319330D01*
X0275117Y0321728D02*
X0348898Y0321728D01*
X0348390Y0324127D02*
X0275117Y0324127D01*
X0275117Y0326525D02*
X0286030Y0326525D01*
X0286402Y0326153D02*
X0288734Y0325187D01*
X0298344Y0325187D01*
X0300675Y0326153D01*
X0302459Y0327938D01*
X0303425Y0330269D01*
X0303425Y0332792D01*
X0302459Y0335124D01*
X0301053Y0336531D01*
X0302459Y0337938D01*
X0303425Y0340269D01*
X0303425Y0342792D01*
X0302459Y0345124D01*
X0301053Y0346531D01*
X0302459Y0347938D01*
X0303425Y0350269D01*
X0303425Y0352792D01*
X0302459Y0355124D01*
X0301053Y0356531D01*
X0302459Y0357938D01*
X0303425Y0360269D01*
X0303425Y0362792D01*
X0302459Y0365124D01*
X0301053Y0366531D01*
X0302459Y0367938D01*
X0303425Y0370269D01*
X0303425Y0372792D01*
X0302459Y0375124D01*
X0301053Y0376531D01*
X0302459Y0377938D01*
X0303425Y0380269D01*
X0303425Y0382792D01*
X0302459Y0385124D01*
X0300675Y0386908D01*
X0298344Y0387874D01*
X0288734Y0387874D01*
X0286402Y0386908D01*
X0284618Y0385124D01*
X0283652Y0382792D01*
X0283652Y0380269D01*
X0284618Y0377938D01*
X0286024Y0376531D01*
X0284618Y0375124D01*
X0283652Y0372792D01*
X0283652Y0370269D01*
X0284618Y0367938D01*
X0286024Y0366531D01*
X0284618Y0365124D01*
X0283652Y0362792D01*
X0283652Y0360269D01*
X0284618Y0357938D01*
X0286024Y0356531D01*
X0284618Y0355124D01*
X0283652Y0352792D01*
X0283652Y0350269D01*
X0284618Y0347938D01*
X0286024Y0346531D01*
X0284618Y0345124D01*
X0283652Y0342792D01*
X0283652Y0340269D01*
X0284618Y0337938D01*
X0286024Y0336531D01*
X0284618Y0335124D01*
X0283652Y0332792D01*
X0283652Y0330269D01*
X0284618Y0327938D01*
X0286402Y0326153D01*
X0284209Y0328924D02*
X0275117Y0328924D01*
X0275117Y0331323D02*
X0283652Y0331323D01*
X0284037Y0333721D02*
X0275117Y0333721D01*
X0275117Y0336120D02*
X0285613Y0336120D01*
X0284377Y0338518D02*
X0275117Y0338518D01*
X0275117Y0340917D02*
X0283652Y0340917D01*
X0283868Y0343315D02*
X0275117Y0343315D01*
X0275117Y0345714D02*
X0285207Y0345714D01*
X0284545Y0348112D02*
X0275117Y0348112D01*
X0275117Y0350511D02*
X0283652Y0350511D01*
X0283700Y0352909D02*
X0275117Y0352909D01*
X0275117Y0355308D02*
X0284801Y0355308D01*
X0284849Y0357706D02*
X0275117Y0357706D01*
X0275117Y0360105D02*
X0283720Y0360105D01*
X0283652Y0362503D02*
X0275117Y0362503D01*
X0275117Y0364902D02*
X0284526Y0364902D01*
X0285255Y0367300D02*
X0275117Y0367300D01*
X0275117Y0369699D02*
X0283888Y0369699D01*
X0283652Y0372097D02*
X0275117Y0372097D01*
X0275117Y0374496D02*
X0284357Y0374496D01*
X0285661Y0376894D02*
X0275117Y0376894D01*
X0275117Y0379293D02*
X0284056Y0379293D01*
X0283652Y0381691D02*
X0275117Y0381691D01*
X0275117Y0384090D02*
X0284189Y0384090D01*
X0285982Y0386488D02*
X0275117Y0386488D01*
X0275117Y0388887D02*
X0350826Y0388887D01*
X0349082Y0391285D02*
X0275117Y0391285D01*
X0275117Y0393684D02*
X0348390Y0393684D01*
X0348745Y0396082D02*
X0344450Y0396082D01*
X0344226Y0395858D02*
X0345857Y0397489D01*
X0346740Y0399621D01*
X0346740Y0407928D01*
X0345857Y0410060D01*
X0344226Y0411692D01*
X0342094Y0412575D01*
X0339786Y0412575D01*
X0338040Y0411851D01*
X0338040Y0413157D01*
X0338538Y0412660D01*
X0343343Y0412660D01*
X0346740Y0416057D01*
X0346740Y0420862D01*
X0344143Y0423460D01*
X0346740Y0426057D01*
X0346740Y0430862D01*
X0343343Y0434260D01*
X0338538Y0434260D01*
X0338040Y0433762D01*
X0338040Y0435068D01*
X0339786Y0434345D01*
X0342094Y0434345D01*
X0344226Y0435228D01*
X0345857Y0436859D01*
X0346740Y0438991D01*
X0346740Y0447299D01*
X0345857Y0449430D01*
X0344226Y0451062D01*
X0342094Y0451945D01*
X0339786Y0451945D01*
X0338040Y0451222D01*
X0338040Y0452528D01*
X0338538Y0452030D01*
X0343343Y0452030D01*
X0346740Y0455427D01*
X0346740Y0460232D01*
X0344143Y0462830D01*
X0346740Y0465427D01*
X0346740Y0470232D01*
X0343343Y0473630D01*
X0338538Y0473630D01*
X0338040Y0473132D01*
X0338040Y0474438D01*
X0339786Y0473715D01*
X0342094Y0473715D01*
X0344226Y0474598D01*
X0345857Y0476230D01*
X0346740Y0478361D01*
X0346740Y0486669D01*
X0345857Y0488800D01*
X0344226Y0490432D01*
X0342094Y0491315D01*
X0339786Y0491315D01*
X0338040Y0490592D01*
X0338040Y0491898D01*
X0338538Y0491400D01*
X0343343Y0491400D01*
X0346740Y0494798D01*
X0346740Y0499602D01*
X0344143Y0502200D01*
X0346740Y0504798D01*
X0346740Y0509602D01*
X0343427Y0512916D01*
X0349970Y0519459D01*
X0376170Y0519459D01*
X0376894Y0519159D01*
X0379559Y0519159D01*
X0381568Y0519991D01*
X0382202Y0520161D01*
X0384551Y0521517D01*
X0386469Y0523435D01*
X0387825Y0525783D01*
X0388527Y0528403D01*
X0388527Y0531115D01*
X0387825Y0533735D01*
X0386469Y0536083D01*
X0384551Y0538001D01*
X0382202Y0539357D01*
X0381568Y0539527D01*
X0379559Y0540359D01*
X0376894Y0540359D01*
X0376170Y0540059D01*
X0344348Y0540059D01*
X0341728Y0539357D01*
X0339380Y0538001D01*
X0337462Y0536083D01*
X0322698Y0521320D01*
X0321342Y0518971D01*
X0320640Y0516351D01*
X0320640Y0513639D01*
X0320972Y0512400D01*
X0320940Y0512400D01*
X0318786Y0512400D01*
X0315740Y0509354D01*
X0315740Y0507200D01*
X0320940Y0507200D01*
X0320940Y0507200D01*
X0315740Y0507200D01*
X0315740Y0505046D01*
X0318586Y0502200D01*
X0315740Y0499354D01*
X0315740Y0497200D01*
X0320940Y0497200D01*
X0320940Y0497200D01*
X0315740Y0497200D01*
X0315740Y0495046D01*
X0318786Y0492000D01*
X0320940Y0492000D01*
X0320940Y0497200D01*
X0320940Y0502400D01*
X0320940Y0507200D01*
X0320940Y0512400D01*
X0320940Y0507200D01*
X0320940Y0507200D01*
X0320940Y0507200D01*
X0320940Y0497200D01*
X0320940Y0497200D01*
X0320940Y0497200D01*
X0320940Y0492000D01*
X0323094Y0492000D01*
X0323840Y0492746D01*
X0323840Y0489836D01*
X0323666Y0489962D01*
X0322936Y0490334D01*
X0322158Y0490587D01*
X0321349Y0490715D01*
X0320940Y0490715D01*
X0320531Y0490715D01*
X0319722Y0490587D01*
X0318944Y0490334D01*
X0318215Y0489962D01*
X0317553Y0489481D01*
X0316974Y0488903D01*
X0316493Y0488240D01*
X0316121Y0487511D01*
X0315868Y0486733D01*
X0315740Y0485924D01*
X0315740Y0482515D01*
X0320940Y0482515D01*
X0320940Y0482515D01*
X0315740Y0482515D01*
X0315740Y0479106D01*
X0315868Y0478297D01*
X0316121Y0477519D01*
X0316493Y0476790D01*
X0316974Y0476127D01*
X0317553Y0475549D01*
X0318215Y0475068D01*
X0318944Y0474696D01*
X0319722Y0474443D01*
X0320531Y0474315D01*
X0320940Y0474315D01*
X0320940Y0482515D01*
X0320940Y0490715D01*
X0320940Y0482515D01*
X0320940Y0482515D01*
X0320940Y0482515D01*
X0320940Y0474315D01*
X0321349Y0474315D01*
X0322158Y0474443D01*
X0322936Y0474696D01*
X0323666Y0475068D01*
X0323840Y0475194D01*
X0323840Y0472284D01*
X0323094Y0473030D01*
X0320940Y0473030D01*
X0318786Y0473030D01*
X0315740Y0469984D01*
X0315740Y0467830D01*
X0320940Y0467830D01*
X0320940Y0467830D01*
X0320940Y0473030D01*
X0320940Y0467830D01*
X0320940Y0467830D01*
X0315740Y0467830D01*
X0315740Y0465676D01*
X0318586Y0462830D01*
X0315740Y0459984D01*
X0315740Y0457830D01*
X0320940Y0457830D01*
X0320940Y0457830D01*
X0320940Y0463030D01*
X0320940Y0467830D01*
X0320940Y0467830D01*
X0320940Y0457830D01*
X0320940Y0457830D01*
X0315740Y0457830D01*
X0315740Y0455676D01*
X0318786Y0452630D01*
X0320940Y0452630D01*
X0320940Y0457830D01*
X0320940Y0457830D01*
X0320940Y0452630D01*
X0323094Y0452630D01*
X0323840Y0453376D01*
X0323840Y0450465D01*
X0323666Y0450592D01*
X0322936Y0450964D01*
X0322158Y0451217D01*
X0321349Y0451345D01*
X0320940Y0451345D01*
X0320531Y0451345D01*
X0319722Y0451217D01*
X0318944Y0450964D01*
X0318215Y0450592D01*
X0317553Y0450111D01*
X0316974Y0449532D01*
X0316493Y0448870D01*
X0316121Y0448141D01*
X0315868Y0447363D01*
X0315740Y0446554D01*
X0315740Y0443145D01*
X0320940Y0443145D01*
X0320940Y0443145D01*
X0320940Y0451345D01*
X0320940Y0443145D01*
X0320940Y0443145D01*
X0315740Y0443145D01*
X0315740Y0439736D01*
X0315868Y0438927D01*
X0316121Y0438149D01*
X0316493Y0437419D01*
X0316974Y0436757D01*
X0317553Y0436179D01*
X0318215Y0435697D01*
X0318944Y0435326D01*
X0319722Y0435073D01*
X0320531Y0434945D01*
X0320940Y0434945D01*
X0320940Y0443145D01*
X0320940Y0443145D01*
X0320940Y0434945D01*
X0321349Y0434945D01*
X0322158Y0435073D01*
X0322936Y0435326D01*
X0323666Y0435697D01*
X0323840Y0435824D01*
X0323840Y0432914D01*
X0323094Y0433660D01*
X0320940Y0433660D01*
X0318786Y0433660D01*
X0315740Y0430614D01*
X0315740Y0428460D01*
X0320940Y0428460D01*
X0320940Y0433660D01*
X0320940Y0428460D01*
X0320940Y0428460D01*
X0320940Y0428460D01*
X0315740Y0428460D01*
X0315740Y0426306D01*
X0318586Y0423460D01*
X0315740Y0420614D01*
X0315740Y0418460D01*
X0320940Y0418460D01*
X0320940Y0423660D01*
X0320940Y0428460D01*
X0320940Y0428460D01*
X0320940Y0418460D01*
X0320940Y0418460D01*
X0320940Y0418460D01*
X0315740Y0418460D01*
X0315740Y0416306D01*
X0318786Y0413260D01*
X0320940Y0413260D01*
X0320940Y0418460D01*
X0320940Y0418460D01*
X0320940Y0413260D01*
X0323094Y0413260D01*
X0323840Y0414006D01*
X0323840Y0411095D01*
X0323666Y0411222D01*
X0322936Y0411594D01*
X0322158Y0411847D01*
X0321349Y0411975D01*
X0320940Y0411975D01*
X0320531Y0411975D01*
X0319722Y0411847D01*
X0318944Y0411594D01*
X0318215Y0411222D01*
X0317553Y0410741D01*
X0316974Y0410162D01*
X0316493Y0409500D01*
X0316121Y0408771D01*
X0315868Y0407992D01*
X0315740Y0407184D01*
X0315740Y0403775D01*
X0320940Y0403775D01*
X0320940Y0411975D01*
X0320940Y0403775D01*
X0320940Y0403775D01*
X0320940Y0403775D01*
X0315740Y0403775D01*
X0315740Y0400366D01*
X0315868Y0399557D01*
X0316121Y0398779D01*
X0316493Y0398049D01*
X0316974Y0397387D01*
X0317553Y0396808D01*
X0318215Y0396327D01*
X0318944Y0395956D01*
X0319722Y0395703D01*
X0320531Y0395575D01*
X0320940Y0395575D01*
X0320940Y0403775D01*
X0320940Y0403775D01*
X0320940Y0395575D01*
X0321349Y0395575D01*
X0322158Y0395703D01*
X0322936Y0395956D01*
X0323666Y0396327D01*
X0324328Y0396808D01*
X0324906Y0397387D01*
X0325388Y0398049D01*
X0325610Y0398486D01*
X0326023Y0397489D01*
X0327655Y0395858D01*
X0329786Y0394975D01*
X0332094Y0394975D01*
X0334226Y0395858D01*
X0335857Y0397489D01*
X0335940Y0397690D01*
X0336023Y0397489D01*
X0337655Y0395858D01*
X0339786Y0394975D01*
X0342094Y0394975D01*
X0344226Y0395858D01*
X0346268Y0398481D02*
X0350420Y0398481D01*
X0349250Y0400879D02*
X0346740Y0400879D01*
X0346740Y0403278D02*
X0348390Y0403278D01*
X0348577Y0405676D02*
X0346740Y0405676D01*
X0346680Y0408075D02*
X0350014Y0408075D01*
X0350494Y0410473D02*
X0345444Y0410473D01*
X0343555Y0412872D02*
X0349123Y0412872D01*
X0349113Y0415270D02*
X0345953Y0415270D01*
X0346740Y0417669D02*
X0350456Y0417669D01*
X0350051Y0420067D02*
X0346740Y0420067D01*
X0345136Y0422466D02*
X0348593Y0422466D01*
X0348390Y0424864D02*
X0345547Y0424864D01*
X0346740Y0427263D02*
X0349235Y0427263D01*
X0350457Y0429661D02*
X0346740Y0429661D01*
X0345542Y0432060D02*
X0348761Y0432060D01*
X0348390Y0434459D02*
X0342368Y0434459D01*
X0339512Y0434459D02*
X0338040Y0434459D01*
X0345855Y0436857D02*
X0349066Y0436857D01*
X0350866Y0439256D02*
X0346740Y0439256D01*
X0346740Y0441654D02*
X0348929Y0441654D01*
X0348390Y0444053D02*
X0346740Y0444053D01*
X0346740Y0446451D02*
X0348898Y0446451D01*
X0350789Y0448850D02*
X0346098Y0448850D01*
X0343776Y0451248D02*
X0349097Y0451248D01*
X0348390Y0453647D02*
X0344959Y0453647D01*
X0346740Y0456045D02*
X0348730Y0456045D01*
X0350383Y0458444D02*
X0346740Y0458444D01*
X0346130Y0460842D02*
X0349276Y0460842D01*
X0348390Y0463241D02*
X0344553Y0463241D01*
X0346740Y0465639D02*
X0348562Y0465639D01*
X0349977Y0468038D02*
X0346740Y0468038D01*
X0346536Y0470436D02*
X0349682Y0470436D01*
X0348440Y0472835D02*
X0344138Y0472835D01*
X0344861Y0475233D02*
X0348394Y0475233D01*
X0349571Y0477632D02*
X0346438Y0477632D01*
X0346740Y0480030D02*
X0350088Y0480030D01*
X0348608Y0482429D02*
X0346740Y0482429D01*
X0346740Y0484827D02*
X0348390Y0484827D01*
X0349219Y0487226D02*
X0346509Y0487226D01*
X0345033Y0489624D02*
X0350494Y0489624D01*
X0348776Y0492023D02*
X0343965Y0492023D01*
X0346364Y0494421D02*
X0348390Y0494421D01*
X0349051Y0496820D02*
X0346740Y0496820D01*
X0346740Y0499218D02*
X0350956Y0499218D01*
X0348944Y0501617D02*
X0344726Y0501617D01*
X0345958Y0504015D02*
X0348390Y0504015D01*
X0348883Y0506414D02*
X0346740Y0506414D01*
X0346740Y0508812D02*
X0350751Y0508812D01*
X0345132Y0511211D02*
X0423200Y0511211D01*
X0423200Y0513609D02*
X0344121Y0513609D01*
X0346519Y0516008D02*
X0423200Y0516008D01*
X0423200Y0518406D02*
X0348918Y0518406D01*
X0357428Y0508812D02*
X0410751Y0508812D01*
X0408883Y0506414D02*
X0359297Y0506414D01*
X0359790Y0504015D02*
X0408390Y0504015D01*
X0408944Y0501617D02*
X0359235Y0501617D01*
X0357224Y0499218D02*
X0410956Y0499218D01*
X0409051Y0496820D02*
X0359129Y0496820D01*
X0359790Y0494421D02*
X0408390Y0494421D01*
X0408776Y0492023D02*
X0359403Y0492023D01*
X0357685Y0489624D02*
X0410494Y0489624D01*
X0409219Y0487226D02*
X0358960Y0487226D01*
X0359790Y0484827D02*
X0408390Y0484827D01*
X0408608Y0482429D02*
X0359571Y0482429D01*
X0358091Y0480030D02*
X0410088Y0480030D01*
X0409571Y0477632D02*
X0358609Y0477632D01*
X0359786Y0475233D02*
X0408394Y0475233D01*
X0408440Y0472835D02*
X0359740Y0472835D01*
X0358497Y0470436D02*
X0409682Y0470436D01*
X0409977Y0468038D02*
X0358203Y0468038D01*
X0359618Y0465639D02*
X0408562Y0465639D01*
X0408390Y0463241D02*
X0359790Y0463241D01*
X0358903Y0460842D02*
X0409276Y0460842D01*
X0410383Y0458444D02*
X0357797Y0458444D01*
X0359449Y0456045D02*
X0408730Y0456045D01*
X0408390Y0453647D02*
X0359790Y0453647D01*
X0359082Y0451248D02*
X0409097Y0451248D01*
X0410789Y0448850D02*
X0357391Y0448850D01*
X0359281Y0446451D02*
X0408898Y0446451D01*
X0408390Y0444053D02*
X0359790Y0444053D01*
X0359250Y0441654D02*
X0408929Y0441654D01*
X0410866Y0439256D02*
X0357314Y0439256D01*
X0359113Y0436857D02*
X0409066Y0436857D01*
X0408390Y0434459D02*
X0359790Y0434459D01*
X0359419Y0432060D02*
X0408761Y0432060D01*
X0410457Y0429661D02*
X0357723Y0429661D01*
X0358945Y0427263D02*
X0409235Y0427263D01*
X0408390Y0424864D02*
X0359790Y0424864D01*
X0359587Y0422466D02*
X0408593Y0422466D01*
X0410051Y0420067D02*
X0358128Y0420067D01*
X0357723Y0417669D02*
X0409608Y0417669D01*
X0408409Y0415270D02*
X0359066Y0415270D01*
X0359056Y0412872D02*
X0408425Y0412872D01*
X0409645Y0410473D02*
X0357686Y0410473D01*
X0358166Y0408075D02*
X0396557Y0408075D01*
X0395154Y0405676D02*
X0359602Y0405676D01*
X0359790Y0403278D02*
X0394103Y0403278D01*
X0391704Y0400879D02*
X0358930Y0400879D01*
X0357760Y0398481D02*
X0389306Y0398481D01*
X0386907Y0396082D02*
X0359434Y0396082D01*
X0359790Y0393684D02*
X0384509Y0393684D01*
X0382584Y0391285D02*
X0359098Y0391285D01*
X0357354Y0388887D02*
X0382249Y0388887D01*
X0382249Y0386488D02*
X0359266Y0386488D01*
X0359790Y0384090D02*
X0382249Y0384090D01*
X0382249Y0381691D02*
X0359266Y0381691D01*
X0357354Y0379293D02*
X0382249Y0379293D01*
X0382249Y0376894D02*
X0359098Y0376894D01*
X0359790Y0374496D02*
X0382249Y0374496D01*
X0382249Y0372097D02*
X0359434Y0372097D01*
X0357760Y0369699D02*
X0382249Y0369699D01*
X0382249Y0367300D02*
X0358930Y0367300D01*
X0359790Y0364902D02*
X0382249Y0364902D01*
X0382249Y0362503D02*
X0359602Y0362503D01*
X0358166Y0360105D02*
X0382249Y0360105D01*
X0382249Y0357706D02*
X0358534Y0357706D01*
X0359755Y0355308D02*
X0382249Y0355308D01*
X0382249Y0352909D02*
X0359770Y0352909D01*
X0358572Y0350511D02*
X0382249Y0350511D01*
X0382249Y0348112D02*
X0358128Y0348112D01*
X0359587Y0345714D02*
X0382249Y0345714D01*
X0382249Y0343315D02*
X0359790Y0343315D01*
X0358945Y0340917D02*
X0382249Y0340917D01*
X0382249Y0338518D02*
X0357722Y0338518D01*
X0359419Y0336120D02*
X0382249Y0336120D01*
X0382249Y0333721D02*
X0359790Y0333721D01*
X0359113Y0331323D02*
X0382249Y0331323D01*
X0382249Y0328924D02*
X0367314Y0328924D01*
X0369250Y0326525D02*
X0380736Y0326525D01*
X0378338Y0324127D02*
X0369790Y0324127D01*
X0369281Y0321728D02*
X0375939Y0321728D01*
X0373541Y0319330D02*
X0367391Y0319330D01*
X0369082Y0316931D02*
X0371142Y0316931D01*
X0376392Y0309736D02*
X0410383Y0309736D01*
X0409276Y0307337D02*
X0374304Y0307337D01*
X0373294Y0304939D02*
X0408390Y0304939D01*
X0408562Y0302540D02*
X0369618Y0302540D01*
X0368203Y0300142D02*
X0409977Y0300142D01*
X0409682Y0297743D02*
X0358497Y0297743D01*
X0358203Y0300142D02*
X0359977Y0300142D01*
X0359740Y0295345D02*
X0408440Y0295345D01*
X0408394Y0292946D02*
X0359786Y0292946D01*
X0358609Y0290548D02*
X0409571Y0290548D01*
X0410088Y0288149D02*
X0368091Y0288149D01*
X0369571Y0285751D02*
X0408608Y0285751D01*
X0408390Y0283352D02*
X0369790Y0283352D01*
X0368960Y0280954D02*
X0409219Y0280954D01*
X0411620Y0278555D02*
X0365623Y0278555D01*
X0362556Y0278555D02*
X0357685Y0278555D01*
X0358115Y0280954D02*
X0359219Y0280954D01*
X0359403Y0276157D02*
X0409419Y0276157D01*
X0408990Y0274090D02*
X0408990Y0273688D01*
X0409115Y0272895D01*
X0409363Y0272132D01*
X0409728Y0271417D01*
X0410200Y0270767D01*
X0410767Y0270200D01*
X0411417Y0269728D01*
X0412132Y0269363D01*
X0412895Y0269115D01*
X0413688Y0268990D01*
X0414090Y0268990D01*
X0414491Y0268990D01*
X0415284Y0269115D01*
X0416047Y0269363D01*
X0416763Y0269728D01*
X0417412Y0270200D01*
X0417980Y0270767D01*
X0418452Y0271417D01*
X0418816Y0272132D01*
X0419064Y0272895D01*
X0419190Y0273688D01*
X0419190Y0274090D01*
X0414090Y0274090D01*
X0414090Y0274090D01*
X0414090Y0268990D01*
X0414090Y0274090D01*
X0414090Y0274090D01*
X0414090Y0274090D01*
X0408990Y0274090D01*
X0408990Y0273758D02*
X0359790Y0273758D01*
X0359129Y0271360D02*
X0409769Y0271360D01*
X0414090Y0271360D02*
X0414090Y0271360D01*
X0414090Y0273758D02*
X0414090Y0273758D01*
X0418410Y0271360D02*
X0450177Y0271360D01*
X0452575Y0273758D02*
X0419190Y0273758D01*
X0418760Y0276157D02*
X0454974Y0276157D01*
X0457372Y0278555D02*
X0416559Y0278555D01*
X0418960Y0280954D02*
X0459771Y0280954D01*
X0462169Y0283352D02*
X0419790Y0283352D01*
X0419571Y0285751D02*
X0423825Y0285751D01*
X0421951Y0288149D02*
X0418091Y0288149D01*
X0418609Y0290548D02*
X0421439Y0290548D01*
X0421439Y0292946D02*
X0419786Y0292946D01*
X0419740Y0295345D02*
X0421439Y0295345D01*
X0421461Y0297743D02*
X0418497Y0297743D01*
X0418203Y0300142D02*
X0422640Y0300142D01*
X0424720Y0302540D02*
X0419618Y0302540D01*
X0419790Y0304939D02*
X0422322Y0304939D01*
X0421439Y0307337D02*
X0418903Y0307337D01*
X0417797Y0309736D02*
X0421439Y0309736D01*
X0422948Y0312134D02*
X0419449Y0312134D01*
X0419790Y0314533D02*
X0422728Y0314533D01*
X0421439Y0316931D02*
X0419082Y0316931D01*
X0417391Y0319330D02*
X0421439Y0319330D01*
X0422542Y0321728D02*
X0419281Y0321728D01*
X0419790Y0324127D02*
X0430139Y0324127D01*
X0430139Y0326525D02*
X0429475Y0326525D01*
X0425003Y0326525D02*
X0419250Y0326525D01*
X0417314Y0328924D02*
X0422185Y0328924D01*
X0421439Y0331323D02*
X0419113Y0331323D01*
X0419790Y0333721D02*
X0421439Y0333721D01*
X0421439Y0336120D02*
X0419419Y0336120D01*
X0417722Y0338518D02*
X0421439Y0338518D01*
X0422220Y0340917D02*
X0418945Y0340917D01*
X0419790Y0343315D02*
X0425212Y0343315D01*
X0422886Y0345714D02*
X0419587Y0345714D01*
X0418128Y0348112D02*
X0421439Y0348112D01*
X0421439Y0350511D02*
X0418572Y0350511D01*
X0419770Y0352909D02*
X0422384Y0352909D01*
X0423292Y0355308D02*
X0419755Y0355308D01*
X0418534Y0357706D02*
X0421439Y0357706D01*
X0421439Y0360105D02*
X0418166Y0360105D01*
X0419602Y0362503D02*
X0421978Y0362503D01*
X0419790Y0364902D02*
X0424376Y0364902D01*
X0425327Y0369699D02*
X0417760Y0369699D01*
X0418930Y0367300D02*
X0430139Y0367300D01*
X0430102Y0364902D02*
X0430139Y0364902D01*
X0430139Y0369699D02*
X0429152Y0369699D01*
X0422240Y0372097D02*
X0419434Y0372097D01*
X0419790Y0374496D02*
X0421439Y0374496D01*
X0421439Y0376894D02*
X0419098Y0376894D01*
X0417354Y0379293D02*
X0421439Y0379293D01*
X0421439Y0381691D02*
X0419266Y0381691D01*
X0419790Y0384090D02*
X0422165Y0384090D01*
X0424888Y0386488D02*
X0419266Y0386488D01*
X0417354Y0388887D02*
X0423019Y0388887D01*
X0421439Y0391285D02*
X0419098Y0391285D01*
X0419790Y0393684D02*
X0421439Y0393684D01*
X0422250Y0396082D02*
X0419434Y0396082D01*
X0417760Y0398481D02*
X0423425Y0398481D01*
X0421439Y0400879D02*
X0418930Y0400879D01*
X0420377Y0403278D02*
X0421439Y0403278D01*
X0419731Y0412814D02*
X0419790Y0412956D01*
X0419790Y0415224D01*
X0418922Y0417319D01*
X0417319Y0418922D01*
X0416913Y0419090D01*
X0417319Y0419258D01*
X0418922Y0420861D01*
X0419790Y0422956D01*
X0419790Y0425224D01*
X0418922Y0427319D01*
X0417319Y0428922D01*
X0416913Y0429090D01*
X0417319Y0429258D01*
X0418551Y0430490D01*
X0419016Y0430490D01*
X0421644Y0427862D01*
X0421644Y0424084D01*
X0422070Y0423055D01*
X0422310Y0422815D01*
X0422244Y0422568D01*
X0422244Y0419799D01*
X0427317Y0419799D01*
X0427317Y0419640D01*
X0422244Y0419640D01*
X0422244Y0416871D01*
X0422394Y0416311D01*
X0422684Y0415810D01*
X0423093Y0415400D01*
X0423355Y0415249D01*
X0422941Y0415249D01*
X0421617Y0414701D01*
X0420605Y0413688D01*
X0419731Y0412814D01*
X0419755Y0412872D02*
X0419789Y0412872D01*
X0419770Y0415270D02*
X0423318Y0415270D01*
X0422244Y0417669D02*
X0418572Y0417669D01*
X0418128Y0420067D02*
X0422244Y0420067D01*
X0422244Y0422466D02*
X0419587Y0422466D01*
X0419790Y0424864D02*
X0421644Y0424864D01*
X0421644Y0427263D02*
X0418945Y0427263D01*
X0419844Y0429661D02*
X0417722Y0429661D01*
X0421223Y0437690D02*
X0422546Y0437142D01*
X0427129Y0432559D01*
X0430907Y0432559D01*
X0431487Y0432319D01*
X0431487Y0438190D01*
X0431913Y0439219D01*
X0432701Y0440007D01*
X0433730Y0440433D01*
X0440749Y0440433D01*
X0441778Y0440007D01*
X0442566Y0439219D01*
X0442792Y0438674D01*
X0443371Y0438674D01*
X0443325Y0438697D01*
X0442663Y0439179D01*
X0442084Y0439757D01*
X0441603Y0440419D01*
X0441231Y0441149D01*
X0440978Y0441927D01*
X0440850Y0442736D01*
X0440850Y0443145D01*
X0449050Y0443145D01*
X0449050Y0443145D01*
X0440850Y0443145D01*
X0440850Y0443554D01*
X0440978Y0444363D01*
X0441231Y0445141D01*
X0441603Y0445870D01*
X0442084Y0446532D01*
X0442663Y0447111D01*
X0443325Y0447592D01*
X0443762Y0447815D01*
X0442765Y0448228D01*
X0442752Y0448241D01*
X0442369Y0447858D01*
X0441340Y0447431D01*
X0433139Y0447431D01*
X0432110Y0447858D01*
X0431322Y0448645D01*
X0431273Y0448764D01*
X0430907Y0448613D01*
X0423887Y0448613D01*
X0422858Y0449039D01*
X0422070Y0449827D01*
X0421644Y0450856D01*
X0421644Y0457088D01*
X0422070Y0458117D01*
X0422310Y0458357D01*
X0422244Y0458603D01*
X0422244Y0461372D01*
X0427317Y0461372D01*
X0427317Y0461531D01*
X0422244Y0461531D01*
X0422244Y0464301D01*
X0422394Y0464860D01*
X0422684Y0465362D01*
X0423093Y0465771D01*
X0423595Y0466061D01*
X0424154Y0466211D01*
X0427317Y0466211D01*
X0427317Y0461532D01*
X0427476Y0461532D01*
X0427476Y0466211D01*
X0430639Y0466211D01*
X0431199Y0466061D01*
X0431496Y0465889D01*
X0431496Y0467773D01*
X0422864Y0467773D01*
X0419790Y0464699D01*
X0419790Y0462956D01*
X0418922Y0460861D01*
X0417319Y0459258D01*
X0416913Y0459090D01*
X0417319Y0458922D01*
X0418922Y0457319D01*
X0419790Y0455224D01*
X0419790Y0452956D01*
X0418922Y0450861D01*
X0417319Y0449258D01*
X0416913Y0449090D01*
X0417319Y0448922D01*
X0418922Y0447319D01*
X0419790Y0445224D01*
X0419790Y0442956D01*
X0418922Y0440861D01*
X0417319Y0439258D01*
X0416913Y0439090D01*
X0417319Y0438922D01*
X0418551Y0437690D01*
X0421223Y0437690D01*
X0422831Y0436857D02*
X0431487Y0436857D01*
X0431487Y0434459D02*
X0425230Y0434459D01*
X0431949Y0439256D02*
X0417314Y0439256D01*
X0419250Y0441654D02*
X0441067Y0441654D01*
X0440929Y0444053D02*
X0419790Y0444053D01*
X0419281Y0446451D02*
X0442025Y0446451D01*
X0442529Y0439256D02*
X0442586Y0439256D01*
X0449051Y0443145D02*
X0449051Y0443145D01*
X0457250Y0443145D01*
X0449051Y0443145D01*
X0455515Y0439256D02*
X0493063Y0439256D01*
X0493063Y0441654D02*
X0457034Y0441654D01*
X0457171Y0444053D02*
X0493063Y0444053D01*
X0493063Y0446451D02*
X0480882Y0446451D01*
X0475822Y0451373D02*
X0475822Y0452003D01*
X0486452Y0452003D01*
X0486452Y0453184D01*
X0492205Y0453647D02*
X0493063Y0453647D01*
X0493063Y0456045D02*
X0492205Y0456045D01*
X0491605Y0458444D02*
X0493063Y0458444D01*
X0493063Y0460842D02*
X0491605Y0460842D01*
X0491605Y0463241D02*
X0493063Y0463241D01*
X0493063Y0465639D02*
X0481565Y0465639D01*
X0480542Y0468038D02*
X0493063Y0468038D01*
X0493063Y0470436D02*
X0473402Y0470436D01*
X0473274Y0472835D02*
X0493063Y0472835D01*
X0493063Y0475233D02*
X0471944Y0475233D01*
X0472062Y0477632D02*
X0493063Y0477632D01*
X0493063Y0480030D02*
X0473323Y0480030D01*
X0473402Y0482429D02*
X0493063Y0482429D01*
X0493063Y0484827D02*
X0472350Y0484827D01*
X0473356Y0497047D02*
X0473915Y0497197D01*
X0474417Y0497487D01*
X0474827Y0497896D01*
X0475116Y0498398D01*
X0475266Y0498958D01*
X0475266Y0502120D01*
X0470587Y0502120D01*
X0470587Y0497047D01*
X0473356Y0497047D01*
X0475266Y0499218D02*
X0493063Y0499218D01*
X0493063Y0496820D02*
X0467042Y0496820D01*
X0470428Y0499218D02*
X0470587Y0499218D01*
X0470587Y0501617D02*
X0470428Y0501617D01*
X0470587Y0502280D02*
X0475266Y0502280D01*
X0475266Y0505442D01*
X0475116Y0506002D01*
X0474827Y0506504D01*
X0474417Y0506913D01*
X0473915Y0507203D01*
X0473356Y0507353D01*
X0470587Y0507353D01*
X0470587Y0502280D01*
X0470587Y0504015D02*
X0470428Y0504015D01*
X0470428Y0506414D02*
X0470587Y0506414D01*
X0474878Y0506414D02*
X0493063Y0506414D01*
X0493063Y0508812D02*
X0462071Y0508812D01*
X0459673Y0511211D02*
X0493063Y0511211D01*
X0493063Y0513609D02*
X0474792Y0513609D01*
X0474827Y0513644D02*
X0475116Y0514146D01*
X0475266Y0514706D01*
X0475266Y0517868D01*
X0470587Y0517868D01*
X0470587Y0512795D01*
X0473356Y0512795D01*
X0473915Y0512945D01*
X0474417Y0513235D01*
X0474827Y0513644D01*
X0475266Y0516008D02*
X0493063Y0516008D01*
X0493063Y0518406D02*
X0475266Y0518406D01*
X0475266Y0518028D02*
X0475266Y0521190D01*
X0475116Y0521750D01*
X0474827Y0522252D01*
X0474417Y0522661D01*
X0473915Y0522951D01*
X0473356Y0523101D01*
X0470587Y0523101D01*
X0470587Y0518028D01*
X0475266Y0518028D01*
X0475266Y0520805D02*
X0493063Y0520805D01*
X0493063Y0523203D02*
X0482078Y0523203D01*
X0486388Y0524469D02*
X0486388Y0524469D01*
X0488151Y0525602D02*
X0493063Y0525602D01*
X0493063Y0528000D02*
X0491443Y0528000D01*
X0490889Y0527362D02*
X0490889Y0527362D01*
X0475078Y0523203D02*
X0467243Y0523203D01*
X0469005Y0525602D02*
X0461030Y0525602D01*
X0458631Y0528000D02*
X0465713Y0528000D01*
X0466267Y0527362D02*
X0466267Y0527362D01*
X0463635Y0530399D02*
X0451386Y0530399D01*
X0455153Y0525822D02*
X0447279Y0525822D01*
X0450548Y0520805D02*
X0454513Y0520805D01*
X0456912Y0518406D02*
X0433315Y0518406D01*
X0431200Y0516008D02*
X0457668Y0516008D01*
X0458011Y0513609D02*
X0457070Y0513609D01*
X0455153Y0510074D02*
X0447279Y0510074D01*
X0455153Y0510074D02*
X0463027Y0502200D01*
X0457668Y0501617D02*
X0436909Y0501617D01*
X0436909Y0499218D02*
X0457668Y0499218D01*
X0459011Y0496820D02*
X0435941Y0496820D01*
X0433543Y0494421D02*
X0493063Y0494421D01*
X0493063Y0492023D02*
X0431144Y0492023D01*
X0428746Y0489624D02*
X0493063Y0489624D01*
X0493063Y0487226D02*
X0426347Y0487226D01*
X0423949Y0484827D02*
X0456853Y0484827D01*
X0455802Y0482429D02*
X0421550Y0482429D01*
X0417554Y0484090D02*
X0432909Y0499444D01*
X0432909Y0503972D01*
X0439011Y0510074D01*
X0433849Y0511211D02*
X0431200Y0511211D01*
X0431200Y0513609D02*
X0434104Y0513609D01*
X0432093Y0508812D02*
X0431200Y0508812D01*
X0427200Y0505546D02*
X0427200Y0517948D01*
X0435074Y0525822D01*
X0439011Y0525822D01*
X0435742Y0520805D02*
X0435714Y0520805D01*
X0442280Y0520805D02*
X0444009Y0520805D01*
X0443171Y0530399D02*
X0443118Y0530399D01*
X0434904Y0530399D02*
X0404027Y0530399D01*
X0404027Y0529859D02*
X0404027Y0534139D01*
X0403877Y0535087D01*
X0403580Y0536001D01*
X0403144Y0536856D01*
X0402580Y0537633D01*
X0401901Y0538312D01*
X0401124Y0538876D01*
X0400268Y0539312D01*
X0399355Y0539609D01*
X0398407Y0539759D01*
X0398027Y0539759D01*
X0398027Y0529859D01*
X0404027Y0529859D01*
X0404027Y0529659D02*
X0398027Y0529659D01*
X0398027Y0529859D01*
X0397827Y0529859D01*
X0397827Y0539759D01*
X0397447Y0539759D01*
X0396498Y0539609D01*
X0395585Y0539312D01*
X0394730Y0538876D01*
X0393953Y0538312D01*
X0393274Y0537633D01*
X0392710Y0536856D01*
X0392274Y0536001D01*
X0391977Y0535087D01*
X0391827Y0534139D01*
X0391827Y0529859D01*
X0397827Y0529859D01*
X0397827Y0529659D01*
X0398027Y0529659D01*
X0398027Y0519759D01*
X0398407Y0519759D01*
X0399355Y0519909D01*
X0400268Y0520206D01*
X0401124Y0520642D01*
X0401901Y0521206D01*
X0402580Y0521885D01*
X0403144Y0522662D01*
X0403580Y0523517D01*
X0403877Y0524431D01*
X0404027Y0525379D01*
X0404027Y0529659D01*
X0404027Y0528000D02*
X0431596Y0528000D01*
X0429197Y0525602D02*
X0404027Y0525602D01*
X0403420Y0523203D02*
X0426799Y0523203D01*
X0424400Y0520805D02*
X0401348Y0520805D01*
X0398027Y0520805D02*
X0397827Y0520805D01*
X0397827Y0519759D02*
X0397827Y0529659D01*
X0391827Y0529659D01*
X0391827Y0525379D01*
X0391977Y0524431D01*
X0392274Y0523517D01*
X0392710Y0522662D01*
X0393274Y0521885D01*
X0393953Y0521206D01*
X0394730Y0520642D01*
X0395585Y0520206D01*
X0396498Y0519909D01*
X0397447Y0519759D01*
X0397827Y0519759D01*
X0397827Y0523203D02*
X0398027Y0523203D01*
X0398027Y0525602D02*
X0397827Y0525602D01*
X0397827Y0528000D02*
X0398027Y0528000D01*
X0398027Y0530399D02*
X0397827Y0530399D01*
X0397827Y0532797D02*
X0398027Y0532797D01*
X0398027Y0535196D02*
X0397827Y0535196D01*
X0397827Y0537594D02*
X0398027Y0537594D01*
X0402608Y0537594D02*
X0460350Y0537594D01*
X0460005Y0539993D02*
X0380443Y0539993D01*
X0384958Y0537594D02*
X0393246Y0537594D01*
X0392012Y0535196D02*
X0386981Y0535196D01*
X0388076Y0532797D02*
X0391827Y0532797D01*
X0391827Y0530399D02*
X0388527Y0530399D01*
X0388419Y0528000D02*
X0391827Y0528000D01*
X0391827Y0525602D02*
X0387720Y0525602D01*
X0386238Y0523203D02*
X0392434Y0523203D01*
X0394505Y0520805D02*
X0383318Y0520805D01*
X0404027Y0532797D02*
X0462127Y0532797D01*
X0462762Y0531406D02*
X0462762Y0531406D01*
X0461032Y0535196D02*
X0403841Y0535196D01*
X0417428Y0508812D02*
X0423200Y0508812D01*
X0422411Y0506414D02*
X0419297Y0506414D01*
X0419790Y0504015D02*
X0420012Y0504015D01*
X0427200Y0505546D02*
X0415743Y0494090D01*
X0414090Y0494090D01*
X0414090Y0484090D02*
X0417554Y0484090D01*
X0420730Y0465639D02*
X0422961Y0465639D01*
X0422244Y0463241D02*
X0419790Y0463241D01*
X0418903Y0460842D02*
X0422244Y0460842D01*
X0422287Y0458444D02*
X0417797Y0458444D01*
X0419449Y0456045D02*
X0421644Y0456045D01*
X0421644Y0453647D02*
X0419790Y0453647D01*
X0419082Y0451248D02*
X0421644Y0451248D01*
X0423315Y0448850D02*
X0417391Y0448850D01*
X0427397Y0453972D02*
X0436649Y0453972D01*
X0437239Y0453381D01*
X0448814Y0453381D01*
X0449050Y0453145D01*
X0444897Y0458945D02*
X0443081Y0458193D01*
X0442369Y0458904D01*
X0441636Y0459208D01*
X0442134Y0459495D01*
X0442543Y0459904D01*
X0442833Y0460406D01*
X0442983Y0460965D01*
X0442983Y0464030D01*
X0437614Y0464030D01*
X0437614Y0464780D01*
X0442983Y0464780D01*
X0442983Y0467773D01*
X0456999Y0467773D01*
X0458316Y0466456D01*
X0459313Y0466043D01*
X0458876Y0465821D01*
X0458214Y0465340D01*
X0457635Y0464761D01*
X0457154Y0464099D01*
X0456783Y0463369D01*
X0456530Y0462591D01*
X0456402Y0461782D01*
X0456402Y0461373D01*
X0456402Y0460964D01*
X0456530Y0460156D01*
X0456783Y0459377D01*
X0457154Y0458648D01*
X0457302Y0458445D01*
X0454411Y0458445D01*
X0453204Y0458945D01*
X0444897Y0458945D01*
X0443687Y0458444D02*
X0442830Y0458444D01*
X0442950Y0460842D02*
X0456421Y0460842D01*
X0456402Y0461373D02*
X0464601Y0461373D01*
X0464601Y0461373D01*
X0456402Y0461373D01*
X0456741Y0463241D02*
X0442983Y0463241D01*
X0442983Y0465639D02*
X0458626Y0465639D01*
X0464602Y0451373D02*
X0475822Y0451373D01*
X0486372Y0460842D02*
X0486531Y0460842D01*
X0486531Y0463241D02*
X0486372Y0463241D01*
X0476197Y0465639D02*
X0475447Y0465639D01*
X0475447Y0468038D02*
X0476197Y0468038D01*
X0492205Y0451248D02*
X0493063Y0451248D01*
X0493063Y0448850D02*
X0491589Y0448850D01*
X0493063Y0436857D02*
X0456541Y0436857D01*
X0457784Y0434459D02*
X0493063Y0434459D01*
X0493063Y0432060D02*
X0457850Y0432060D01*
X0456769Y0429661D02*
X0493063Y0429661D01*
X0493063Y0427263D02*
X0442992Y0427263D01*
X0442992Y0424864D02*
X0451111Y0424864D01*
X0448712Y0422466D02*
X0441307Y0422466D01*
X0447778Y0420067D02*
X0432550Y0420067D01*
X0432550Y0417669D02*
X0447027Y0417669D01*
X0444628Y0415270D02*
X0431476Y0415270D01*
X0432550Y0422466D02*
X0433171Y0422466D01*
X0446877Y0408075D02*
X0493063Y0408075D01*
X0493063Y0410473D02*
X0450013Y0410473D01*
X0449393Y0408069D02*
X0447239Y0408069D01*
X0447239Y0402869D01*
X0447239Y0402869D01*
X0447239Y0402869D01*
X0452439Y0402869D01*
X0452439Y0405023D01*
X0449393Y0408069D01*
X0447239Y0405676D02*
X0447239Y0405676D01*
X0447239Y0403278D02*
X0447239Y0403278D01*
X0447239Y0400879D02*
X0447239Y0400879D01*
X0447239Y0398481D02*
X0447239Y0398481D01*
X0447239Y0396082D02*
X0447239Y0396082D01*
X0447239Y0393684D02*
X0447239Y0393684D01*
X0447239Y0391285D02*
X0447239Y0391285D01*
X0447239Y0388887D02*
X0447239Y0388887D01*
X0447239Y0386384D02*
X0447239Y0378184D01*
X0447239Y0378184D01*
X0447239Y0378184D01*
X0452439Y0378184D01*
X0452439Y0381594D01*
X0452311Y0382402D01*
X0452058Y0383180D01*
X0451687Y0383910D01*
X0451206Y0384572D01*
X0450627Y0385151D01*
X0449965Y0385632D01*
X0449235Y0386003D01*
X0448457Y0386256D01*
X0447649Y0386384D01*
X0447239Y0386384D01*
X0447239Y0384090D02*
X0447239Y0384090D01*
X0447239Y0381691D02*
X0447239Y0381691D01*
X0447239Y0379293D02*
X0447239Y0379293D01*
X0447239Y0376894D02*
X0447239Y0376894D01*
X0447239Y0374496D02*
X0447239Y0374496D01*
X0447239Y0372097D02*
X0447239Y0372097D01*
X0444339Y0369699D02*
X0472485Y0369699D01*
X0472788Y0372097D02*
X0451424Y0372097D01*
X0452395Y0374496D02*
X0474301Y0374496D01*
X0473332Y0376894D02*
X0452439Y0376894D01*
X0452439Y0379293D02*
X0472485Y0379293D01*
X0472620Y0381691D02*
X0452424Y0381691D01*
X0451556Y0384090D02*
X0473895Y0384090D01*
X0474471Y0386488D02*
X0444339Y0386488D01*
X0450611Y0388887D02*
X0473217Y0388887D01*
X0473196Y0391285D02*
X0452439Y0391285D01*
X0452439Y0393684D02*
X0474352Y0393684D01*
X0481885Y0393684D02*
X0481885Y0393684D01*
X0481885Y0391285D02*
X0481885Y0391285D01*
X0489418Y0393684D02*
X0493063Y0393684D01*
X0493063Y0396082D02*
X0451380Y0396082D01*
X0450205Y0398481D02*
X0493063Y0398481D01*
X0493063Y0400879D02*
X0452439Y0400879D01*
X0452439Y0403278D02*
X0493063Y0403278D01*
X0493063Y0405676D02*
X0451786Y0405676D01*
X0452412Y0412872D02*
X0493063Y0412872D01*
X0493063Y0415270D02*
X0479300Y0415270D01*
X0479597Y0417669D02*
X0493063Y0417669D01*
X0493063Y0420067D02*
X0479597Y0420067D01*
X0479597Y0419406D02*
X0479597Y0422568D01*
X0479447Y0423128D01*
X0479157Y0423630D01*
X0478748Y0424039D01*
X0478246Y0424329D01*
X0477686Y0424479D01*
X0474917Y0424479D01*
X0474917Y0419406D01*
X0479597Y0419406D01*
X0479597Y0422466D02*
X0493063Y0422466D01*
X0493063Y0424864D02*
X0470991Y0424864D01*
X0474758Y0422466D02*
X0474917Y0422466D01*
X0474917Y0420067D02*
X0474758Y0420067D01*
X0474758Y0417669D02*
X0474917Y0417669D01*
X0474917Y0415270D02*
X0474758Y0415270D01*
X0462225Y0415270D02*
X0457922Y0415270D01*
X0456045Y0424864D02*
X0463724Y0424864D01*
X0458329Y0446451D02*
X0456076Y0446451D01*
X0427476Y0463241D02*
X0427317Y0463241D01*
X0427317Y0465639D02*
X0427476Y0465639D01*
X0438609Y0504015D02*
X0455555Y0504015D01*
X0463027Y0517948D02*
X0455153Y0525822D01*
X0470428Y0520805D02*
X0470587Y0520805D01*
X0470587Y0518406D02*
X0470428Y0518406D01*
X0470428Y0516008D02*
X0470587Y0516008D01*
X0470587Y0513609D02*
X0470428Y0513609D01*
X0475266Y0504015D02*
X0493063Y0504015D01*
X0493063Y0501617D02*
X0475266Y0501617D01*
X0459778Y0541570D02*
X0459778Y0541570D01*
X0459896Y0542392D02*
X0308283Y0542392D01*
X0308175Y0539993D02*
X0344101Y0539993D01*
X0338973Y0537594D02*
X0307830Y0537594D01*
X0307148Y0535196D02*
X0336574Y0535196D01*
X0337462Y0536083D02*
X0337462Y0536083D01*
X0334176Y0532797D02*
X0306053Y0532797D01*
X0305417Y0531406D02*
X0305417Y0531406D01*
X0304544Y0530399D02*
X0331777Y0530399D01*
X0329379Y0528000D02*
X0302466Y0528000D01*
X0301913Y0527362D02*
X0301913Y0527362D01*
X0301913Y0527362D01*
X0299174Y0525602D02*
X0326980Y0525602D01*
X0324582Y0523203D02*
X0293101Y0523203D01*
X0286102Y0523203D02*
X0275117Y0523203D01*
X0275117Y0520805D02*
X0322401Y0520805D01*
X0321191Y0518406D02*
X0275117Y0518406D01*
X0275117Y0516008D02*
X0320640Y0516008D01*
X0320648Y0513609D02*
X0275117Y0513609D01*
X0275117Y0511211D02*
X0317597Y0511211D01*
X0315740Y0508812D02*
X0275117Y0508812D01*
X0275117Y0506414D02*
X0315740Y0506414D01*
X0316771Y0504015D02*
X0275117Y0504015D01*
X0275117Y0501617D02*
X0318003Y0501617D01*
X0320940Y0501617D02*
X0320940Y0501617D01*
X0320940Y0504015D02*
X0320940Y0504015D01*
X0320940Y0506414D02*
X0320940Y0506414D01*
X0320940Y0508812D02*
X0320940Y0508812D01*
X0320940Y0511211D02*
X0320940Y0511211D01*
X0320940Y0499218D02*
X0320940Y0499218D01*
X0320940Y0496820D02*
X0320940Y0496820D01*
X0320940Y0494421D02*
X0320940Y0494421D01*
X0320940Y0492023D02*
X0320940Y0492023D01*
X0318763Y0492023D02*
X0275117Y0492023D01*
X0275117Y0494421D02*
X0316365Y0494421D01*
X0315740Y0496820D02*
X0275117Y0496820D01*
X0275117Y0499218D02*
X0315740Y0499218D01*
X0317749Y0489624D02*
X0275117Y0489624D01*
X0275117Y0487226D02*
X0316028Y0487226D01*
X0315740Y0484827D02*
X0275117Y0484827D01*
X0275117Y0482429D02*
X0315740Y0482429D01*
X0315740Y0480030D02*
X0275117Y0480030D01*
X0275117Y0477632D02*
X0316084Y0477632D01*
X0317987Y0475233D02*
X0275117Y0475233D01*
X0275117Y0472835D02*
X0318591Y0472835D01*
X0320940Y0472835D02*
X0320940Y0472835D01*
X0323289Y0472835D02*
X0323840Y0472835D01*
X0320940Y0475233D02*
X0320940Y0475233D01*
X0320940Y0477632D02*
X0320940Y0477632D01*
X0320940Y0480030D02*
X0320940Y0480030D01*
X0320940Y0482429D02*
X0320940Y0482429D01*
X0320940Y0484827D02*
X0320940Y0484827D01*
X0320940Y0487226D02*
X0320940Y0487226D01*
X0320940Y0489624D02*
X0320940Y0489624D01*
X0323117Y0492023D02*
X0323840Y0492023D01*
X0320940Y0470436D02*
X0320940Y0470436D01*
X0320940Y0468038D02*
X0320940Y0468038D01*
X0320940Y0465639D02*
X0320940Y0465639D01*
X0320940Y0463241D02*
X0320940Y0463241D01*
X0320940Y0460842D02*
X0320940Y0460842D01*
X0320940Y0458444D02*
X0320940Y0458444D01*
X0320940Y0456045D02*
X0320940Y0456045D01*
X0320940Y0453647D02*
X0320940Y0453647D01*
X0320940Y0451248D02*
X0320940Y0451248D01*
X0319920Y0451248D02*
X0275117Y0451248D01*
X0275117Y0448850D02*
X0316482Y0448850D01*
X0315740Y0446451D02*
X0275117Y0446451D01*
X0275117Y0444053D02*
X0315740Y0444053D01*
X0315740Y0441654D02*
X0275117Y0441654D01*
X0275117Y0439256D02*
X0315816Y0439256D01*
X0316901Y0436857D02*
X0275117Y0436857D01*
X0275117Y0434459D02*
X0323840Y0434459D01*
X0320940Y0436857D02*
X0320940Y0436857D01*
X0320940Y0439256D02*
X0320940Y0439256D01*
X0320940Y0441654D02*
X0320940Y0441654D01*
X0320940Y0444053D02*
X0320940Y0444053D01*
X0320940Y0446451D02*
X0320940Y0446451D01*
X0320940Y0448850D02*
X0320940Y0448850D01*
X0321961Y0451248D02*
X0323840Y0451248D01*
X0317770Y0453647D02*
X0275117Y0453647D01*
X0275117Y0456045D02*
X0315740Y0456045D01*
X0315740Y0458444D02*
X0275117Y0458444D01*
X0275117Y0460842D02*
X0316598Y0460842D01*
X0318176Y0463241D02*
X0275117Y0463241D01*
X0275117Y0465639D02*
X0315777Y0465639D01*
X0315740Y0468038D02*
X0275117Y0468038D01*
X0275117Y0470436D02*
X0316193Y0470436D01*
X0338040Y0451248D02*
X0338104Y0451248D01*
X0320940Y0432060D02*
X0320940Y0432060D01*
X0320940Y0429661D02*
X0320940Y0429661D01*
X0320940Y0427263D02*
X0320940Y0427263D01*
X0320940Y0424864D02*
X0320940Y0424864D01*
X0320940Y0422466D02*
X0320940Y0422466D01*
X0320940Y0420067D02*
X0320940Y0420067D01*
X0320940Y0417669D02*
X0320940Y0417669D01*
X0320940Y0415270D02*
X0320940Y0415270D01*
X0323840Y0412872D02*
X0275117Y0412872D01*
X0275117Y0415270D02*
X0316776Y0415270D01*
X0315740Y0417669D02*
X0275117Y0417669D01*
X0275117Y0420067D02*
X0315740Y0420067D01*
X0317592Y0422466D02*
X0275117Y0422466D01*
X0275117Y0424864D02*
X0317182Y0424864D01*
X0315740Y0427263D02*
X0275117Y0427263D01*
X0275117Y0429661D02*
X0315740Y0429661D01*
X0317186Y0432060D02*
X0275117Y0432060D01*
X0275117Y0410473D02*
X0317285Y0410473D01*
X0315895Y0408075D02*
X0275117Y0408075D01*
X0275117Y0405676D02*
X0315740Y0405676D01*
X0315740Y0403278D02*
X0275117Y0403278D01*
X0275117Y0400879D02*
X0315740Y0400879D01*
X0316273Y0398481D02*
X0275117Y0398481D01*
X0275117Y0396082D02*
X0318696Y0396082D01*
X0320940Y0396082D02*
X0320940Y0396082D01*
X0323185Y0396082D02*
X0327430Y0396082D01*
X0325612Y0398481D02*
X0325607Y0398481D01*
X0320940Y0398481D02*
X0320940Y0398481D01*
X0320940Y0400879D02*
X0320940Y0400879D01*
X0320940Y0403278D02*
X0320940Y0403278D01*
X0320940Y0405676D02*
X0320940Y0405676D01*
X0320940Y0408075D02*
X0320940Y0408075D01*
X0320940Y0410473D02*
X0320940Y0410473D01*
X0334450Y0396082D02*
X0337430Y0396082D01*
X0333777Y0387874D02*
X0324167Y0387874D01*
X0321835Y0386908D01*
X0320051Y0385124D01*
X0319085Y0382792D01*
X0319085Y0380269D01*
X0320051Y0377938D01*
X0321458Y0376531D01*
X0320051Y0375124D01*
X0319085Y0372792D01*
X0319085Y0370269D01*
X0320051Y0367938D01*
X0321458Y0366531D01*
X0320051Y0365124D01*
X0319085Y0362792D01*
X0319085Y0360269D01*
X0320051Y0357938D01*
X0321458Y0356531D01*
X0320051Y0355124D01*
X0319085Y0352792D01*
X0319085Y0350269D01*
X0320051Y0347938D01*
X0321458Y0346531D01*
X0320051Y0345124D01*
X0319085Y0342792D01*
X0319085Y0340269D01*
X0320051Y0337938D01*
X0321458Y0336531D01*
X0320051Y0335124D01*
X0319085Y0332792D01*
X0319085Y0330269D01*
X0320051Y0327938D01*
X0321835Y0326153D01*
X0324167Y0325187D01*
X0333777Y0325187D01*
X0336108Y0326153D01*
X0337893Y0327938D01*
X0338858Y0330269D01*
X0338858Y0332792D01*
X0337893Y0335124D01*
X0336486Y0336531D01*
X0337893Y0337938D01*
X0338858Y0340269D01*
X0338858Y0342792D01*
X0337893Y0345124D01*
X0336486Y0346531D01*
X0337893Y0347938D01*
X0338858Y0350269D01*
X0338858Y0352792D01*
X0337893Y0355124D01*
X0336486Y0356531D01*
X0337893Y0357938D01*
X0338858Y0360269D01*
X0338858Y0362792D01*
X0337893Y0365124D01*
X0336486Y0366531D01*
X0337893Y0367938D01*
X0338858Y0370269D01*
X0338858Y0372792D01*
X0337893Y0375124D01*
X0336486Y0376531D01*
X0337893Y0377938D01*
X0338858Y0380269D01*
X0338858Y0382792D01*
X0337893Y0385124D01*
X0336108Y0386908D01*
X0333777Y0387874D01*
X0336528Y0386488D02*
X0348914Y0386488D01*
X0348390Y0384090D02*
X0338321Y0384090D01*
X0338858Y0381691D02*
X0348914Y0381691D01*
X0350826Y0379293D02*
X0338454Y0379293D01*
X0336849Y0376894D02*
X0349082Y0376894D01*
X0348390Y0374496D02*
X0338153Y0374496D01*
X0338858Y0372097D02*
X0348745Y0372097D01*
X0350420Y0369699D02*
X0338622Y0369699D01*
X0337255Y0367300D02*
X0349250Y0367300D01*
X0348390Y0364902D02*
X0337985Y0364902D01*
X0338858Y0362503D02*
X0348577Y0362503D01*
X0350014Y0360105D02*
X0338790Y0360105D01*
X0337661Y0357706D02*
X0349645Y0357706D01*
X0348425Y0355308D02*
X0337709Y0355308D01*
X0338810Y0352909D02*
X0348409Y0352909D01*
X0349608Y0350511D02*
X0338858Y0350511D01*
X0337965Y0348112D02*
X0350051Y0348112D01*
X0348593Y0345714D02*
X0337303Y0345714D01*
X0338642Y0343315D02*
X0348390Y0343315D01*
X0349234Y0340917D02*
X0338858Y0340917D01*
X0338133Y0338518D02*
X0350457Y0338518D01*
X0348761Y0336120D02*
X0336897Y0336120D01*
X0338474Y0333721D02*
X0348390Y0333721D01*
X0349066Y0331323D02*
X0338858Y0331323D01*
X0338301Y0328924D02*
X0350866Y0328924D01*
X0348929Y0326525D02*
X0336481Y0326525D01*
X0335440Y0319330D02*
X0350789Y0319330D01*
X0349097Y0316931D02*
X0336911Y0316931D01*
X0337081Y0314533D02*
X0348390Y0314533D01*
X0348730Y0312134D02*
X0336104Y0312134D01*
X0335882Y0309736D02*
X0350383Y0309736D01*
X0348980Y0307337D02*
X0337421Y0307337D01*
X0337742Y0304939D02*
X0346304Y0304939D01*
X0343906Y0302540D02*
X0337081Y0302540D01*
X0335476Y0300142D02*
X0341601Y0300142D01*
X0341120Y0297743D02*
X0337253Y0297743D01*
X0337742Y0295345D02*
X0341120Y0295345D01*
X0341120Y0292946D02*
X0337249Y0292946D01*
X0335467Y0290548D02*
X0341120Y0290548D01*
X0341120Y0288149D02*
X0314057Y0288149D01*
X0311658Y0285751D02*
X0341120Y0285751D01*
X0341120Y0283352D02*
X0309260Y0283352D01*
X0306861Y0280954D02*
X0341120Y0280954D01*
X0341120Y0278555D02*
X0304463Y0278555D01*
X0302064Y0276157D02*
X0341120Y0276157D01*
X0341120Y0273758D02*
X0301763Y0273758D01*
X0302047Y0271360D02*
X0341120Y0271360D01*
X0341120Y0268961D02*
X0302047Y0268961D01*
X0301769Y0266563D02*
X0341120Y0266563D01*
X0341120Y0264164D02*
X0302047Y0264164D01*
X0302047Y0261766D02*
X0339352Y0261766D01*
X0336953Y0259367D02*
X0333048Y0259367D01*
X0324502Y0259367D02*
X0302047Y0259367D01*
X0301285Y0256969D02*
X0316535Y0256969D01*
X0316535Y0257411D02*
X0316535Y0254248D01*
X0321215Y0254248D01*
X0321215Y0259321D01*
X0318446Y0259321D01*
X0317886Y0259171D01*
X0317385Y0258882D01*
X0316975Y0258472D01*
X0316685Y0257970D01*
X0316535Y0257411D01*
X0316535Y0254570D02*
X0301285Y0254570D01*
X0301994Y0252172D02*
X0316535Y0252172D01*
X0316535Y0250926D02*
X0316685Y0250367D01*
X0316975Y0249865D01*
X0317385Y0249455D01*
X0317886Y0249166D01*
X0318446Y0249016D01*
X0321215Y0249016D01*
X0321215Y0254089D01*
X0316535Y0254089D01*
X0316535Y0250926D01*
X0317067Y0249773D02*
X0313911Y0249773D01*
X0314006Y0247375D02*
X0364386Y0247375D01*
X0366784Y0244976D02*
X0314006Y0244976D01*
X0314006Y0246097D02*
X0309327Y0246097D01*
X0309327Y0241024D01*
X0312096Y0241024D01*
X0312655Y0241174D01*
X0313157Y0241463D01*
X0313567Y0241873D01*
X0313856Y0242374D01*
X0314006Y0242934D01*
X0314006Y0246097D01*
X0313911Y0242578D02*
X0369183Y0242578D01*
X0371581Y0240179D02*
X0302466Y0240179D01*
X0304544Y0237781D02*
X0373980Y0237781D01*
X0376378Y0235382D02*
X0306053Y0235382D01*
X0305417Y0236773D02*
X0305417Y0236773D01*
X0307148Y0232984D02*
X0378777Y0232984D01*
X0381175Y0230585D02*
X0307830Y0230585D01*
X0307640Y0231906D02*
X0307640Y0231906D01*
X0308175Y0228187D02*
X0324364Y0228187D01*
X0322847Y0225788D02*
X0308283Y0225788D01*
X0307939Y0223390D02*
X0322520Y0223390D01*
X0322520Y0220991D02*
X0307493Y0220991D01*
X0307640Y0221313D02*
X0307640Y0221313D01*
X0306398Y0218592D02*
X0322520Y0218592D01*
X0322520Y0216194D02*
X0305199Y0216194D01*
X0303121Y0213795D02*
X0322928Y0213795D01*
X0328720Y0220017D02*
X0328720Y0229917D01*
X0329101Y0229917D01*
X0330049Y0229766D01*
X0330962Y0229470D01*
X0331818Y0229034D01*
X0332594Y0228469D01*
X0333273Y0227790D01*
X0333838Y0227014D01*
X0334274Y0226158D01*
X0334570Y0225245D01*
X0334720Y0224297D01*
X0334720Y0220017D01*
X0328721Y0220017D01*
X0328720Y0220991D02*
X0328520Y0220991D01*
X0328520Y0223390D02*
X0328720Y0223390D01*
X0328720Y0225788D02*
X0328520Y0225788D01*
X0328520Y0228187D02*
X0328720Y0228187D01*
X0332877Y0228187D02*
X0343215Y0228187D01*
X0341885Y0225788D02*
X0334394Y0225788D01*
X0334720Y0223390D02*
X0341620Y0223390D01*
X0341620Y0220991D02*
X0334720Y0220991D01*
X0334720Y0218592D02*
X0341620Y0218592D01*
X0341620Y0216194D02*
X0334720Y0216194D01*
X0334313Y0213795D02*
X0341988Y0213795D01*
X0354756Y0225788D02*
X0367489Y0225788D01*
X0369370Y0228187D02*
X0353426Y0228187D01*
X0376683Y0228187D02*
X0383574Y0228187D01*
X0382489Y0225788D02*
X0378564Y0225788D01*
X0379127Y0223390D02*
X0381927Y0223390D01*
X0381927Y0220991D02*
X0379127Y0220991D01*
X0379127Y0218592D02*
X0381927Y0218592D01*
X0381927Y0216194D02*
X0379127Y0216194D01*
X0378461Y0213795D02*
X0382593Y0213795D01*
X0391222Y0232984D02*
X0392115Y0232984D01*
X0394514Y0235382D02*
X0388823Y0235382D01*
X0386425Y0237781D02*
X0396912Y0237781D01*
X0399311Y0240179D02*
X0384026Y0240179D01*
X0381628Y0242578D02*
X0401709Y0242578D01*
X0404108Y0244976D02*
X0379229Y0244976D01*
X0376831Y0247375D02*
X0406506Y0247375D01*
X0408905Y0249773D02*
X0374432Y0249773D01*
X0372034Y0252172D02*
X0411303Y0252172D01*
X0414563Y0254570D02*
X0369635Y0254570D01*
X0367237Y0256969D02*
X0435785Y0256969D01*
X0438184Y0259367D02*
X0360607Y0259367D01*
X0356603Y0268961D02*
X0447778Y0268961D01*
X0445380Y0266563D02*
X0348320Y0266563D01*
X0348320Y0268961D02*
X0351576Y0268961D01*
X0349051Y0271360D02*
X0348320Y0271360D01*
X0348320Y0273758D02*
X0348390Y0273758D01*
X0348320Y0276157D02*
X0348776Y0276157D01*
X0348320Y0278555D02*
X0350494Y0278555D01*
X0350064Y0280954D02*
X0348320Y0280954D01*
X0348320Y0283352D02*
X0349043Y0283352D01*
X0349267Y0285751D02*
X0348320Y0285751D01*
X0348320Y0288149D02*
X0351001Y0288149D01*
X0349571Y0290548D02*
X0348320Y0290548D01*
X0348320Y0292946D02*
X0348394Y0292946D01*
X0348440Y0295345D02*
X0348320Y0295345D01*
X0349291Y0297743D02*
X0349682Y0297743D01*
X0357179Y0288149D02*
X0360088Y0288149D01*
X0348320Y0264164D02*
X0442981Y0264164D01*
X0440583Y0261766D02*
X0348320Y0261766D01*
X0343861Y0249773D02*
X0333767Y0249773D01*
X0321374Y0249773D02*
X0321215Y0249773D01*
X0321215Y0252172D02*
X0321374Y0252172D01*
X0321374Y0254570D02*
X0321215Y0254570D01*
X0321215Y0256969D02*
X0321374Y0256969D01*
X0309327Y0249773D02*
X0309168Y0249773D01*
X0309168Y0247375D02*
X0309327Y0247375D01*
X0309327Y0244976D02*
X0309168Y0244976D01*
X0309168Y0242578D02*
X0309327Y0242578D01*
X0316455Y0290548D02*
X0321217Y0290548D01*
X0319435Y0292946D02*
X0318854Y0292946D01*
X0328342Y0316931D02*
X0328342Y0316931D01*
X0328342Y0319330D02*
X0328342Y0319330D01*
X0321463Y0326525D02*
X0301047Y0326525D01*
X0302868Y0328924D02*
X0319642Y0328924D01*
X0319085Y0331323D02*
X0303425Y0331323D01*
X0303041Y0333721D02*
X0319470Y0333721D01*
X0321046Y0336120D02*
X0301464Y0336120D01*
X0302700Y0338518D02*
X0319810Y0338518D01*
X0319085Y0340917D02*
X0303425Y0340917D01*
X0303209Y0343315D02*
X0319302Y0343315D01*
X0320640Y0345714D02*
X0301870Y0345714D01*
X0302532Y0348112D02*
X0319978Y0348112D01*
X0319085Y0350511D02*
X0303425Y0350511D01*
X0303377Y0352909D02*
X0319133Y0352909D01*
X0320234Y0355308D02*
X0302276Y0355308D01*
X0302228Y0357706D02*
X0320282Y0357706D01*
X0319153Y0360105D02*
X0303357Y0360105D01*
X0303425Y0362503D02*
X0319085Y0362503D01*
X0319959Y0364902D02*
X0302552Y0364902D01*
X0301822Y0367300D02*
X0320688Y0367300D01*
X0319321Y0369699D02*
X0303189Y0369699D01*
X0303425Y0372097D02*
X0319085Y0372097D01*
X0319791Y0374496D02*
X0302720Y0374496D01*
X0301416Y0376894D02*
X0321094Y0376894D01*
X0319489Y0379293D02*
X0303021Y0379293D01*
X0303425Y0381691D02*
X0319085Y0381691D01*
X0319622Y0384090D02*
X0302888Y0384090D01*
X0301095Y0386488D02*
X0321415Y0386488D01*
X0338040Y0412872D02*
X0338326Y0412872D01*
X0392157Y0388887D02*
X0397369Y0388887D01*
X0396385Y0391285D02*
X0394555Y0391285D01*
X0395490Y0386488D02*
X0391049Y0386488D01*
X0391049Y0384090D02*
X0394975Y0384090D01*
X0395490Y0381691D02*
X0391049Y0381691D01*
X0391049Y0379293D02*
X0397369Y0379293D01*
X0395659Y0376894D02*
X0391049Y0376894D01*
X0391049Y0374496D02*
X0394975Y0374496D01*
X0395322Y0372097D02*
X0391049Y0372097D01*
X0391049Y0369699D02*
X0396963Y0369699D01*
X0395827Y0367300D02*
X0391049Y0367300D01*
X0391049Y0364902D02*
X0394975Y0364902D01*
X0395154Y0362503D02*
X0391049Y0362503D01*
X0391049Y0360105D02*
X0396557Y0360105D01*
X0391049Y0357706D02*
X0409645Y0357706D01*
X0408425Y0355308D02*
X0391049Y0355308D01*
X0391049Y0352909D02*
X0408409Y0352909D01*
X0409608Y0350511D02*
X0391049Y0350511D01*
X0391049Y0348112D02*
X0410051Y0348112D01*
X0408593Y0345714D02*
X0391049Y0345714D01*
X0391049Y0343315D02*
X0408390Y0343315D01*
X0409234Y0340917D02*
X0391049Y0340917D01*
X0391049Y0338518D02*
X0410457Y0338518D01*
X0408761Y0336120D02*
X0391049Y0336120D01*
X0391049Y0333721D02*
X0408390Y0333721D01*
X0409066Y0331323D02*
X0391049Y0331323D01*
X0391049Y0328924D02*
X0410866Y0328924D01*
X0408929Y0326525D02*
X0391049Y0326525D01*
X0390546Y0324127D02*
X0408390Y0324127D01*
X0408898Y0321728D02*
X0388384Y0321728D01*
X0385986Y0319330D02*
X0410789Y0319330D01*
X0409097Y0316931D02*
X0383587Y0316931D01*
X0381189Y0314533D02*
X0408390Y0314533D01*
X0408730Y0312134D02*
X0378790Y0312134D01*
X0360866Y0328924D02*
X0357314Y0328924D01*
X0429267Y0343315D02*
X0430139Y0343315D01*
X0444339Y0343315D02*
X0466468Y0343315D01*
X0466581Y0343511D02*
X0466292Y0343010D01*
X0466142Y0342450D01*
X0466142Y0339287D01*
X0470821Y0339287D01*
X0470821Y0344361D01*
X0468052Y0344361D01*
X0467493Y0344211D01*
X0466991Y0343921D01*
X0466581Y0343511D01*
X0465887Y0344882D02*
X0468951Y0344882D01*
X0468951Y0350250D01*
X0463976Y0350250D01*
X0463976Y0346792D01*
X0464126Y0346233D01*
X0464416Y0345731D01*
X0464826Y0345321D01*
X0465327Y0345032D01*
X0465887Y0344882D01*
X0464433Y0345714D02*
X0450745Y0345714D01*
X0452439Y0348112D02*
X0463976Y0348112D01*
X0463976Y0351000D02*
X0468951Y0351000D01*
X0468951Y0356368D01*
X0465887Y0356368D01*
X0465327Y0356219D01*
X0464826Y0355929D01*
X0464416Y0355519D01*
X0464126Y0355018D01*
X0463976Y0354458D01*
X0463976Y0351000D01*
X0463976Y0352909D02*
X0451246Y0352909D01*
X0450339Y0355308D02*
X0464294Y0355308D01*
X0468951Y0355308D02*
X0469701Y0355308D01*
X0469701Y0352909D02*
X0468951Y0352909D01*
X0468951Y0350511D02*
X0452439Y0350511D01*
X0447239Y0350511D02*
X0447239Y0350511D01*
X0447239Y0352909D02*
X0447239Y0352909D01*
X0447239Y0355308D02*
X0447239Y0355308D01*
X0447239Y0357706D02*
X0447239Y0357706D01*
X0447239Y0359562D02*
X0447239Y0359562D01*
X0447239Y0359562D01*
X0447239Y0364762D01*
X0449393Y0364762D01*
X0452439Y0361716D01*
X0452439Y0359562D01*
X0447239Y0359562D01*
X0447239Y0360105D02*
X0447239Y0360105D01*
X0447239Y0362503D02*
X0447239Y0362503D01*
X0444339Y0364902D02*
X0475322Y0364902D01*
X0473164Y0367300D02*
X0444339Y0367300D01*
X0451652Y0362503D02*
X0481422Y0362503D01*
X0481422Y0360105D02*
X0452439Y0360105D01*
X0452439Y0357706D02*
X0481422Y0357706D01*
X0474641Y0355308D02*
X0474358Y0355308D01*
X0469701Y0348112D02*
X0468951Y0348112D01*
X0468951Y0345714D02*
X0469701Y0345714D01*
X0470821Y0343315D02*
X0470980Y0343315D01*
X0470980Y0340917D02*
X0470821Y0340917D01*
X0470821Y0339128D02*
X0466142Y0339128D01*
X0466142Y0335965D01*
X0466292Y0335406D01*
X0466581Y0334904D01*
X0466991Y0334495D01*
X0467493Y0334205D01*
X0468052Y0334055D01*
X0470821Y0334055D01*
X0470821Y0339128D01*
X0470821Y0338518D02*
X0470980Y0338518D01*
X0470980Y0336120D02*
X0470821Y0336120D01*
X0474623Y0333721D02*
X0452439Y0333721D01*
X0452439Y0334877D02*
X0447239Y0334877D01*
X0447239Y0334877D01*
X0447239Y0326677D01*
X0447649Y0326677D01*
X0448457Y0326805D01*
X0449235Y0327058D01*
X0449965Y0327430D01*
X0450627Y0327911D01*
X0451206Y0328490D01*
X0451687Y0329152D01*
X0452058Y0329881D01*
X0452311Y0330659D01*
X0452439Y0331468D01*
X0452439Y0334877D01*
X0452439Y0338286D01*
X0452311Y0339095D01*
X0452058Y0339873D01*
X0451687Y0340603D01*
X0451206Y0341265D01*
X0450627Y0341843D01*
X0449965Y0342325D01*
X0449235Y0342696D01*
X0448457Y0342949D01*
X0447649Y0343077D01*
X0447239Y0343077D01*
X0447239Y0334877D01*
X0447239Y0334877D01*
X0452439Y0334877D01*
X0452439Y0336120D02*
X0466142Y0336120D01*
X0466142Y0338518D02*
X0452403Y0338518D01*
X0451459Y0340917D02*
X0466142Y0340917D01*
X0474219Y0345714D02*
X0474736Y0345714D01*
X0480044Y0331323D02*
X0452416Y0331323D01*
X0451521Y0328924D02*
X0481422Y0328924D01*
X0481422Y0326525D02*
X0444339Y0326525D01*
X0444339Y0324127D02*
X0481422Y0324127D01*
X0481422Y0321728D02*
X0451088Y0321728D01*
X0452439Y0319330D02*
X0481422Y0319330D01*
X0481422Y0316931D02*
X0452439Y0316931D01*
X0452439Y0318224D02*
X0447239Y0318224D01*
X0447239Y0323424D01*
X0447239Y0318224D01*
X0447239Y0318224D01*
X0452439Y0318224D01*
X0450903Y0314533D02*
X0481422Y0314533D01*
X0481422Y0312134D02*
X0450682Y0312134D01*
X0452439Y0309736D02*
X0481422Y0309736D01*
X0481422Y0307337D02*
X0452439Y0307337D01*
X0452439Y0308224D02*
X0447239Y0308224D01*
X0447239Y0318223D01*
X0447239Y0318223D01*
X0447239Y0313024D01*
X0447239Y0308224D01*
X0447239Y0308224D01*
X0452439Y0308224D01*
X0451309Y0304939D02*
X0481422Y0304939D01*
X0481357Y0302540D02*
X0444339Y0302540D01*
X0447239Y0301739D02*
X0447239Y0293539D01*
X0447239Y0293539D01*
X0447239Y0301739D01*
X0447239Y0300142D02*
X0447239Y0300142D01*
X0447239Y0297743D02*
X0447239Y0297743D01*
X0447239Y0295345D02*
X0447239Y0295345D01*
X0447239Y0293539D02*
X0452439Y0293539D01*
X0447239Y0293539D01*
X0447239Y0293539D01*
X0447239Y0292946D02*
X0447239Y0292946D01*
X0447239Y0290548D02*
X0447239Y0290548D01*
X0447239Y0288149D02*
X0447239Y0288149D01*
X0447239Y0285751D02*
X0447239Y0285751D01*
X0445182Y0285751D02*
X0440654Y0285751D01*
X0442528Y0288149D02*
X0442621Y0288149D01*
X0449297Y0285751D02*
X0464568Y0285751D01*
X0466966Y0288149D02*
X0451858Y0288149D01*
X0452439Y0290548D02*
X0469365Y0290548D01*
X0471763Y0292946D02*
X0452439Y0292946D01*
X0452439Y0295345D02*
X0474162Y0295345D01*
X0476560Y0297743D02*
X0452313Y0297743D01*
X0450990Y0300142D02*
X0478959Y0300142D01*
X0484208Y0292946D02*
X0493063Y0292946D01*
X0493063Y0290548D02*
X0481810Y0290548D01*
X0479411Y0288149D02*
X0493063Y0288149D01*
X0493063Y0285751D02*
X0477013Y0285751D01*
X0474614Y0283352D02*
X0493063Y0283352D01*
X0493063Y0280954D02*
X0472216Y0280954D01*
X0469817Y0278555D02*
X0493063Y0278555D01*
X0493063Y0276157D02*
X0467419Y0276157D01*
X0465020Y0273758D02*
X0493063Y0273758D01*
X0493063Y0271360D02*
X0462622Y0271360D01*
X0460223Y0268961D02*
X0493063Y0268961D01*
X0493063Y0266563D02*
X0457825Y0266563D01*
X0455426Y0264164D02*
X0493063Y0264164D01*
X0493063Y0261766D02*
X0453028Y0261766D01*
X0450629Y0259367D02*
X0493063Y0259367D01*
X0493063Y0256969D02*
X0448231Y0256969D01*
X0445832Y0254570D02*
X0493063Y0254570D01*
X0493063Y0252172D02*
X0443434Y0252172D01*
X0441035Y0249773D02*
X0493063Y0249773D01*
X0493063Y0247375D02*
X0438637Y0247375D01*
X0435551Y0228187D02*
X0427865Y0228187D01*
X0429745Y0225788D02*
X0433670Y0225788D01*
X0433108Y0223390D02*
X0430308Y0223390D01*
X0430308Y0220991D02*
X0433108Y0220991D01*
X0433108Y0218592D02*
X0430308Y0218592D01*
X0430308Y0216194D02*
X0433108Y0216194D01*
X0433774Y0213795D02*
X0429642Y0213795D01*
X0418774Y0213795D02*
X0408461Y0213795D01*
X0409127Y0216194D02*
X0418108Y0216194D01*
X0418108Y0218592D02*
X0409127Y0218592D01*
X0409127Y0220991D02*
X0418108Y0220991D01*
X0418108Y0223390D02*
X0409127Y0223390D01*
X0408564Y0225788D02*
X0418670Y0225788D01*
X0420551Y0228187D02*
X0406683Y0228187D01*
X0402162Y0230585D02*
X0460350Y0230585D01*
X0460539Y0231906D02*
X0460539Y0231906D01*
X0461032Y0232984D02*
X0404560Y0232984D01*
X0406959Y0235382D02*
X0462127Y0235382D01*
X0462762Y0236773D02*
X0462762Y0236773D01*
X0463635Y0237781D02*
X0409357Y0237781D01*
X0411756Y0240179D02*
X0465713Y0240179D01*
X0469005Y0242578D02*
X0414154Y0242578D01*
X0416553Y0244976D02*
X0475078Y0244976D01*
X0470768Y0243711D02*
X0470768Y0243711D01*
X0482078Y0244976D02*
X0493063Y0244976D01*
X0493063Y0242578D02*
X0488151Y0242578D01*
X0486388Y0243711D02*
X0486388Y0243711D01*
X0490889Y0240818D02*
X0490889Y0240818D01*
X0491443Y0240179D02*
X0493063Y0240179D01*
X0460005Y0228187D02*
X0457865Y0228187D01*
X0459778Y0226609D02*
X0459778Y0226609D01*
X0459745Y0225788D02*
X0459896Y0225788D01*
X0450551Y0228187D02*
X0442865Y0228187D01*
X0444745Y0225788D02*
X0448670Y0225788D01*
X0448108Y0223390D02*
X0445308Y0223390D01*
X0445308Y0220991D02*
X0448108Y0220991D01*
X0448108Y0218592D02*
X0445308Y0218592D01*
X0445308Y0216194D02*
X0448108Y0216194D01*
X0448774Y0213795D02*
X0444642Y0213795D01*
X0433825Y0285751D02*
X0430654Y0285751D01*
X0430139Y0302540D02*
X0429759Y0302540D01*
X0447239Y0304939D02*
X0447239Y0304939D01*
X0447239Y0307337D02*
X0447239Y0307337D01*
X0447239Y0308224D02*
X0447239Y0308224D01*
X0447239Y0309736D02*
X0447239Y0309736D01*
X0447239Y0312134D02*
X0447239Y0312134D01*
X0447239Y0314533D02*
X0447239Y0314533D01*
X0447239Y0316931D02*
X0447239Y0316931D01*
X0447239Y0318224D02*
X0447239Y0318224D01*
X0447239Y0319330D02*
X0447239Y0319330D01*
X0447239Y0321728D02*
X0447239Y0321728D01*
X0447239Y0328924D02*
X0447239Y0328924D01*
X0447239Y0331323D02*
X0447239Y0331323D01*
X0447239Y0333721D02*
X0447239Y0333721D01*
X0447239Y0336120D02*
X0447239Y0336120D01*
X0447239Y0338518D02*
X0447239Y0338518D01*
X0447239Y0340917D02*
X0447239Y0340917D01*
X0447239Y0345714D02*
X0447239Y0345714D01*
X0447239Y0348112D02*
X0447239Y0348112D01*
X0490222Y0348112D02*
X0493063Y0348112D01*
X0493063Y0345714D02*
X0490222Y0345714D01*
X0490222Y0343315D02*
X0493063Y0343315D01*
X0493063Y0340917D02*
X0490222Y0340917D01*
X0490222Y0338518D02*
X0493063Y0338518D01*
X0493063Y0336120D02*
X0490222Y0336120D01*
X0490222Y0333721D02*
X0493063Y0333721D01*
X0493063Y0331323D02*
X0490222Y0331323D01*
X0490222Y0328924D02*
X0493063Y0328924D01*
X0493063Y0326525D02*
X0490222Y0326525D01*
X0490222Y0324127D02*
X0493063Y0324127D01*
X0493063Y0321728D02*
X0490222Y0321728D01*
X0490222Y0319330D02*
X0493063Y0319330D01*
X0493063Y0316931D02*
X0490222Y0316931D01*
X0490222Y0314533D02*
X0493063Y0314533D01*
X0493063Y0312134D02*
X0490222Y0312134D01*
X0490222Y0309736D02*
X0493063Y0309736D01*
X0493063Y0307337D02*
X0490222Y0307337D01*
X0490222Y0304939D02*
X0493063Y0304939D01*
X0493063Y0302540D02*
X0490222Y0302540D01*
X0490222Y0300142D02*
X0493063Y0300142D01*
X0493063Y0297743D02*
X0489005Y0297743D01*
X0486607Y0295345D02*
X0493063Y0295345D01*
X0493063Y0350511D02*
X0490222Y0350511D01*
X0490222Y0352909D02*
X0493063Y0352909D01*
X0493063Y0355308D02*
X0490222Y0355308D01*
X0490222Y0357706D02*
X0493063Y0357706D01*
X0493063Y0360105D02*
X0490222Y0360105D01*
X0490222Y0362503D02*
X0493063Y0362503D01*
X0493063Y0364902D02*
X0490222Y0364902D01*
X0490606Y0367300D02*
X0493063Y0367300D01*
X0493063Y0369699D02*
X0491285Y0369699D01*
X0490982Y0372097D02*
X0493063Y0372097D01*
X0493063Y0374496D02*
X0489469Y0374496D01*
X0490438Y0376894D02*
X0493063Y0376894D01*
X0493063Y0379293D02*
X0491285Y0379293D01*
X0491150Y0381691D02*
X0493063Y0381691D01*
X0493063Y0384090D02*
X0489875Y0384090D01*
X0489299Y0386488D02*
X0493063Y0386488D01*
X0493063Y0388887D02*
X0490553Y0388887D01*
X0490574Y0391285D02*
X0493063Y0391285D01*
X0430139Y0386488D02*
X0429590Y0386488D01*
X0281792Y0524469D02*
X0281792Y0524469D01*
X0280029Y0525602D02*
X0275117Y0525602D01*
X0275117Y0528000D02*
X0276737Y0528000D01*
X0307939Y0544790D02*
X0460241Y0544790D01*
X0460686Y0547189D02*
X0307493Y0547189D01*
X0307640Y0546867D02*
X0307640Y0546867D01*
X0306398Y0549587D02*
X0461782Y0549587D01*
X0462762Y0551734D02*
X0462762Y0551734D01*
X0462980Y0551986D02*
X0305199Y0551986D01*
X0303121Y0554384D02*
X0465059Y0554384D01*
D24*
X0462830Y0453145D02*
X0449050Y0453145D01*
X0462830Y0453145D02*
X0464602Y0451373D01*
D25*
X0447121Y0435074D02*
X0449050Y0433145D01*
X0447121Y0435074D02*
X0437239Y0435074D01*
X0437239Y0427594D02*
X0436846Y0427200D01*
X0427397Y0427200D01*
X0420507Y0434090D01*
X0414090Y0434090D01*
X0423657Y0411649D02*
X0446098Y0411649D01*
X0453578Y0419129D01*
X0467161Y0419129D01*
X0467357Y0419326D01*
X0423657Y0411649D02*
X0416098Y0404090D01*
X0414090Y0404090D01*
X0414090Y0464090D02*
X0421373Y0471373D01*
X0464602Y0471373D01*
X0460035Y0476806D02*
X0464602Y0481373D01*
X0460035Y0476806D02*
X0419720Y0476806D01*
X0417003Y0474090D01*
X0414090Y0474090D01*
X0354090Y0304090D02*
X0350546Y0304090D01*
X0344720Y0298263D01*
X0344720Y0262043D01*
X0336846Y0254169D01*
X0328775Y0254169D01*
X0336846Y0254169D02*
X0348854Y0254169D01*
D26*
X0437239Y0293539D02*
X0437239Y0402869D01*
X0330940Y0403775D02*
X0330940Y0507200D01*
D27*
X0330940Y0514995D02*
X0345704Y0529759D01*
X0378227Y0529759D01*
D28*
X0330940Y0514995D02*
X0330940Y0507200D01*
M02*
