G75*
%MOIN*%
%OFA0B0*%
%FSLAX25Y25*%
%IPPOS*%
%LPD*%
%AMOC8*
5,1,8,0,0,1.08239X$1,22.5*
%
%ADD10R,0.05524X0.05524*%
%ADD11C,0.06800*%
%ADD12OC8,0.06800*%
%ADD13R,0.05918X0.06706*%
%ADD14C,0.06600*%
%ADD15R,0.07099X0.07887*%
%ADD16C,0.12611*%
%ADD17C,0.08600*%
%ADD18C,0.07400*%
%ADD19C,0.07887*%
%ADD20R,0.06706X0.05918*%
%ADD21R,0.07887X0.07099*%
%ADD22R,0.04762X0.04762*%
D10*
X0296885Y0261885D03*
X0296885Y0270153D03*
X0439011Y0510074D03*
X0447279Y0510074D03*
X0447279Y0525822D03*
X0439011Y0525822D03*
D11*
X0461602Y0481373D02*
X0467602Y0481373D01*
X0467602Y0471373D02*
X0461602Y0471373D01*
X0461602Y0461373D02*
X0467602Y0461373D01*
X0467602Y0451373D02*
X0461602Y0451373D01*
X0452050Y0453145D02*
X0446050Y0453145D01*
X0446050Y0443145D02*
X0452050Y0443145D01*
X0452050Y0433145D02*
X0446050Y0433145D01*
X0406775Y0404090D02*
X0400775Y0404090D01*
X0400775Y0394090D02*
X0406775Y0394090D01*
X0406775Y0384090D02*
X0400775Y0384090D01*
X0400775Y0374090D02*
X0406775Y0374090D01*
X0406775Y0364090D02*
X0400775Y0364090D01*
X0427239Y0375184D02*
X0427239Y0381184D01*
X0437239Y0381184D02*
X0437239Y0375184D01*
X0447239Y0375184D02*
X0447239Y0381184D01*
X0447239Y0337877D02*
X0447239Y0331877D01*
X0437239Y0331877D02*
X0437239Y0337877D01*
X0427239Y0337877D02*
X0427239Y0331877D01*
X0427239Y0296539D02*
X0427239Y0290539D01*
X0437239Y0290539D02*
X0437239Y0296539D01*
X0447239Y0296539D02*
X0447239Y0290539D01*
X0340940Y0400775D02*
X0340940Y0406775D01*
X0330940Y0406775D02*
X0330940Y0400775D01*
X0320940Y0400775D02*
X0320940Y0406775D01*
X0320940Y0440145D02*
X0320940Y0446145D01*
X0330940Y0446145D02*
X0330940Y0440145D01*
X0340940Y0440145D02*
X0340940Y0446145D01*
X0340940Y0479515D02*
X0340940Y0485515D01*
X0330940Y0485515D02*
X0330940Y0479515D01*
X0320940Y0479515D02*
X0320940Y0485515D01*
D12*
X0320940Y0497200D03*
X0320940Y0507200D03*
X0330940Y0507200D03*
X0330940Y0497200D03*
X0340940Y0497200D03*
X0340940Y0507200D03*
X0340940Y0467830D03*
X0330940Y0467830D03*
X0320940Y0467830D03*
X0320940Y0457830D03*
X0330940Y0457830D03*
X0340940Y0457830D03*
X0340940Y0428460D03*
X0330940Y0428460D03*
X0330940Y0418460D03*
X0340940Y0418460D03*
X0320940Y0418460D03*
X0320940Y0428460D03*
X0427239Y0402869D03*
X0427239Y0392869D03*
X0437239Y0392869D03*
X0447239Y0392869D03*
X0447239Y0402869D03*
X0437239Y0402869D03*
X0453578Y0419129D03*
X0447239Y0359562D03*
X0437239Y0359562D03*
X0427239Y0359562D03*
X0427239Y0349562D03*
X0437239Y0349562D03*
X0447239Y0349562D03*
X0447239Y0318224D03*
X0437239Y0318224D03*
X0437239Y0308224D03*
X0447239Y0308224D03*
X0427239Y0308224D03*
X0427239Y0318224D03*
D13*
X0470901Y0339208D03*
X0478381Y0339208D03*
X0474838Y0419326D03*
X0467357Y0419326D03*
X0470507Y0502200D03*
X0463027Y0502200D03*
X0463027Y0517948D03*
X0470507Y0517948D03*
X0356334Y0254169D03*
X0348854Y0254169D03*
X0328775Y0254169D03*
X0321294Y0254169D03*
X0309247Y0246176D03*
X0301767Y0246176D03*
D14*
X0354090Y0274090D03*
X0354090Y0284090D03*
X0364090Y0284090D03*
X0354090Y0294090D03*
X0354090Y0304090D03*
X0364090Y0304090D03*
X0364090Y0314090D03*
X0364090Y0324090D03*
X0354090Y0324090D03*
X0354090Y0334090D03*
X0354090Y0344090D03*
X0354090Y0354090D03*
X0354090Y0364090D03*
X0354090Y0374090D03*
X0354090Y0384090D03*
X0354090Y0394090D03*
X0354090Y0404090D03*
X0354090Y0414090D03*
X0354090Y0424090D03*
X0354090Y0434090D03*
X0354090Y0444090D03*
X0354090Y0454090D03*
X0354090Y0464090D03*
X0354090Y0474090D03*
X0354090Y0484090D03*
X0354090Y0494090D03*
X0354090Y0504090D03*
X0414090Y0504090D03*
X0414090Y0494090D03*
X0414090Y0484090D03*
X0414090Y0474090D03*
X0414090Y0464090D03*
X0414090Y0454090D03*
X0414090Y0444090D03*
X0414090Y0434090D03*
X0414090Y0424090D03*
X0414090Y0414090D03*
X0414090Y0404090D03*
X0414090Y0394090D03*
X0414090Y0384090D03*
X0414090Y0374090D03*
X0414090Y0364090D03*
X0414090Y0354090D03*
X0414090Y0344090D03*
X0414090Y0334090D03*
X0414090Y0324090D03*
X0414090Y0314090D03*
X0414090Y0304090D03*
X0414090Y0294090D03*
X0414090Y0284090D03*
X0414090Y0274090D03*
X0354090Y0314090D03*
D15*
X0469326Y0350625D03*
X0480350Y0350625D03*
D16*
X0289602Y0226609D03*
X0478578Y0226609D03*
X0478578Y0541570D03*
X0289602Y0541570D03*
D17*
X0378227Y0533659D02*
X0378227Y0525859D01*
X0397927Y0525859D02*
X0397927Y0533659D01*
X0348320Y0223817D02*
X0348320Y0216017D01*
X0328620Y0216017D02*
X0328620Y0223817D01*
D18*
X0373027Y0223217D02*
X0373027Y0216617D01*
X0388027Y0216617D02*
X0388027Y0223217D01*
X0403027Y0223217D02*
X0403027Y0216617D01*
X0424208Y0216617D02*
X0424208Y0223217D01*
X0439208Y0223217D02*
X0439208Y0216617D01*
X0454208Y0216617D02*
X0454208Y0223217D01*
X0331642Y0295350D02*
X0325042Y0295350D01*
X0325042Y0305350D02*
X0331642Y0305350D01*
X0331642Y0315350D02*
X0325042Y0315350D01*
X0478585Y0370153D02*
X0485185Y0370153D01*
X0485185Y0380153D02*
X0478585Y0380153D01*
X0478585Y0390153D02*
X0485185Y0390153D01*
D19*
X0332515Y0381531D02*
X0325428Y0381531D01*
X0325428Y0371531D02*
X0332515Y0371531D01*
X0332515Y0361531D02*
X0325428Y0361531D01*
X0325428Y0351531D02*
X0332515Y0351531D01*
X0332515Y0341531D02*
X0325428Y0341531D01*
X0325428Y0331531D02*
X0332515Y0331531D01*
X0297082Y0331531D02*
X0289995Y0331531D01*
X0289995Y0341531D02*
X0297082Y0341531D01*
X0297082Y0351531D02*
X0289995Y0351531D01*
X0289995Y0361531D02*
X0297082Y0361531D01*
X0297082Y0371531D02*
X0289995Y0371531D01*
X0289995Y0381531D02*
X0297082Y0381531D01*
D20*
X0427397Y0419720D03*
X0427397Y0427200D03*
X0437239Y0427594D03*
X0437239Y0435074D03*
X0427397Y0453972D03*
X0427397Y0461452D03*
X0486452Y0460665D03*
X0486452Y0453184D03*
D21*
X0475822Y0452003D03*
X0475822Y0463027D03*
X0437239Y0464405D03*
X0437239Y0453381D03*
D22*
X0369523Y0309090D03*
X0388027Y0250231D03*
M02*
